<svg width="33" height="33" viewBox="0 0 33 33" fill="none" xmlns="http://www.w3.org/2000/svg">
<path d="M14.6556 7.49312C12.8273 7.8155 11.202 8.85097 10.1371 10.3717C9.07226 11.8925 8.65515 13.774 8.97753 15.6023L9.84577 20.5263C9.98393 21.3099 9.80517 22.1163 9.3488 22.768C8.89243 23.4198 8.19585 23.8636 7.41229 24.0017L27.1084 20.5288C26.3249 20.6669 25.5185 20.4882 24.8668 20.0318C24.215 19.5754 23.7712 18.8788 23.6331 18.0953L22.7648 13.1712C22.4425 11.3429 21.407 9.71756 19.8862 8.65271C18.3654 7.58785 16.484 7.17074 14.6556 7.49312ZM14.6556 7.49312L14.1347 4.5387M19.6587 25.9041C19.5382 26.2331 19.3333 26.5246 19.0647 26.7496C18.7961 26.9745 18.473 27.1249 18.128 27.1858C17.7829 27.2466 17.428 27.2158 17.0986 27.0963C16.7692 26.9768 16.477 26.7728 16.2512 26.5049" stroke="#7B798E" stroke-linecap="round" stroke-linejoin="round"/>
</svg>
