<svg width="41" height="41" viewBox="0 0 41 41" fill="none" xmlns="http://www.w3.org/2000/svg">
<path d="M20.4999 0.083252C9.43204 0.083252 0.083252 9.43204 0.083252 20.4999C0.083252 31.5678 9.43204 40.9166 20.4999 40.9166C31.5678 40.9166 40.9166 31.5678 40.9166 20.4999C40.9166 9.43204 31.5678 0.083252 20.4999 0.083252ZM20.4999 10.2916C24.0259 10.2916 26.6249 12.8886 26.6249 16.4166C26.6249 19.9446 24.0259 22.5416 20.4999 22.5416C16.976 22.5416 14.3749 19.9446 14.3749 16.4166C14.3749 12.8886 16.976 10.2916 20.4999 10.2916ZM10.0752 30.2428C11.9065 27.5478 14.9609 25.7511 18.4583 25.7511H22.5416C26.041 25.7511 29.0933 27.5478 30.9247 30.2428C28.3154 33.0358 24.6139 34.7916 20.4999 34.7916C16.386 34.7916 12.6844 33.0358 10.0752 30.2428Z" fill="#50CCB8"/>
</svg>
