<svg width="25" height="23" viewBox="0 0 25 23" fill="none" xmlns="http://www.w3.org/2000/svg">
<path d="M17.5863 1C15.871 1.02537 14.2762 1.8268 13.1348 3.22896L12.3789 4.15761L11.5999 3.24827C10.4434 1.89837 8.8436 1.13479 7.09007 1.13404C5.58114 1.14249 4.12262 1.79966 2.98865 3.0334L17.5863 1ZM17.5863 1H17.7131C20.9055 1 23.7725 4.05426 23.8199 8.10901C23.8275 8.88313 23.7308 9.63116 23.5362 10.3378L23.5248 10.3791L23.517 10.4213C23.3754 11.1865 22.8183 12.2687 21.6535 13.7069C20.5063 15.1233 18.8447 16.7952 16.6345 18.7357L16.6341 18.736C14.9243 20.2386 13.5776 21.3261 12.6051 21.9902C12.5969 21.9847 12.592 21.9811 12.5877 21.9779L12.5846 21.9756L12.2747 21.7452L12.2737 21.7445L12.1949 21.6858C11.3695 21.0708 9.63667 19.7796 8.47774 18.8196C6.18018 16.9073 4.47831 15.2885 3.30386 13.9079C2.11692 12.5126 1.53837 11.4403 1.36486 10.6223L1.35503 10.5759L1.34086 10.5307C1.1539 9.93417 1.04033 9.19647 1.03254 8.41626L1.03252 8.41492C1.00925 6.35904 1.73721 4.39738 2.98847 3.03359L17.5863 1Z" stroke="#F57D7D" stroke-width="2"/>
</svg>
