<svg width="26" height="26" viewBox="0 0 26 26" fill="none" xmlns="http://www.w3.org/2000/svg">
<path d="M16.0301 9.39995V4.59998C16.0301 3.6452 15.6611 2.72954 15.0042 2.05441C14.3473 1.37928 13.4564 1 12.5274 1L7.85718 11.7999V24.9998H21.0272C21.5904 25.0064 22.1369 24.8035 22.566 24.4287C22.9951 24.0538 23.2779 23.5321 23.3624 22.9599L24.9736 12.1599C25.0244 11.816 25.0018 11.4648 24.9074 11.1306C24.8131 10.7965 24.6491 10.4875 24.427 10.225C24.2049 9.96242 23.9299 9.75266 23.6211 9.61021C23.3122 9.46775 22.977 9.39601 22.6385 9.39995H16.0301Z" stroke="#30426D" stroke-width="1.5" stroke-linecap="round" stroke-linejoin="round"/>
<path d="M1 13.2856C1 12.1811 1.89543 11.2856 3 11.2856H7.85714V24.9999H3C1.89543 24.9999 1 24.1045 1 22.9999V13.2856Z" fill="#30426D" stroke="#30426D" stroke-width="1.5"/>
</svg>
