<svg width="17" height="17" viewBox="0 0 17 17" fill="none" xmlns="http://www.w3.org/2000/svg">
<path d="M14.1668 8.50033C14.1668 7.71903 13.5315 7.08366 12.7502 7.08366H12.0418V4.95866C12.0418 3.00578 10.453 1.41699 8.50016 1.41699C6.54729 1.41699 4.9585 3.00578 4.9585 4.95866V7.08366H4.25016C3.46887 7.08366 2.8335 7.71903 2.8335 8.50033V14.167C2.8335 14.9483 3.46887 15.5837 4.25016 15.5837H12.7502C13.5315 15.5837 14.1668 14.9483 14.1668 14.167V8.50033ZM6.37516 4.95866C6.37516 3.78708 7.32858 2.83366 8.50016 2.83366C9.67174 2.83366 10.6252 3.78708 10.6252 4.95866V7.08366H6.37516V4.95866Z" fill="#30426D"/>
</svg>
