<svg width="158" height="53" viewBox="0 0 158 53" fill="none" xmlns="http://www.w3.org/2000/svg">
<path d="M27.8789 33.5069V33.86H15.7196V33.5069C17.8996 33.2071 18.5561 32.6075 18.5561 30.7554V16.14C18.5561 12.444 17.1895 10.4318 14.2002 10.4318C11.6651 10.4318 10.1457 12.0334 9.43557 13.7869V30.7595C9.43557 32.6116 10.0962 33.2235 12.2762 33.511V33.8641H0.112793V33.511C2.44556 33.1619 3.4571 32.5131 3.4571 30.509V14.1359C3.4571 11.3311 2.69741 10.7316 0.112793 10.7809V10.4318L9.43557 7.92675V13.1011C10.2985 10.0992 13.2382 7.79533 17.1399 7.79533C22.1523 7.79533 24.5717 10.8999 24.5717 15.6554V30.5213C24.5717 32.5254 25.5379 33.1742 27.8747 33.5233" fill="#30426D"/>
<path d="M53.8696 33.5069V33.86H44.5468V29.4536C44.0113 30.955 43.0235 32.2557 41.718 33.1786C40.4126 34.1016 38.8528 34.6019 37.2512 34.6115C32.7096 34.6115 29.8194 32.0572 29.8194 26.4517V13.2859C29.8194 10.4318 29.1093 9.83223 26.4751 9.88151V9.53244L35.7979 7.92676V25.9959C35.7979 29.5481 37.5196 31.5521 40.3396 31.4535C41.2318 31.4398 42.1015 31.1733 42.8467 30.6852C43.5919 30.1972 44.1817 29.5078 44.5468 28.698V13.2366C44.5468 10.3825 43.9399 9.77884 41.6071 9.77884V9.47906L50.5748 7.92676V29.9382C50.5748 32.4925 51.6401 33.1907 53.8779 33.4904" fill="#30426D"/>
<path d="M71.5492 7.76248V13.6678H71.2974C70.5631 13.3551 69.7664 13.2145 68.9687 13.2571C65.6244 13.2571 63.4444 15.2078 63.4444 21.9673V30.4762C63.4444 32.5788 64.456 33.2276 67.7507 33.4781V33.8313H54.1257V33.4781C56.4585 33.129 57.4701 32.4802 57.4701 30.4762V14.4357C57.4701 11.4831 56.7104 10.7398 54.1257 10.7808V10.4318L63.2091 7.92674V18.3411H63.4114C63.8656 11.0314 66.7557 7.77891 71.1611 7.77891L71.5492 7.76248Z" fill="#30426D"/>
<path d="M90.8017 28.5009C89.6869 32.1558 87.156 34.6115 83.3038 34.6115C79.4517 34.6115 77.5772 32.2051 77.5772 28.4516V9.42977H74.2742V9.12999C76.2611 8.38983 78.081 7.26554 79.6287 5.82201C81.1764 4.37848 82.4212 2.64432 83.2914 0.71965H83.5433V8.58381H89.0139V9.43388H83.5681V27.503C83.5681 29.9669 84.5301 31.6096 86.5078 31.6096C88.4855 31.6096 89.6993 30.4105 90.4095 28.3572L90.8017 28.5009Z" fill="#30426D"/>
<path d="M118.159 33.5069V33.86H108.836V29.4536C108.301 30.9553 107.314 32.2563 106.008 33.1794C104.703 34.1024 103.143 34.6025 101.541 34.6115C96.9991 34.6115 94.109 32.0572 94.109 26.4517V13.2859C94.109 10.4318 93.3988 9.83223 90.7646 9.88151V9.53244L100.083 7.92676V25.9959C100.083 29.5481 101.809 31.5521 104.625 31.4535C105.517 31.4418 106.387 31.1771 107.133 30.6904C107.879 30.2038 108.47 29.5154 108.836 28.7062V13.2366C108.836 10.3825 108.229 9.77884 105.901 9.77884V9.47906L114.869 7.92676V29.9382C114.869 32.4925 115.93 33.1907 118.172 33.4904" fill="#30426D"/>
<path d="M135.843 7.76248V13.6678H135.591C134.857 13.3546 134.06 13.2141 133.262 13.2571C129.918 13.2571 127.738 15.2078 127.738 21.9673V30.4762C127.738 32.5788 128.754 33.2276 132.048 33.4781V33.8313H118.423V33.4781C120.756 33.129 121.768 32.4802 121.768 30.4762V14.4357C121.768 11.4831 121.008 10.7398 118.423 10.7808V10.4318L127.507 7.92674V18.3411H127.709C128.159 11.0478 131.049 7.76248 135.438 7.76248H135.843Z" fill="#30426D"/>
<path d="M140.909 17.7415H151.396C151.495 11.4338 149.369 8.97804 146.483 8.97804C143.085 8.97804 140.909 12.3824 140.909 17.7415ZM157.374 24.9486C156.136 31.8067 152.007 34.6115 147.391 34.6115C141.363 34.6115 136.346 30.1558 136.346 21.6428C136.346 13.5857 140.603 7.77892 147.647 7.77892C152.965 7.77892 157.321 11.4338 157.118 18.7928H140.909C141.264 25.7494 144.757 29.7041 149.992 29.7041C152.829 29.7041 155.516 28.9033 156.986 24.8501L157.374 24.9486Z" fill="#30426D"/>
<path d="M110.256 44.3114C110.372 44.3073 110.488 44.3283 110.595 44.373C110.702 44.4177 110.798 44.4849 110.876 44.5701C111.036 44.7478 111.122 44.9801 111.115 45.2189C111.124 45.458 111.038 45.6909 110.876 45.8677C110.799 45.9545 110.703 46.0232 110.596 46.0686C110.489 46.1141 110.373 46.1352 110.256 46.1306C110.028 46.1354 109.806 46.0497 109.641 45.8924C109.556 45.803 109.49 45.6971 109.447 45.5813C109.404 45.4654 109.386 45.3421 109.394 45.2189C109.386 45.0963 109.404 44.9735 109.446 44.8582C109.489 44.743 109.555 44.6378 109.641 44.5495C109.723 44.4709 109.819 44.4092 109.925 44.3683C110.03 44.3274 110.143 44.308 110.256 44.3114V44.3114ZM110.343 43.6871C110.018 43.6813 109.701 43.7855 109.443 43.9828V42.7796L109.365 42.7221L108.733 42.796V46.6809H109.377V46.3811C109.638 46.6255 109.985 46.7583 110.343 46.7507C110.542 46.7559 110.74 46.719 110.924 46.6426C111.107 46.5661 111.272 46.4518 111.408 46.3072C111.675 46.0069 111.823 45.6198 111.823 45.2189C111.823 44.818 111.675 44.431 111.408 44.1307C111.271 43.9863 111.105 43.8723 110.921 43.7959C110.737 43.7195 110.539 43.6824 110.339 43.6871" fill="#51CCB8"/>
<path d="M114.294 43.7652V45.0752V45.1573C114.304 45.3379 114.242 45.515 114.121 45.6501C114.059 45.7123 113.984 45.7609 113.901 45.7927C113.819 45.8246 113.73 45.8389 113.642 45.8349C113.559 45.8393 113.475 45.8258 113.398 45.7953C113.32 45.7648 113.25 45.7181 113.192 45.6583C113.134 45.5952 113.09 45.5213 113.061 45.441C113.031 45.3607 113.019 45.2754 113.023 45.1902V43.7652H112.313V45.2107C112.305 45.3752 112.331 45.5396 112.388 45.6941C112.446 45.8485 112.534 45.99 112.647 46.11C112.76 46.223 112.896 46.3116 113.045 46.3702C113.194 46.4289 113.354 46.4563 113.514 46.4509C113.665 46.4593 113.815 46.4374 113.957 46.3866C114.099 46.3358 114.229 46.2571 114.34 46.1552V46.2907C114.348 46.3951 114.331 46.4999 114.293 46.5973C114.254 46.6947 114.194 46.7822 114.117 46.8533C113.946 46.987 113.731 47.0542 113.514 47.0422C113.359 47.0482 113.204 47.0196 113.061 46.9585C112.918 46.8974 112.791 46.8054 112.688 46.6891V46.6891H112.606L112.292 47.0299V47.1079C112.443 47.276 112.629 47.4088 112.838 47.4968C113.046 47.5848 113.271 47.6259 113.498 47.6172C113.887 47.6297 114.269 47.5046 114.575 47.264C114.718 47.1309 114.829 46.9679 114.9 46.7867C114.972 46.6056 115.002 46.4109 114.988 46.2168V43.7529L114.294 43.7652Z" fill="#51CCB8"/>
<path d="M143.931 47.3502C143.826 47.3277 143.722 47.2975 143.621 47.2599C142.573 46.8739 142.036 45.6172 142.383 44.3606C142.502 43.8412 142.82 43.3885 143.27 43.0981C143.719 42.8076 144.264 42.7023 144.79 42.8042C145.834 42.9603 146.54 43.8843 146.54 45.0875C146.54 46.6275 145.393 47.6336 143.952 47.3502H143.931ZM135.921 45.7815C135.839 46.2575 135.583 46.6865 135.202 46.9853C134.82 47.2842 134.341 47.4318 133.857 47.3995C133.354 47.3857 132.873 47.1915 132.502 46.8526C132.132 46.5137 131.897 46.0531 131.842 45.5557C131.817 45.3955 131.813 45.2271 131.809 45.145C131.809 43.9623 132.37 43.1369 133.27 42.8576C133.53 42.7606 133.808 42.719 134.085 42.7354C134.363 42.7518 134.633 42.8259 134.88 42.9528C135.127 43.0797 135.344 43.2567 135.517 43.4723C135.691 43.688 135.817 43.9374 135.888 44.2046C136.019 44.7147 136.038 45.2472 135.942 45.7651L135.921 45.7815ZM142.267 41.5722C142.241 41.44 142.17 41.3208 142.065 41.2354C141.96 41.1499 141.829 41.1035 141.693 41.1041H140.397C140.321 41.103 140.245 41.1168 140.175 41.1447C140.104 41.1726 140.04 41.214 139.986 41.2666C139.931 41.3193 139.888 41.3821 139.858 41.4514C139.827 41.5207 139.811 41.5953 139.81 41.6708V42.0609C139.81 42.7139 139.81 43.2354 139.81 43.642V45.8226V46.5371C139.81 46.6011 139.798 46.6645 139.773 46.7235C139.748 46.7826 139.712 46.8362 139.666 46.8812C139.621 46.9263 139.566 46.9619 139.507 46.986C139.447 47.0101 139.383 47.0222 139.319 47.0217H139.084C138.949 47.0217 138.82 46.9692 138.725 46.8755C138.629 46.7817 138.574 46.6543 138.572 46.5207V45.0136V41.6708V41.6461C138.563 41.4987 138.498 41.3602 138.39 41.2593C138.281 41.1584 138.138 41.1028 137.99 41.1041H136.656C136.526 41.103 136.4 41.1453 136.297 41.2243C136.195 41.3032 136.122 41.4142 136.09 41.5394C134.133 40.2663 131.433 40.87 130.256 42.3977C129.785 43.0492 129.494 43.8126 129.413 44.6112C129.332 45.4098 129.463 46.2156 129.794 46.9478C129.633 47.0458 129.458 47.1165 129.274 47.1572C128.65 47.2435 128.448 47.0546 128.448 46.4386C128.448 45.6829 128.448 44.9273 128.448 44.1717C128.446 43.2902 128.092 42.4456 127.464 41.8235C126.836 41.2013 125.986 40.8525 125.099 40.8536C124.533 40.8003 123.961 40.8592 123.418 41.0269C122.874 41.1947 122.369 41.468 121.933 41.831C121.26 40.87 120.281 40.7386 119.253 40.8946C118.551 41.0014 118.493 41.0876 118.493 41.7693V42.451C118.493 42.8617 118.597 43.026 119.047 42.9767C119.695 42.9069 119.872 43.0711 119.872 43.6995C119.872 44.1101 119.872 44.5208 119.872 44.9314V45.8636C119.872 45.9376 119.872 46.0361 119.872 46.1552C119.872 46.1798 119.872 46.2004 119.872 46.225V48.4919C119.874 48.5674 119.89 48.6419 119.92 48.7113C119.95 48.7806 119.993 48.8434 120.048 48.896C120.102 48.9486 120.166 48.9901 120.237 49.018C120.307 49.0459 120.383 49.0597 120.459 49.0586H121.792C121.868 49.0597 121.944 49.0459 122.014 49.018C122.085 48.9901 122.149 48.9486 122.203 48.896C122.258 48.8434 122.301 48.7806 122.331 48.7113C122.362 48.6419 122.378 48.5674 122.379 48.4919V45.1532C122.383 45.1398 122.383 45.1255 122.379 45.1121C122.379 44.9725 122.379 44.8329 122.379 44.7015C122.354 44.2763 122.497 43.8583 122.777 43.5358C123.056 43.2132 123.451 43.0113 123.877 42.9726C125.116 42.8206 125.942 43.4941 125.942 44.7056C125.942 45.568 125.942 46.4304 125.942 47.2927C125.923 47.7081 126.048 48.1172 126.296 48.4519C126.544 48.7867 126.9 49.0269 127.304 49.1325C128.077 49.3665 128.902 49.3665 129.674 49.1325C130.146 49.0091 130.574 48.7591 130.913 48.4097C131.729 48.998 132.713 49.3093 133.721 49.2974C134.729 49.2856 135.706 48.9513 136.507 48.344C136.914 48.791 137.447 49.1048 138.037 49.2441C138.627 49.3834 139.245 49.3416 139.81 49.1243V52.2823C139.811 52.3578 139.827 52.4323 139.858 52.5017C139.888 52.571 139.931 52.6338 139.986 52.6864C140.04 52.739 140.104 52.7805 140.175 52.8084C140.245 52.8363 140.321 52.8501 140.397 52.849H141.693C141.846 52.8501 141.993 52.7911 142.102 52.685C142.211 52.5788 142.273 52.434 142.275 52.2823V48.6603C142.317 48.6603 142.341 48.689 142.341 48.6603C144.662 49.9826 147.296 49.0134 148.299 47.5227C148.881 46.6942 149.15 45.688 149.06 44.6813C148.969 43.6747 148.524 42.7323 147.803 42.0201C147.082 41.3079 146.131 40.8716 145.118 40.7882C144.106 40.7048 143.096 40.9795 142.267 41.564" fill="#51CCB8"/>
<path d="M155.273 44.4961C154.765 44.3742 154.251 44.2783 153.733 44.2087C153.283 44.1555 152.843 44.0479 152.42 43.8883C152.27 43.8528 152.137 43.7698 152.039 43.652C151.942 43.5342 151.885 43.3879 151.879 43.2354C151.884 43.1268 151.92 43.0219 151.984 42.9336C152.048 42.8454 152.136 42.7776 152.238 42.7385C152.53 42.5999 152.852 42.535 153.175 42.5496C153.508 42.5445 153.837 42.6207 154.133 42.7714C154.388 42.8893 154.592 43.0949 154.707 43.3504C154.738 43.4107 154.785 43.4612 154.844 43.4961C154.902 43.5309 154.969 43.5487 155.037 43.5475H156.689C156.924 43.5475 157.023 43.4366 156.99 43.219C156.927 42.8597 156.783 42.5193 156.568 42.2234C156.354 41.9275 156.074 41.6838 155.752 41.5106C154.955 41.0565 154.047 40.8332 153.13 40.8659C152.187 40.8207 151.252 41.066 150.454 41.5681C150.139 41.7664 149.88 42.0419 149.702 42.3684C149.524 42.6948 149.433 43.0613 149.439 43.4325C149.409 43.9839 149.601 44.5244 149.971 44.9355C150.32 45.3032 150.772 45.5591 151.268 45.6706C151.773 45.7891 152.284 45.8796 152.8 45.9416C153.241 45.9859 153.675 46.0782 154.096 46.2168C154.451 46.3455 154.629 46.5508 154.629 46.8328C154.624 46.9468 154.586 47.0569 154.519 47.1496C154.453 47.2423 154.36 47.3135 154.253 47.3543C153.943 47.4989 153.603 47.5666 153.262 47.5515C152.288 47.5515 151.683 47.2571 151.449 46.6685C151.416 46.6007 151.364 46.5433 151.3 46.5027C151.236 46.4621 151.162 46.4399 151.086 46.4386H149.435C149.191 46.4386 149.084 46.5494 149.117 46.7671C149.173 47.1577 149.317 47.5305 149.54 47.8571C149.762 48.1837 150.057 48.4556 150.401 48.652C151.264 49.1409 152.249 49.3772 153.241 49.3337C154.228 49.387 155.208 49.1422 156.053 48.6315C156.375 48.4308 156.64 48.1506 156.82 47.8181C157.001 47.4856 157.093 47.1122 157.085 46.7342C157.098 46.4632 157.057 46.1923 156.964 45.9371C156.872 45.6819 156.729 45.4476 156.544 45.2477C156.192 44.88 155.738 44.6242 155.24 44.5126" fill="#51CCB8"/>
</svg>
