<svg width="20" height="20" viewBox="0 0 20 20" fill="none" xmlns="http://www.w3.org/2000/svg">
<path d="M15 18H2V5C2 4.45 1.55 4 1 4C0.45 4 0 4.45 0 5V18C0 19.1 0.9 20 2 20H15C15.55 20 16 19.55 16 19C16 18.45 15.55 18 15 18ZM18 0H6C4.9 0 4 0.9 4 2V14C4 15.1 4.9 16 6 16H18C19.1 16 20 15.1 20 14V2C20 0.9 19.1 0 18 0ZM15.89 6.59L11.65 10.83C11.5575 10.9227 11.4476 10.9963 11.3266 11.0464C11.2057 11.0966 11.076 11.1224 10.945 11.1224C10.814 11.1224 10.6843 11.0966 10.5634 11.0464C10.4424 10.9963 10.3325 10.9227 10.24 10.83L8.12 8.71C7.93302 8.52302 7.82798 8.26943 7.82798 8.005C7.82798 7.74057 7.93302 7.48698 8.12 7.3C8.30698 7.11302 8.56057 7.00798 8.825 7.00798C9.08943 7.00798 9.34302 7.11302 9.53 7.3L10.94 8.71L14.48 5.17C14.5725 5.0773 14.6824 5.00375 14.8034 4.95357C14.9243 4.90339 15.054 4.87756 15.185 4.87756C15.316 4.87756 15.4457 4.90339 15.5666 4.95357C15.6876 5.00375 15.7975 5.0773 15.89 5.17C16.28 5.56 16.28 6.2 15.89 6.59Z" fill="#353B4F"/>
</svg>
