<svg width="200" height="119" viewBox="0 0 200 119" fill="none" xmlns="http://www.w3.org/2000/svg">
<path d="M13.8812 25.9226H9.81672V20.7471H3.82549V25.9226H0.87207V30.423H3.82549V41.6743C3.79736 45.9073 6.68046 48.003 11.0262 47.82C12.5732 47.7638 13.6702 47.4545 14.275 47.2576L13.3327 42.7992C13.0374 42.8555 12.4045 42.9963 11.8419 42.9963C10.6465 42.9963 9.81672 42.5462 9.81672 40.8866V30.423H13.8812V25.9226ZM32.6587 47.9468C39.2126 47.9468 43.291 43.4602 43.291 36.8081C43.291 30.1137 39.2126 25.6414 32.6587 25.6414C26.1051 25.6414 22.0264 30.1137 22.0264 36.8081C22.0264 43.4602 26.1051 47.9468 32.6587 47.9468ZM32.6868 43.3056C29.6631 43.3056 28.1161 40.5351 28.1161 36.766C28.1161 32.9968 29.6631 30.2121 32.6868 30.2121C35.6544 30.2121 37.2013 32.9968 37.2013 36.766C37.2013 40.5351 35.6544 43.3056 32.6868 43.3056ZM52.5334 47.5248H58.5245V40.6616L60.1419 38.8192L66.0346 47.5248H73.0526L64.6282 35.2751L72.6447 25.9226H65.7674L58.848 34.1218H58.5245V18.7219H52.5334V47.5248ZM94.7835 38.327C94.7975 41.2242 92.8146 42.743 90.6629 42.743C88.3985 42.743 86.936 41.1539 86.9219 38.6083V25.9226H80.9306V39.677C80.9447 44.726 83.8981 47.806 88.2439 47.806C91.4926 47.806 93.8272 46.1325 94.7975 43.601H95.0227V47.5248H100.775V25.9226H94.7835V38.327ZM122.404 25.9226H118.339V20.7471H112.348V25.9226H109.395V30.423H112.348V41.6743C112.32 45.9073 115.203 48.003 119.549 47.82C121.096 47.7638 122.193 47.4545 122.798 47.2576L121.855 42.7992C121.56 42.8555 120.927 42.9963 120.364 42.9963C119.169 42.9963 118.339 42.5462 118.339 40.8866V30.423H122.404V25.9226ZM141.266 47.9468C146.61 47.9468 150.21 45.3448 151.054 41.3367L145.513 40.9709C144.908 42.6165 143.361 43.4743 141.364 43.4743C138.369 43.4743 136.47 41.4913 136.47 38.2707V38.2567H151.181V36.6111C151.181 29.2697 146.737 25.6414 141.027 25.6414C134.67 25.6414 130.549 30.1559 130.549 36.8222C130.549 43.6713 134.614 47.9468 141.266 47.9468ZM136.47 34.5438C136.597 32.0826 138.467 30.1137 141.125 30.1137C143.727 30.1137 145.527 31.9701 145.541 34.5438H136.47ZM166.428 35.0361C166.442 32.2513 168.102 30.62 170.521 30.62C172.926 30.62 174.374 32.1951 174.36 34.8392V47.5248H180.352V33.7703C180.352 28.7355 177.398 25.6414 172.898 25.6414C169.691 25.6414 167.371 27.2165 166.4 29.7339H166.147V25.9226H160.437V47.5248H166.428V35.0361ZM193.922 47.8905C195.722 47.8905 197.283 46.3856 197.297 44.5151C197.283 42.6727 195.722 41.1679 193.922 41.1679C192.065 41.1679 190.533 42.6727 190.547 44.5151C190.533 46.3856 192.065 47.8905 193.922 47.8905Z" fill="#050038"/>
<path d="M45.4455 79.297L41.7326 80.8119C43.0693 83.9604 44.495 87.1386 45.8614 89.6634C43.0099 91.7723 40.9307 94.2376 40.9307 97.505C40.9307 102.614 45.4158 104.248 51.3267 104.248C55.1881 104.248 58.3366 103.951 60.8614 103.505L60.9208 99.2277C58.2772 99.8812 54.2673 100.327 51.2079 100.327C47.0792 100.327 45.0297 99.198 45.0297 97.0594C45.0297 94.9802 46.693 93.2871 49.1584 91.6535C51.8614 89.901 55.6039 88.1782 57.4455 87.2574C58.5445 86.6931 59.495 86.1881 60.3861 85.6535L58.3366 82.2079C57.5643 82.8614 56.7029 83.3663 55.5742 84.0198C54.1782 84.8218 51.594 86.099 49.1584 87.5248C47.9703 85.2376 46.5742 82.3861 45.4455 79.297ZM90.2592 81.5545L86.7839 78.4951C86.3087 79.2079 85.3582 80.1584 84.4968 81.0198C82.5067 82.9505 78.4374 86.2475 76.0909 88.1485C73.1206 90.6436 72.8829 92.2178 75.8532 94.7426C78.5562 97.0594 82.9225 100.772 84.7344 102.644C85.6255 103.535 86.4869 104.485 87.3186 105.406L90.7938 102.228C87.7641 99.2871 82.1206 94.8317 79.8928 92.9604C78.2889 91.5644 78.2592 91.2376 79.8334 89.8713C81.8235 88.1782 85.7443 85.1485 87.675 83.604C88.3582 83.0396 89.3384 82.2673 90.2592 81.5545ZM103.38 82.5347L103.766 86.604C107.211 85.8614 113.271 85.2079 116.063 84.9109C114.073 86.4258 111.667 89.8119 111.667 94.0891C111.667 100.505 117.548 103.861 123.756 104.277L125.152 100.208C120.132 99.9406 115.558 98.1584 115.558 93.2871C115.558 89.7525 118.231 85.8911 121.825 84.9406C123.4 84.5842 125.954 84.5842 127.558 84.5545L127.528 80.7525C125.449 80.8119 122.182 81.0198 119.122 81.2574C113.687 81.7327 108.786 82.1782 106.32 82.3861C105.726 82.4456 104.568 82.505 103.38 82.5347ZM152.122 80.901L147.905 79.2079C147.4 80.4555 146.835 81.4357 146.449 82.2376C144.875 85.0594 138.786 97.1782 136.588 103.119L140.776 104.545C141.221 102.97 142.261 99.6436 143.033 97.9208C144.103 95.5149 145.766 93.4357 147.786 93.4357C148.855 93.4357 149.449 94.0594 149.538 95.099C149.627 96.3169 149.598 98.7525 149.716 100.327C149.835 102.495 151.38 104.455 154.677 104.455C159.221 104.455 161.984 101.069 163.528 95.9901L160.32 93.3763C159.459 97.0594 157.885 100.386 155.301 100.386C154.32 100.386 153.489 99.9406 153.37 98.7822C153.221 97.5347 153.31 95.1584 153.251 93.8218C153.132 91.3565 151.796 89.9604 149.568 89.9604C148.439 89.9604 147.251 90.2277 146.152 90.8515C147.637 88.2376 149.716 84.4357 151.172 82.297C151.499 81.8218 151.825 81.3168 152.122 80.901Z" fill="#050038"/>
</svg>
