<svg width="24" height="24" viewBox="0 0 24 24" fill="none" xmlns="http://www.w3.org/2000/svg">
<path d="M22 17V16.5C22 15.837 21.7366 15.2011 21.2678 14.7322C20.7989 14.2634 20.163 14 19.5 14C18.837 14 18.2011 14.2634 17.7322 14.7322C17.2634 15.2011 17 15.837 17 16.5V17C16.45 17 16 17.45 16 18V22C16 22.55 16.45 23 17 23H22C22.55 23 23 22.55 23 22V18C23 17.45 22.55 17 22 17ZM21 17H18V16.5C18 15.67 18.67 15 19.5 15C20.33 15 21 15.67 21 16.5V17ZM8 8C8 5.79 9.79 4 12 4C14.21 4 16 5.79 16 8C16 10.21 14.21 12 12 12C9.79 12 8 10.21 8 8ZM14 20H4V18C4 15.79 7.58 14 12 14C13.27 14 14.46 14.15 15.53 14.41C15.32 14.82 15.15 15.25 15.07 15.71C14.42 16.26 14 17.08 14 18V20Z" fill="#353B4F"/>
</svg>
