<svg width="1178" height="263" viewBox="0 0 1178 263" fill="none" xmlns="http://www.w3.org/2000/svg">
<mask id="mask0_742_44478" style="mask-type:alpha" maskUnits="userSpaceOnUse" x="0" y="0" width="1178" height="263">
<rect width="1178" height="263" rx="14" fill="#B693C8"/>
</mask>
<g mask="url(#mask0_742_44478)">
<path d="M39.8784 67.0529C39.3536 50.1492 36.14 33.8449 30.3284 18.5792C23.9128 1.73381 15.2451 -11.1958 4.56506 -19.8655C-8.26251 -30.2702 -24.8233 -34.3793 -38.6484 -30.581C-39.328 -30.3926 -40.0076 -30.1853 -40.674 -29.9575C-55.1444 -25.0112 -65.4596 -10.8256 -64.672 3.04294C-63.9373 15.9519 -54.7628 28.3073 -37.3923 39.7536C-14.2367 55.0191 12.0397 64.8625 38.6016 68.2163L39.9248 68.3843L39.8821 67.0453L39.8784 67.0529ZM1.98348 174.396C1.66501 174.078 1.34473 173.774 1.01696 173.466C8.73893 164.993 15.4202 155.797 20.8726 146.062C31.4277 127.226 37.8835 105.523 39.527 83.3161C39.8102 79.4655 39.955 75.5557 39.9523 71.6901L39.9533 70.687L38.9647 70.5675C11.8311 67.24 -15.0006 57.248 -38.6354 41.6699C-56.6328 29.805 -66.1545 16.8602 -66.9323 3.18889C-67.7823 -11.6672 -56.7897 -26.849 -41.3672 -32.1207C-40.6672 -32.36 -39.9485 -32.5806 -39.2409 -32.7786C-24.7249 -36.7691 -7.39213 -32.4979 5.99153 -21.6441C16.9861 -12.7246 25.8883 0.532165 32.4486 17.7541C38.4258 33.4584 41.6987 50.2374 42.163 67.6318L42.1918 68.6309L43.1861 68.7297C52.4929 69.6469 61.8425 69.7598 70.9639 69.0797C83.9426 68.1025 96.7676 65.4734 109.071 61.2678C133.526 52.9085 155.031 38.6643 171.261 20.0755C183.73 5.79904 193.168 -11.4897 198.566 -29.9227C203.947 -48.2937 205.174 -67.4383 202.128 -85.3665L204.36 -85.7846C207.47 -67.515 206.223 -48.0002 200.74 -29.2811C195.25 -10.5281 185.643 7.05656 172.957 21.5823C156.459 40.4697 134.619 54.9414 109.777 63.4328C97.2947 67.6996 84.2831 70.3675 71.1212 71.3571C62.0391 72.0427 52.7306 71.9407 43.465 71.0534L42.2203 70.9336L42.2161 72.1884C42.2111 75.9376 42.066 79.7347 41.7882 83.4706C40.1157 106.02 33.5672 128.042 22.8429 147.174C17.2864 157.083 10.4822 166.452 2.61489 175.07C2.41248 174.838 2.20078 174.616 1.97597 174.392" fill="#FBF8EF"/>
<path d="M843.911 169.027C863.847 228.567 950.636 297.395 1013.78 284.158C1093.47 267.464 1140.99 150.42 1090.3 107.135C1077.52 96.2242 1055.1 92.7128 1041.29 103.513C1034 109.205 1029.52 118.589 1027.88 128.237C1026.24 137.847 1027.31 147.502 1028.92 156.973C1016.4 144.074 1003.41 130.4 985.988 126.528C951.643 118.864 924.104 162.872 940.394 196.386C955.441 227.319 991.797 239.426 1021.25 243.1C1053.88 247.178 1081.9 249.714 1114.62 245.594C1147.34 241.473 1180.18 229.423 1205.12 205.41" stroke="#FBF8EF" stroke-width="2.07" stroke-linecap="round" stroke-linejoin="round"/>
</g>
</svg>
