<svg width="213" height="179" viewBox="0 0 213 179" fill="none" xmlns="http://www.w3.org/2000/svg">
<path d="M217.894 15.0672C206.273 21.1298 200.594 34.5553 198.408 47.3827C194.122 72.5412 192.422 124.094 155.383 125.273C147.239 125.53 139.725 117.978 140.111 109.917C140.497 101.859 148.696 95.0463 156.777 96.0681C164.859 97.0924 171.067 105.732 169.396 113.626L162.728 49.0717C145.568 61.6753 123.249 67.1757 102.119 64.0042C102.442 74.0103 105.764 83.6473 108.711 93.2234C111.657 102.802 114.286 112.764 113.167 122.715C112.049 132.666 106.424 142.695 97.0461 146.434C87.6679 150.172 74.9526 145.192 72.8858 135.393C70.8212 125.592 83.746 115.726 91.8423 121.722C99.8152 127.626 96.718 136.998 91.451 143.531C81.2745 156.152 68.6731 161.726 51.7975 159.58C40.1783 158.102 29.1481 152.437 21.2331 143.884" stroke="#F57D7D" stroke-width="3" stroke-linecap="round" stroke-linejoin="round"/>
<path d="M105.474 81.7428C125.771 82.6105 148.783 80.124 164.998 68.0065" stroke="#F57D7D" stroke-width="3" stroke-linecap="round" stroke-linejoin="round"/>
</svg>
