<svg width="434" height="292" viewBox="0 0 434 292" fill="none" xmlns="http://www.w3.org/2000/svg">
<path d="M315.193 108.955C305.322 131.655 299.418 155.248 297.636 179.096C295.673 205.414 299.168 227.962 308.017 246.135C318.651 267.952 338.21 283.778 359.06 287.424C360.086 287.601 361.124 287.753 362.157 287.87C384.587 290.401 407.244 278.099 414.866 259.251C421.958 241.707 417.427 219.601 401.374 193.556C379.98 158.828 351.024 129.318 317.627 108.217L315.964 107.164L315.184 108.963L315.193 108.955ZM432.972 -9.3298C433.199 -8.71016 433.437 -8.10672 433.682 -7.49372C418.063 -1.12353 403.383 6.85521 390.008 16.3178C364.122 34.6241 341.921 59.2953 325.835 87.6531C323.048 92.5713 320.409 97.6547 317.995 102.772L317.366 104.099L318.613 104.877C352.79 126.302 382.395 156.357 404.234 191.799C420.862 218.791 425.489 241.896 417.978 260.476C409.822 280.67 385.637 293.866 361.73 291.167C360.645 291.045 359.547 290.886 358.478 290.704C336.584 286.879 316.094 270.354 304.999 247.594C295.886 228.893 292.281 205.765 294.287 178.858C296.122 154.325 302.243 130.067 312.503 106.756L313.089 105.416L311.822 104.661C299.959 97.6092 287.536 91.5947 274.922 86.7728C256.968 79.9243 238.185 75.3585 219.114 73.2061C181.206 68.9278 143.561 74.2884 110.246 88.7075C84.6545 99.7789 61.2288 116.738 42.4867 137.746C23.8056 158.683 10.191 183.249 3.04777 208.886L-0.19579 208.039C7.07493 181.91 20.9472 156.866 39.9821 135.533C59.0481 114.159 82.885 96.9148 108.922 85.649C142.781 71.0031 181.018 65.552 219.525 69.8979C238.873 72.0816 257.929 76.7133 276.136 83.6602C288.701 88.4503 301.076 94.4244 312.903 101.411L314.491 102.35L315.282 100.693C317.633 95.734 320.202 90.7999 322.91 86.0301C339.249 57.2379 361.774 32.2013 388.071 13.6095C401.694 3.98266 416.646 -4.14873 432.549 -10.6179C432.675 -10.1844 432.819 -9.7576 432.979 -9.32018" fill="#F5CF70"/>
</svg>
