<svg width="347" height="437" viewBox="0 0 347 437" fill="none" xmlns="http://www.w3.org/2000/svg">
<path d="M181.208 275.721C154.552 274.763 128.537 278.089 103.865 285.604C76.6387 293.9 55.321 306.145 40.48 321.998C22.6679 341.04 14.3426 366.607 18.7662 388.712C18.9864 389.799 19.2361 390.887 19.5197 391.958C25.6772 415.197 46.8391 432.886 68.7491 433.112C89.1433 433.319 109.614 420.218 129.575 394.154C156.196 359.41 174.635 319.195 182.896 277.848L183.309 275.788L181.197 275.714L181.208 275.721ZM345.851 346.529C345.316 346.995 344.802 347.466 344.281 347.948C331.815 334.932 318.095 323.473 303.391 313.887C274.938 295.331 241.516 282.907 206.758 277.986C200.731 277.136 194.596 276.497 188.513 276.093L186.935 275.986L186.636 277.525C178.353 319.773 159.617 360.844 132.451 396.307C111.761 423.312 90.3234 436.896 68.7248 436.676C45.2539 436.444 22.6008 417.586 16.0381 392.818C15.7402 391.694 15.4739 390.542 15.2418 389.41C10.5932 366.2 19.2606 339.439 37.8418 319.572C53.111 303.251 74.9698 290.672 102.805 282.188C128.186 274.46 154.955 271.09 182.376 272.195L183.951 272.255L184.218 270.704C186.707 256.19 187.935 241.523 187.889 227.132C187.809 206.653 185.113 186.241 179.877 166.482C169.471 127.207 149.474 91.9447 122.048 64.505C100.985 43.4242 74.8421 26.7843 46.4447 16.3673C18.1432 5.9829 -11.842 2.03782 -40.3933 4.93007L-40.8006 1.38251C-11.7048 -1.57489 18.8607 2.43995 47.6985 13.0209C76.5889 23.617 103.179 40.5538 124.609 62.0001C152.475 89.8924 172.792 125.706 183.363 165.601C188.675 185.648 191.411 206.357 191.49 227.125C191.549 241.455 190.343 256.058 187.906 270.511L187.578 272.453L189.551 272.592C195.45 272.995 201.408 273.623 207.256 274.453C242.548 279.455 276.464 292.058 305.363 310.911C320.329 320.679 334.307 332.349 346.983 345.608C346.595 345.902 346.222 346.211 345.845 346.54" fill="#FBF8EF"/>
</svg>
