<svg width="1380" height="740" viewBox="0 0 1380 740" fill="none" xmlns="http://www.w3.org/2000/svg">
<mask id="mask0_742_44599" style="mask-type:alpha" maskUnits="userSpaceOnUse" x="0" y="0" width="1380" height="740">
<rect width="1380" height="740" rx="14" fill="#30426D"/>
</mask>
<g mask="url(#mask0_742_44599)">
<path d="M1306.49 591.791C1303.23 616.481 1304.02 640.956 1308.81 664.554C1314.1 690.595 1323.57 711.495 1336.97 726.695C1353.07 744.94 1376.06 754.946 1396.97 752.795C1398 752.687 1399.03 752.551 1400.05 752.383C1422.16 748.721 1440.46 730.621 1442.61 710.277C1444.61 691.341 1434.26 671.152 1411.84 650.287C1381.95 622.463 1346.25 601.757 1308.61 590.412L1306.73 589.845L1306.48 591.801L1306.49 591.791ZM1386.79 445.047C1387.18 445.585 1387.57 446.105 1387.97 446.632C1374.78 457.064 1362.93 468.799 1352.73 481.616C1332.99 506.414 1318.5 536.377 1310.85 568.245C1309.53 573.771 1308.39 579.417 1307.48 585.035L1307.24 586.492L1308.64 586.907C1347.12 598.353 1383.58 619.41 1414.09 647.805C1437.32 669.431 1448.03 690.561 1445.91 710.616C1443.62 732.41 1424.11 751.792 1400.54 755.695C1399.47 755.872 1398.38 756.017 1397.3 756.133C1375.35 758.394 1351.28 747.965 1334.49 728.932C1320.69 713.292 1310.95 691.86 1305.54 665.237C1300.62 640.961 1299.86 615.782 1303.32 590.393L1303.51 588.934L1302.1 588.549C1288.84 584.948 1275.34 582.506 1261.98 581.272C1242.96 579.529 1223.78 580.225 1204.98 583.338C1167.6 589.526 1133.1 604.984 1105.2 628.041C1083.77 645.747 1066.01 668.57 1053.83 694.039C1041.68 719.423 1035.36 746.942 1035.52 773.736L1032.19 773.799C1032.02 746.494 1038.46 718.441 1050.83 692.577C1063.23 666.665 1081.3 643.454 1103.11 625.438C1131.46 602.013 1166.5 586.306 1204.47 580.02C1223.55 576.861 1243.01 576.155 1262.29 577.924C1275.6 579.141 1289.04 581.557 1302.24 585.104L1304.02 585.581L1304.32 583.759C1305.22 578.312 1306.33 572.83 1307.62 567.469C1315.39 535.111 1330.09 504.706 1350.15 479.519C1360.54 466.475 1372.61 454.518 1386.04 443.913C1386.28 444.299 1386.53 444.674 1386.8 445.054" fill="#FBF8EF"/>
</g>
</svg>
