<svg width="755" height="757" viewBox="0 0 755 757" fill="none" xmlns="http://www.w3.org/2000/svg">
<path d="M1323.23 37.7332C1262.8 17.9936 1200.43 -1.99822 1137.38 2.47474C1074.34 6.94769 1009.75 42.0978 991.079 101.373C972.613 160.014 1002.22 222.459 1027.79 279.291C1053.37 336.127 1075.02 404.294 1043.19 456.857C1013.91 505.19 946.511 520.814 890.94 504.827C835.369 488.839 790.352 447.763 753.79 403.204C717.228 358.645 686.734 309.271 647.152 267.285C607.564 225.296 556.054 190.159 498.557 185.871C473.686 184.021 448.492 188.1 425.744 197.673C339.109 234.125 305.483 340.362 312.519 433.749C319.559 527.145 356.517 616.588 368.458 709.584C380.406 802.583 359.5 909.602 279.921 958.999C196.645 1010.69 83.1162 978.349 1.01168 921.767" stroke="#F5CF70" stroke-width="3" stroke-miterlimit="10"/>
</svg>
