<svg width="19" height="19" viewBox="0 0 19 19" fill="none" xmlns="http://www.w3.org/2000/svg">
<path d="M9.55371 4.74219C7.05371 4.74219 5.06152 6.77344 5.06152 9.23438C5.06152 11.7344 7.05371 13.7266 9.55371 13.7266C12.0146 13.7266 14.0459 11.7344 14.0459 9.23438C14.0459 6.77344 12.0146 4.74219 9.55371 4.74219ZM9.55371 12.1641C7.95215 12.1641 6.62402 10.875 6.62402 9.23438C6.62402 7.63281 7.91309 6.34375 9.55371 6.34375C11.1553 6.34375 12.4443 7.63281 12.4443 9.23438C12.4443 10.875 11.1553 12.1641 9.55371 12.1641ZM15.2568 4.58594C15.2568 4 14.7881 3.53125 14.2021 3.53125C13.6162 3.53125 13.1475 4 13.1475 4.58594C13.1475 5.17188 13.6162 5.64062 14.2021 5.64062C14.7881 5.64062 15.2568 5.17188 15.2568 4.58594ZM18.2256 5.64062C18.1475 4.23438 17.835 2.98438 16.8193 1.96875C15.8037 0.953125 14.5537 0.640625 13.1475 0.5625C11.7021 0.484375 7.36621 0.484375 5.9209 0.5625C4.51465 0.640625 3.30371 0.953125 2.24902 1.96875C1.2334 2.98438 0.920898 4.23438 0.842773 5.64062C0.764648 7.08594 0.764648 11.4219 0.842773 12.8672C0.920898 14.2734 1.2334 15.4844 2.24902 16.5391C3.30371 17.5547 4.51465 17.8672 5.9209 17.9453C7.36621 18.0234 11.7021 18.0234 13.1475 17.9453C14.5537 17.8672 15.8037 17.5547 16.8193 16.5391C17.835 15.4844 18.1475 14.2734 18.2256 12.8672C18.3037 11.4219 18.3037 7.08594 18.2256 5.64062ZM16.3506 14.3906C16.0771 15.1719 15.4521 15.7578 14.71 16.0703C13.5381 16.5391 10.8037 16.4219 9.55371 16.4219C8.26465 16.4219 5.53027 16.5391 4.39746 16.0703C3.61621 15.7578 3.03027 15.1719 2.71777 14.3906C2.24902 13.2578 2.36621 10.5234 2.36621 9.23438C2.36621 7.98438 2.24902 5.25 2.71777 4.07812C3.03027 3.33594 3.61621 2.75 4.39746 2.4375C5.53027 1.96875 8.26465 2.08594 9.55371 2.08594C10.8037 2.08594 13.5381 1.96875 14.71 2.4375C15.4521 2.71094 16.0381 3.33594 16.3506 4.07812C16.8193 5.25 16.7021 7.98438 16.7021 9.23438C16.7021 10.5234 16.8193 13.2578 16.3506 14.3906Z" fill="#FBF8EF"/>
</svg>
