<svg width="21" height="20" viewBox="0 0 21 20" fill="none" xmlns="http://www.w3.org/2000/svg">
<path d="M20.1787 10.2344C20.1787 4.88281 15.8428 0.546875 10.4912 0.546875C5.13965 0.546875 0.803711 4.88281 0.803711 10.2344C0.803711 14.375 3.34277 17.8516 6.93652 19.2578C6.8584 18.5156 6.78027 17.3438 6.97559 16.4844C7.1709 15.7422 8.1084 11.6797 8.1084 11.6797C8.1084 11.6797 7.83496 11.0938 7.83496 10.2344C7.83496 8.90625 8.61621 7.89062 9.59277 7.89062C10.4131 7.89062 10.8037 8.51562 10.8037 9.25781C10.8037 10.0781 10.2568 11.3281 9.9834 12.5C9.78809 13.4375 10.4912 14.2188 11.4287 14.2188C13.1475 14.2188 14.4756 12.4219 14.4756 9.80469C14.4756 7.46094 12.7959 5.85938 10.4521 5.85938C7.67871 5.85938 6.07715 7.92969 6.07715 10.0391C6.07715 10.8984 6.38965 11.7969 6.78027 12.2656C6.8584 12.3438 6.8584 12.4609 6.8584 12.5391C6.78027 12.8516 6.58496 13.5156 6.58496 13.6328C6.5459 13.8281 6.42871 13.8672 6.2334 13.7891C5.02246 13.2031 4.28027 11.4453 4.28027 10C4.28027 6.95312 6.50684 4.14062 10.6865 4.14062C14.0459 4.14062 16.6631 6.5625 16.6631 9.76562C16.6631 13.0859 14.5537 15.7812 11.624 15.7812C10.6475 15.7812 9.70996 15.2734 9.39746 14.6484C9.39746 14.6484 8.92871 16.5234 8.81152 16.9531C8.57715 17.8125 7.99121 18.8672 7.60059 19.4922C8.49902 19.8047 9.47559 19.9219 10.4912 19.9219C15.8428 19.9219 20.1787 15.5859 20.1787 10.2344Z" fill="#FBF8EF"/>
</svg>
