<svg width="50" height="50" viewBox="0 0 50 50" fill="none" xmlns="http://www.w3.org/2000/svg">
<circle cx="25" cy="25" r="25" fill="#4CC4B0"/>
<path d="M19.0038 33.703C20.4511 33.6836 21.8956 33.5825 23.3333 33.4024C25.5287 33.1272 27.8249 32.6005 29.4671 30.9863C31.5711 28.9167 32.2934 25.4725 31.225 22.6204C29.6428 18.3981 24.6238 17.9964 21.3491 19.9677C19.2055 21.2576 18.5868 23.8925 19.0461 26.392C19.3731 28.1714 20.3366 29.7722 21.5794 30.955C23.3714 32.66 25.7549 33.6479 28.0743 34.0824C30.2152 34.4841 32.6395 34.8248 34.7982 34.4588C35.6499 34.3144 36.5125 34.0214 37.1462 33.3846C38.8592 31.6602 38.4067 28.8572 38.4081 26.6151C38.4108 23.5518 38.3399 20.4869 38.1969 17.4266C38.1846 17.1617 38.1601 16.8686 37.9802 16.6901C37.8562 16.5666 37.6817 16.5264 37.5168 16.4893C36.8723 16.3479 36.2086 16.2066 35.5599 16.3286C34.9113 16.4506 34.2708 16.8954 34.0786 17.5813C33.8865 18.2672 34.3225 19.142 34.9794 19.1628C35.6199 19.1836 36.1037 18.3862 35.981 17.7003C35.8584 17.0144 35.2874 16.5056 34.6741 16.3063C34.0609 16.1054 33.4041 16.1575 32.7676 16.2214C32.2771 16.2705 31.3381 16.6767 31.0301 16.1039C30.729 15.5445 30.8707 14.6221 30.8775 14.0091C30.8775 13.8886 30.8734 13.7517 30.7903 13.6714C30.7249 13.6089 30.6308 13.6015 30.5436 13.5985C27.6192 13.4735 24.6933 13.4333 21.7675 13.4795C21.5426 13.4824 21.3082 13.4899 21.1066 13.6C20.7304 13.8068 20.5819 14.3096 20.5424 14.7679C20.5028 15.2261 20.5328 15.7067 20.3598 16.1262C20.1226 16.8151 17.607 16.3851 16.9951 16.3896C16.5236 16.394 16.0371 16.394 15.6024 16.1962C15.1677 15.9983 14.7929 15.5445 14.8106 15.0312C14.8256 14.5879 15.1295 14.201 15.4975 14.0151C15.8654 13.8291 16.2878 13.8112 16.6926 13.8469C17.2431 13.896 17.8264 14.0627 18.1821 14.5239C18.5378 14.9851 18.5309 15.8034 18.0513 16.1024C17.8373 16.2363 17.5797 16.2453 17.3344 16.2467C16.0357 16.2557 14.737 16.15 13.4547 15.9328C13.0826 15.8703 12.6302 15.8302 12.4026 16.1575C12.3127 16.2869 12.2786 16.4506 12.2486 16.6098C11.8507 18.6956 11.9243 20.7637 11.8248 22.8838C11.6776 25.9858 11.2934 29.3393 11.7676 32.4383C11.8057 32.6913 11.8562 32.9487 11.9829 33.1644C12.3168 33.7357 13.0363 33.825 13.6577 33.8235C14.6307 33.822 15.6119 33.6152 16.5781 33.6628" stroke="#FBF8EF" stroke-miterlimit="10"/>
</svg>
