<svg width="87" height="87" viewBox="0 0 87 87" fill="none" xmlns="http://www.w3.org/2000/svg">
<path d="M25.8407 35.9668C23.0882 35.9685 20.4335 35.707 17.9412 36.5146C7.51684 39.893 -0.0584531 49.7456 0.000339864 61.2589C0.0271875 66.5193 1.62615 71.4074 4.34966 75.4796C4.46198 75.6475 4.84804 76.0297 4.79571 76.2247L3.08544 83.0388C2.94594 83.5592 3.42223 84.0357 3.94287 83.8962L10.9319 81.8359C11.127 81.7836 11.3341 81.8196 11.502 81.9319C15.5742 84.6554 20.4623 86.2544 25.723 86.2812C39.9888 86.354 51.006 75.4067 51.015 61.1408C51.024 46.8469 40.1347 35.9576 25.8407 35.9668Z" fill="#FEA3CE"/>
<path d="M25.7319 68.6789C24.4386 68.6179 23.4435 67.505 23.4435 66.2102C23.4435 64.8881 23.4435 62.7302 23.4435 60.9474C23.4435 59.6271 24.5077 58.5372 25.828 58.543C27.0692 58.5484 28.225 58.0543 29.0803 57.1532C29.9308 56.2577 30.3636 55.0827 30.2994 53.8448C30.1791 51.5274 28.2647 49.6755 25.941 49.6286C23.678 49.5834 21.7448 51.2304 21.4335 53.4605C21.4073 53.647 21.3931 53.8372 21.3907 54.0277C21.374 55.3502 20.3387 56.4734 19.0162 56.4898C17.6742 56.5065 16.5811 55.4236 16.5811 54.0853C16.5811 53.6535 16.6111 53.2194 16.6706 52.7949C17.3182 48.1548 21.3402 44.7255 26.0381 44.8203C30.8705 44.9176 34.8519 48.7722 35.1024 53.5957C35.2356 56.1636 34.3355 58.6032 32.568 60.4647C31.4531 61.6388 30.0487 62.4927 28.5198 62.9554C28.3623 63.003 28.2528 63.1452 28.2528 63.3097V66.277C28.2528 67.6435 27.1127 68.7439 25.7319 68.6789V68.6789Z" fill="#F5F8F9"/>
<path d="M50.6186 68.5539C56.695 48.9313 37.6008 30.029 17.9415 36.5142C18.3021 39.955 19.2092 43.3085 20.5458 46.4839C20.6069 46.629 21.7424 47.4383 22.0119 47.9935C22.4309 48.8568 22.5539 50.5098 22.7609 50.8672C24.2733 53.4774 26.0691 55.7076 28.1199 57.923C28.4189 58.2462 29.5837 58.6979 30.1688 59.2358C30.7897 59.8068 31.4984 61.044 31.7365 61.235C35.0167 63.8669 38.7296 65.9466 42.7216 67.2815C43.1274 67.4171 43.317 67.8859 43.1187 68.265C36.1517 81.5855 15.8984 85.6135 4.34999 75.4794C4.41677 75.6257 4.51685 75.8229 4.446 76.0495L2.38569 83.7386C2.24619 84.2591 2.72248 84.7355 3.24312 84.596C3.41219 84.6076 8.29728 83.2769 8.29728 83.2769C8.29728 83.2769 9.99021 82.7568 10.9768 82.6569C11.2979 82.6244 11.6181 82.7169 11.883 82.901C25.5456 92.4041 46.4483 84.4584 50.6186 68.5539V68.5539Z" fill="#FE7AB6"/>
<path d="M25.7912 77.4325C27.1193 77.4325 28.1959 76.3559 28.1959 75.0278C28.1959 73.6997 27.1193 72.623 25.7912 72.623C24.4631 72.623 23.3865 73.6997 23.3865 75.0278C23.3865 76.3559 24.4631 77.4325 25.7912 77.4325Z" fill="#F5F8F9"/>
<path d="M26.0383 44.8203C24.0111 44.7793 22.1041 45.3985 20.5454 46.4841C21.178 47.998 21.9301 49.4486 22.7605 50.8675C23.5885 50.0673 24.7087 49.6039 25.9413 49.6286C28.265 49.6755 30.1793 51.5274 30.2996 53.8448C30.3638 55.0827 29.9311 56.2576 29.0806 57.1532C28.7856 57.4638 28.477 57.7131 28.1195 57.9233C28.3294 58.1408 28.5195 58.3678 28.7353 58.5807C29.6926 59.5258 30.6991 60.4098 31.7383 61.2371C32.0308 60.9972 32.3059 60.7413 32.5684 60.4648C34.3359 58.6033 35.2358 56.1638 35.1028 53.5959C34.8522 48.7721 30.8707 44.9176 26.0383 44.8203V44.8203Z" fill="#E8EDF2"/>
<path d="M55.3786 0.00253102C62.76 0.0942889 69.5129 2.64924 74.8661 6.88318C82.2778 12.7453 86.3058 21.8263 86.2998 32.0471C86.2961 38.6448 84.1208 44.4247 80.6975 49.5188C80.5832 49.6889 80.5468 49.8991 80.5998 50.0971L83.4161 59.6047C83.5573 60.1318 83.0749 60.6142 82.5478 60.473L73.3902 57.8317C73.1922 57.7787 72.982 57.8153 72.8119 57.9295C67.718 61.3527 61.5879 63.178 54.9902 63.1817C44.7694 63.1875 35.8629 59.1933 29.8259 51.9234C25.5356 46.7569 23.0355 39.8231 22.9458 32.4354C22.7268 14.424 37.3676 -0.221256 55.3786 0.00253102V0.00253102Z" fill="#8AC9FE"/>
<path fill-rule="evenodd" clip-rule="evenodd" d="M63.9938 35.4611C63.838 35.4611 63.7082 35.3832 63.6563 35.2534H45.4568C45.3789 35.4092 45.1972 35.487 45.0414 35.4611C43.6394 35.0976 42.3673 34.3707 41.2249 33.2543C41.1211 33.1504 41.0951 33.0206 41.1471 32.8908C41.173 32.735 41.3028 32.6572 41.4326 32.6312C41.4326 32.6312 42.7048 32.3716 43.8731 31.0215C45.4049 29.2301 46.028 26.3224 45.6904 22.6098V22.5838C45.5347 19.8578 46.2876 17.4952 47.8713 15.7298C49.4809 13.9644 51.8954 12.874 54.5436 12.7441H54.5695C57.2177 12.874 59.6322 13.9644 61.2418 15.7298C62.8255 17.4952 63.5784 19.8578 63.4226 22.5838V22.6098C63.0592 26.3224 63.7082 29.2301 65.24 31.0215C66.3823 32.3456 67.6285 32.6052 67.6804 32.6312C67.7583 32.6312 67.8102 32.6831 67.8881 32.735C68.0179 32.8649 68.0179 33.1245 67.8881 33.2543C67.7583 33.3841 67.8881 33.2543 67.8622 33.2543C66.7458 34.3707 65.4736 35.0976 64.0717 35.4611C64.0457 35.4611 64.0198 35.4611 63.9938 35.4611Z" fill="#937661"/>
<path fill-rule="evenodd" clip-rule="evenodd" d="M67.5247 44.8595H41.5884C41.3807 44.8595 41.199 44.6777 41.199 44.47V41.2507C41.199 37.0968 44.5741 33.7217 48.728 33.7217H49.7665C49.8704 33.7217 49.9742 33.7736 50.0521 33.8775L52.4925 36.941L53.7647 35.6688L52.2329 34.3967C52.0771 34.2669 52.0771 34.0332 52.207 33.8515C52.3368 33.6957 52.5704 33.6957 52.7262 33.8255L54.3359 35.1756L56.1792 33.7996C56.3609 33.6698 56.5946 33.7217 56.6984 33.8775C56.8282 34.0592 56.8023 34.2928 56.6205 34.3967L54.907 35.6948L56.1792 36.941L58.5937 33.8775C58.6715 33.7736 58.7754 33.7217 58.9052 33.7217H60.3851C64.539 33.7217 67.9141 37.0968 67.9141 41.2507V44.47C67.9141 44.6777 67.7324 44.8595 67.5247 44.8595Z" fill="#DBE9EE"/>
<path fill-rule="evenodd" clip-rule="evenodd" d="M47.0405 33.9292C47.2742 33.8513 47.5338 33.8254 47.7934 33.7734V38.0572C47.7934 38.2649 47.6117 38.4207 47.404 38.4207C47.1963 38.4207 47.0405 38.2649 47.0405 38.0572V33.9292Z" fill="#33658A"/>
<path fill-rule="evenodd" clip-rule="evenodd" d="M51.7137 33.8263C51.506 33.8263 51.3242 33.6445 51.3242 33.4368V31.8791C51.3242 31.6714 51.506 31.5156 51.7137 31.5156C51.8435 31.5156 51.9733 31.5935 52.0252 31.7233H56.984C57.0619 31.6195 57.1657 31.5675 57.2955 31.5675C57.5032 31.5675 57.659 31.7233 57.659 31.931V33.4368C57.659 33.6445 57.5032 33.8263 57.2955 33.8263C57.1917 33.8263 57.1138 33.7743 57.0359 33.7224L54.2839 35.6696L54.2579 35.6955L54.232 35.6696L51.7656 33.8263C51.7396 33.8263 51.7396 33.8263 51.7137 33.8263Z" fill="#E4C095"/>
<path fill-rule="evenodd" clip-rule="evenodd" d="M61.1899 33.7734C61.4496 33.7994 61.7092 33.8513 61.9428 33.9032V39.6409C61.9428 39.8486 61.7871 40.0044 61.5794 40.0044C61.3717 40.0044 61.1899 39.8486 61.1899 39.6409V33.7734Z" fill="#33658A"/>
<path fill-rule="evenodd" clip-rule="evenodd" d="M52.4408 37.8754C52.4408 37.8754 52.4408 37.8754 52.4149 37.8754C52.311 37.8494 52.2331 37.7975 52.1552 37.7196L49.4552 34.3445C49.3773 34.2406 49.3513 34.1108 49.4032 34.007C49.4292 33.8772 49.533 33.7993 49.6369 33.7474L51.5841 33.0983C51.7139 33.0464 51.8437 33.0723 51.9475 33.1502L54.5697 35.357C54.6476 35.4349 54.6995 35.5388 54.6995 35.6426C54.6995 35.7464 54.6736 35.8503 54.5957 35.9282L52.7004 37.7715C52.6485 37.8234 52.5447 37.8754 52.4408 37.8754Z" fill="#33B9EF"/>
<path fill-rule="evenodd" clip-rule="evenodd" d="M56.2052 37.8754C56.1014 37.8754 55.9975 37.8234 55.9456 37.7715L54.0504 35.9282C53.9725 35.8503 53.9465 35.7464 53.9465 35.6166C53.9465 35.5128 54.0244 35.4089 54.1023 35.357L57.062 33.1502C57.1658 33.0723 57.3216 33.0464 57.4255 33.0983L59.0351 33.7474C59.139 33.7993 59.2169 33.9031 59.2688 34.007C59.2947 34.1368 59.2688 34.2406 59.1909 34.3445L56.4908 37.7196C56.4389 37.7975 56.3351 37.8494 56.2312 37.8754C56.2052 37.8754 56.2052 37.8754 56.2052 37.8754Z" fill="#33B9EF"/>
<path fill-rule="evenodd" clip-rule="evenodd" d="M61.6312 43.1463C60.5668 43.1463 59.6841 42.2895 59.6841 41.1991C59.6841 40.1347 60.5668 39.252 61.6312 39.252C62.7217 39.252 63.5784 40.1347 63.5784 41.1991C63.5784 42.2895 62.7217 43.1463 61.6312 43.1463Z" fill="#33658A"/>
<path fill-rule="evenodd" clip-rule="evenodd" d="M48.9618 42.0815H48.1051C47.8974 42.0815 47.7416 41.9258 47.7416 41.7181C47.7416 41.5104 47.8974 41.3286 48.1051 41.3286H48.5984V39.4853C48.5984 38.9142 48.0532 38.4209 47.4041 38.4209C46.781 38.4209 46.2358 38.9142 46.2358 39.4853V41.3286H46.7291C46.9368 41.3286 47.0926 41.5104 47.0926 41.7181C47.0926 41.9258 46.9368 42.0815 46.7291 42.0815H45.8723C45.6646 42.0815 45.4829 41.9258 45.4829 41.7181V39.4853C45.4829 38.4988 46.3656 37.668 47.4041 37.668C48.4686 37.668 49.3513 38.4988 49.3513 39.4853V41.7181C49.3513 41.9258 49.1695 42.0815 48.9618 42.0815Z" fill="#33658A"/>
<path fill-rule="evenodd" clip-rule="evenodd" d="M47.6897 22.7392C47.6897 22.6873 47.7157 22.6614 47.7157 22.6094V22.5835L47.7416 22.5575V22.5315H47.7676V22.5056V22.4796H47.7935C47.8195 22.4277 47.8455 22.4017 47.8974 22.4017V22.3758H47.9234H47.9493L47.9753 22.3498H48.0012C51.3504 21.7527 53.3495 20.5065 54.4399 19.5719C55.6082 18.5593 55.9976 17.6507 55.9976 17.6507C56.0755 17.5208 56.2053 17.417 56.3611 17.417C56.5168 17.443 56.6726 17.5468 56.6986 17.7026C57.5813 20.5844 61.0862 21.5709 61.1381 21.5709V21.5969H61.1641H61.19H61.216V21.6229H61.242L61.3199 21.7008L61.3458 21.7267V21.7527H61.3718C61.3718 21.7786 61.3977 21.8046 61.3977 21.8565V21.8825V21.9085V21.9344V26.4778C61.3977 30.0346 58.3342 32.9164 54.5437 32.9164C50.7792 32.9164 47.6897 30.0346 47.6897 26.4778V22.7392Z" fill="#FDD5A6"/>
<path fill-rule="evenodd" clip-rule="evenodd" d="M58.7232 25.6987C58.6453 25.6987 58.5414 25.6468 58.4635 25.5949C57.8404 24.9458 56.8279 24.9458 56.2048 25.5949C56.049 25.7247 55.8154 25.7247 55.6596 25.5949C55.5298 25.4391 55.5298 25.2054 55.6596 25.0497C56.5943 24.141 58.0741 24.141 59.0087 25.0497C59.1386 25.2054 59.1386 25.4391 59.0087 25.5949C58.9309 25.6468 58.827 25.6987 58.7232 25.6987Z" fill="#E4C095"/>
<path fill-rule="evenodd" clip-rule="evenodd" d="M53.1675 25.6987C53.0896 25.6987 52.9858 25.6468 52.9079 25.5949C52.2848 24.9458 51.2722 24.9458 50.6492 25.5949C50.4934 25.7247 50.2597 25.7247 50.104 25.5949C49.9741 25.4391 49.9741 25.2054 50.104 25.0497C51.0386 24.141 52.5184 24.141 53.4531 25.0497C53.5829 25.2054 53.5829 25.4391 53.4531 25.5949C53.3752 25.6468 53.2713 25.6987 53.1675 25.6987Z" fill="#E4C095"/>
<path fill-rule="evenodd" clip-rule="evenodd" d="M54.5433 29.5923C53.7644 29.5923 52.9596 29.3586 52.3365 28.9432C52.1807 28.8134 52.1288 28.5798 52.2586 28.424C52.3625 28.2423 52.5961 28.1903 52.7779 28.3202C53.7385 28.9952 55.3741 28.9952 56.3347 28.3202C56.5164 28.1903 56.7501 28.2423 56.8539 28.424C56.9838 28.5798 56.9318 28.8134 56.7761 28.9432C56.153 29.3586 55.3481 29.5923 54.5433 29.5923Z" fill="#E4C095"/>
<path d="M81.4752 50.4475C81.4221 50.2496 81.4585 50.0394 81.5729 49.8693C84.9961 44.7754 86.9964 38.6454 87.0002 32.0477C87.0061 21.8269 82.2782 12.7459 74.8664 6.88379C79.1003 12.237 81.6556 18.9901 81.7472 26.3716C81.9708 44.3829 67.3254 59.0281 49.3142 58.8043C41.9328 58.7125 35.1792 56.1578 29.8262 51.9238C35.6883 59.3355 44.7696 64.0631 54.9904 64.0571C61.5882 64.0534 67.7183 62.053 72.8122 58.6298C72.9823 58.5154 73.1925 58.4791 73.3904 58.5321L83.2481 61.1735C83.7752 61.3147 84.2576 60.8323 84.1164 60.3052L81.4752 50.4475Z" fill="#60B7FF"/>
</svg>
