<svg width="90" height="90" viewBox="0 0 90 90" fill="none" xmlns="http://www.w3.org/2000/svg">
<g clip-path="url(#clip0_5716_77592)">
<path d="M90 46.9336C90 70.7186 70.7186 90 46.9336 90C23.1486 90 3.86719 70.7186 3.86719 46.9336C3.86719 23.1486 23.1486 3.86719 46.9336 3.86719C70.7186 3.86719 90 23.1486 90 46.9336Z" fill="#00C1FB"/>
<path d="M78.6167 49.0083C78.6167 68.4246 62.8767 84.1646 43.4604 84.1646C24.0442 84.1646 8.3042 68.4246 8.3042 49.0083C8.3042 29.592 24.0442 13.8521 43.4604 13.8521C62.8767 13.8521 78.6167 29.592 78.6167 49.0083Z" fill="#00D1FC"/>
<path d="M9.99703 33.7686H1.75781C0.786973 33.7686 0 32.9817 0 32.0108V1.75781C0 0.786973 0.786973 0 1.75781 0H9.99703C10.9679 0 11.7548 0.786973 11.7548 1.75781V32.0108C11.7548 32.9817 10.9679 33.7686 9.99703 33.7686Z" fill="#FFB509"/>
<path d="M46.1771 33.7686H7.45215C6.48131 33.7686 5.69434 32.9817 5.69434 32.0108V1.75781C5.69434 0.786973 6.48131 0 7.45215 0H46.1771C47.148 0 47.9349 0.786973 47.9349 1.75781V32.0108C47.9349 32.9817 47.148 33.7686 46.1771 33.7686Z" fill="#FFC143"/>
<path d="M37.7906 26.9145H31.604C30.6332 26.9145 29.8462 26.1276 29.8462 25.1567V10.688C29.8462 9.71715 30.6332 8.93018 31.604 8.93018H37.7906C38.7615 8.93018 39.5484 9.71715 39.5484 10.688V25.1567C39.5484 26.1276 38.7615 26.9145 37.7906 26.9145Z" fill="#FF3980"/>
<path d="M64.8588 26.9145H37.0945C36.1236 26.9145 35.3367 26.1276 35.3367 25.1567V10.688C35.3367 9.71715 36.1236 8.93018 37.0945 8.93018H64.8588C65.8296 8.93018 66.6166 9.71715 66.6166 10.688V25.1567C66.6166 26.1276 65.8296 26.9145 64.8588 26.9145Z" fill="#FF5E95"/>
<path d="M16.305 70.7861H9.98413C9.01329 70.7861 8.22632 69.9992 8.22632 69.0283V23.3252C8.22632 22.3544 9.01329 21.5674 9.98413 21.5674H16.305C17.2759 21.5674 18.0629 22.3544 18.0629 23.3252V69.0283C18.0629 69.9992 17.2759 70.7861 16.305 70.7861Z" fill="#C9F0FF"/>
<path d="M82.0544 23.3252V69.0283C82.0544 69.9992 81.2674 70.7861 80.2966 70.7861H63.7935V82.0534C63.7935 82.8363 62.847 83.2285 62.2932 82.6749L50.4045 70.7861H15.0835C14.1127 70.7861 13.3257 69.9992 13.3257 69.0283V23.3252C13.3257 22.3544 14.1127 21.5674 15.0835 21.5674H80.2966C81.2674 21.5674 82.0544 22.3544 82.0544 23.3252Z" fill="#FFF5F5"/>
<path d="M73.4318 45.8789C73.4318 46.8497 72.6448 47.6367 71.674 47.6367H55.5264C54.5555 47.6367 53.7686 46.8497 53.7686 45.8789C53.7686 44.9081 54.5555 44.1211 55.5264 44.1211H71.674C72.6448 44.1211 73.4318 44.9081 73.4318 45.8789ZM55.5264 54.668H75.5392C76.5101 54.668 77.2971 53.881 77.2971 52.9102C77.2971 51.9393 76.5101 51.1523 75.5392 51.1523H55.5264C54.5555 51.1523 53.7686 51.9393 53.7686 52.9102C53.7686 53.881 54.5555 54.668 55.5264 54.668ZM66.0732 58.1836H55.5264C54.5555 58.1836 53.7686 58.9706 53.7686 59.9414C53.7686 60.9122 54.5555 61.6992 55.5264 61.6992H66.0732C67.0441 61.6992 67.8311 60.9122 67.8311 59.9414C67.8311 58.9706 67.0441 58.1836 66.0732 58.1836Z" fill="#83BFFF"/>
<path d="M46.3715 31.8164V52.061H17.5488V31.8164H46.3715Z" fill="#0055CA"/>
<path d="M22.2923 31.8164V52.061H17.5488V31.8164H22.2923Z" fill="#00429C"/>
<path d="M46.3715 45.8789V50.3031H17.5488L22.2923 45.8789H46.3715Z" fill="#0396FD"/>
<path d="M22.2923 45.8789V50.3031H17.5488V45.8789H22.2923Z" fill="#0066ED"/>
<path d="M47.69 31.8164V49.3945L47.6312 49.4413H45.0533V33.1348H18.8672V49.4413H16.3859L16.2305 49.3945V31.8164C16.2305 31.0883 16.8206 30.498 17.5488 30.498H46.3717C47.0998 30.498 47.69 31.0883 47.69 31.8164Z" fill="#003278"/>
<path d="M37.1245 52.2508V58.7907H26.7956V52.2508H37.1245ZM22.5138 52.0312V49.3945H16.2305V52.0312C16.2305 53.4874 17.411 54.668 18.8672 54.668H25.1505C23.6941 54.668 22.5138 53.4874 22.5138 52.0312Z" fill="#64DCFC"/>
<path d="M47.6902 49.3945V52.0312C47.6902 53.4874 46.65 54.668 45.3668 54.668H24.6158C23.3326 54.668 22.2925 53.4874 22.2925 52.0312V49.3945H47.6902Z" fill="#9AE7FD"/>
<path d="M39.9125 58.1836H24.0079C23.0604 58.1836 22.2922 58.9518 22.2922 59.8992V61.6992H41.6282V59.8992C41.6283 58.9518 40.8602 58.1836 39.9125 58.1836Z" fill="#00D1FC"/>
<path d="M90 18.848C90 22.4483 88.9903 25.8129 87.239 28.6741C86.9834 29.0916 86.6315 29.4435 86.2142 29.6989C83.353 31.4504 79.9884 32.4599 76.388 32.4599C66.0132 32.4599 57.5399 23.9868 57.54 13.612C57.54 10.013 58.5488 6.64963 60.2989 3.78932C60.5557 3.36955 60.9096 3.0157 61.3294 2.75889C64.1897 1.00881 67.5531 2.73491e-09 71.152 2.73491e-09C81.5268 -0.000175779 90 8.47318 90 18.848Z" fill="#0066ED"/>
<path d="M87.4155 28.3797C84.1416 33.9537 78.0838 37.6955 71.1522 37.6955C60.7428 37.6955 52.3044 29.257 52.3044 18.8478C52.3044 11.916 56.0463 5.8584 61.6203 2.58447C59.9776 5.38098 59.0358 8.63873 59.0358 12.1164C59.0358 22.5258 67.4744 30.9642 77.8836 30.9642C81.3613 30.9644 84.6188 30.0223 87.4155 28.3797Z" fill="#0055CA"/>
<path d="M69.6477 9.20324C69.6477 8.37232 70.3213 7.69873 71.1522 7.69873C71.9831 7.69873 72.6567 8.37232 72.6567 9.20324C72.6567 10.0342 71.9831 10.7078 71.1522 10.7078C70.3213 10.7078 69.6477 10.0342 69.6477 9.20324ZM71.152 13.8757C70.4238 13.8757 69.8337 14.466 69.8337 15.194V28.5088C69.8337 29.2369 70.4238 29.8271 71.152 29.8271C71.8803 29.8271 72.4704 29.2369 72.4704 28.5088V15.194C72.4704 14.466 71.8803 13.8757 71.152 13.8757Z" fill="#FFF5F5"/>
</g>
<defs>
<clipPath id="clip0_5716_77592">
<rect width="90" height="90" fill="white"/>
</clipPath>
</defs>
</svg>
