<svg width="104" height="104" viewBox="0 0 104 104" fill="none" xmlns="http://www.w3.org/2000/svg">
<path d="M98.7273 32.4509L98.6025 68.9657C98.6025 69.3267 98.4569 69.5931 98.2281 69.7073L96.9177 70.4108C96.9593 70.3913 96.9801 70.3347 97.0217 70.2966C96.7929 70.5055 96.4601 70.563 96.0441 70.3532L96.3145 70.5055C96.7097 70.7152 96.8553 71.0002 96.8136 71.2656C96.8345 71.247 96.8553 71.2276 96.8553 71.1904V74.0222C96.8553 74.2505 96.6473 74.4974 96.3145 74.6877L61.7657 93.0304C61.0793 93.41 59.8936 93.41 59.1865 93.0304L5.81364 64.8605C5.43926 64.6888 5.27295 64.4225 5.27295 64.1756V61.3624C5.27295 61.4199 5.29364 61.458 5.31446 61.496C5.23131 61.2111 5.37692 60.9067 5.81364 60.6783L40.3417 42.3356C41.0282 41.9745 42.1305 41.9745 42.8584 42.3161L42.5882 42.1833C41.8809 41.8028 41.2984 40.8904 41.2984 40.1303L41.4232 3.635C41.4232 3.25446 41.5688 2.98809 41.7977 2.87392C41.8184 2.85536 41.8601 2.85536 41.8809 2.83587C41.8809 2.83587 41.9017 2.81731 41.9225 2.81731C41.9225 2.81731 41.9432 2.81731 41.9641 2.79782L43.1497 2.15183C43.3577 2.03767 43.6905 2.05716 44.0441 2.2465L97.4377 30.3978C98.1657 30.7784 98.7273 31.6907 98.7273 32.4509Z" fill="#E4E8F4"/>
<path d="M34.684 24.4105C32.2296 27.1095 30.6488 29.7519 29.6296 32.0518L33.1865 33.9341L30.9609 45.6045L22.5161 50.0716L14.0921 45.6045L11.8457 33.9527V33.9341L14.5288 32.5085C13.8009 31.7669 12.9896 30.9492 12.0744 30.0563C12.0744 30.0563 14.3417 29.9802 16.9001 31.2536L17.9609 30.7023C16.7129 28.5546 14.924 26.1591 12.4073 23.6884C12.4073 23.6884 16.0473 25.7219 19.3129 29.9802L19.604 29.8085L19.8121 29.7139C17.8153 23.3654 14.7577 16.009 10.3896 11.8843C11.6169 12.9108 18.1481 18.6894 22.6617 27.5847C22.5577 20.723 21.5384 11.6941 17.8984 2.60852C18.2313 2.95008 23.4105 8.55788 25.6361 18.8602C26.5929 14.9063 27.1961 10.7436 26.9673 6.80927C27.1544 8.57645 27.6329 14.4506 27.0296 21.407C29.1305 16.7886 32.084 14.0506 32.3544 13.8037C30.2953 17.6434 29.1721 21.0655 28.5688 23.9353C31.8969 19.4876 36.1192 17.8717 36.1192 17.8717C32.3961 21.5787 30.3369 26.1971 29.2136 30.2076C31.7096 26.5777 34.4136 24.6007 34.684 24.4105Z" fill="#E4E8F4"/>
<path d="M94.3386 92.0606L93.2779 91.5093C93.5899 91.0155 93.7979 90.4837 93.7979 89.989C93.7979 89.0581 93.0699 88.6775 92.1755 89.1527C91.6971 89.3996 91.3019 89.8182 91.0107 90.312L90.6155 90.1031C90.9275 89.6084 91.1355 89.0766 91.1147 88.5829C91.1147 87.651 90.3867 87.2714 89.5132 87.7466C89.0347 87.974 88.6395 88.4111 88.3484 88.9058L87.9323 88.697C88.2651 88.2023 88.4732 87.6705 88.4523 87.1758C88.4523 86.2449 87.7243 85.8643 86.8299 86.3395C86.3723 86.5679 85.9771 87.005 85.6859 87.4988L85.2699 87.29C85.6027 86.7962 85.7899 86.2634 85.7899 85.7697C85.7899 84.8378 85.0619 84.4573 84.1675 84.9139C83.6267 85.2184 83.1484 85.7502 82.8571 86.3395C82.6491 86.3581 82.4411 86.3971 82.2747 86.4723L68.0059 94.057C67.7979 94.1712 67.6938 94.3039 67.7147 94.4561L67.6938 95.7861C67.6938 95.9198 67.7979 96.072 68.0059 96.1667L78.5932 101.755C79.0091 101.983 79.6538 101.964 80.0491 101.755L94.3179 94.1712C94.5259 94.0756 94.6299 93.9243 94.6299 93.7906V92.4597C94.6299 92.3084 94.5259 92.1747 94.3386 92.0606ZM83.7307 86.4723C83.6059 86.3971 83.4186 86.3776 83.2523 86.3581C83.4603 85.959 83.7932 85.5794 84.1675 85.3706C84.8332 85.0281 85.3738 85.2945 85.3738 85.9971C85.3738 86.3581 85.2075 86.7572 84.9786 87.1192L83.7307 86.4723ZM85.9771 87.651C86.1851 87.29 86.4971 86.967 86.8299 86.7767C87.4955 86.4342 88.0363 86.7006 88.0363 87.4041C88.0363 87.7652 87.8699 88.1643 87.6411 88.5253L85.9771 87.651ZM88.6395 89.0581C88.8475 88.697 89.1595 88.3731 89.5132 88.1828C90.1579 87.8413 90.6986 88.1262 90.6986 88.8102C90.6986 89.1722 90.5532 89.5713 90.3034 89.9324L88.6395 89.0581ZM91.3019 90.4642C91.5307 90.1031 91.8219 89.7802 92.1755 89.5899C92.8203 89.2483 93.3611 89.5333 93.3611 90.2173C93.3611 90.5784 93.2155 90.9775 92.9659 91.3385L91.3019 90.4642Z" fill="#E4E8F4"/>
<path d="M96.8452 71.1924V74.0133C96.8452 74.2558 96.6558 74.4975 96.3149 74.6885L61.7705 93.0337C61.0697 93.4148 59.8955 93.4148 59.1948 93.0337L5.80622 64.8576C5.44638 64.6843 5.27588 64.4249 5.27588 64.1824V61.3615C5.27588 61.604 5.46534 61.8634 5.80622 62.0367L59.1948 90.2128C59.9145 90.5939 61.0697 90.5939 61.7705 90.2128L96.3149 71.8668C96.6747 71.6766 96.8452 71.4341 96.8452 71.1924Z" fill="#BAC1CE"/>
<path d="M96.3093 70.5036C97.0227 70.88 97.0263 71.4926 96.3172 71.8691L61.7792 90.2115C61.0708 90.5877 59.9136 90.5878 59.2001 90.2114L5.81485 62.0444C5.10142 61.668 5.09781 61.0555 5.80627 60.6792L40.3443 42.3369C41.0534 41.9603 42.2106 41.9602 42.924 42.3366L96.3093 70.5036Z" fill="#E4E8F4"/>
<path d="M98.726 32.445L98.6124 68.9638C98.6124 69.3272 98.4609 69.5867 98.2336 69.7075L96.908 70.4174C97.1353 70.2957 97.2678 70.0362 97.2867 69.6729L97.4003 33.154C97.4003 32.4103 96.8132 31.4926 96.0935 31.1123L42.7239 2.95308C42.364 2.76293 42.0232 2.74518 41.7959 2.86603L43.1406 2.157C43.3679 2.03531 43.6898 2.05306 44.0496 2.2432L97.4382 30.4024C98.1579 30.7827 98.726 31.7005 98.726 32.445Z" fill="#E4E8F4"/>
<path d="M96.1018 31.1195C96.8152 31.4959 97.3937 32.4118 97.3914 33.1613L97.2781 69.6667C97.2758 70.4155 96.6935 70.719 95.9801 70.3426L42.5948 42.1756C41.8814 41.7992 41.3029 40.8833 41.3052 40.1345L41.4184 3.62908C41.4208 2.87957 42.0031 2.57615 42.7164 2.95254L96.1018 31.1195Z" fill="#474B59"/>
<path d="M44.1455 39.9967L44.2491 6.75897L94.5498 33.2981L94.4463 66.5363L44.1455 39.9967Z" fill="#FED57A"/>
<path d="M44.1455 39.9968L44.1514 37.4556L94.4522 63.9947L94.4463 66.5363L44.1455 39.9968Z" fill="#363A44"/>
<path d="M44.1455 37.4719L44.1514 36.7238L94.4522 63.263L94.4463 64.0115L44.1455 37.4719Z" fill="#BAC1CE"/>
<path d="M70.5562 50.6555L44.1514 36.7242L44.1455 37.4721L70.5562 51.4068V50.6555Z" fill="#E63044"/>
<path d="M41.8797 53.597C42.1207 53.7242 42.1218 53.9179 41.8824 54.0451L39.4425 55.3409C39.2031 55.468 38.8371 55.468 38.5961 55.3409L36.1405 54.0453C35.8995 53.9181 35.8984 53.7244 36.1377 53.5973L38.5777 52.3014C38.8171 52.1743 39.1831 52.1743 39.4241 52.3014L41.8797 53.597Z" fill="#474B59"/>
<path d="M44.5185 51.2602C44.7595 51.3874 44.7495 51.587 44.5212 51.7082L42.0701 53.01C41.8425 53.1308 41.4765 53.1309 41.2355 53.0037L38.7799 51.7081C38.5504 51.587 38.5378 51.3872 38.7654 51.2663L41.2165 49.9646C41.4447 49.8434 41.8334 49.8435 42.0629 49.9646L44.5185 51.2602Z" fill="#474B59"/>
<path d="M40.9843 49.3955C41.2253 49.5227 41.2153 49.7223 40.9871 49.8435L38.536 51.1453C38.3084 51.2661 37.9423 51.2662 37.7013 51.139L33.4557 48.899C33.2262 48.7779 33.2136 48.578 33.4412 48.4572L35.8923 47.1554C36.1205 47.0342 36.5092 47.0343 36.7387 47.1554L40.9843 49.3955Z" fill="#474B59"/>
<path d="M28.5583 54.136C28.7878 54.2571 28.8004 54.4569 28.5721 54.5781L25.8136 56.0431C25.5854 56.1643 25.1967 56.1642 24.9673 56.0431L22.5002 54.7414C22.2707 54.6203 22.2692 54.4146 22.4974 54.2934L25.2559 52.8284C25.4842 52.7072 25.8617 52.7132 26.0912 52.8343L28.5583 54.136Z" fill="#474B59"/>
<path d="M49.9231 50.3822C50.1641 50.5093 50.1535 50.7093 49.9259 50.8302L47.4748 52.1319C47.2465 52.2531 46.8805 52.2532 46.6395 52.126L44.1839 50.8304C43.9429 50.7033 43.9418 50.5095 44.17 50.3883L46.6211 49.0866C46.8488 48.9657 47.2266 48.9594 47.4675 49.0865L49.9231 50.3822Z" fill="#474B59"/>
<path d="M53.5266 52.2832C53.7561 52.4043 53.7569 52.6104 53.5293 52.7312L51.0782 54.033C50.85 54.1542 50.4725 54.1481 50.2429 54.0271L47.7759 52.7254C47.5464 52.6043 47.5452 52.4105 47.7735 52.2893L50.2246 50.9876C50.4522 50.8667 50.83 50.8605 51.0595 50.9815L53.5266 52.2832Z" fill="#474B59"/>
<path d="M87.6408 74.0122C87.8818 74.1393 87.8718 74.339 87.6436 74.4602L85.1925 75.762C84.9649 75.8828 84.5988 75.8828 84.3579 75.7557L81.9023 74.4601C81.6613 74.333 81.6601 74.1392 81.8877 74.0183L84.3389 72.7166C84.5671 72.5954 84.9443 72.5894 85.1853 72.7166L87.6408 74.0122Z" fill="#474B59"/>
<path d="M93.4776 70.9124C93.7185 71.0396 93.7197 71.2333 93.4803 71.3604L92.3404 71.9658C92.1011 72.0929 91.735 72.093 91.494 71.9658L89.0384 70.6702C88.7975 70.5431 88.7963 70.3493 89.0357 70.2222L90.1756 69.6168C90.4149 69.4897 90.781 69.4897 91.022 69.6168L93.4776 70.9124Z" fill="#474B59"/>
<path d="M71.1245 59.1187C71.354 59.2398 71.3666 59.4396 71.1273 59.5667L69.9874 60.1721C69.748 60.2992 69.3705 60.2932 69.141 60.1721L66.6739 58.8704C66.4444 58.7493 66.4433 58.5556 66.6826 58.4285L67.8225 57.8231C68.0619 57.696 68.4279 57.6959 68.6574 57.817L71.1245 59.1187Z" fill="#474B59"/>
<path d="M74.8534 61.0863C75.0829 61.2074 75.0955 61.4072 74.8562 61.5343L73.7163 62.1397C73.4769 62.2668 73.0994 62.2608 72.8699 62.1397L70.4028 60.838C70.1733 60.717 70.1607 60.5171 70.4001 60.39L71.54 59.7847C71.7793 59.6575 72.1569 59.6636 72.3863 59.7846L74.8534 61.0863Z" fill="#474B59"/>
<path d="M62.4533 60.7231C62.6828 60.8441 62.6728 61.0438 62.4446 61.165L59.9935 62.4668C59.7658 62.5876 59.3998 62.5877 59.1703 62.4666L56.7032 61.1649C56.4737 61.0438 56.4611 60.844 56.6887 60.7231L59.1398 59.4214C59.3681 59.3002 59.7567 59.3003 59.9862 59.4214L62.4533 60.7231Z" fill="#474B59"/>
<path d="M71.5183 61.7763C71.7593 61.9034 71.7487 62.1034 71.5211 62.2243L69.07 63.5261C68.8418 63.6473 68.4757 63.6473 68.2347 63.5201L65.7791 62.2245C65.5382 62.0974 65.537 61.9036 65.7652 61.7824L68.2164 60.4807C68.444 60.3598 68.8218 60.3535 69.0627 60.4807L71.5183 61.7763Z" fill="#474B59"/>
<path d="M78.5713 63.0479C78.8123 63.175 78.8134 63.3688 78.5741 63.4959L77.4342 64.1013C77.1948 64.2284 76.8288 64.2285 76.5878 64.1013L74.1322 62.8057C73.8912 62.6786 73.8901 62.4848 74.1294 62.3577L75.2693 61.7523C75.5087 61.6252 75.8747 61.6252 76.1157 61.7523L78.5713 63.0479Z" fill="#474B59"/>
<path d="M66.0451 62.618C66.2861 62.7452 66.2761 62.9449 66.0479 63.0661L63.5968 64.3678C63.3692 64.4887 63.0031 64.4887 62.7621 64.3616L60.3066 63.0659C60.0656 62.9388 60.0644 62.745 60.292 62.6242L62.7432 61.3224C62.9714 61.2012 63.3486 61.1953 63.5896 61.3224L66.0451 62.618Z" fill="#474B59"/>
<path d="M59.803 63.0538C60.044 63.181 60.0451 63.3747 59.8058 63.5019L57.3658 64.7977C57.1264 64.9248 56.7604 64.9248 56.5194 64.7977L54.0638 63.5021C53.8229 63.3749 53.8217 63.1812 54.0611 63.054L56.5011 61.7582C56.7404 61.6311 57.1065 61.6311 57.3475 61.7582L59.803 63.0538Z" fill="#474B59"/>
<path d="M75.1218 63.6773C75.3513 63.7984 75.3522 64.0045 75.1245 64.1254L72.6734 65.4271C72.4452 65.5483 72.0677 65.5423 71.8382 65.4212L69.3711 64.1195C69.1416 63.9984 69.129 63.7986 69.3572 63.6774L71.8083 62.3757C72.036 62.2548 72.4252 62.2546 72.6547 62.3757L75.1218 63.6773Z" fill="#474B59"/>
<path d="M82.3008 65.0156C82.5418 65.1427 82.5429 65.3365 82.3035 65.4636L81.1636 66.069C80.9243 66.1961 80.5582 66.1961 80.3172 66.069L77.8502 64.7673C77.6207 64.6462 77.6195 64.4525 77.8589 64.3253L78.9988 63.72C79.2382 63.5928 79.6042 63.5928 79.8337 63.7139L82.3008 65.0156Z" fill="#474B59"/>
<path d="M69.6481 64.5191C69.8776 64.6402 69.8791 64.8459 69.6509 64.9671L67.1998 66.2688C66.9721 66.3897 66.5946 66.3837 66.3651 66.2626L63.8981 64.9609C63.6686 64.8398 63.6559 64.64 63.8835 64.5191L66.3347 63.2174C66.5629 63.0962 66.9516 63.0963 67.1811 63.2174L69.6481 64.5191Z" fill="#474B59"/>
<path d="M63.406 64.9549C63.6355 65.076 63.6481 65.2758 63.4087 65.4029L60.9687 66.6987C60.7294 66.8258 60.3518 66.8198 60.1224 66.6987L57.6553 65.3971C57.4258 65.276 57.4132 65.0761 57.6525 64.949L60.0925 63.6532C60.3319 63.5261 60.7094 63.5321 60.9389 63.6532L63.406 64.9549Z" fill="#474B59"/>
<path d="M78.7248 65.5784C78.9543 65.6995 78.9552 65.9055 78.7276 66.0264L76.2765 67.3281C76.0482 67.4493 75.6707 67.4433 75.4412 67.3222L72.9741 66.0206C72.7446 65.8995 72.732 65.6996 72.9603 65.5784L75.4114 64.2767C75.639 64.1558 76.0283 64.1556 76.2578 64.2767L78.7248 65.5784Z" fill="#474B59"/>
<path d="M58.2642 65.8512C58.4937 65.9723 58.4952 66.178 58.267 66.2992L55.8165 67.6006C55.5883 67.7218 55.2107 67.7158 54.9812 67.5947L52.5142 66.293C52.2847 66.172 52.2721 65.9721 52.5003 65.8509L54.9508 64.5495C55.179 64.4283 55.5677 64.4284 55.7972 64.5495L58.2642 65.8512Z" fill="#474B59"/>
<path d="M86.0302 66.9832C86.2597 67.1043 86.2723 67.3041 86.0329 67.4312L84.8931 68.0366C84.6537 68.1637 84.2761 68.1577 84.0467 68.0366L81.5796 66.7349C81.3501 66.6138 81.3375 66.414 81.5768 66.2869L82.7167 65.6815C82.9561 65.5544 83.3336 65.5604 83.5631 65.6815L86.0302 66.9832Z" fill="#474B59"/>
<path d="M73.251 66.4201C73.4805 66.5412 73.4819 66.747 73.2537 66.8682L70.8026 68.1699C70.575 68.2908 70.1975 68.2847 69.968 68.1637L67.5009 66.862C67.2599 66.7349 67.2588 66.5411 67.4864 66.4202L69.9375 65.1185C70.1657 64.9973 70.5429 64.9913 70.7839 65.1185L73.251 66.4201Z" fill="#474B59"/>
<path d="M67.009 66.8559C67.2385 66.977 67.2511 67.1768 67.0117 67.3039L64.5718 68.5998C64.3324 68.7269 63.9549 68.7208 63.7254 68.5998L61.2583 67.2981C61.0288 67.177 61.0162 66.9772 61.2556 66.8501L63.6955 65.5542C63.9349 65.4271 64.3124 65.4332 64.5419 65.5542L67.009 66.8559Z" fill="#474B59"/>
<path d="M82.3162 67.4734C82.5572 67.6005 82.5465 67.8005 82.3189 67.9214L79.8678 69.2231C79.6396 69.3443 79.2736 69.3444 79.0326 69.2172L76.577 67.9216C76.336 67.7945 76.3349 67.6007 76.5631 67.4795L79.0142 66.1778C79.2418 66.0569 79.6196 66.0506 79.8606 66.1778L82.3162 67.4734Z" fill="#474B59"/>
<path d="M61.8556 67.7462C62.0966 67.8733 62.0866 68.073 61.8584 68.1942L59.4079 69.4956C59.1797 69.6168 58.8136 69.6168 58.5726 69.4897L56.117 68.1941C55.876 68.0669 55.8749 67.8732 56.1031 67.752L58.5536 66.4506C58.7819 66.3294 59.159 66.3234 59.4 66.4506L61.8556 67.7462Z" fill="#474B59"/>
<path d="M89.7595 68.9508C89.9891 69.0719 89.9902 69.2657 89.7508 69.3928L88.6109 69.9982C88.3716 70.1253 88.0055 70.1253 87.776 70.0042L85.3089 68.7026C85.068 68.5754 85.0668 68.3817 85.3062 68.2546L86.4461 67.6492C86.6855 67.5221 87.0515 67.522 87.2925 67.6492L89.7595 68.9508Z" fill="#474B59"/>
<path d="M76.8425 68.3151C77.0835 68.4423 77.0735 68.6419 76.8453 68.7631L74.3941 70.0649C74.1665 70.1857 73.8005 70.1858 73.5595 70.0586L71.1039 68.763C70.8629 68.6359 70.8618 68.4421 71.0894 68.3212L73.5405 67.0195C73.7688 66.8983 74.1459 66.8924 74.3869 67.0195L76.8425 68.3151Z" fill="#474B59"/>
<path d="M70.6009 68.7509C70.8419 68.878 70.843 69.0718 70.6036 69.1989L68.1637 70.4947C67.9243 70.6218 67.5583 70.6219 67.3173 70.4947L64.8617 69.1991C64.6207 69.072 64.6196 68.8782 64.8589 68.7511L67.2989 67.4553C67.5383 67.3282 67.9043 67.3281 68.1453 67.4553L70.6009 68.7509Z" fill="#474B59"/>
<path d="M85.8503 69.3381C86.0798 69.4592 86.0807 69.6652 85.8531 69.7861L83.4019 71.0878C83.1737 71.209 82.7962 71.203 82.5667 71.0819L80.0996 69.7803C79.8701 69.6592 79.8575 69.4594 80.0858 69.3381L82.5369 68.0364C82.7645 67.9155 83.1537 67.9153 83.3833 68.0364L85.8503 69.3381Z" fill="#474B59"/>
<path d="M65.4591 69.6472C65.6885 69.7683 65.69 69.974 65.4618 70.0953L63.0113 71.3966C62.7831 71.5179 62.4055 71.5118 62.1761 71.3908L59.709 70.0891C59.4795 69.968 59.4784 69.7742 59.7066 69.653L62.1571 68.3516C62.3853 68.2304 62.7625 68.2245 62.992 68.3456L65.4591 69.6472Z" fill="#474B59"/>
<path d="M80.446 70.2162C80.6755 70.3372 80.6769 70.543 80.4487 70.6642L77.9976 71.9659C77.77 72.0868 77.3925 72.0808 77.163 71.9597L74.6959 70.658C74.4664 70.5369 74.4538 70.3371 74.6814 70.2162L77.1325 68.9145C77.3607 68.7933 77.7494 68.7934 77.9789 68.9145L80.446 70.2162Z" fill="#474B59"/>
<path d="M74.2039 70.6519C74.4334 70.773 74.446 70.9728 74.2066 71.1L71.7667 72.3958C71.5273 72.5229 71.1498 72.5169 70.9203 72.3958L68.4532 71.0941C68.2237 70.973 68.2226 70.7793 68.4619 70.6522L70.9019 69.3563C71.1413 69.2292 71.5073 69.2292 71.7368 69.3503L74.2039 70.6519Z" fill="#474B59"/>
<path d="M69.0621 71.5483C69.2916 71.6694 69.2816 71.869 69.0534 71.9902L66.6029 73.2916C66.3746 73.4128 66.0086 73.4129 65.7791 73.2918L63.312 71.9901C63.0825 71.869 63.0699 71.6692 63.2982 71.548L65.7486 70.2466C65.9769 70.1254 66.3655 70.1255 66.595 70.2466L69.0621 71.5483Z" fill="#474B59"/>
<path d="M84.0375 72.1111C84.2785 72.2383 84.2685 72.4379 84.0403 72.5592L81.5892 73.8609C81.3615 73.9818 80.9955 73.9818 80.7545 73.8547L78.2989 72.559C78.0694 72.438 78.0568 72.2381 78.2844 72.1173L80.7356 70.8155C80.9638 70.6943 81.3524 70.6944 81.5819 70.8155L84.0375 72.1111Z" fill="#474B59"/>
<path d="M62.4772 72.0324C62.7067 72.1535 62.7193 72.3533 62.4911 72.4745L59.7326 73.9395C59.5044 74.0607 59.1157 74.0606 58.8862 73.9395L55.6388 72.2262C55.4094 72.1051 55.4079 71.8993 55.6361 71.7781L58.3946 70.3132C58.6228 70.1919 59.0004 70.198 59.2298 70.3191L62.4772 72.0324Z" fill="#474B59"/>
<path d="M77.8068 72.553C78.0364 72.6741 78.0489 72.8739 77.8096 73.001L75.3696 74.2968C75.1302 74.4239 74.7527 74.4179 74.5232 74.2968L72.0562 72.9952C71.8267 72.8741 71.814 72.6742 72.0534 72.5471L74.4934 71.2513C74.7327 71.1242 75.1103 71.1302 75.3398 71.2513L77.8068 72.553Z" fill="#474B59"/>
<path d="M72.6535 73.4433C72.883 73.5643 72.8844 73.7701 72.6562 73.8913L70.2057 75.1927C69.9775 75.3139 69.6 75.3079 69.3705 75.1868L66.9149 73.8912C66.6739 73.764 66.6728 73.5703 66.901 73.4491L69.3515 72.1477C69.5797 72.0265 69.9569 72.0205 70.1979 72.1476L72.6535 73.4433Z" fill="#474B59"/>
<path d="M66.2527 74.0243C66.4937 74.1514 66.4949 74.3452 66.2666 74.4664L63.5081 75.9314C63.2799 76.0526 62.9027 76.0585 62.6617 75.9314L60.1373 74.5994C59.8963 74.4723 59.9063 74.2726 60.1346 74.1514L62.8931 72.6864C63.1213 72.5652 63.4873 72.5652 63.7283 72.6923L66.2527 74.0243Z" fill="#474B59"/>
<path d="M84.072 75.8586C84.3015 75.9797 84.3026 76.1735 84.0633 76.3006L81.6233 77.5964C81.3839 77.7235 81.0179 77.7236 80.7884 77.6025L75.6821 74.9083C75.4526 74.7872 75.44 74.5874 75.6794 74.4603L78.1194 73.1645C78.3587 73.0374 78.7362 73.0434 78.9657 73.1645L84.072 75.8586Z" fill="#474B59"/>
<path d="M68.2822 76.761C68.5117 76.882 68.5243 77.0819 68.2967 77.2027L67.111 77.8324C66.8828 77.9536 66.4941 77.9535 66.2646 77.8324L63.7287 76.4944C63.4992 76.3733 63.4977 76.1676 63.7259 76.0464L64.9116 75.4167C65.1392 75.2958 65.5167 75.3019 65.7462 75.423L68.2822 76.761Z" fill="#474B59"/>
<path d="M80.5489 77.7296C80.7785 77.8507 80.7796 78.0444 80.5402 78.1715L78.1009 79.467C77.8615 79.5941 77.4955 79.5942 77.2659 79.4731L70.3926 75.8466C70.1631 75.7255 70.1505 75.5257 70.3898 75.3986L72.8292 74.1031C73.0685 73.9759 73.4461 73.982 73.6756 74.1031L80.5489 77.7296Z" fill="#474B59"/>
<path d="M73.4586 77.8264C73.6881 77.9474 73.7008 78.1473 73.4725 78.2685L70.714 79.7335C70.4858 79.8547 70.0971 79.8545 69.8676 79.7335L67.3317 78.3955C67.1022 78.2744 67.1008 78.0687 67.329 77.9474L70.0875 76.4825C70.3157 76.3613 70.6932 76.3673 70.9227 76.4884L73.4586 77.8264Z" fill="#474B59"/>
<path d="M75.523 80.5812C75.764 80.7083 75.7652 80.9021 75.5375 81.023L74.3519 81.6527C74.1237 81.7739 73.7465 81.7798 73.5055 81.6527L70.981 80.3207C70.7401 80.1936 70.7501 79.9939 70.9783 79.8727L72.164 79.243C72.3916 79.1222 72.7576 79.1221 72.9986 79.2493L75.523 80.5812Z" fill="#474B59"/>
<path d="M59.9481 53.2218C60.1777 53.3429 60.1903 53.5427 59.9509 53.6698L58.811 54.2752C58.5717 54.4023 58.1941 54.3963 57.9646 54.2752L55.4975 52.9735C55.2681 52.8525 55.2554 52.6526 55.4948 52.5255L56.6347 51.9202C56.8741 51.793 57.2516 51.7991 57.4811 51.9201L59.9481 53.2218Z" fill="#474B59"/>
<path d="M57.1296 54.1842C57.3591 54.3053 57.36 54.5114 57.1324 54.6323L54.6812 55.934C54.453 56.0552 54.0755 56.0492 53.846 55.9281L51.3789 54.6264C51.1494 54.5053 51.1368 54.3055 51.365 54.1843L53.8162 52.8826C54.0438 52.7617 54.433 52.7615 54.6625 52.8826L57.1296 54.1842Z" fill="#474B59"/>
<path d="M63.6662 55.1834C63.9072 55.3106 63.9083 55.5043 63.6689 55.6314L62.529 56.2368C62.2897 56.3639 61.9236 56.364 61.6826 56.2368L59.2271 54.9412C58.9975 54.8201 58.9849 54.6203 59.2243 54.4932L60.3642 53.8878C60.6036 53.7607 60.9811 53.7667 61.2106 53.8878L63.6662 55.1834Z" fill="#474B59"/>
<path d="M60.721 56.0792C60.9619 56.2064 60.9513 56.4064 60.7237 56.5272L58.2726 57.829C58.0444 57.9502 57.6783 57.9502 57.4374 57.8231L54.9818 56.5275C54.7408 56.4003 54.7397 56.2065 54.9679 56.0853L57.419 54.7836C57.6466 54.6627 58.0244 54.6565 58.2654 54.7836L60.721 56.0792Z" fill="#474B59"/>
<path d="M67.3955 57.151C67.6365 57.2782 67.6376 57.4719 67.3983 57.5991L66.2584 58.2044C66.019 58.3315 65.653 58.3316 65.412 58.2044L62.9564 56.9088C62.7154 56.7817 62.7143 56.5879 62.9537 56.4608L64.0935 55.8554C64.3329 55.7283 64.699 55.7283 64.9399 55.8554L67.3955 57.151Z" fill="#474B59"/>
<path d="M64.3244 57.9803C64.5539 58.1013 64.5548 58.3074 64.3272 58.4283L61.8761 59.73C61.6478 59.8512 61.2703 59.8452 61.0408 59.7241L58.5737 58.4224C58.3443 58.3014 58.3316 58.1015 58.5599 57.9803L61.011 56.6786C61.2386 56.5577 61.6279 56.5575 61.8574 56.6786L64.3244 57.9803Z" fill="#474B59"/>
<path d="M67.9275 59.8813C68.157 60.0024 68.1463 60.2024 67.9187 60.3233L65.4676 61.625C65.2394 61.7462 64.8733 61.7463 64.6438 61.6252L62.1768 60.3235C61.9473 60.2024 61.9347 60.0026 62.1629 59.8814L64.614 58.5797C64.8416 58.4588 65.2309 58.4586 65.4604 58.5796L67.9275 59.8813Z" fill="#474B59"/>
<path d="M51.6559 55.026C51.8854 55.1471 51.8869 55.3528 51.6587 55.474L49.2076 56.7757C48.98 56.8966 48.6024 56.8906 48.3729 56.7695L45.9059 55.4678C45.6764 55.3467 45.6638 55.1469 45.8914 55.026L48.3425 53.7243C48.5707 53.6031 48.9594 53.6032 49.1889 53.7243L51.6559 55.026Z" fill="#474B59"/>
<path d="M55.2473 56.921C55.4883 57.0481 55.4783 57.2478 55.25 57.369L52.7989 58.6707C52.5713 58.7916 52.2053 58.7916 51.9643 58.6645L49.5087 57.3689C49.2677 57.2417 49.2666 57.048 49.4942 56.9271L51.9453 55.6253C52.1735 55.5041 52.5507 55.4982 52.7917 55.6253L55.2473 56.921Z" fill="#474B59"/>
<path d="M45.4138 55.4617C45.6433 55.5828 45.6559 55.7826 45.4165 55.9098L42.9765 57.2056C42.7372 57.3327 42.3597 57.3267 42.1302 57.2056L39.6631 55.9039C39.4336 55.7828 39.421 55.583 39.6603 55.4559L42.1003 54.1601C42.3397 54.033 42.7172 54.039 42.9467 54.1601L45.4138 55.4617Z" fill="#474B59"/>
<path d="M36.4175 54.4448C36.6584 54.572 36.6596 54.7658 36.4202 54.8929L33.9809 56.1884C33.7415 56.3155 33.3754 56.3155 33.1345 56.1884L26.5594 52.7193C26.3185 52.5921 26.3173 52.3984 26.5567 52.2712L28.996 50.9758C29.2354 50.8486 29.6015 50.8486 29.8424 50.9757L36.4175 54.4448Z" fill="#474B59"/>
<path d="M32.1385 56.0249C32.3795 56.1521 32.3806 56.3458 32.1524 56.467L29.3939 57.932C29.1656 58.0532 28.7885 58.0592 28.5475 57.932L26.0919 56.6364C25.8509 56.5093 25.8609 56.3096 26.0891 56.1884L28.8476 54.7234C29.0759 54.6022 29.4419 54.6022 29.6829 54.7293L32.1385 56.0249Z" fill="#474B59"/>
<path d="M40.2609 56.352C40.5019 56.4792 40.4919 56.6789 40.2636 56.8001L37.8131 58.1015C37.5849 58.2227 37.2189 58.2227 36.9779 58.0956L34.5223 56.7999C34.2813 56.6728 34.2802 56.479 34.5084 56.3578L36.9589 55.0564C37.1871 54.9352 37.5643 54.9293 37.8053 55.0564L40.2609 56.352Z" fill="#474B59"/>
<path d="M35.7301 57.9199C35.9596 58.041 35.9722 58.2408 35.744 58.362L32.9855 59.827C32.7573 59.9482 32.3686 59.9481 32.1391 59.827L29.672 58.5253C29.4426 58.4043 29.4411 58.1985 29.6693 58.0773L32.4278 56.6123C32.656 56.4911 33.0336 56.4972 33.263 56.6182L35.7301 57.9199Z" fill="#474B59"/>
<path d="M43.8638 58.2531C44.0933 58.3742 44.0948 58.5799 43.8666 58.7011L41.4161 60.0025C41.1879 60.1237 40.8104 60.1177 40.5809 59.9966L38.1138 58.6949C37.8843 58.5738 37.8831 58.3801 38.1114 58.2589L40.5619 56.9575C40.7901 56.8363 41.1673 56.8303 41.3968 56.9514L43.8638 58.2531Z" fill="#474B59"/>
<path d="M40.0907 60.2205C40.3316 60.3477 40.3328 60.5414 40.1045 60.6626L37.346 62.1276C37.1178 62.2488 36.7406 62.2548 36.4996 62.1276L33.2638 60.4203C33.0228 60.2932 33.0328 60.0935 33.261 59.9723L36.0195 58.5073C36.2477 58.3861 36.6138 58.3861 36.8548 58.5132L40.0907 60.2205Z" fill="#474B59"/>
<path d="M38.3225 51.7202C38.552 51.8413 38.5531 52.0351 38.3138 52.1622L35.8738 53.458C35.6344 53.5851 35.2684 53.5852 35.0389 53.4641L29.9326 50.7699C29.7031 50.6488 29.6905 50.449 29.9299 50.3219L32.3698 49.0261C32.6092 48.899 32.9867 48.905 33.2162 49.0261L38.3225 51.7202Z" fill="#474B59"/>
<path d="M46.3318 48.4872C46.5613 48.6082 46.5621 48.8143 46.3345 48.9352L43.8834 50.2369C43.6552 50.3581 43.2776 50.3521 43.0482 50.231L40.5811 48.9293C40.3516 48.8083 40.339 48.6084 40.5672 48.4872L43.0183 47.1855C43.2459 47.0646 43.6352 47.0644 43.8647 47.1855L46.3318 48.4872Z" fill="#474B59"/>
<path d="M45.0424 45.3573C45.2719 45.4784 45.2845 45.6782 45.0451 45.8053L43.9052 46.4107C43.6659 46.5378 43.2884 46.5318 43.0589 46.4107L40.5918 45.109C40.3623 44.988 40.3497 44.7881 40.589 44.661L41.7289 44.0556C41.9683 43.9285 42.3458 43.9346 42.5753 44.0556L45.0424 45.3573Z" fill="#474B59"/>
<path d="M48.7719 47.325C49.0014 47.446 49.014 47.6459 48.7746 47.773L47.6347 48.3784C47.3954 48.5055 47.0179 48.4994 46.7884 48.3784L44.3213 47.0767C44.0918 46.9556 44.0792 46.7558 44.3185 46.6287L45.4584 46.0233C45.6978 45.8962 46.0753 45.9022 46.3048 46.0233L48.7719 47.325Z" fill="#474B59"/>
<path d="M42.7287 46.5861C42.9582 46.7072 42.9591 46.9133 42.7315 47.0341L40.2804 48.3359C40.0521 48.4571 39.6746 48.4511 39.4451 48.33L36.9781 47.0283C36.7486 46.9072 36.7359 46.7074 36.9642 46.5862L39.4153 45.2845C39.6429 45.1636 40.0322 45.1634 40.2617 45.2845L42.7287 46.5861Z" fill="#474B59"/>
<path d="M56.2187 51.2542C56.4482 51.3753 56.4609 51.5751 56.2215 51.7022L55.0816 52.3076C54.8422 52.4347 54.4647 52.4287 54.2352 52.3076L51.7681 51.0059C51.5387 50.8848 51.5375 50.6911 51.7769 50.564L52.9168 49.9586C53.1561 49.8315 53.5222 49.8314 53.7517 49.9525L56.2187 51.2542Z" fill="#474B59"/>
<path d="M52.6087 59.2578C52.8382 59.3789 52.8508 59.5787 52.6114 59.7058L50.1715 61.0016C49.9321 61.1287 49.5546 61.1227 49.3251 61.0016L46.858 59.7C46.6285 59.5789 46.6274 59.3851 46.8667 59.258L49.3067 57.9622C49.5461 57.8351 49.9121 57.835 50.1416 57.9561L52.6087 59.2578Z" fill="#474B59"/>
<path d="M47.4669 60.1541C47.6964 60.2752 47.6979 60.4809 47.4696 60.6021L45.0191 61.9035C44.7909 62.0248 44.4134 62.0187 44.1839 61.8976L41.7168 60.596C41.4873 60.4749 41.4747 60.2751 41.7029 60.1539L44.1534 58.8525C44.3817 58.7313 44.7703 58.7314 44.9998 58.8525L47.4669 60.1541Z" fill="#474B59"/>
<path d="M49.0057 57.3567C49.2466 57.4839 49.2478 57.6777 49.0084 57.8048L46.5684 59.1006C46.3291 59.2277 45.963 59.2277 45.7221 59.1006L43.2665 57.805C43.0255 57.6778 43.0244 57.4841 43.2637 57.357L45.7037 56.0611C45.9431 55.934 46.3091 55.934 46.5501 56.0611L49.0057 57.3567Z" fill="#474B59"/>
<path d="M52.4898 49.2865C52.7307 49.4137 52.7319 49.6074 52.4925 49.7346L51.3526 50.3399C51.1133 50.467 50.7472 50.4671 50.5062 50.3399L48.0506 49.0443C47.8097 48.9172 47.8085 48.7234 48.0479 48.5963L49.1878 47.9909C49.4271 47.8638 49.7932 47.8638 50.0342 47.9909L52.4898 49.2865Z" fill="#474B59"/>
<path d="M54.6612 63.9501C54.8907 64.0712 54.8922 64.277 54.664 64.3982L52.2135 65.6996C51.9852 65.8208 51.6077 65.8148 51.3782 65.6937L48.9111 64.392C48.6817 64.2709 48.669 64.0711 48.8973 63.9499L51.3478 62.6485C51.576 62.5273 51.9647 62.5274 52.1941 62.6485L54.6612 63.9501Z" fill="#474B59"/>
<path d="M56.2116 61.1588C56.4411 61.2799 56.4537 61.4797 56.2144 61.6068L53.7744 62.9027C53.535 63.0298 53.1575 63.0238 52.928 62.9027L50.4609 61.601C50.2314 61.4799 50.2188 61.2801 50.4582 61.153L52.8982 59.8572C53.1375 59.73 53.515 59.7361 53.7446 59.8572L56.2116 61.1588Z" fill="#474B59"/>
<path d="M51.0587 62.0491C51.2997 62.1762 51.2897 62.3759 51.0615 62.4971L48.611 63.7985C48.3828 63.9197 48.0167 63.9198 47.7757 63.7926L45.3201 62.497C45.0792 62.3699 45.078 62.1761 45.3063 62.0549L47.7568 60.7535C47.985 60.6323 48.3622 60.6263 48.6031 60.7535L51.0587 62.0491Z" fill="#474B59"/>
<path d="M58.0716 69.7076C58.301 69.8287 58.3137 70.0285 58.0854 70.1497L55.3269 71.6147C55.0987 71.7359 54.71 71.7357 54.4805 71.6147L37.7159 62.7694C37.4749 62.6422 37.4849 62.4425 37.7132 62.3213L40.4717 60.8564C40.6999 60.7352 41.066 60.7351 41.3069 60.8623L58.0716 69.7076Z" fill="#474B59"/>
<path d="M58.8503 58.822C59.0798 58.9431 59.0812 59.1488 58.853 59.27L56.4019 60.5718C56.1743 60.6926 55.7968 60.6866 55.5673 60.5655L53.1002 59.2638C52.8707 59.1428 52.8581 58.9429 53.0857 58.8221L55.5368 57.5203C55.765 57.3991 56.1537 57.3992 56.3832 57.5203L58.8503 58.822Z" fill="#474B59"/>
<path d="M48.0529 53.1249C48.2824 53.246 48.2839 53.4518 48.0557 53.573L45.6045 54.8747C45.3769 54.9956 44.9994 54.9896 44.7699 54.8685L42.3028 53.5668C42.0733 53.4457 42.0607 53.2459 42.2883 53.125L44.7394 51.8233C44.9677 51.7021 45.3563 51.7022 45.5858 51.8233L48.0529 53.1249Z" fill="#474B59"/>
<path d="M91.1636 72.1412C91.4045 72.2684 91.3939 72.4684 91.1663 72.5893L88.7152 73.891C88.487 74.0122 88.1209 74.0122 87.88 73.8851L83.6343 71.645C83.4048 71.5239 83.3922 71.3241 83.6204 71.2029L86.0715 69.9011C86.2991 69.7803 86.6884 69.7801 86.9179 69.9011L91.1636 72.1412Z" fill="#474B59"/>
<path d="M70.6444 49.6721C71.2895 50.0125 71.8072 50.8379 71.8051 51.5095C71.8031 52.1813 71.282 52.4527 70.6368 52.1123C69.9971 51.7748 69.4794 50.9553 69.4815 50.2834C69.4835 49.6119 70.0046 49.3346 70.6444 49.6721Z" fill="#D4DAE8"/>
<path d="M70.6441 50.1653C71.0288 50.3683 71.3375 50.8604 71.3362 51.2609C71.335 51.6615 71.0243 51.8233 70.6396 51.6204C70.2581 51.4191 69.9494 50.9305 69.9507 50.5298C69.9519 50.1294 70.2627 49.964 70.6441 50.1653Z" fill="#BAC1CE"/>
<path d="M70.942 27.9272C74.9217 30.0269 78.1398 35.1144 78.1268 39.2935C78.1138 43.4722 74.8747 45.1593 70.8951 43.0596C66.9154 40.9598 63.7034 35.869 63.7163 31.6903C63.7293 27.5112 66.9623 25.8274 70.942 27.9272Z" fill="#E63044"/>
<path d="M68.5485 29.5201L75.758 38.1653L68.5186 39.1833L68.5485 29.5201Z" fill="white"/>
<path d="M33.1946 33.9382L30.9543 45.603L22.5171 50.0659L22.558 39.5871L33.1946 33.9382Z" fill="#DDAF9B"/>
<path d="M22.558 39.5871L22.5172 50.066L14.0923 45.6032L11.8521 33.9384L22.558 39.5871Z" fill="#E7BAA3"/>
<path d="M33.1946 33.9383L22.558 39.5872L11.8521 33.9385L22.4887 28.2896L33.1946 33.9383Z" fill="#E4E8F4"/>
<path d="M23.1689 28.6534L22.668 28.3839L22.5648 28.33L22.4912 28.2892C22.2829 28.3998 17.7445 30.8102 17.9528 30.6996C17.7423 30.8115 14.3176 32.6328 14.5343 32.5176L11.8525 33.945L19.0432 37.7289L19.942 38.2003L20.7819 38.6448L21.887 39.2234L21.9165 39.2372L22.3144 39.4522L22.5353 39.5739H22.5943L23.1248 39.2911L23.6257 39.0216L24.6424 38.4831L25.1287 38.2135L25.6739 37.9308L25.7918 37.8637L25.9538 37.7828L27 37.2174H27.0148L27.9873 36.7052L28.1199 36.625H28.1346L33.1887 33.9319C32.9777 33.8207 22.7609 28.4385 23.1689 28.6534ZM27.9284 35.9517H27.9136L27.5747 36.1397L26.6317 36.6381L25.5855 37.2036L25.4234 37.2844L25.2908 37.3653L24.7603 37.6349L24.2594 37.9038L22.5648 38.8059L13.326 33.945C13.5601 33.8205 22.7017 28.9584 22.4912 29.0703C22.713 29.187 31.9975 34.0727 31.7299 33.9319L27.9284 35.9517Z" fill="#EBC5B2"/>
<path d="M15.5566 35.119L22.5557 38.8089L29.4811 35.119L22.4968 31.4298L15.5566 35.119Z" fill="#DDAF9B"/>
<path d="M13.3174 33.9342L15.557 35.119L22.4972 31.4298V29.0733L13.3174 33.9342Z" fill="#DDAF9B"/>
<path d="M22.4971 29.0733V31.4298L29.4814 35.119L31.7211 33.9342L22.4971 29.0733Z" fill="#E7BAA3"/>
<path d="M25.7915 37.8637L25.6736 37.9308L25.1284 38.2135L24.6421 38.4831L23.6254 39.0216L23.1245 39.2911L22.594 39.5739H22.3435C22.3288 39.5331 22.3288 39.493 22.3141 39.4522C22.2698 39.2234 22.2109 38.9815 22.1667 38.725C22.1373 38.5771 22.093 38.416 22.0635 38.2543C21.872 37.3923 21.651 36.3962 21.371 35.2916C19.4881 27.9167 16.0468 17.0899 10.2314 11.7399C10.7471 12.1581 17.8641 18.096 22.6529 27.5896C22.6972 27.6567 22.7414 27.7375 22.7561 27.8046C23.346 28.9368 24.2502 30.9779 24.9221 32.9081C24.9221 32.9219 24.9221 32.9219 24.9368 32.9351C24.9368 32.962 24.9368 32.9758 24.9516 33.0021L25.4379 35.8301L25.7472 37.648V37.6612L25.7915 37.8637Z" fill="#65AA65"/>
<path d="M25.5409 35.4934L25.4377 35.8301L25.0841 37.0155L24.642 38.4831L23.6253 39.0216L23.1243 39.2911L22.5939 39.5739H22.3433C22.3287 39.5331 22.3287 39.493 22.3139 39.4522L21.916 39.2372C21.916 39.2103 21.9308 39.1833 21.9308 39.1564V39.1294C21.9603 38.9137 22.0192 38.6179 22.0634 38.2543C22.1224 37.8637 22.1813 37.3923 22.2255 36.84C22.2844 36.3685 22.3433 35.8301 22.4023 35.2376C22.5496 33.4065 22.6823 31.077 22.6675 28.3839C22.6675 28.276 22.6675 28.1682 22.6528 28.0604C22.6675 27.8986 22.6675 27.7507 22.6528 27.5896C22.5496 20.722 21.5329 11.6998 17.9082 2.6105C18.2323 2.94714 23.4043 8.5622 25.6293 18.8633C25.9239 20.1967 26.1597 21.6103 26.3218 23.1054C26.4249 23.8997 26.4986 24.7209 26.5428 25.556C26.587 26.0543 26.6165 26.5659 26.6165 27.0774C26.8836 33.6748 25.7776 33.9447 25.5409 35.4934Z" fill="#6EBA6E"/>
<path d="M34.6911 24.4113C31.519 27.8829 29.0296 32.1973 28.134 36.625H28.1194L27.9867 36.7052L27.0143 37.2174H26.9995L25.9533 37.7828L25.7912 37.8637L25.6733 37.9308C25.7028 37.8368 25.7176 37.7559 25.747 37.6612V37.6481C25.7765 37.5271 25.8207 37.3923 25.8502 37.2713C27.4585 31.7674 31.2115 26.7566 34.6911 24.4113Z" fill="#9AD898"/>
<path d="M36.1206 17.8672C31.1418 22.8311 28.6447 29.9628 27.9869 36.7052L27.0144 37.2174H26.9997L25.9535 37.7828L25.7914 37.8637L25.6735 37.9308L25.1283 38.2135L25.0842 37.0155C25.0574 36.3466 24.8813 31.9397 24.8926 32.2217C24.9817 31.896 25.2427 30.2911 26.0714 28.2892V28.276C26.2482 27.8585 26.425 27.468 26.6166 27.0774C27.1912 25.9064 27.8543 24.8557 28.5616 23.9405C31.9064 19.4964 36.1206 17.8672 36.1206 17.8672Z" fill="#75CA75"/>
<path d="M28.5616 23.9405C27.3487 29.6265 28.2691 33.0007 28.2816 33.1908L27.0144 37.2174H26.9997L25.9535 37.7828L25.8503 37.2713L25.5409 35.4934C25.5071 35.3026 24.9913 32.3945 25.0252 32.5853C24.9919 32.3951 24.8741 31.7218 24.9073 31.912C24.7953 28.8938 25.2826 25.9149 26.3218 23.1055C26.5429 22.5124 26.7786 21.9607 27.0291 21.4222V21.4084C29.1362 16.7895 32.0832 14.0563 32.3632 13.8005C30.3003 17.6383 29.1657 21.0587 28.5616 23.9405Z" fill="#6EBA6E"/>
<path d="M23.1244 39.2911L22.594 39.5739H22.3434C22.3288 39.5331 22.3288 39.493 22.314 39.4522L21.9161 39.2372L21.8866 39.2234L20.7815 38.6448L19.9416 38.2003L19.0428 37.7289C18.1588 36.5171 16.7589 34.8201 14.5339 32.5176C13.8119 31.7634 12.9868 30.9422 12.0732 30.0533C12.2819 30.1412 16.8981 29.9644 20.2069 33.7701C20.6342 34.2146 21.0173 34.7261 21.371 35.2916C21.6804 35.763 21.975 36.2745 22.2256 36.84C22.3877 37.1497 22.5202 37.4863 22.6676 37.8367C22.8297 38.2944 22.9918 38.7789 23.1244 39.2911Z" fill="#75CA75"/>
<path d="M23.6254 39.0216L23.1245 39.2911L22.5941 39.5739H22.3435C22.3289 39.5331 22.3289 39.493 22.3141 39.4522L21.9162 39.2372L21.8867 39.2234L20.7816 38.6448C20.6932 37.796 20.4427 36.3962 19.7944 34.6183C18.7704 31.6243 16.3568 27.5554 12.3975 23.6841C12.5783 23.8741 19.0245 27.3702 22.4025 35.2376C22.653 35.8301 22.8887 36.4494 23.0803 37.0826C23.3013 37.702 23.4781 38.3483 23.6254 39.0216Z" fill="#9AD898"/>
<path d="M27.0294 21.4084V21.4222C26.9116 22.7688 26.7495 24.1555 26.5432 25.5559C26.0023 29.2345 25.0411 32.8775 24.2887 34.9418L23.0804 37.0826L22.6679 37.8367L22.1669 38.725L21.9312 39.1294V39.1563L21.8869 39.2234L20.7818 38.6448L19.9419 38.2003L18.6011 36.9879C18.9252 36.3823 19.3231 35.5881 19.7946 34.6183C19.9273 34.3487 20.0598 34.066 20.2072 33.7701C20.982 32.1608 21.9007 29.9947 22.5648 28.3299C22.5943 28.2491 22.6384 28.155 22.6532 28.0604C22.6974 27.9801 22.7416 27.8986 22.7563 27.8046C23.8172 25.0983 24.8487 22.0416 25.6296 18.8632C26.6021 14.9044 27.1915 10.7438 26.9705 6.81192C27.162 8.57599 27.6336 14.4468 27.0294 21.4084Z" fill="#75CA75"/>
<path d="M31.1964 33.6537L31.7294 33.9318L27.9279 35.9517H27.9131L27.5742 36.1397L26.6312 36.6381L25.585 37.2036L25.4229 37.2844L25.2903 37.3653L24.7598 37.6349L24.2589 37.9038L22.5643 38.8059L13.3255 33.945L13.8735 33.6537H12.3998L11.8521 33.945L19.0427 37.7289L19.9415 38.2003L20.7814 38.6448L21.8865 39.2234L21.916 39.2372L22.3139 39.4522L22.5348 39.5739H22.5938L23.1243 39.2911L23.6252 39.0215L24.6419 38.4831L25.1282 38.2135L25.6734 37.9308L25.7913 37.8637L25.9534 37.7828L26.9996 37.2174H27.0143L27.9868 36.7052L28.1194 36.625H28.1341L33.1882 33.9318L32.6618 33.6537H31.1964Z" fill="#EBC5B2"/>
<path d="M94.6326 92.4518V93.7934C94.6326 93.9309 94.5303 94.0737 94.3257 94.1784L80.0532 101.761C79.6561 101.97 79.0003 101.975 78.5911 101.761L68.0011 96.1744C67.8025 96.0643 67.7002 95.9269 67.7002 95.784L67.7062 94.4367C67.7062 94.5798 67.8025 94.7227 68.0071 94.8271L78.5971 100.414C79.0003 100.628 79.6561 100.628 80.0593 100.414L94.3317 92.8311C94.5363 92.7267 94.6326 92.5892 94.6326 92.4518Z" fill="#4C7891"/>
<path d="M94.3278 92.0594C94.735 92.2743 94.7371 92.6189 94.3325 92.8338L80.0581 100.415C79.6572 100.627 79.0025 100.629 78.5952 100.415L68.0076 94.8284C67.6042 94.6156 67.602 94.267 68.0029 94.0541L82.2773 86.4733C82.6819 86.2584 83.3367 86.2604 83.7401 86.4732L94.3278 92.0594Z" fill="#E4E8F4"/>
<path d="M89.4691 93.9533L88.7669 94.3262L79.6636 89.5231L80.3657 89.1502L89.4691 93.9533Z" fill="#4C7891"/>
<path d="M83.0497 97.3626L82.3436 97.7376L73.2402 92.9345L73.9463 92.5595L83.0497 97.3626Z" fill="#4C7891"/>
<path d="M86.2597 95.658L85.5536 96.033L76.4502 91.2299L77.1563 90.8549L86.2597 95.658Z" fill="#4C7891"/>
<path d="M83.2602 87.1142C83.5257 87.2543 83.5271 87.4821 83.2633 87.6222C82.9995 87.7623 82.5667 87.7636 82.3012 87.6235C82.0356 87.4834 82.0342 87.253 82.298 87.1129C82.5617 86.9728 82.9947 86.9741 83.2602 87.1142Z" fill="#363A44"/>
<path d="M83.2636 87.6228C83.2095 87.6502 83.1553 87.6722 83.0891 87.6832C82.9327 87.7326 82.7461 87.7382 82.5776 87.7106C82.4754 87.6942 82.3791 87.6668 82.3009 87.6228C82.0361 87.4853 82.0361 87.2544 82.2949 87.1113C82.3851 87.0673 82.4934 87.0342 82.6078 87.0179C82.7401 87.0012 82.8785 87.0068 83.0049 87.0289C83.1012 87.0509 83.1854 87.0783 83.2576 87.1169C83.5283 87.2544 83.5283 87.4797 83.2636 87.6228Z" fill="#3F434F"/>
<path d="M85.7912 85.764C85.7972 86.2588 85.5926 86.8033 85.2738 87.2818L84.9729 87.1223C85.2136 86.7649 85.37 86.3579 85.37 85.9895C85.364 85.3022 84.8285 85.0216 84.1726 85.3682C83.583 85.6816 83.0956 86.3909 83.0053 87.0289C82.9933 87.1003 82.9873 87.1717 82.9873 87.2431C82.9873 87.4193 83.0234 87.5677 83.0896 87.6832C82.9331 87.7326 82.7466 87.7382 82.5781 87.7106C82.5661 87.6335 82.5601 87.5567 82.5601 87.4687C82.5601 87.3202 82.5781 87.1717 82.6082 87.0179C82.7887 86.193 83.4205 85.3186 84.1726 84.9228C85.0631 84.45 85.7912 84.8294 85.7912 85.764Z" fill="#E63044"/>
<path d="M85.9257 88.5222C86.1912 88.6623 86.1926 88.8902 85.9288 89.0302C85.6651 89.1703 85.2322 89.1716 84.9667 89.0315C84.7012 88.8914 84.6997 88.661 84.9635 88.5209C85.2273 88.3808 85.6602 88.3821 85.9257 88.5222Z" fill="#363A44"/>
<path d="M85.9291 89.0308C85.875 89.0582 85.8208 89.0802 85.7546 89.0912C85.5982 89.1406 85.4117 89.1463 85.2432 89.1186C85.1409 89.1022 85.0446 89.0748 84.9664 89.0308C84.7017 88.8933 84.7017 88.6624 84.9604 88.5193C85.0507 88.4753 85.159 88.4423 85.2733 88.4259C85.4056 88.4092 85.544 88.4149 85.6704 88.4369C85.7667 88.4589 85.8509 88.4863 85.9231 88.525C86.1939 88.6624 86.1939 88.8877 85.9291 89.0308Z" fill="#3F434F"/>
<path d="M88.4567 87.172C88.4628 87.6669 88.2582 88.2114 87.9393 88.6898L87.6384 88.5303C87.8791 88.173 88.0355 87.7659 88.0355 87.3976C88.0295 86.7102 87.494 86.4296 86.8382 86.7763C86.2485 87.0896 85.7611 87.799 85.6708 88.4369C85.6588 88.5083 85.6528 88.5797 85.6528 88.6512C85.6528 88.8273 85.6889 88.9758 85.7551 89.0912C85.5986 89.1406 85.4121 89.1463 85.2436 89.1186C85.2316 89.0415 85.2256 88.9648 85.2256 88.8767C85.2256 88.7282 85.2436 88.5797 85.2737 88.4259C85.4542 87.6011 86.086 86.7266 86.8382 86.3308C87.7287 85.858 88.4567 86.2374 88.4567 87.172Z" fill="#E63044"/>
<path d="M88.5912 89.9302C88.8568 90.0703 88.8581 90.2982 88.5944 90.4383C88.3306 90.5784 87.8977 90.5797 87.6322 90.4396C87.3667 90.2995 87.3653 90.069 87.629 89.9289C87.8928 89.7889 88.3257 89.7901 88.5912 89.9302Z" fill="#363A44"/>
<path d="M88.5947 90.4388C88.5405 90.4662 88.4864 90.4882 88.4202 90.4993C88.2637 90.5487 88.0772 90.5543 87.9087 90.5266C87.8064 90.5103 87.7102 90.4829 87.6319 90.4388C87.3672 90.3014 87.3672 90.0705 87.6259 89.9274C87.7162 89.8833 87.8245 89.8503 87.9388 89.8339C88.0712 89.8173 88.2096 89.8229 88.3359 89.8449C88.4322 89.8669 88.5164 89.8943 88.5886 89.933C88.8594 90.0705 88.8594 90.2957 88.5947 90.4388Z" fill="#3F434F"/>
<path d="M91.1223 88.5801C91.1283 89.0749 90.9237 89.6194 90.6048 90.0979L90.304 89.9384C90.5446 89.581 90.7011 89.174 90.7011 88.8056C90.695 88.1183 90.1596 87.8377 89.5037 88.1843C88.914 88.4976 88.4266 89.207 88.3364 89.8449C88.3243 89.9164 88.3183 89.9878 88.3183 90.0592C88.3183 90.2353 88.3544 90.3838 88.4206 90.4993C88.2642 90.5487 88.0776 90.5543 87.9091 90.5266C87.8971 90.4496 87.8911 90.3728 87.8911 90.2847C87.8911 90.1362 87.9091 89.9878 87.9393 89.8339C88.1198 89.0091 88.7515 88.1346 89.5037 87.7389C90.3942 87.2661 91.1223 87.6454 91.1223 88.5801Z" fill="#E63044"/>
<path d="M91.2568 91.3383C91.5223 91.4784 91.5237 91.7062 91.2599 91.8463C90.9961 91.9864 90.5633 91.9877 90.2977 91.8476C90.0322 91.7075 90.0308 91.4771 90.2946 91.337C90.5583 91.1969 90.9913 91.1982 91.2568 91.3383Z" fill="#363A44"/>
<path d="M91.2602 91.8469C91.206 91.8743 91.1519 91.8963 91.0857 91.9073C90.9293 91.9567 90.7427 91.9623 90.5742 91.9347C90.4719 91.9183 90.3757 91.8909 90.2975 91.8469C90.0327 91.7094 90.0327 91.4785 90.2914 91.3354C90.3817 91.2914 90.49 91.2583 90.6043 91.242C90.7367 91.2253 90.8751 91.231 91.0015 91.253C91.0977 91.275 91.182 91.3024 91.2542 91.341C91.5249 91.4785 91.5249 91.7038 91.2602 91.8469Z" fill="#3F434F"/>
<path d="M93.7878 89.9881C93.7938 90.4829 93.5892 91.0274 93.2703 91.5059L92.9695 91.3464C93.2102 90.989 93.3666 90.582 93.3666 90.2136C93.3606 89.5263 92.8251 89.2457 92.1692 89.5923C91.5795 89.9057 91.0922 90.615 91.0019 91.253C90.9899 91.3244 90.9839 91.3958 90.9839 91.4672C90.9839 91.6433 91.02 91.7918 91.0861 91.9073C90.9297 91.9567 90.7432 91.9623 90.5747 91.9347C90.5627 91.8576 90.5566 91.7808 90.5566 91.6928C90.5566 91.5443 90.5747 91.3958 90.6048 91.2419C90.7853 90.4171 91.4171 89.5427 92.1692 89.1469C93.0597 88.6741 93.7878 89.0535 93.7878 89.9881Z" fill="#E63044"/>
</svg>
