<svg width="81" height="81" viewBox="0 0 81 81" fill="none" xmlns="http://www.w3.org/2000/svg">
<path d="M74.1049 81H5.26536C3.01513 81 1.19092 79.1758 1.19092 76.9256V12.0522C1.19092 9.80199 3.01513 7.97778 5.26536 7.97778H74.1048C76.355 7.97778 78.1792 9.80199 78.1792 12.0522V76.9256C78.1794 79.1758 76.3552 81 74.1049 81Z" fill="#F2FDFF"/>
<path d="M75.7348 7.97778H70.8455C73.0957 7.97778 74.9199 9.80199 74.9199 12.0522V76.9256C74.9199 79.1758 73.0957 81 70.8455 81H75.7348C77.985 81 79.8092 79.1758 79.8092 76.9256V12.0522C79.8092 9.80199 77.985 7.97778 75.7348 7.97778Z" fill="#D3ECF5"/>
<path d="M74.1049 7.97778H71.8472L67.9804 9.60756L64.1136 7.97778H47.6264L43.7596 9.60756L39.8928 7.97778H23.4056L19.5388 9.60756L15.672 7.97778H5.26536C3.01513 7.97778 1.19092 9.80199 1.19092 12.0522V25.5471H78.1792V12.0522C78.1794 9.80199 76.3552 7.97778 74.1049 7.97778Z" fill="#ED6479"/>
<path d="M75.7348 7.97778H70.8455C73.0957 7.97778 74.9199 9.80199 74.9199 12.0522V25.5471H79.8092V12.0522C79.8092 9.80199 77.985 7.97778 75.7348 7.97778Z" fill="#D65461"/>
<path d="M67.9803 15.9555C70.116 15.9555 71.8472 14.2244 71.8472 12.0887V7.97778H64.1135V12.0887C64.1135 14.2244 65.8447 15.9555 67.9803 15.9555Z" fill="#D65461"/>
<path d="M43.7596 15.9555C45.8953 15.9555 47.6264 14.2244 47.6264 12.0887V7.97778H39.8928V12.0887C39.8928 14.2244 41.624 15.9555 43.7596 15.9555Z" fill="#D65461"/>
<path d="M19.5387 15.9555C21.6743 15.9555 23.4055 14.2244 23.4055 12.0887V7.97778H15.6719V12.0887C15.6719 14.2244 17.4032 15.9555 19.5387 15.9555Z" fill="#D65461"/>
<path d="M40.5001 15.9555C38.3645 15.9555 36.6333 14.2244 36.6333 12.0887V3.86681C36.6333 1.73131 38.3645 0 40.5001 0C42.6358 0 44.2039 1.73131 44.2039 3.86681V12.0889C44.2039 14.2244 42.6358 15.9555 40.5001 15.9555Z" fill="#9DC6FB"/>
<path d="M16.2792 15.9555C14.1435 15.9555 12.4124 14.2244 12.4124 12.0887V3.86681C12.4124 1.73131 14.1437 0 16.2792 0C18.4148 0 19.983 1.73131 19.983 3.86681V12.0889C19.983 14.2244 18.4148 15.9555 16.2792 15.9555Z" fill="#9DC6FB"/>
<path d="M64.7208 15.9555C62.5852 15.9555 60.854 14.2244 60.854 12.0887V3.86681C60.854 1.73131 62.5852 0 64.7208 0C66.8563 0 68.4247 1.73131 68.4247 3.86681V12.0889C68.4247 14.2244 66.8563 15.9555 64.7208 15.9555Z" fill="#9DC6FB"/>
<path d="M64.7208 0C64.2325 0 63.7655 0.0914306 63.3354 0.25669C64.7864 0.813911 65.8169 2.2196 65.8169 3.86681V12.0889C65.8169 13.7361 64.7866 15.1418 63.3354 15.699C63.7655 15.8643 64.2325 15.9557 64.7208 15.9557C66.8563 15.9557 68.5876 14.2245 68.5876 12.0889V3.86681C68.5876 1.73115 66.8563 0 64.7208 0Z" fill="#80B4FB"/>
<path d="M40.5001 0C40.0116 0 39.5448 0.0914306 39.1147 0.25669C40.5657 0.813911 41.5962 2.2196 41.5962 3.86681V12.0889C41.5962 13.7361 40.5657 15.1418 39.1147 15.699C39.5448 15.8643 40.0116 15.9557 40.5001 15.9557C42.6356 15.9557 44.3669 14.2245 44.3669 12.0889V3.86681C44.3669 1.73115 42.6356 0 40.5001 0Z" fill="#80B4FB"/>
<path d="M16.2794 0C15.7909 0 15.3241 0.0914306 14.894 0.25669C16.345 0.813911 17.3755 2.2196 17.3755 3.86681V12.0889C17.3755 13.7361 16.345 15.1418 14.894 15.699C15.3241 15.8643 15.7909 15.9557 16.2794 15.9557C18.4149 15.9557 20.1462 14.2245 20.1462 12.0889V3.86681C20.146 1.73115 18.4149 0 16.2794 0Z" fill="#80B4FB"/>
<path d="M71.0552 49.6469H57.8378C57.3635 49.6469 56.9792 49.2624 56.9792 48.7883V35.571C56.9792 35.0967 57.3637 34.7124 57.8378 34.7124H71.0552C71.5294 34.7124 71.9137 35.0969 71.9137 35.571V48.7883C71.9137 49.2624 71.5294 49.6469 71.0552 49.6469Z" fill="#ED6479"/>
<path d="M47.1086 72.0478H33.8913C33.417 72.0478 33.0327 71.6633 33.0327 71.1892V57.9718C33.0327 57.4976 33.4172 57.1133 33.8913 57.1133H47.1086C47.5829 57.1133 47.9672 57.4977 47.9672 57.9718V71.1892C47.9674 71.6635 47.5829 72.0478 47.1086 72.0478Z" fill="#ED6479"/>
<path d="M23.1621 72.0478H9.94475C9.47048 72.0478 9.08618 71.6633 9.08618 71.1892V57.9718C9.08618 57.4976 9.47065 57.1133 9.94475 57.1133H23.1621C23.6364 57.1133 24.0207 57.4977 24.0207 57.9718V71.1892C24.0207 71.6635 23.6364 72.0478 23.1621 72.0478Z" fill="#ED6479"/>
<path d="M71.0552 72.0478H57.8378C57.3635 72.0478 56.9792 71.6633 56.9792 71.1892V57.9718C56.9792 57.4976 57.3637 57.1133 57.8378 57.1133H71.0552C71.5294 57.1133 71.9137 57.4977 71.9137 57.9718V71.1892C71.9137 71.6635 71.5294 72.0478 71.0552 72.0478Z" fill="#ED6479"/>
<path d="M47.1086 49.6469H33.8913C33.417 49.6469 33.0327 49.2624 33.0327 48.7883V35.571C33.0327 35.0967 33.4172 34.7124 33.8913 34.7124H47.1086C47.5829 34.7124 47.9672 35.0969 47.9672 35.571V48.7883C47.9674 49.2624 47.5829 49.6469 47.1086 49.6469Z" fill="#F9D065"/>
<path d="M23.1621 49.6469H9.94475C9.47048 49.6469 9.08618 49.2624 9.08618 48.7883V35.571C9.08618 35.0967 9.47065 34.7124 9.94475 34.7124H23.1621C23.6364 34.7124 24.0207 35.0969 24.0207 35.571V48.7883C24.0207 49.2624 23.6364 49.6469 23.1621 49.6469Z" fill="#F9D065"/>
<path d="M25.5704 36.4899L18.1727 43.9381L15.4953 41.3078C15.014 40.8349 14.2399 40.8416 13.7669 41.3232C13.2938 41.8046 13.3006 42.5786 13.7822 43.0515L17.3267 46.5337C17.5646 46.7676 17.874 46.8841 18.1833 46.8841C18.4975 46.8841 18.8116 46.7637 19.0505 46.5231L27.3048 38.2124C27.7806 37.7336 27.7778 36.9594 27.299 36.4839C26.8198 36.0083 26.046 36.0109 25.5704 36.4899Z" fill="#9DC6FB"/>
<path d="M52.3455 36.4837C51.8665 36.008 51.0925 36.0107 50.6168 36.4896L43.219 43.9378L40.5416 41.3074C40.0603 40.8344 39.2865 40.8412 38.8129 41.3228C38.34 41.8044 38.3468 42.5783 38.8284 43.0515L42.373 46.5337C42.611 46.7674 42.9203 46.884 43.2296 46.884C43.5438 46.884 43.8579 46.7635 44.0968 46.523L52.351 38.2122C52.8271 37.7334 52.8243 36.9594 52.3455 36.4837Z" fill="#9DC6FB"/>
</svg>
