<svg width="94" height="94" viewBox="0 0 94 94" fill="none" xmlns="http://www.w3.org/2000/svg">
<path d="M84.6 14.1001H9.39998C5.07375 14.1001 1.56665 17.6072 1.56665 21.9334V72.0668C1.56665 76.393 5.07375 79.9001 9.39998 79.9001H84.6C88.9262 79.9001 92.4333 76.393 92.4333 72.0668V21.9334C92.4333 17.6072 88.9262 14.1001 84.6 14.1001Z" fill="#D94452"/>
<path d="M29.7666 14.1001H42.2999V79.9001H29.7666V14.1001Z" fill="#FFDE95"/>
<path d="M1.56665 39.1665H92.4333V51.6998H1.56665V39.1665Z" fill="#FFDE95"/>
<path d="M16.6381 36.408L21.4948 27.8696C21.6762 27.5265 21.941 27.2345 22.2647 27.0203C22.5885 26.8061 22.9608 26.6768 23.3476 26.644C23.7344 26.6113 24.1232 26.6762 24.4783 26.8329C24.8334 26.9895 25.1435 27.2329 25.3801 27.5406L33.4641 38.3663H38.6028L46.6868 27.5406C46.9233 27.2329 47.2334 26.9895 47.5886 26.8329C47.9437 26.6762 48.3325 26.6113 48.7193 26.644C49.1061 26.6768 49.4784 26.8061 49.8022 27.0203C50.1259 27.2345 50.3906 27.5265 50.5721 27.8696L55.4288 36.408L56.0084 53.14C54.9118 57.5548 53.8276 61.9775 52.6714 66.3783C52.3581 67.522 51.3241 67.7256 50.8384 66.7073C47.7631 60.1163 42.557 53.5473 36.0334 50.1476H36.0021C29.4785 53.5489 24.2725 60.1179 21.1971 66.7073C20.7114 67.7256 19.6774 67.522 19.3641 66.3783C18.2079 61.9775 17.13 57.5548 16.0271 53.14L16.6381 36.408Z" fill="#F5B945"/>
<path d="M40.7333 46.4499L59.455 54.6436C59.813 54.7902 60.2018 54.8453 60.5863 54.804C60.9709 54.7627 61.3392 54.6263 61.6578 54.4071C61.9765 54.1879 62.2356 53.8928 62.4117 53.5485C62.5879 53.2041 62.6755 52.8213 62.6667 52.4346V36.8619C62.6771 36.4747 62.5905 36.091 62.4149 35.7458C62.2392 35.4005 61.98 35.1047 61.6608 34.8852C61.3416 34.6656 60.9726 34.5294 60.5874 34.4888C60.2022 34.4483 59.8129 34.5047 59.455 34.6529L40.7333 42.8466H31.3333L12.6117 34.6529C12.2538 34.5047 11.8645 34.4483 11.4793 34.4888C11.094 34.5294 10.7251 34.6656 10.4059 34.8852C10.0867 35.1047 9.82751 35.4005 9.65183 35.7458C9.47616 36.091 9.38959 36.4747 9.40001 36.8619V52.4346C9.3912 52.8213 9.47881 53.2041 9.65494 53.5485C9.83106 53.8928 10.0902 54.1879 10.4088 54.4071C10.7275 54.6263 11.0958 54.7627 11.4803 54.804C11.8649 54.8453 12.2537 54.7902 12.6117 54.6436L31.3333 46.4499H40.7333Z" fill="#FDCD56"/>
<path d="M40.7333 42.2938C40.7333 39.698 38.629 37.5938 36.0333 37.5938C33.4375 37.5938 31.3333 39.698 31.3333 42.2938V45.4271C31.3333 48.0228 33.4375 50.1271 36.0333 50.1271C38.629 50.1271 40.7333 48.0228 40.7333 45.4271V42.2938Z" fill="#FFD67B"/>
<path d="M86.1666 25.0665C85.7511 25.0665 85.3526 24.9014 85.0588 24.6076C84.765 24.3138 84.6 23.9153 84.6 23.4998V21.9331H75.2C74.7845 21.9331 74.386 21.7681 74.0922 21.4743C73.7984 21.1805 73.6333 20.782 73.6333 20.3665C73.6333 19.951 73.7984 19.5525 74.0922 19.2587C74.386 18.9649 74.7845 18.7998 75.2 18.7998H84.6C85.431 18.7998 86.228 19.1299 86.8156 19.7175C87.4032 20.3052 87.7333 21.1021 87.7333 21.9331V23.4998C87.7333 23.9153 87.5682 24.3138 87.2744 24.6076C86.9806 24.9014 86.5821 25.0665 86.1666 25.0665Z" fill="#EB5463"/>
<path d="M68.9334 21.9331H67.3667C66.9512 21.9331 66.5527 21.7681 66.2589 21.4743C65.9651 21.1805 65.8 20.782 65.8 20.3665C65.8 19.951 65.9651 19.5525 66.2589 19.2587C66.5527 18.9649 66.9512 18.7998 67.3667 18.7998H68.9334C69.3489 18.7998 69.7474 18.9649 70.0412 19.2587C70.335 19.5525 70.5 19.951 70.5 20.3665C70.5 20.782 70.335 21.1805 70.0412 21.4743C69.7474 21.7681 69.3489 21.9331 68.9334 21.9331Z" fill="#EB5463"/>
</svg>
