<svg width="158" height="53" viewBox="0 0 158 53" fill="none" xmlns="http://www.w3.org/2000/svg">
<path d="M27.8794 33.5068V33.86H15.7201V33.5068C17.9001 33.207 18.5566 32.6075 18.5566 30.7554V16.1399C18.5566 12.444 17.1899 10.4317 14.2007 10.4317C11.6656 10.4317 10.1462 12.0333 9.43606 13.7869V30.7595C9.43606 32.6116 10.0967 33.2235 12.2767 33.5109V33.8641H0.113281V33.5109C2.44605 33.1619 3.45759 32.513 3.45759 30.509V14.1359C3.45759 11.3311 2.6979 10.7315 0.113281 10.7808V10.4317L9.43606 7.9267V13.101C10.299 10.0991 13.2387 7.79529 17.1404 7.79529C22.1527 7.79529 24.5722 10.8999 24.5722 15.6554V30.5213C24.5722 32.5253 25.5383 33.1742 27.8752 33.5232" fill="#30426D"/>
<path d="M53.8691 33.5069V33.86H44.5463V29.4536C44.0108 30.955 43.023 32.2557 41.7176 33.1786C40.4121 34.1016 38.8524 34.6019 37.2507 34.6115C32.7091 34.6115 29.8189 32.0572 29.8189 26.4517V13.2859C29.8189 10.4318 29.1088 9.83223 26.4746 9.88151V9.53244L35.7974 7.92676V25.9959C35.7974 29.5481 37.5191 31.5521 40.3391 31.4535C41.2313 31.4398 42.101 31.1733 42.8462 30.6852C43.5914 30.1972 44.1812 29.5078 44.5463 28.698V13.2366C44.5463 10.3825 43.9394 9.77884 41.6066 9.77884V9.47906L50.5743 7.92676V29.9382C50.5743 32.4925 51.6396 33.1907 53.8774 33.4904" fill="#30426D"/>
<path d="M71.5485 7.76245V13.6678H71.2967C70.5624 13.355 69.7656 13.2145 68.968 13.2571C65.6237 13.2571 63.4437 15.2077 63.4437 21.9672V30.4761C63.4437 32.5787 64.4552 33.2276 67.75 33.4781V33.8312H54.125V33.4781C56.4578 33.129 57.4694 32.4802 57.4694 30.4761V14.4357C57.4694 11.483 56.7096 10.7398 54.125 10.7808V10.4318L63.2083 7.92671V18.3411H63.4107C63.8649 11.0313 66.755 7.77888 71.1604 7.77888L71.5485 7.76245Z" fill="#30426D"/>
<path d="M90.801 28.5008C89.6862 32.1557 87.1553 34.6115 83.3031 34.6115C79.4509 34.6115 77.5765 32.205 77.5765 28.4516V9.42973H74.2734V9.12994C76.2604 8.38978 78.0803 7.26549 79.628 5.82197C81.1757 4.37844 82.4205 2.64428 83.2907 0.719604H83.5425V8.58377H89.0132V9.43384H83.5673V27.5029C83.5673 29.9669 84.5293 31.6095 86.507 31.6095C88.4847 31.6095 89.6986 30.4104 90.4087 28.3571L90.801 28.5008Z" fill="#30426D"/>
<path d="M118.158 33.5069V33.86H108.835V29.4536C108.3 30.9553 107.313 32.2563 106.007 33.1794C104.702 34.1024 103.142 34.6025 101.54 34.6115C96.9981 34.6115 94.108 32.0572 94.108 26.4517V13.2859C94.108 10.4318 93.3978 9.83223 90.7637 9.88151V9.53244L100.082 7.92676V25.9959C100.082 29.5481 101.808 31.5521 104.624 31.4535C105.516 31.4418 106.386 31.1771 107.132 30.6904C107.878 30.2038 108.469 29.5154 108.835 28.7062V13.2366C108.835 10.3825 108.228 9.77884 105.9 9.77884V9.47906L114.868 7.92676V29.9382C114.868 32.4925 115.929 33.1907 118.171 33.4904" fill="#30426D"/>
<path d="M135.843 7.76245V13.6678H135.591C134.857 13.3546 134.06 13.2141 133.263 13.2571C129.918 13.2571 127.738 15.2077 127.738 21.9672V30.4761C127.738 32.5787 128.754 33.2276 132.049 33.4781V33.8312H118.424V33.4781C120.757 33.129 121.768 32.4802 121.768 30.4761V14.4357C121.768 11.483 121.008 10.7398 118.424 10.7808V10.4318L127.507 7.92671V18.3411H127.709C128.16 11.0477 131.05 7.76245 135.439 7.76245H135.843Z" fill="#30426D"/>
<path d="M140.908 17.7416H151.395C151.494 11.4338 149.368 8.97805 146.482 8.97805C143.084 8.97805 140.908 12.3824 140.908 17.7416ZM157.374 24.9487C156.135 31.8067 152.006 34.6115 147.39 34.6115C141.362 34.6115 136.346 30.1559 136.346 21.6428C136.346 13.5857 140.602 7.77893 147.646 7.77893C152.964 7.77893 157.32 11.4338 157.118 18.7929H140.908C141.263 25.7495 144.756 29.7041 149.991 29.7041C152.828 29.7041 155.516 28.9033 156.986 24.8501L157.374 24.9487Z" fill="#30426D"/>
<path d="M110.256 44.3113C110.372 44.3073 110.487 44.3283 110.594 44.373C110.701 44.4176 110.797 44.4849 110.875 44.57C111.036 44.7478 111.121 44.9801 111.115 45.2189C111.123 45.458 111.037 45.6908 110.875 45.8677C110.798 45.9545 110.703 46.0231 110.595 46.0686C110.488 46.114 110.372 46.1352 110.256 46.1305C110.027 46.1354 109.806 46.0497 109.641 45.8923C109.555 45.803 109.489 45.6971 109.446 45.5812C109.404 45.4654 109.386 45.342 109.393 45.2189C109.385 45.0963 109.403 44.9735 109.446 44.8582C109.489 44.7429 109.555 44.6378 109.641 44.5495C109.722 44.4708 109.818 44.4092 109.924 44.3683C110.03 44.3274 110.143 44.308 110.256 44.3113V44.3113ZM110.343 43.6871C110.018 43.6812 109.7 43.7855 109.443 43.9828V42.7795L109.364 42.722L108.732 42.796V46.6808H109.377V46.381C109.637 46.6255 109.984 46.7582 110.343 46.7506C110.542 46.7558 110.74 46.719 110.923 46.6425C111.107 46.5661 111.272 46.4517 111.408 46.3071C111.675 46.0068 111.822 45.6198 111.822 45.2189C111.822 44.818 111.675 44.4309 111.408 44.1306C111.271 43.9863 111.105 43.8722 110.921 43.7958C110.736 43.7194 110.538 43.6824 110.339 43.6871" fill="#51CCB8"/>
<path d="M114.295 43.7651V45.0751V45.1573C114.305 45.3378 114.243 45.515 114.122 45.6501C114.06 45.7123 113.985 45.7609 113.902 45.7927C113.82 45.8245 113.731 45.8389 113.643 45.8349C113.56 45.8392 113.476 45.8257 113.399 45.7953C113.321 45.7648 113.251 45.7181 113.193 45.6583C113.135 45.5952 113.091 45.5213 113.062 45.441C113.032 45.3606 113.02 45.2754 113.024 45.1901V43.7651H112.314V45.2106C112.306 45.3752 112.332 45.5395 112.389 45.694C112.447 45.8485 112.535 45.9899 112.648 46.11C112.761 46.223 112.897 46.3115 113.046 46.3702C113.195 46.4288 113.355 46.4563 113.515 46.4509C113.666 46.4592 113.816 46.4374 113.958 46.3866C114.1 46.3358 114.23 46.2571 114.341 46.1552V46.2907C114.349 46.3951 114.332 46.4999 114.294 46.5973C114.255 46.6946 114.195 46.7821 114.118 46.8533C113.947 46.987 113.732 47.0542 113.515 47.0422C113.36 47.0482 113.205 47.0196 113.062 46.9585C112.919 46.8974 112.792 46.8053 112.689 46.689V46.689H112.607L112.293 47.0299V47.1079C112.444 47.2759 112.63 47.4087 112.839 47.4968C113.047 47.5848 113.272 47.6259 113.499 47.6171C113.888 47.6297 114.27 47.5046 114.576 47.264C114.719 47.1309 114.83 46.9678 114.901 46.7867C114.973 46.6055 115.003 46.4109 114.989 46.2168V43.7528L114.295 43.7651Z" fill="#51CCB8"/>
<path d="M143.932 47.3503C143.826 47.3278 143.723 47.2976 143.622 47.2599C142.573 46.8739 142.037 45.6173 142.383 44.3606C142.503 43.8413 142.821 43.3885 143.27 43.0981C143.719 42.8077 144.265 42.7023 144.79 42.8042C145.835 42.9603 146.541 43.8843 146.541 45.0875C146.541 46.6275 145.393 47.6336 143.952 47.3503H143.932ZM135.922 45.7815C135.84 46.2576 135.584 46.6865 135.202 46.9854C134.821 47.2843 134.342 47.4319 133.857 47.3995C133.354 47.3858 132.873 47.1915 132.503 46.8526C132.133 46.5138 131.898 46.0531 131.843 45.5557C131.818 45.3955 131.814 45.2272 131.809 45.145C131.809 43.9623 132.371 43.1369 133.271 42.8576C133.531 42.7607 133.809 42.719 134.086 42.7354C134.363 42.7518 134.634 42.8259 134.881 42.9528C135.127 43.0798 135.345 43.2568 135.518 43.4724C135.692 43.688 135.818 43.9374 135.889 44.2046C136.02 44.7148 136.038 45.2472 135.942 45.7651L135.922 45.7815ZM142.268 41.5723C142.242 41.44 142.17 41.3209 142.066 41.2354C141.961 41.15 141.829 41.1035 141.694 41.1041H140.397C140.321 41.103 140.246 41.1168 140.176 41.1447C140.105 41.1726 140.041 41.214 139.986 41.2667C139.932 41.3193 139.888 41.3821 139.858 41.4514C139.828 41.5208 139.812 41.5953 139.811 41.6708V42.061C139.811 42.7139 139.811 43.2354 139.811 43.642V45.8226V46.5371C139.811 46.6011 139.798 46.6645 139.774 46.7236C139.749 46.7826 139.713 46.8362 139.667 46.8813C139.621 46.9263 139.567 46.9619 139.507 46.986C139.448 47.0101 139.384 47.0223 139.32 47.0217H139.084C138.95 47.0217 138.821 46.9692 138.725 46.8755C138.63 46.7818 138.575 46.6544 138.572 46.5207V45.0136V41.6708V41.6462C138.564 41.4988 138.499 41.3602 138.39 41.2593C138.282 41.1584 138.139 41.1028 137.99 41.1041H136.657C136.527 41.103 136.401 41.1453 136.298 41.2243C136.195 41.3032 136.123 41.4142 136.091 41.5394C134.134 40.2664 131.434 40.87 130.257 42.3977C129.786 43.0493 129.495 43.8126 129.414 44.6112C129.333 45.4098 129.464 46.2156 129.795 46.9478C129.634 47.0458 129.458 47.1166 129.274 47.1572C128.651 47.2435 128.449 47.0546 128.449 46.4386C128.449 45.683 128.449 44.9273 128.449 44.1717C128.446 43.2902 128.093 42.4457 127.465 41.8235C126.837 41.2014 125.986 40.8525 125.1 40.8536C124.534 40.8003 123.962 40.8592 123.418 41.027C122.875 41.1947 122.37 41.468 121.933 41.831C121.26 40.87 120.282 40.7386 119.254 40.8947C118.552 41.0014 118.494 41.0877 118.494 41.7694V42.4511C118.494 42.8617 118.597 43.026 119.047 42.9767C119.696 42.9069 119.873 43.0712 119.873 43.6995C119.873 44.1101 119.873 44.5208 119.873 44.9315V45.8637C119.873 45.9376 119.873 46.0361 119.873 46.1552C119.873 46.1799 119.873 46.2004 119.873 46.225V48.4919C119.874 48.5674 119.89 48.6419 119.92 48.7113C119.95 48.7806 119.994 48.8434 120.048 48.896C120.103 48.9487 120.167 48.9901 120.238 49.018C120.308 49.0459 120.384 49.0597 120.459 49.0586H121.793C121.869 49.0597 121.944 49.0459 122.015 49.018C122.085 48.9901 122.15 48.9487 122.204 48.896C122.259 48.8434 122.302 48.7806 122.332 48.7113C122.362 48.6419 122.378 48.5674 122.379 48.4919V45.1532C122.383 45.1398 122.383 45.1255 122.379 45.1122C122.379 44.9725 122.379 44.8329 122.379 44.7015C122.355 44.2763 122.498 43.8583 122.777 43.5358C123.057 43.2132 123.452 43.0113 123.878 42.9726C125.117 42.8207 125.942 43.4942 125.942 44.7056C125.942 45.568 125.942 46.4304 125.942 47.2928C125.924 47.7081 126.049 48.1172 126.297 48.452C126.545 48.7867 126.901 49.0269 127.305 49.1325C128.077 49.3665 128.902 49.3665 129.675 49.1325C130.147 49.0092 130.575 48.7591 130.914 48.4098C131.729 48.998 132.714 49.3093 133.722 49.2975C134.729 49.2856 135.706 48.9513 136.508 48.3441C136.915 48.791 137.448 49.1048 138.038 49.2441C138.627 49.3834 139.246 49.3416 139.811 49.1243V52.2823C139.812 52.3578 139.828 52.4324 139.858 52.5017C139.888 52.5711 139.932 52.6338 139.986 52.6864C140.041 52.7391 140.105 52.7805 140.176 52.8084C140.246 52.8363 140.321 52.8501 140.397 52.849H141.694C141.846 52.8501 141.993 52.7911 142.102 52.685C142.211 52.5788 142.274 52.4341 142.276 52.2823V48.6603C142.317 48.6603 142.342 48.689 142.342 48.6603C144.662 49.9826 147.297 49.0134 148.3 47.5227C148.882 46.6942 149.151 45.688 149.06 44.6814C148.969 43.6747 148.524 42.7323 147.803 42.0201C147.082 41.3079 146.132 40.8716 145.119 40.7882C144.106 40.7048 143.097 40.9795 142.268 41.564" fill="#51CCB8"/>
<path d="M155.273 44.4961C154.765 44.3742 154.251 44.2783 153.733 44.2087C153.284 44.1555 152.843 44.0479 152.42 43.8883C152.271 43.8528 152.137 43.7698 152.04 43.652C151.942 43.5342 151.886 43.3879 151.879 43.2354C151.884 43.1268 151.921 43.0219 151.984 42.9336C152.048 42.8454 152.136 42.7776 152.238 42.7385C152.531 42.5999 152.852 42.535 153.176 42.5496C153.508 42.5445 153.837 42.6207 154.134 42.7714C154.389 42.8893 154.593 43.0949 154.708 43.3504C154.738 43.4107 154.786 43.4612 154.844 43.4961C154.903 43.5309 154.97 43.5487 155.038 43.5475H156.689C156.925 43.5475 157.024 43.4366 156.991 43.219C156.927 42.8597 156.783 42.5193 156.569 42.2234C156.354 41.9275 156.075 41.6838 155.752 41.5106C154.956 41.0565 154.048 40.8332 153.13 40.8659C152.187 40.8207 151.253 41.066 150.455 41.5681C150.139 41.7664 149.88 42.0419 149.702 42.3684C149.524 42.6948 149.434 43.0613 149.439 43.4325C149.41 43.9839 149.601 44.5244 149.972 44.9355C150.321 45.3032 150.772 45.5591 151.268 45.6706C151.773 45.7891 152.285 45.8796 152.8 45.9416C153.241 45.9859 153.676 46.0782 154.096 46.2168C154.452 46.3455 154.629 46.5508 154.629 46.8328C154.625 46.9468 154.587 47.0569 154.52 47.1496C154.453 47.2423 154.36 47.3135 154.253 47.3543C153.944 47.4989 153.604 47.5666 153.262 47.5515C152.288 47.5515 151.684 47.2571 151.45 46.6685C151.417 46.6007 151.365 46.5433 151.301 46.5027C151.237 46.4621 151.163 46.4399 151.087 46.4386H149.435C149.191 46.4386 149.084 46.5494 149.117 46.7671C149.173 47.1577 149.318 47.5305 149.54 47.8571C149.763 48.1837 150.057 48.4556 150.401 48.652C151.265 49.1409 152.249 49.3772 153.242 49.3337C154.229 49.387 155.209 49.1422 156.054 48.6315C156.376 48.4308 156.64 48.1506 156.821 47.8181C157.002 47.4856 157.093 47.1122 157.086 46.7342C157.099 46.4632 157.058 46.1923 156.965 45.9371C156.872 45.6819 156.729 45.4476 156.545 45.2477C156.192 44.88 155.738 44.6242 155.24 44.5126" fill="#51CCB8"/>
</svg>
