<svg width="641" height="250" viewBox="0 0 641 250" fill="none" xmlns="http://www.w3.org/2000/svg">
<rect width="630" height="250" rx="10" fill="#FBDFDA"/>
<path d="M629.555 178.168C598.532 169.716 570.588 146.523 552.619 114.317C544.197 99.2237 537.788 81.3897 538.728 62.7739C539.668 44.1581 549.606 25.0884 564.248 20.6072C578.027 16.3824 592.882 26.6007 598.717 42.3479C604.553 58.0951 601.983 77.7601 593.861 92.3735C585.738 106.987 572.703 116.759 558.986 121.299C545.269 125.838 530.872 125.5 516.996 122.966C492.941 118.576 469.112 107.026 452.766 85.067C436.42 63.1081 428.984 29.5232 438.388 1.17109" stroke="#F68585" stroke-opacity="0.42" stroke-width="2" stroke-miterlimit="10"/>
<path opacity="0.81" d="M344.809 194.001C330.709 191.491 319.279 192.361 313.669 193.721C313.659 193.721 313.659 193.721 313.649 193.711C308.369 192.301 306.789 191.831 299.929 191.831C293.069 191.831 284.629 192.301 285.159 193.711C285.689 195.121 291.489 196.531 298.879 196.531C299.039 196.531 299.199 196.531 299.369 196.531C299.369 196.531 307.659 196.561 314.569 197.651C315.179 197.771 315.829 197.891 316.519 198.001C317.319 198.161 317.889 198.241 318.279 198.261C320.589 198.571 323.159 198.841 325.739 199.071C333.849 199.781 356.979 196.171 344.809 194.001Z" fill="#EDCDD3"/>
<path d="M336.543 128.102C335.153 117.122 336.583 109.632 339.133 109.582C341.683 109.532 341.073 118.382 341.073 118.382C341.073 118.382 345.213 113.882 348.083 115.302C350.963 116.722 340.953 122.512 336.543 128.102Z" fill="#FFA099"/>
<path opacity="0.36" d="M336.543 128.102C335.153 117.122 336.583 109.632 339.133 109.582C341.683 109.532 341.073 118.382 341.073 118.382C341.073 118.382 345.213 113.882 348.083 115.302C350.963 116.722 340.953 122.512 336.543 128.102Z" fill="#EDCDD3"/>
<path d="M353.273 140.563C357.123 135.883 358.653 132.003 357.483 131.233C356.313 130.463 354.013 134.743 354.013 134.743C354.013 134.743 353.413 131.453 351.663 131.263C349.923 131.083 352.863 136.683 353.273 140.563Z" fill="#FFA099"/>
<path opacity="0.36" d="M353.273 140.563C357.123 135.883 358.653 132.003 357.483 131.233C356.313 130.463 354.013 134.743 354.013 134.743C354.013 134.743 353.413 131.453 351.663 131.263C349.923 131.083 352.863 136.683 353.273 140.563Z" fill="#EDCDD3"/>
<path d="M290.509 112.881C287.019 106.351 286.129 101.331 287.709 100.691C289.289 100.051 291.019 105.731 291.019 105.731C291.019 105.731 292.529 101.931 294.669 102.131C296.809 102.331 291.929 108.341 290.509 112.881Z" fill="#FFA099"/>
<path opacity="0.36" d="M290.509 112.881C287.019 106.351 286.129 101.331 287.709 100.691C289.289 100.051 291.019 105.731 291.019 105.731C291.019 105.731 292.529 101.931 294.669 102.131C296.809 102.331 291.929 108.341 290.509 112.881Z" fill="#EDCDD3"/>
<path d="M295.739 193.661C295.729 193.661 295.719 193.661 295.709 193.661C295.409 193.651 295.169 193.391 295.189 193.091C295.199 192.941 295.929 177.931 296.649 164.541C296.669 164.241 296.919 164.011 297.229 164.021C297.529 164.041 297.759 164.301 297.749 164.601C297.029 177.981 296.289 192.991 296.289 193.141C296.279 193.431 296.029 193.661 295.739 193.661Z" fill="#4D4D4D"/>
<path d="M303.057 190.741C303.007 190.741 302.957 190.731 302.917 190.721C302.627 190.641 302.457 190.341 302.527 190.051C302.537 190.011 303.637 185.961 305.087 180.181C306.507 174.501 305.087 164.761 305.077 164.661C305.037 164.361 305.237 164.081 305.537 164.041C305.837 163.991 306.117 164.201 306.157 164.501C306.217 164.911 307.617 174.561 306.147 180.451C304.697 186.241 303.597 190.301 303.587 190.341C303.517 190.571 303.297 190.741 303.057 190.741Z" fill="#4D4D4D"/>
<path d="M318.608 106.931C320.438 98.1512 317.148 96.6812 316.048 97.0512C314.948 97.4212 316.048 104.001 316.048 105.471C312.388 97.0512 308.358 96.6912 307.998 98.8812C307.628 101.081 310.928 105.471 310.928 105.471C310.928 105.471 306.168 101.811 304.338 103.271C302.508 104.731 303.238 105.831 305.438 106.201C307.638 106.561 318.608 106.931 318.608 106.931Z" fill="#9077C6"/>
<path d="M327.029 134.011C329.329 117.921 330.319 110.951 318.609 105.831C306.899 100.711 299.579 108.391 297.019 113.881C294.459 119.371 294.089 125.221 288.239 131.811C282.379 138.401 277.629 141.691 277.629 148.281C277.629 154.871 290.799 171.701 310.569 164.751C326.299 160.361 326.299 139.131 327.029 134.011Z" fill="#B09BD3"/>
<path opacity="0.2" d="M310.008 116.081C307.978 114.391 305.618 114.251 305.248 115.711C304.878 117.171 312.208 117.911 310.008 116.081Z" fill="#6023B7"/>
<path opacity="0.2" d="M327.947 120.841C327.367 120.261 325.017 121.211 326.117 121.941C327.207 122.671 329.037 121.931 327.947 120.841Z" fill="#6023B7"/>
<path d="M321.728 119.191C319.168 118.461 319.168 116.991 319.168 116.261C319.168 115.531 324.658 114.431 325.028 114.801C325.378 115.161 323.918 118.091 321.728 119.191Z" fill="#F5CE69"/>
<path d="M314.699 114.761C314.249 115.131 313.739 115.351 313.189 115.481C312.639 115.611 312.069 115.621 311.509 115.541C310.959 115.441 310.419 115.271 309.929 115.001C309.679 114.881 309.459 114.711 309.239 114.561C309.029 114.381 308.819 114.211 308.629 114.021C308.559 113.951 308.559 113.831 308.629 113.761C308.689 113.701 308.769 113.691 308.839 113.721L308.859 113.731C309.099 113.841 309.309 113.981 309.539 114.091L309.879 114.251C309.989 114.311 310.099 114.361 310.219 114.401C310.679 114.601 311.149 114.721 311.629 114.821C312.109 114.891 312.599 114.901 313.079 114.851C313.559 114.791 314.059 114.661 314.489 114.461L314.509 114.451C314.599 114.411 314.709 114.451 314.749 114.541C314.779 114.621 314.759 114.711 314.699 114.761Z" fill="#4D4D4D"/>
<path d="M277.628 139.731C273.598 135.111 273.598 131.081 274.338 130.351C275.068 129.621 278.728 138.041 279.458 138.041C276.528 129.991 278.908 128.161 279.828 128.161C280.988 128.161 280.928 135.111 282.028 135.851C282.028 128.161 283.488 127.801 284.228 128.161C284.958 128.531 283.418 135.391 283.818 136.901C284.218 138.411 277.628 139.731 277.628 139.731Z" fill="#9077C6"/>
<path d="M289.869 132.141C290.089 133.111 290.969 133.541 292.309 133.761C293.299 133.921 294.399 133.861 295.549 133.681C296.679 133.511 297.739 133.231 298.669 132.791C299.869 132.221 300.619 131.571 300.819 130.671C301.299 128.521 300.209 129.191 299.299 131.031C298.809 132.011 298.679 133.351 298.679 134.751C298.679 135.991 299.209 137.061 300.089 137.921C300.969 138.781 302.039 139.531 303.359 139.281C304.359 139.091 305.489 138.481 306.509 137.281C307.179 136.491 307.699 135.341 308.319 134.001C309.779 131.071 307.419 131.801 307.059 134.361C306.969 134.981 307.359 136.331 307.999 137.691C308.459 138.651 309.169 139.641 309.899 140.521C310.659 141.451 311.509 142.391 312.469 142.791C313.489 143.221 314.649 142.961 315.769 142.301C316.539 141.841 317.389 141.141 318.169 139.971C318.699 139.171 319.379 138.221 319.899 137.021C320.999 133.731 318.899 134.761 318.899 136.221C318.899 136.961 319.149 138.741 319.799 139.931C320.439 141.101 321.479 141.601 322.929 140.391" stroke="#D9CCE2" stroke-miterlimit="10" stroke-linecap="round"/>
<path d="M298.298 133.461C300.128 139.321 307.078 147.371 306.718 150.291C306.348 153.221 301.958 155.781 295.738 149.921C298.298 158.341 298.668 161.261 294.638 161.261C290.608 161.261 284.758 151.741 284.028 148.451C281.828 156.871 277.078 157.231 276.338 153.941C275.608 150.651 278.288 144.291 278.288 144.291C278.288 144.291 274.148 148.451 273.048 146.621C271.948 144.811 289.888 119.191 298.298 133.461Z" fill="#C5B5EA"/>
<path d="M301.999 145.831C301.869 145.831 301.739 145.781 301.639 145.681C301.309 145.351 301.109 145.051 300.779 144.541L300.509 144.131C300.349 143.901 300.419 143.581 300.649 143.421C300.879 143.261 301.199 143.331 301.359 143.561L301.629 143.981C301.949 144.461 302.099 144.701 302.359 144.961C302.559 145.161 302.559 145.481 302.359 145.681C302.259 145.781 302.129 145.831 301.999 145.831Z" fill="#4D4D4D"/>
<path d="M298.789 142.431C298.629 142.431 298.459 142.351 298.369 142.201C298.159 141.881 298.079 141.681 298.009 141.511C297.949 141.361 297.909 141.251 297.759 141.021C297.599 140.791 297.669 140.471 297.899 140.311C298.129 140.151 298.449 140.221 298.609 140.451C298.819 140.771 298.899 140.971 298.969 141.141C299.029 141.291 299.069 141.401 299.219 141.631C299.379 141.861 299.309 142.181 299.079 142.341C298.979 142.411 298.879 142.431 298.789 142.431Z" fill="#4D4D4D"/>
<path d="M299.249 145.291C299.119 145.291 298.989 145.241 298.889 145.141C298.689 144.941 298.599 144.841 298.509 144.731C298.429 144.641 298.359 144.551 298.189 144.381C297.989 144.181 297.989 143.861 298.189 143.661C298.389 143.461 298.709 143.461 298.909 143.661C299.109 143.861 299.199 143.961 299.289 144.071C299.369 144.161 299.439 144.251 299.609 144.421C299.809 144.621 299.809 144.941 299.609 145.141C299.509 145.241 299.379 145.291 299.249 145.291Z" fill="#4D4D4D"/>
<path d="M303.978 150.451C303.848 150.451 303.718 150.401 303.618 150.301C303.418 150.101 303.418 149.781 303.618 149.581C303.678 149.411 303.348 148.741 303.168 148.381L304.058 147.881L303.598 148.111L304.078 147.921C304.488 148.751 304.958 149.681 304.338 150.301C304.248 150.401 304.118 150.451 303.978 150.451Z" fill="#4D4D4D"/>
<path opacity="0.4" d="M321.728 119.191C320.598 118.871 319.968 118.401 319.618 117.921L319.588 117.941L322.338 123.401C322.338 123.401 323.588 120.881 322.098 119.011" fill="#6023B7"/>
<path d="M310.378 106.381C310.328 106.381 310.288 106.361 310.248 106.331C310.178 106.261 310.178 106.141 310.248 106.071C311.768 104.551 313.628 104.911 313.708 104.921C313.808 104.941 313.868 105.041 313.848 105.131C313.828 105.231 313.728 105.291 313.638 105.271C313.618 105.271 311.878 104.941 310.508 106.321C310.468 106.361 310.428 106.381 310.378 106.381Z" fill="#4D4D4D"/>
<path d="M299.769 195.491C299.719 195.491 299.659 195.481 299.609 195.451C298.889 195.091 296.719 194.001 295.289 193.651C295.089 193.601 294.969 193.401 295.019 193.211C295.069 193.011 295.269 192.891 295.459 192.941C296.959 193.321 299.189 194.431 299.929 194.801C300.109 194.891 300.179 195.111 300.089 195.291C300.029 195.421 299.899 195.491 299.769 195.491Z" fill="#4D4D4D"/>
<path d="M301.599 194.391C301.549 194.391 301.489 194.381 301.439 194.351C300.829 194.041 298.069 193.291 295.749 193.291C295.119 193.291 294.459 193.611 294.449 193.621C294.269 193.711 294.049 193.641 293.959 193.461C293.869 193.281 293.939 193.061 294.119 192.971C294.149 192.951 294.939 192.571 295.749 192.571C298.069 192.571 300.969 193.311 301.769 193.711C301.949 193.801 302.019 194.021 301.929 194.201C301.859 194.321 301.729 194.391 301.599 194.391Z" fill="#4D4D4D"/>
<path d="M306.219 193.691C304.669 193.691 303.809 192.881 303.339 192.171C302.969 191.601 302.809 191.011 302.739 190.681L301.159 190.361C300.959 190.321 300.829 190.131 300.869 189.931C300.909 189.731 301.099 189.601 301.299 189.641L303.389 190.061L303.419 190.331C303.429 190.451 303.789 193.261 306.679 192.931C306.879 192.911 307.059 193.051 307.079 193.251C307.099 193.451 306.959 193.631 306.759 193.651C306.569 193.681 306.389 193.691 306.219 193.691Z" fill="#4D4D4D"/>
<path d="M306.158 192.611C303.798 192.611 302.748 190.561 302.738 190.541C302.648 190.361 302.718 190.141 302.898 190.051C303.078 189.961 303.298 190.031 303.388 190.211C303.428 190.291 304.408 192.171 306.668 191.841C306.868 191.811 307.058 191.951 307.078 192.151C307.108 192.351 306.968 192.541 306.768 192.561C306.558 192.591 306.348 192.611 306.158 192.611Z" fill="#4D4D4D"/>
<path d="M324.798 117.981C325.288 118.441 325.798 118.901 326.328 119.221C326.598 119.371 326.868 119.471 327.098 119.461C327.218 119.461 327.318 119.431 327.438 119.371C327.548 119.301 327.668 119.211 327.788 119.101L327.798 119.091C327.878 119.021 327.988 119.031 328.058 119.101C328.108 119.151 328.118 119.231 328.098 119.291C328.028 119.471 327.938 119.651 327.778 119.801C327.618 119.951 327.408 120.071 327.178 120.101C326.708 120.171 326.308 119.991 325.988 119.791C325.668 119.591 325.388 119.341 325.148 119.071C324.908 118.801 324.698 118.521 324.508 118.201C324.458 118.111 324.488 118.001 324.578 117.951C324.648 117.911 324.728 117.921 324.798 117.981Z" fill="#4D4D4D"/>
<path d="M326.848 112.591C326.838 112.591 326.838 112.591 326.828 112.591C326.728 112.581 326.658 112.491 326.668 112.391C326.838 110.861 325.478 109.831 325.458 109.821C325.378 109.761 325.358 109.651 325.418 109.561C325.478 109.481 325.588 109.461 325.678 109.521C325.738 109.571 327.228 110.681 327.028 112.421C327.018 112.521 326.938 112.591 326.848 112.591Z" fill="#4D4D4D"/>
<path d="M321.728 119.191C323.898 118.101 325.348 115.241 325.028 114.821L319.588 117.881C319.928 118.371 320.558 118.861 321.728 119.191Z" fill="#F5CE69"/>
<path opacity="0.4" d="M321.728 119.191C323.898 118.101 325.348 115.241 325.028 114.821L319.588 117.881C319.928 118.371 320.558 118.861 321.728 119.191Z" fill="#6023B7"/>
<path d="M327.386 196.054C327.35 196.054 327.308 196.047 327.272 196.026C326.761 195.77 325.222 194.997 324.207 194.749C324.066 194.713 323.98 194.571 324.016 194.436C324.051 194.295 324.193 194.209 324.328 194.245C325.392 194.514 326.974 195.302 327.499 195.564C327.627 195.628 327.676 195.784 327.613 195.912C327.57 196.004 327.478 196.054 327.386 196.054Z" fill="#4D4D4D"/>
<path d="M328.684 195.275C328.649 195.275 328.606 195.268 328.571 195.247C328.138 195.027 326.18 194.495 324.534 194.495C324.087 194.495 323.619 194.722 323.612 194.729C323.484 194.793 323.328 194.743 323.264 194.615C323.2 194.488 323.25 194.332 323.378 194.268C323.399 194.254 323.959 193.984 324.534 193.984C326.18 193.984 328.237 194.509 328.805 194.793C328.932 194.857 328.982 195.013 328.918 195.14C328.869 195.218 328.776 195.275 328.684 195.275Z" fill="#4D4D4D"/>
<path d="M317.781 195.016C317.689 195.016 317.597 194.967 317.547 194.874C317.483 194.747 317.533 194.591 317.661 194.527C318.179 194.264 319.761 193.477 320.832 193.207C320.974 193.172 321.109 193.257 321.144 193.399C321.18 193.541 321.094 193.675 320.953 193.711C319.945 193.966 318.399 194.732 317.888 194.988C317.859 195.009 317.817 195.016 317.781 195.016Z" fill="#4D4D4D"/>
<path d="M316.483 194.238C316.39 194.238 316.298 194.188 316.248 194.096C316.185 193.969 316.234 193.812 316.362 193.749C316.93 193.465 318.987 192.94 320.633 192.94C321.207 192.94 321.761 193.217 321.789 193.224C321.917 193.287 321.966 193.444 321.903 193.571C321.839 193.699 321.683 193.749 321.555 193.685C321.548 193.685 321.08 193.451 320.633 193.451C318.987 193.451 317.029 193.983 316.596 194.203C316.561 194.231 316.518 194.238 316.483 194.238Z" fill="#4D4D4D"/>
<path d="M324.399 194.89C324.186 194.89 324.016 194.72 324.009 194.507C324.009 194.394 323.76 183.242 324.534 176.538C324.555 176.325 324.754 176.169 324.966 176.197C325.179 176.218 325.335 176.417 325.307 176.63C324.541 183.277 324.789 194.379 324.789 194.493C324.796 194.706 324.626 194.883 324.406 194.89H324.399Z" fill="#4D4D4D"/>
<path d="M320.503 193.592C320.326 193.592 320.17 193.472 320.127 193.294C320.106 193.202 317.779 183.802 317.779 175.545C317.779 175.332 317.957 175.154 318.169 175.154C318.382 175.154 318.56 175.332 318.56 175.545C318.56 183.71 320.858 193.01 320.887 193.103C320.936 193.308 320.808 193.521 320.603 193.578C320.567 193.585 320.532 193.592 320.503 193.592Z" fill="#4D4D4D"/>
<path d="M338.289 158.537C341.403 155.94 342.964 151.783 343.22 149.967C343.482 148.151 346.078 149.187 344.518 153.862C343.737 156.458 342.702 158.537 342.702 158.537C342.702 158.537 346.859 151.783 348.412 152.045C349.973 152.308 347.114 157.501 343.482 159.835C348.937 156.721 350.754 156.458 350.754 157.238C350.754 158.019 343.744 162.694 339.85 162.169C338.807 160.097 338.289 158.537 338.289 158.537Z" fill="#DD6C78"/>
<path opacity="0.1" d="M338.289 158.537C341.403 155.94 342.964 151.783 343.22 149.967C343.482 148.151 346.078 149.187 344.518 153.862C343.737 156.458 342.702 158.537 342.702 158.537C342.702 158.537 346.859 151.783 348.412 152.045C349.973 152.308 347.114 157.501 343.482 159.835C348.937 156.721 350.754 156.458 350.754 157.238C350.754 158.019 343.744 162.694 339.85 162.169C338.807 160.097 338.289 158.537 338.289 158.537Z" fill="#6023B7"/>
<path d="M336.863 156.593C334.004 149.322 329.854 143.093 322.327 143.611C314.8 144.129 310.905 151.656 312.459 156.593C314.02 161.524 314.02 161.786 314.02 161.786C314.02 161.786 311.423 170.094 312.721 172.69C314.02 175.287 324.143 182.558 334.011 177.103C341.282 171.91 342.581 165.163 341.282 160.744C339.977 158.147 336.863 156.593 336.863 156.593Z" fill="#FFA099"/>
<path d="M312.438 170.805C312.572 171.805 313.388 172.281 314.438 172.167C315.211 172.082 316.205 171.82 316.871 170.826C317.361 170.089 317.368 169.308 317.517 168.748C317.829 167.542 317.623 166.946 317.269 166.946C316.935 166.946 317.035 168.152 317.815 169.422C318.255 170.138 318.865 170.805 319.901 171.181C320.823 171.515 321.525 171.444 322.121 171.053C322.752 170.642 323.299 169.996 323.568 169.216C323.838 168.436 323.937 167.542 323.852 166.84C323.675 165.399 322.533 166.648 323.199 168.116C323.49 168.762 324.242 169.344 325.356 169.897C326.214 170.33 326.839 170.266 327.42 169.961C328.03 169.642 328.435 169.067 328.761 168.322C329.052 167.648 329.201 166.91 329.272 166.187C329.371 165.265 329.329 164.498 329.102 164.052C328.57 162.994 328.073 163.846 328.605 165.073C328.861 165.655 329.229 166.4 330.23 166.896C331.095 167.329 331.868 166.875 332.571 166.18C333.145 165.612 333.557 164.839 333.869 163.952C334.181 163.073 334.55 162.186 334.465 161.384" stroke="#FFE3E3" stroke-miterlimit="10" stroke-linecap="round"/>
<path d="M332.997 159.851C331.862 165.249 335.558 173.209 339.821 175.202C344.085 177.196 341.24 169.804 341.24 169.804C341.24 169.804 346.639 168.952 346.071 166.675C345.504 164.398 341.212 163.107 341.212 163.107C341.212 163.107 344.936 163.547 344.936 162.412C344.936 161.277 334.132 151.891 332.997 159.851Z" fill="#FFC1C0"/>
<path d="M336.069 166.571C335.955 166.571 335.835 166.514 335.771 166.407C335.608 166.166 335.487 166.01 335.395 165.882C335.154 165.57 335.026 165.393 334.827 164.797C334.763 164.605 334.87 164.4 335.054 164.343C335.246 164.279 335.452 164.378 335.515 164.57C335.686 165.074 335.764 165.18 335.969 165.443C336.076 165.577 336.203 165.748 336.374 166.003C336.487 166.166 336.438 166.393 336.274 166.507C336.203 166.549 336.14 166.571 336.069 166.571Z" fill="#4D4D4D"/>
<path d="M336.856 169.157C336.763 169.157 336.671 169.122 336.6 169.051L336.48 168.938C336.281 168.746 336.182 168.64 335.99 168.257C335.898 168.079 335.976 167.859 336.153 167.774C336.331 167.689 336.551 167.76 336.636 167.937C336.778 168.228 336.827 168.278 336.983 168.42L337.111 168.547C337.253 168.689 337.253 168.916 337.111 169.058C337.04 169.122 336.948 169.157 336.856 169.157Z" fill="#4D4D4D"/>
<path d="M337.451 167.77C337.337 167.77 337.217 167.713 337.153 167.607C336.99 167.366 336.947 167.202 336.912 167.075C336.883 166.968 336.862 166.89 336.763 166.748C336.649 166.585 336.699 166.358 336.862 166.245C337.025 166.131 337.252 166.181 337.366 166.344C337.529 166.585 337.571 166.748 337.607 166.876C337.635 166.983 337.657 167.061 337.756 167.21C337.869 167.373 337.82 167.6 337.657 167.713C337.593 167.749 337.522 167.77 337.451 167.77Z" fill="#4D4D4D"/>
<path d="M338.645 171.271C338.552 171.271 338.46 171.236 338.389 171.165C338.29 171.066 338.24 171.037 338.169 170.995C338.077 170.938 337.971 170.874 337.808 170.711C337.666 170.569 337.666 170.342 337.808 170.2C337.949 170.058 338.176 170.058 338.318 170.2C338.418 170.3 338.467 170.328 338.538 170.37C338.631 170.427 338.737 170.491 338.9 170.654C339.042 170.796 339.042 171.023 338.9 171.165C338.829 171.236 338.737 171.271 338.645 171.271Z" fill="#4D4D4D"/>
<path d="M323.759 154.147C324.078 154.268 324.426 154.36 324.695 154.325C324.972 154.303 325.256 154.204 325.554 154.013C325.703 153.927 325.845 153.8 326.001 153.693C326.135 153.551 326.299 153.445 326.441 153.289L327.327 152.381L327.341 152.367C327.483 152.225 327.717 152.218 327.859 152.36C327.966 152.466 327.994 152.615 327.944 152.75C327.625 153.622 327.136 154.474 326.256 155.091C325.83 155.396 325.235 155.616 324.624 155.538C324.014 155.446 323.504 155.126 323.213 154.616C323.113 154.445 323.17 154.225 323.347 154.126C323.447 154.069 323.56 154.062 323.653 154.098L323.759 154.147Z" fill="#4D4D4D"/>
<path opacity="0.5" d="M329.846 154.253C328.172 152.912 326.47 155.289 326.732 155.814C326.994 156.331 331.145 155.296 329.846 154.253Z" fill="#DD6C78"/>
<path opacity="0.5" d="M316.091 158.928C315.034 158.133 313.757 159.446 314.53 159.963C315.303 160.481 317.126 159.708 316.091 158.928Z" fill="#DD6C78"/>
<path d="M317.028 157.417C316.9 157.757 316.723 158.048 316.489 158.325C316.262 158.601 315.971 158.857 315.574 159.02C315.191 159.197 314.644 159.197 314.247 158.97C313.836 158.758 313.63 158.41 313.481 158.091C313.403 157.92 313.474 157.722 313.644 157.637C313.75 157.587 313.871 157.601 313.963 157.658L314.02 157.693C314.268 157.849 314.481 158.006 314.666 158.041C314.843 158.091 314.978 158.084 315.176 158.02C315.368 157.949 315.588 157.814 315.808 157.644C316.021 157.473 316.24 157.261 316.446 157.069L316.475 157.041C316.609 156.913 316.829 156.92 316.957 157.062C317.049 157.161 317.07 157.296 317.028 157.417Z" fill="#4D4D4D"/>
<path d="M321.54 155.94C321.54 155.94 321.277 160.871 320.759 160.871C320.242 160.871 318.943 158.012 318.943 158.012L321.54 155.94Z" fill="#DD6C78"/>
<path d="M317.518 156.984C317.518 156.203 319.334 155.423 321.412 155.948C320.114 159.843 319.596 160.36 319.334 160.36C319.071 160.36 317.78 158.019 317.518 156.984Z" fill="#F5CE69"/>
<path d="M312.361 154.357C312.339 154.357 312.318 154.357 312.297 154.35C312.098 154.315 311.97 154.13 312.006 153.932C312.19 152.903 313.226 152.059 313.276 152.024C313.432 151.903 313.659 151.924 313.787 152.08C313.914 152.236 313.886 152.463 313.73 152.591C313.723 152.598 312.857 153.3 312.722 154.06C312.68 154.23 312.531 154.357 312.361 154.357Z" fill="#4D4D4D"/>
<path d="M322.838 148.781C322.746 148.781 322.654 148.745 322.576 148.674C322.434 148.532 322.441 148.298 322.583 148.156C322.696 148.043 323.349 147.511 325.271 148.064C325.463 148.121 325.576 148.32 325.52 148.511C325.463 148.703 325.264 148.809 325.073 148.759C323.555 148.327 323.079 148.674 323.079 148.681C323.015 148.752 322.923 148.781 322.838 148.781Z" fill="#4D4D4D"/>
<path d="M213.907 50.3296C211.174 50.3296 208.875 49.4595 207.012 47.7192C205.14 45.979 204.204 43.8125 204.204 41.2197C204.204 38.6094 205.136 36.4385 206.999 34.707C208.854 32.9844 211.183 32.123 213.986 32.123C215.445 32.123 216.834 32.4219 218.152 33.0195C219.444 33.626 220.521 34.4521 221.382 35.498V35.8804L218.139 38.6357H217.77C216.724 37.502 215.454 36.9351 213.96 36.9351C212.756 36.9351 211.741 37.3438 210.915 38.1611C210.08 38.9785 209.662 39.998 209.662 41.2197C209.662 42.4502 210.08 43.4741 210.915 44.2915C211.741 45.1089 212.756 45.5176 213.96 45.5176C215.463 45.5176 216.733 44.9507 217.77 43.8169H218.139L221.382 46.5723V46.9546C219.51 49.2046 217.019 50.3296 213.907 50.3296ZM235.225 48.3257C233.784 49.6616 231.96 50.3296 229.754 50.3296C227.548 50.3296 225.724 49.6616 224.283 48.3257C222.85 46.9985 222.134 45.3066 222.134 43.25C222.134 41.1934 222.85 39.5015 224.283 38.1743C225.724 36.8384 227.548 36.1704 229.754 36.1704C231.96 36.1704 233.784 36.8384 235.225 38.1743C236.649 39.5103 237.361 41.2021 237.361 43.25C237.361 45.3066 236.649 46.9985 235.225 48.3257ZM228.014 45.1221C228.479 45.623 229.06 45.8735 229.754 45.8735C230.448 45.8735 231.028 45.623 231.494 45.1221C231.951 44.6387 232.18 44.0146 232.18 43.25C232.18 42.4854 231.951 41.8569 231.494 41.3647C231.028 40.8726 230.448 40.6265 229.754 40.6265C229.06 40.6265 228.479 40.8726 228.014 41.3647C227.548 41.8745 227.315 42.5029 227.315 43.25C227.315 44.0059 227.548 44.6299 228.014 45.1221ZM248.013 36.1704C249.666 36.1704 251.019 36.7241 252.074 37.8315C253.128 38.939 253.656 40.3672 253.656 42.1162V50H248.356V42.4985C248.356 41.9272 248.202 41.4746 247.895 41.1406C247.587 40.7979 247.147 40.6265 246.576 40.6265C246.058 40.6265 245.64 40.7979 245.324 41.1406C245.007 41.4834 244.849 41.936 244.849 42.4985V50H239.562V36.5H243.874V38.1479C244.911 36.8296 246.291 36.1704 248.013 36.1704ZM265.996 37.5547V36.5H270.122V47.5742C270.122 49.8154 269.401 51.5381 267.96 52.7422C266.527 53.9375 264.638 54.5352 262.291 54.5352C259.558 54.5352 257.426 53.7441 255.897 52.1621V51.8062L257.888 49.1035H258.244C258.683 49.5693 259.294 49.9736 260.076 50.3164C260.814 50.6416 261.57 50.8042 262.344 50.8042C263.161 50.8042 263.864 50.6196 264.453 50.2505C265.042 49.8813 265.336 49.3408 265.336 48.6289V47.8643C264.308 48.4971 263.192 48.8135 261.988 48.8135C260.177 48.8135 258.674 48.2158 257.479 47.0205C256.275 45.8164 255.673 44.3091 255.673 42.4985C255.673 40.6792 256.279 39.1675 257.492 37.9634C258.688 36.7681 260.186 36.1704 261.988 36.1704C263.464 36.1704 264.8 36.6318 265.996 37.5547ZM261.553 44.3311C262.01 44.8145 262.59 45.0562 263.293 45.0562C263.996 45.0562 264.576 44.8145 265.033 44.3311C265.49 43.8477 265.719 43.2368 265.719 42.4985C265.719 41.7515 265.49 41.1362 265.033 40.6528C264.576 40.1694 263.996 39.9277 263.293 39.9277C262.59 39.9277 262.01 40.1694 261.553 40.6528C261.087 41.145 260.854 41.7603 260.854 42.4985C260.854 43.228 261.087 43.8389 261.553 44.3311ZM283.688 36.6846L283.925 37.0669L282.95 40.7056L282.581 40.9561C282.141 40.7363 281.574 40.6265 280.88 40.6265C280.124 40.6265 279.513 40.8462 279.047 41.2856C278.59 41.7163 278.362 42.2832 278.362 42.9863V50H273.075V36.5H277.386V38.2798C278.415 36.8735 279.685 36.1704 281.196 36.1704C282.102 36.1704 282.932 36.3418 283.688 36.6846ZM290.768 36.1704C292.543 36.1704 294.063 36.5703 295.329 37.3701C296.006 37.8096 296.533 38.4248 296.911 39.2158C297.298 39.998 297.491 40.9209 297.491 41.9844V50H293.365V48.9189C292.178 49.8418 290.816 50.312 289.278 50.3296C287.687 50.3296 286.399 49.9385 285.415 49.1562C284.431 48.3828 283.938 47.3589 283.938 46.0845C283.938 44.7046 284.475 43.584 285.547 42.7227C286.61 41.8701 288.017 41.4438 289.766 41.4438C290.601 41.4438 291.554 41.6152 292.626 41.958V41.5757C292.626 41.0747 292.363 40.666 291.835 40.3496C291.308 40.0332 290.667 39.875 289.911 39.875C288.874 39.875 287.924 40.1826 287.063 40.7979H286.694L285.099 38.2271V37.8447C285.846 37.2822 286.738 36.8647 287.775 36.5923C288.83 36.311 289.827 36.1704 290.768 36.1704ZM290.688 47.2183C291.295 47.2183 291.792 47.0337 292.178 46.6646C292.556 46.2954 292.745 45.8955 292.745 45.4648V44.8188C292.068 44.4937 291.383 44.3311 290.688 44.3311C290.135 44.3311 289.691 44.4629 289.357 44.7266C289.023 44.9902 288.856 45.3418 288.856 45.7812C288.856 46.2119 289.023 46.5591 289.357 46.8228C289.691 47.0864 290.135 47.2183 290.688 47.2183ZM309.146 45.4385L309.515 45.623L310.899 48.7607L310.728 49.1694C309.69 49.9429 308.434 50.3296 306.957 50.3296C305.419 50.3296 304.101 49.8726 303.002 48.9585C301.912 48.0532 301.367 46.6909 301.367 44.8716V40.2837H298.994V36.5H301.367V32.5845L306.192 32.0703L306.601 32.3208V36.5H310.438V40.2837H306.601V44.2783C306.601 45.3418 307.054 45.8735 307.959 45.8735C308.354 45.8735 308.75 45.7285 309.146 45.4385ZM321.05 44.0278V36.5H326.337V50H322.013V48.5366C321.037 49.7144 319.75 50.312 318.15 50.3296C316.498 50.3296 315.144 49.7891 314.089 48.708C313.035 47.627 312.507 46.1855 312.507 44.3838V36.5H317.807V44.0278C317.807 44.5728 317.952 45.0166 318.242 45.3594C318.532 45.7021 318.928 45.8735 319.429 45.8735C319.93 45.8735 320.325 45.7065 320.615 45.3726C320.905 45.0386 321.05 44.5903 321.05 44.0278ZM334.603 50H329.316V32.0967L334.194 31.5825L334.603 31.833V50ZM343.423 36.1704C345.198 36.1704 346.719 36.5703 347.984 37.3701C348.661 37.8096 349.188 38.4248 349.566 39.2158C349.953 39.998 350.146 40.9209 350.146 41.9844V50H346.02V48.9189C344.833 49.8418 343.471 50.312 341.933 50.3296C340.342 50.3296 339.055 49.9385 338.07 49.1562C337.086 48.3828 336.594 47.3589 336.594 46.0845C336.594 44.7046 337.13 43.584 338.202 42.7227C339.266 41.8701 340.672 41.4438 342.421 41.4438C343.256 41.4438 344.209 41.6152 345.282 41.958V41.5757C345.282 41.0747 345.018 40.666 344.491 40.3496C343.963 40.0332 343.322 39.875 342.566 39.875C341.529 39.875 340.58 40.1826 339.718 40.7979H339.349L337.754 38.2271V37.8447C338.501 37.2822 339.393 36.8647 340.43 36.5923C341.485 36.311 342.482 36.1704 343.423 36.1704ZM343.344 47.2183C343.95 47.2183 344.447 47.0337 344.833 46.6646C345.211 46.2954 345.4 45.8955 345.4 45.4648V44.8188C344.724 44.4937 344.038 44.3311 343.344 44.3311C342.79 44.3311 342.346 44.4629 342.012 44.7266C341.678 44.9902 341.511 45.3418 341.511 45.7812C341.511 46.2119 341.678 46.5591 342.012 46.8228C342.346 47.0864 342.79 47.2183 343.344 47.2183ZM361.801 45.4385L362.17 45.623L363.554 48.7607L363.383 49.1694C362.346 49.9429 361.089 50.3296 359.612 50.3296C358.074 50.3296 356.756 49.8726 355.657 48.9585C354.567 48.0532 354.022 46.6909 354.022 44.8716V40.2837H351.649V36.5H354.022V32.5845L358.848 32.0703L359.256 32.3208V36.5H363.093V40.2837H359.256V44.2783C359.256 45.3418 359.709 45.8735 360.614 45.8735C361.01 45.8735 361.405 45.7285 361.801 45.4385ZM370.159 33.5864C369.553 34.1929 368.828 34.4961 367.984 34.4961C367.123 34.4961 366.397 34.1929 365.809 33.5864C365.202 32.9976 364.899 32.2769 364.899 31.4243C364.899 30.5806 365.202 29.8555 365.809 29.249C366.406 28.6514 367.131 28.3525 367.984 28.3525C368.819 28.3525 369.544 28.6514 370.159 29.249C370.757 29.8643 371.056 30.5894 371.056 31.4243C371.056 32.2681 370.757 32.9888 370.159 33.5864ZM370.621 50H365.334V36.5H370.621V50ZM385.887 48.3257C384.446 49.6616 382.622 50.3296 380.416 50.3296C378.21 50.3296 376.386 49.6616 374.945 48.3257C373.512 46.9985 372.796 45.3066 372.796 43.25C372.796 41.1934 373.512 39.5015 374.945 38.1743C376.386 36.8384 378.21 36.1704 380.416 36.1704C382.622 36.1704 384.446 36.8384 385.887 38.1743C387.311 39.5103 388.023 41.2021 388.023 43.25C388.023 45.3066 387.311 46.9985 385.887 48.3257ZM378.676 45.1221C379.142 45.623 379.722 45.8735 380.416 45.8735C381.11 45.8735 381.69 45.623 382.156 45.1221C382.613 44.6387 382.842 44.0146 382.842 43.25C382.842 42.4854 382.613 41.8569 382.156 41.3647C381.69 40.8726 381.11 40.6265 380.416 40.6265C379.722 40.6265 379.142 40.8726 378.676 41.3647C378.21 41.8745 377.977 42.5029 377.977 43.25C377.977 44.0059 378.21 44.6299 378.676 45.1221ZM398.675 36.1704C400.328 36.1704 401.681 36.7241 402.736 37.8315C403.791 38.939 404.318 40.3672 404.318 42.1162V50H399.018V42.4985C399.018 41.9272 398.864 41.4746 398.557 41.1406C398.249 40.7979 397.81 40.6265 397.238 40.6265C396.72 40.6265 396.302 40.7979 395.986 41.1406C395.669 41.4834 395.511 41.936 395.511 42.4985V50H390.225V36.5H394.536V38.1479C395.573 36.8296 396.953 36.1704 398.675 36.1704ZM412.689 50.3823C411.31 50.3823 410.04 50.1494 408.879 49.6836C407.702 49.2266 406.801 48.6201 406.177 47.8643V47.4951L408.365 44.8979H408.748C409.187 45.311 409.802 45.689 410.593 46.0317C411.349 46.3569 412.083 46.5195 412.795 46.5195C413.437 46.5195 413.749 46.3394 413.731 45.979C413.731 45.6714 413.283 45.3813 412.386 45.1089C411.569 44.8804 410.927 44.6826 410.461 44.5156C409.96 44.3398 409.407 44.0762 408.8 43.7246C407.552 43.0127 406.928 41.9185 406.928 40.4419C406.928 39.106 407.46 38.0513 408.523 37.2778C409.587 36.5044 411.02 36.1177 412.821 36.1177C414.061 36.1177 415.221 36.3154 416.302 36.7109C417.392 37.1064 418.209 37.6382 418.754 38.3062V38.6885L416.592 41.1143H416.223C415.177 40.2529 414.061 39.8223 412.874 39.8223C412.206 39.8223 411.872 39.9761 411.872 40.2837C411.837 40.4155 411.938 40.5562 412.175 40.7056C412.413 40.8462 412.716 40.9692 413.085 41.0747C413.164 41.1011 413.45 41.1846 413.942 41.3252C414.417 41.4746 414.746 41.5845 414.931 41.6548C416.179 42.103 417.115 42.6611 417.739 43.3291C418.363 44.0059 418.675 44.9243 418.675 46.0845C418.675 47.3853 418.13 48.4224 417.04 49.1958C415.941 49.9868 414.491 50.3823 412.689 50.3823ZM425.28 42.8413H421.878L421.562 42.5249L421.048 32.2285L421.364 31.9121H425.794L426.124 32.2285L425.609 42.5249L425.28 42.8413ZM426.664 47.2446C426.664 48.0884 426.361 48.8135 425.754 49.4199C425.148 50.0264 424.423 50.3296 423.579 50.3296C422.727 50.3296 422.006 50.0264 421.417 49.4199C420.811 48.8135 420.507 48.0884 420.507 47.2446C420.507 46.4009 420.811 45.6758 421.417 45.0693C422.015 44.4717 422.735 44.1729 423.579 44.1729C424.414 44.1729 425.139 44.4717 425.754 45.0693C426.361 45.6758 426.664 46.4009 426.664 47.2446Z" fill="#30426D"/>
<path d="M238.614 215.11H234.58V226H233.657V215.11H229.667V214.302H238.614V215.11ZM244.45 216.78C245.54 216.78 246.419 217.117 247.087 217.791C247.755 218.471 248.089 219.353 248.089 220.437V226H247.201V220.507C247.201 219.622 246.94 218.913 246.419 218.38C245.897 217.858 245.2 217.598 244.327 217.598C243.431 217.598 242.695 217.876 242.121 218.433C241.547 218.989 241.26 219.707 241.26 220.586V226H240.381V213.836L241.172 213.722L241.26 213.774V218.406C241.945 217.322 243.009 216.78 244.45 216.78ZM254.127 216.78C255.275 216.78 256.169 217.091 256.808 217.712C257.446 218.333 257.766 219.188 257.766 220.278V226H256.904V224.611C256.553 225.115 256.081 225.511 255.489 225.798C254.897 226.079 254.265 226.22 253.591 226.22C252.554 226.22 251.722 225.953 251.095 225.42C250.456 224.893 250.137 224.204 250.137 223.354C250.137 222.47 250.479 221.761 251.165 221.228C251.845 220.688 252.744 220.419 253.863 220.419C254.918 220.419 255.932 220.683 256.904 221.21V220.129C256.904 219.373 256.652 218.761 256.148 218.292C255.65 217.829 254.977 217.598 254.127 217.598C252.99 217.598 251.988 217.993 251.121 218.784H251.033L250.638 218.222V218.151C251.065 217.729 251.593 217.396 252.22 217.149C252.847 216.903 253.482 216.78 254.127 216.78ZM253.644 225.402C254.528 225.402 255.293 225.162 255.938 224.682C256.582 224.207 256.904 223.565 256.904 222.757V222.036C255.932 221.485 254.924 221.21 253.881 221.21C253.031 221.21 252.349 221.406 251.833 221.799C251.312 222.197 251.051 222.722 251.051 223.372C251.051 223.97 251.291 224.456 251.771 224.831C252.258 225.212 252.882 225.402 253.644 225.402ZM264.665 224.972L264.753 224.989L265.061 225.569L265.025 225.657C264.574 226.021 264.035 226.208 263.408 226.22C262.623 226.22 262.011 225.988 261.571 225.525C261.138 225.057 260.921 224.392 260.921 223.53V217.773H259.339V217H260.921V214.196L261.729 214.082L261.8 214.135V217H264.718V217.773H261.8V223.513C261.8 224.772 262.354 225.402 263.461 225.402C263.977 225.402 264.378 225.259 264.665 224.972ZM266.537 217.536H266.449L266.124 217.29V217.22C266.722 216.394 267.021 215.805 267.021 215.453C266.804 215.418 266.628 215.327 266.493 215.181C266.364 215.028 266.3 214.844 266.3 214.627C266.3 214.387 266.379 214.185 266.537 214.021C266.701 213.856 266.903 213.774 267.144 213.774C267.396 213.774 267.601 213.859 267.759 214.029C267.917 214.199 267.996 214.422 267.996 214.697C268.02 215.301 267.533 216.247 266.537 217.536ZM271.986 226.22C270.568 226.22 269.476 225.666 268.708 224.559V224.471L269.271 224.04H269.358C269.61 224.462 269.965 224.796 270.422 225.042C270.879 225.282 271.383 225.402 271.934 225.402C272.613 225.402 273.158 225.253 273.568 224.954C273.979 224.655 274.184 224.254 274.184 223.75C274.184 223.375 274.028 223 273.718 222.625C273.601 222.484 273.41 222.344 273.146 222.203C272.895 222.062 272.692 221.963 272.54 221.904C272.358 221.834 272.109 221.734 271.793 221.605C271.623 221.541 271.532 221.506 271.521 221.5C270.882 221.225 270.375 220.938 270 220.639C269.525 220.264 269.288 219.76 269.288 219.127C269.288 218.424 269.552 217.858 270.079 217.431C270.612 216.997 271.289 216.78 272.109 216.78C272.695 216.78 273.243 216.912 273.753 217.176C274.251 217.445 274.646 217.806 274.939 218.257V218.354L274.386 218.784H274.307C273.768 217.993 273.023 217.598 272.074 217.598C271.512 217.598 271.055 217.729 270.703 217.993C270.357 218.257 270.185 218.608 270.185 219.048C270.185 219.429 270.319 219.742 270.589 219.988C270.864 220.234 271.312 220.492 271.934 220.762C273.023 221.213 273.727 221.55 274.043 221.772C274.74 222.271 275.086 222.93 275.08 223.75C275.08 224.5 274.796 225.098 274.228 225.543C273.653 225.994 272.906 226.22 271.986 226.22ZM285.117 216.78C286.266 216.78 287.159 217.091 287.798 217.712C288.437 218.333 288.756 219.188 288.756 220.278V226H287.895V224.611C287.543 225.115 287.071 225.511 286.479 225.798C285.888 226.079 285.255 226.22 284.581 226.22C283.544 226.22 282.712 225.953 282.085 225.42C281.446 224.893 281.127 224.204 281.127 223.354C281.127 222.47 281.47 221.761 282.155 221.228C282.835 220.688 283.734 220.419 284.854 220.419C285.908 220.419 286.922 220.683 287.895 221.21V220.129C287.895 219.373 287.643 218.761 287.139 218.292C286.641 217.829 285.967 217.598 285.117 217.598C283.98 217.598 282.979 217.993 282.111 218.784H282.023L281.628 218.222V218.151C282.056 217.729 282.583 217.396 283.21 217.149C283.837 216.903 284.473 216.78 285.117 216.78ZM284.634 225.402C285.519 225.402 286.283 225.162 286.928 224.682C287.572 224.207 287.895 223.565 287.895 222.757V222.036C286.922 221.485 285.914 221.21 284.871 221.21C284.021 221.21 283.339 221.406 282.823 221.799C282.302 222.197 282.041 222.722 282.041 223.372C282.041 223.97 282.281 224.456 282.762 224.831C283.248 225.212 283.872 225.402 284.634 225.402ZM302.37 216.78C303.454 216.78 304.307 217.114 304.928 217.782C305.549 218.444 305.859 219.329 305.859 220.437V226H304.963V220.507C304.963 219.61 304.723 218.901 304.242 218.38C303.756 217.858 303.088 217.598 302.238 217.598C301.354 217.598 300.627 217.876 300.059 218.433C299.496 218.989 299.215 219.707 299.215 220.586V226H298.301V220.507C298.301 219.61 298.061 218.901 297.58 218.38C297.094 217.858 296.426 217.598 295.576 217.598C294.691 217.598 293.965 217.876 293.396 218.433C292.834 218.989 292.553 219.707 292.553 220.586V226H291.656V217H292.5V218.477C293.186 217.346 294.255 216.78 295.708 216.78C296.476 216.78 297.141 216.962 297.703 217.325C298.266 217.688 298.673 218.192 298.925 218.837C299.212 218.198 299.66 217.694 300.27 217.325C300.879 216.962 301.579 216.78 302.37 216.78ZM311.889 216.78C313.037 216.78 313.931 217.091 314.569 217.712C315.208 218.333 315.527 219.188 315.527 220.278V226H314.666V224.611C314.314 225.115 313.843 225.511 313.251 225.798C312.659 226.079 312.026 226.22 311.353 226.22C310.315 226.22 309.483 225.953 308.856 225.42C308.218 224.893 307.898 224.204 307.898 223.354C307.898 222.47 308.241 221.761 308.927 221.228C309.606 220.688 310.506 220.419 311.625 220.419C312.68 220.419 313.693 220.683 314.666 221.21V220.129C314.666 219.373 314.414 218.761 313.91 218.292C313.412 217.829 312.738 217.598 311.889 217.598C310.752 217.598 309.75 217.993 308.883 218.784H308.795L308.399 218.222V218.151C308.827 217.729 309.354 217.396 309.981 217.149C310.608 216.903 311.244 216.78 311.889 216.78ZM311.405 225.402C312.29 225.402 313.055 225.162 313.699 224.682C314.344 224.207 314.666 223.565 314.666 222.757V222.036C313.693 221.485 312.686 221.21 311.643 221.21C310.793 221.21 310.11 221.406 309.595 221.799C309.073 222.197 308.812 222.722 308.812 223.372C308.812 223.97 309.053 224.456 309.533 224.831C310.02 225.212 310.644 225.402 311.405 225.402ZM324.694 226H317.417V225.367L323.235 217.738H317.707V217H324.369V217.633L318.551 225.262H324.694V226ZM327.99 214.557C327.99 214.791 327.905 214.99 327.735 215.154C327.565 215.318 327.366 215.4 327.138 215.4C326.909 215.4 326.713 215.318 326.549 215.154C326.385 214.99 326.303 214.791 326.303 214.557C326.303 214.316 326.385 214.114 326.549 213.95C326.713 213.786 326.909 213.704 327.138 213.704C327.366 213.704 327.565 213.786 327.735 213.95C327.905 214.114 327.99 214.316 327.99 214.557ZM327.568 226H326.689V217H327.568V226ZM334.714 216.78C335.815 216.78 336.7 217.117 337.368 217.791C338.036 218.471 338.37 219.353 338.37 220.437V226H337.465V220.507C337.465 219.634 337.204 218.928 336.683 218.389C336.161 217.861 335.47 217.598 334.608 217.598C333.712 217.598 332.977 217.876 332.402 218.433C331.828 218.989 331.541 219.707 331.541 220.586V226H330.645V217H331.488V218.459C332.174 217.34 333.249 216.78 334.714 216.78ZM348.302 218.494V217H349.163V224.778C349.163 226.097 348.765 227.11 347.968 227.819C347.171 228.528 346.148 228.883 344.9 228.883C344.045 228.883 343.263 228.707 342.554 228.355C341.833 227.992 341.265 227.506 340.849 226.896V226.809L341.402 226.343H341.481C342.267 227.497 343.412 228.074 344.918 228.074C345.943 228.074 346.758 227.79 347.361 227.222C347.965 226.653 348.267 225.845 348.267 224.796V223.478C347.47 224.585 346.33 225.145 344.848 225.156C343.617 225.156 342.595 224.755 341.78 223.952C340.966 223.155 340.559 222.162 340.559 220.973C340.559 219.789 340.969 218.793 341.789 217.984C342.609 217.182 343.635 216.78 344.865 216.78C346.365 216.78 347.511 217.352 348.302 218.494ZM342.431 223.398C343.058 224.031 343.875 224.348 344.883 224.348C345.891 224.348 346.714 224.028 347.353 223.39C347.985 222.751 348.302 221.945 348.302 220.973C348.302 220 347.982 219.194 347.344 218.556C346.705 217.917 345.885 217.598 344.883 217.598C343.887 217.598 343.072 217.917 342.439 218.556C341.801 219.194 341.481 220.003 341.481 220.981C341.481 221.972 341.798 222.777 342.431 223.398ZM360.853 216.78C361.954 216.78 362.839 217.117 363.507 217.791C364.175 218.471 364.509 219.353 364.509 220.437V226H363.604V220.507C363.604 219.634 363.343 218.928 362.821 218.389C362.3 217.861 361.608 217.598 360.747 217.598C359.851 217.598 359.115 217.876 358.541 218.433C357.967 218.989 357.68 219.707 357.68 220.586V226H356.783V217H357.627V218.459C358.312 217.34 359.388 216.78 360.853 216.78ZM375.486 221.79H367.603C367.673 222.88 368.062 223.753 368.771 224.409C369.486 225.071 370.339 225.402 371.329 225.402C371.944 225.402 372.565 225.262 373.192 224.98C373.813 224.693 374.294 224.312 374.634 223.838H374.73L375.267 224.286V224.383C374.851 224.957 374.285 225.405 373.57 225.728C372.855 226.056 372.114 226.22 371.347 226.22C370.063 226.22 368.968 225.789 368.06 224.928C367.151 224.072 366.697 222.936 366.697 221.518C366.697 220.17 367.119 219.042 367.963 218.134C368.795 217.231 369.861 216.78 371.162 216.78C372.568 216.78 373.667 217.305 374.458 218.354C375.167 219.186 375.521 220.199 375.521 221.395C375.521 221.523 375.51 221.655 375.486 221.79ZM371.162 217.598C370.178 217.598 369.363 217.905 368.719 218.521C368.062 219.147 367.696 219.962 367.62 220.964H374.599C374.528 220.179 374.288 219.517 373.878 218.978C373.274 218.058 372.369 217.598 371.162 217.598ZM388.16 217H389.048L389.083 217.088L385.84 226H385.374L382.729 218.652L380.083 226H379.617L376.392 217.088L376.444 217H377.323L379.828 224.365L382.474 217H383.001L385.629 224.4L388.16 217ZM393.029 226.22C391.611 226.22 390.519 225.666 389.751 224.559V224.471L390.313 224.04H390.401C390.653 224.462 391.008 224.796 391.465 225.042C391.922 225.282 392.426 225.402 392.977 225.402C393.656 225.402 394.201 225.253 394.611 224.954C395.021 224.655 395.227 224.254 395.227 223.75C395.227 223.375 395.071 223 394.761 222.625C394.644 222.484 394.453 222.344 394.189 222.203C393.938 222.062 393.735 221.963 393.583 221.904C393.401 221.834 393.152 221.734 392.836 221.605C392.666 221.541 392.575 221.506 392.563 221.5C391.925 221.225 391.418 220.938 391.043 220.639C390.568 220.264 390.331 219.76 390.331 219.127C390.331 218.424 390.595 217.858 391.122 217.431C391.655 216.997 392.332 216.78 393.152 216.78C393.738 216.78 394.286 216.912 394.796 217.176C395.294 217.445 395.689 217.806 395.982 218.257V218.354L395.429 218.784H395.35C394.811 217.993 394.066 217.598 393.117 217.598C392.555 217.598 392.098 217.729 391.746 217.993C391.4 218.257 391.228 218.608 391.228 219.048C391.228 219.429 391.362 219.742 391.632 219.988C391.907 220.234 392.355 220.492 392.977 220.762C394.066 221.213 394.77 221.55 395.086 221.772C395.783 222.271 396.129 222.93 396.123 223.75C396.123 224.5 395.839 225.098 395.271 225.543C394.696 225.994 393.949 226.22 393.029 226.22ZM399.34 225.965C399.176 226.135 398.979 226.22 398.751 226.22C398.522 226.22 398.326 226.135 398.162 225.965C397.998 225.795 397.916 225.596 397.916 225.367C397.916 225.133 397.998 224.934 398.162 224.77C398.326 224.605 398.522 224.523 398.751 224.523C398.979 224.523 399.176 224.605 399.34 224.77C399.498 224.934 399.577 225.133 399.577 225.367C399.577 225.596 399.498 225.795 399.34 225.965Z" fill="#4D4D4D"/>
</svg>
