<svg width="574" height="127" viewBox="0 0 574 127" fill="none" xmlns="http://www.w3.org/2000/svg">
<path d="M0 10.3529C0 4.83006 4.47715 0.352905 10 0.352905H564C569.523 0.352905 574 4.83006 574 10.3529V116.353C574 121.876 569.523 126.353 564 126.353H10C4.47715 126.353 0 121.876 0 116.353V10.3529Z" fill="#F57D7D"/>
<mask id="mask0_16_13209" style="mask-type:alpha" maskUnits="userSpaceOnUse" x="0" y="0" width="574" height="127">
<path d="M0 10.3529C0 4.83006 4.47715 0.352905 10 0.352905H564C569.523 0.352905 574 4.83006 574 10.3529V116.353C574 121.876 569.523 126.353 564 126.353H10C4.47715 126.353 0 121.876 0 116.353V10.3529Z" fill="#F57D7D"/>
</mask>
<g mask="url(#mask0_16_13209)">
<path d="M299.758 73.4336C320.444 111.229 393.283 149.367 440.557 135.077C500.216 117.049 526.105 35.1954 483.289 10.8708C472.494 4.73994 454.964 4.36226 445.34 12.7368C440.261 17.1511 437.669 23.772 437.282 30.3209C436.893 36.8445 438.585 43.1623 440.678 49.3104C429.898 41.8371 418.698 33.8886 404.971 32.8366C377.916 30.7404 360.756 62.3596 376.29 83.1928C390.636 102.42 419.637 107.291 442.578 107.164C467.993 107.029 489.727 106.272 514.47 100.685C539.213 95.0985 563.333 84.2355 580.307 66.1184" stroke="#FBF8EF" stroke-width="2.07" stroke-linecap="round" stroke-linejoin="round"/>
</g>
<path d="M52.56 46.9529C40.71 56.8029 31.76 58.0029 29.36 53.4529C24.71 44.7029 42.11 30.1529 53.56 31.2529C58.01 31.7029 58.26 34.0029 55.86 34.7529C55.46 34.9029 55.16 35.3529 55.16 35.8029C55.16 36.6029 55.91 36.9529 56.51 36.9029C60.86 35.6029 60.41 29.7529 53.76 29.0529C41.21 27.8529 21.86 43.9529 27.46 54.4529C30.66 60.5029 41.41 59.0529 53.96 48.6529C54.16 48.4529 54.36 48.2029 54.36 47.8029C54.36 46.8529 53.26 46.3529 52.56 46.9529ZM60.4115 43.9529C64.1615 45.4029 59.4615 53.6529 55.0115 51.9529C51.8615 50.7529 55.5115 44.4029 59.7615 42.8529C59.7615 43.3529 60.0115 43.7529 60.4115 43.9529ZM54.2115 54.0529C60.4615 56.3529 66.9115 45.7029 62.1615 42.3529C62.4115 42.1529 62.6115 41.8029 62.6115 41.4529C62.6115 40.8529 62.1115 40.3529 61.5115 40.3529C55.0115 40.3529 47.9115 51.7029 54.2115 54.0529ZM89.4354 47.0529C87.4854 48.8029 85.1354 50.3529 83.9354 50.0529C83.1854 49.9029 83.0854 48.8029 83.5854 46.8529C83.6854 46.3029 83.8854 45.7529 84.1354 45.2029C84.8354 43.3029 85.1854 41.6029 83.1854 41.4029C81.0854 41.2529 76.7854 45.2529 73.3854 48.6029L73.9354 46.9529C74.3354 45.6029 74.6854 44.4529 74.9854 43.7029C75.6354 41.8029 74.2354 40.7529 72.6354 42.4029C72.2354 42.7529 71.7854 43.3029 71.2854 43.8529C70.3354 44.9029 69.2354 46.1029 68.1354 47.0029C67.9854 47.2029 67.7854 47.4529 67.7854 47.8529C67.7854 48.8029 68.8854 49.3029 69.5854 48.7029C70.2854 48.1029 71.0354 47.4029 71.6854 46.7029C71.2354 48.0529 70.7854 49.5029 70.3354 50.7529C69.6354 52.7529 70.6854 54.3529 72.8354 52.2529C75.9354 49.3029 80.1354 45.0529 82.2354 43.9029L82.1854 43.9529C81.9354 44.6029 81.6354 45.4529 81.3854 46.3529C80.8354 48.8529 81.0354 51.7029 83.4354 52.2529C85.6354 52.6529 88.7354 50.6029 90.8854 48.7029C92.0854 47.7029 90.4354 46.0529 89.4354 47.0529ZM108.724 46.9529C106.574 48.7529 104.524 50.6029 102.624 52.4029C103.274 48.4029 103.624 45.1529 103.624 43.5529C103.624 42.7029 103.574 42.1529 103.074 41.7029C102.574 41.3529 101.874 41.2529 100.924 42.0029L100.574 42.3029C100.574 41.9029 100.324 41.5029 99.9244 41.3029C94.4244 39.0529 85.6244 49.5529 89.6244 52.4029C92.3744 53.9529 96.9744 49.0529 99.9244 46.0529L101.374 44.5529C101.274 46.7529 100.774 50.6029 99.9244 55.0529C91.4744 63.6029 85.8744 71.8029 83.9244 77.3529C80.6744 86.5529 88.6244 89.4029 93.5244 81.9529C97.3744 76.2529 100.274 65.0529 101.974 56.1029C104.474 53.6529 107.174 51.1029 110.124 48.6529C110.324 48.4529 110.524 48.2029 110.524 47.8029C110.524 46.8529 109.374 46.3529 108.724 46.9529ZM86.0244 78.1529C87.6744 73.3029 92.1744 66.4529 99.1244 59.0529C97.4244 67.1029 94.8244 76.0029 91.7244 80.7529C87.9744 86.3529 83.5744 85.0029 86.0244 78.1529ZM90.8244 50.5529C89.3744 49.1029 95.4244 41.9029 99.0244 43.4029C99.1244 43.4529 99.2244 43.4529 99.3244 43.4529L98.0744 44.7529C95.2744 47.6529 92.0244 50.9529 90.8244 50.5529ZM123.114 47.0529C121.114 48.8529 118.814 50.5029 117.764 50.1029C117.114 49.8529 117.214 48.8529 117.414 47.1529C117.564 46.0529 117.714 44.7029 117.364 43.7029C116.914 42.8029 115.964 42.2029 115.214 41.7529C115.164 41.7029 115.114 41.6529 115.064 41.6529C115.164 41.2529 115.264 40.8029 115.264 40.4029C115.414 35.7029 111.014 35.9029 111.164 39.7029C111.214 40.8529 111.764 41.7529 112.414 42.4029C111.714 43.8029 110.464 45.3029 108.664 47.0029C107.464 48.0029 109.114 49.6529 110.114 48.6529C111.964 47.0029 113.364 45.2529 114.214 43.7529C114.814 44.1529 115.164 44.3529 115.314 44.6029C115.464 45.0029 115.364 45.8029 115.214 46.8529C115.014 48.7029 114.664 51.3529 116.964 52.2029C119.214 53.0529 122.464 50.6029 124.564 48.7029C125.764 47.7029 124.114 46.0529 123.114 47.0529ZM140.616 47.0029C137.816 49.6529 135.566 51.1029 134.966 50.9029C134.666 50.6529 134.916 49.2529 135.266 47.4029C135.466 46.3529 135.716 45.2029 135.666 44.3529C135.566 42.6529 134.366 42.0529 132.866 42.9029L132.916 42.6529C132.916 42.2029 132.666 41.8029 132.266 41.6029C128.116 40.0529 123.016 46.1029 121.616 49.8029C120.966 51.7029 121.316 53.1029 122.416 53.6529C123.366 54.2029 124.716 53.9529 126.416 52.5029C127.716 51.4029 129.166 49.8029 130.516 48.3029C131.616 47.1029 132.616 46.0029 133.416 45.3029L133.166 46.8029C132.666 49.4029 132.266 51.8529 133.966 52.8029C135.816 53.8529 139.166 51.4029 142.066 48.6529C143.216 47.6529 141.616 46.0029 140.616 47.0029ZM123.416 51.7529C123.366 51.7029 123.316 51.6029 123.716 50.6029C124.866 47.4029 128.866 42.7529 131.416 43.7029C131.566 43.7529 131.666 43.7529 131.816 43.7529C130.966 44.5529 129.916 45.7029 128.866 46.8529C127.516 48.3029 126.166 49.8029 125.016 50.8029C123.916 51.7529 123.566 51.8529 123.416 51.7529ZM160.046 35.5029C159.146 34.2029 156.946 33.7529 153.746 33.7529C153.996 33.2529 154.296 32.7529 154.496 32.2029C154.946 31.2529 155.096 30.5529 155.046 30.2029C154.496 28.6029 152.996 28.9029 152.046 31.4029L151.096 33.8529C148.046 34.0029 144.196 34.4529 139.546 35.0529C138.946 35.1029 138.496 35.5529 138.496 36.1529C138.496 36.8029 139.046 37.3029 139.696 37.2529C143.696 36.7029 147.146 36.3029 149.896 36.1029C147.046 40.7029 143.796 44.2529 140.696 46.9529C140.496 47.1529 140.296 47.4029 140.296 47.8029C140.296 48.7529 141.396 49.2529 142.096 48.6529C144.146 46.9529 146.246 44.8529 148.196 42.3529C146.746 47.3529 145.846 52.5029 147.946 54.4029C148.996 55.5029 150.496 53.7029 149.396 52.7529C147.496 50.9529 150.446 41.9529 152.696 35.9529C156.096 35.8529 157.746 36.1029 158.296 36.8029C159.046 37.8029 158.146 40.4029 157.046 43.4029C155.746 46.9029 154.246 50.9029 156.846 52.2529C159.346 53.5529 163.496 50.1529 166.696 47.1529C166.446 48.8529 166.796 50.5529 168.446 51.4029C170.496 52.5029 174.446 50.7029 176.696 48.7029C177.896 47.7029 176.296 46.0529 175.246 47.0529C173.296 48.7529 170.496 49.9529 169.446 49.5029C168.446 48.9029 168.696 47.4029 169.546 45.5029C170.546 43.1529 169.596 41.5529 167.796 43.1029C164.446 46.2029 159.496 51.1529 157.846 50.3529C156.996 49.9029 157.796 47.6029 158.996 44.4529C160.146 41.3029 161.496 37.6529 160.146 35.6529L160.046 35.5029ZM176.863 48.6029C179.013 46.7029 180.913 44.7029 182.513 42.7529C181.513 47.1529 181.513 51.3029 184.113 52.2029C186.363 52.9529 189.613 50.5529 191.713 48.6529C192.913 47.6529 191.263 46.0029 190.263 47.0029C188.263 48.8029 185.913 50.4529 184.913 50.1029C183.013 49.4529 184.213 43.2029 186.263 37.8029C187.563 35.8029 188.463 34.1029 188.863 33.0029C189.663 30.6029 187.813 30.0029 186.663 31.7529C185.913 32.9529 185.063 34.7029 184.363 36.6529C182.363 39.6029 179.413 43.3529 175.413 46.9529C174.213 47.9529 175.863 49.6029 176.863 48.6029ZM207.706 47.0029C204.906 49.6529 202.656 51.1029 202.056 50.9029C201.756 50.6529 202.006 49.2529 202.356 47.4029C202.556 46.3529 202.806 45.2029 202.756 44.3529C202.656 42.6529 201.456 42.0529 199.956 42.9029L200.006 42.6529C200.006 42.2029 199.756 41.8029 199.356 41.6029C195.206 40.0529 190.106 46.1029 188.706 49.8029C188.056 51.7029 188.406 53.1029 189.506 53.6529C190.456 54.2029 191.806 53.9529 193.506 52.5029C194.806 51.4029 196.256 49.8029 197.606 48.3029C198.706 47.1029 199.706 46.0029 200.506 45.3029L200.256 46.8029C199.756 49.4029 199.356 51.8529 201.056 52.8029C202.906 53.8529 206.256 51.4029 209.156 48.6529C210.306 47.6529 208.706 46.0029 207.706 47.0029ZM190.506 51.7529C190.456 51.7029 190.406 51.6029 190.806 50.6029C191.956 47.4029 195.956 42.7529 198.506 43.7029C198.656 43.7529 198.756 43.7529 198.906 43.7529C198.056 44.5529 197.006 45.7029 195.956 46.8529C194.606 48.3029 193.256 49.8029 192.106 50.8029C191.006 51.7529 190.656 51.8529 190.506 51.7529ZM235.736 34.5529C235.686 33.5529 234.786 32.5029 232.636 32.2029C230.286 31.9529 226.336 32.2029 221.036 33.0529L221.436 32.2029C222.286 30.4529 222.286 29.8029 221.336 29.3029C220.386 29.0029 219.936 29.5029 219.136 31.4029L218.836 32.2029C218.686 32.5529 218.536 32.9529 218.386 33.4029L218.336 33.5029C215.286 34.0529 211.936 34.7529 208.186 35.6529C207.736 35.8029 207.386 36.2529 207.386 36.7029C207.386 37.5029 208.136 37.8529 208.686 37.8029C211.636 37.0529 214.386 36.4529 216.936 36.0029C214.136 40.6529 210.936 44.2529 207.786 46.9529C207.586 47.1529 207.386 47.4029 207.386 47.8029C207.386 48.7529 208.486 49.2529 209.186 48.6529C211.286 46.9029 213.436 44.7029 215.436 42.1029C214.136 46.9029 213.586 51.6029 216.636 52.2529C218.786 52.6529 221.936 50.5529 224.036 48.6529C225.236 47.6529 223.586 46.0029 222.586 47.0029C220.636 48.8029 218.286 50.3529 217.086 50.0529C215.036 49.6529 217.836 41.2529 219.986 35.4529C225.936 34.4529 230.036 34.1029 232.336 34.4029C233.436 34.5529 233.536 34.6029 233.536 34.7029C233.586 35.2529 234.036 35.7029 234.636 35.7029C235.236 35.7029 235.736 35.2029 235.736 34.5529ZM233.78 47.0029C231.78 48.8029 229.43 50.4529 228.43 50.1029C227.33 49.7029 228.28 46.4529 228.83 44.3529C229.13 43.5529 228.88 42.8529 228.33 42.5529C227.83 42.3029 227.23 42.5029 226.63 43.1529C225.83 44.0529 224.23 45.6029 222.63 46.9529C222.43 47.1529 222.23 47.4029 222.23 47.8029C222.23 48.7529 223.38 49.2529 224.03 48.6529L225.98 46.9029C225.63 49.0529 225.68 51.4529 227.63 52.2029C229.88 52.9529 233.13 50.5529 235.23 48.6529C236.43 47.6529 234.78 46.0029 233.78 47.0029ZM228.53 36.9529C227.13 37.8529 227.28 39.5029 229.03 39.8029C230.88 40.1529 231.98 39.0029 231.98 38.0029C231.98 37.0529 231.08 36.0529 229.13 36.5029C228.88 36.5529 228.68 36.7529 228.53 36.9529ZM229.43 37.6029C229.48 37.6029 229.53 37.6029 229.58 37.6529L229.43 37.6029ZM241.662 43.9529C245.412 45.4029 240.712 53.6529 236.262 51.9529C233.112 50.7529 236.762 44.4029 241.012 42.8529C241.012 43.3529 241.262 43.7529 241.662 43.9529ZM235.462 54.0529C241.712 56.3529 248.162 45.7029 243.412 42.3529C243.662 42.1529 243.862 41.8029 243.862 41.4529C243.862 40.8529 243.362 40.3529 242.762 40.3529C236.262 40.3529 229.162 51.7029 235.462 54.0529ZM270.685 47.0529C268.735 48.8029 266.385 50.3529 265.185 50.0529C264.435 49.9029 264.335 48.8029 264.835 46.8529C264.935 46.3029 265.135 45.7529 265.385 45.2029C266.085 43.3029 266.435 41.6029 264.435 41.4029C262.335 41.2529 258.035 45.2529 254.635 48.6029L255.185 46.9529C255.585 45.6029 255.935 44.4529 256.235 43.7029C256.885 41.8029 255.485 40.7529 253.885 42.4029C253.485 42.7529 253.035 43.3029 252.535 43.8529C251.585 44.9029 250.485 46.1029 249.385 47.0029C249.235 47.2029 249.035 47.4529 249.035 47.8529C249.035 48.8029 250.135 49.3029 250.835 48.7029C251.535 48.1029 252.285 47.4029 252.935 46.7029C252.485 48.0529 252.035 49.5029 251.585 50.7529C250.885 52.7529 251.935 54.3529 254.085 52.2529C257.185 49.3029 261.385 45.0529 263.485 43.9029L263.435 43.9529C263.185 44.6029 262.885 45.4529 262.635 46.3529C262.085 48.8529 262.285 51.7029 264.685 52.2529C266.885 52.6529 269.985 50.6029 272.135 48.7029C273.335 47.7029 271.685 46.0529 270.685 47.0529ZM272.174 54.0029C278.224 54.3529 280.524 49.8029 278.324 43.3529C278.124 42.9029 278.024 42.5029 277.874 42.0029C278.474 41.1529 278.924 40.2529 279.174 39.5029C279.674 37.9529 279.324 36.7029 278.074 36.4029C276.874 36.1029 275.874 36.8029 275.474 38.3029C275.324 39.1529 275.324 40.3529 275.524 41.6029C274.224 43.5529 272.324 45.6529 270.724 47.0029C270.524 47.2029 270.324 47.4529 270.324 47.8529C270.324 48.8029 271.424 49.3029 272.124 48.7029C273.474 47.6029 275.024 45.9529 276.274 44.3029C278.024 49.4529 276.774 52.0529 272.174 51.8029C271.574 51.8029 271.074 52.3029 271.074 52.9029C271.074 53.5029 271.574 54.0029 272.174 54.0029ZM292.056 43.6529C293.206 40.0529 296.906 33.8529 299.906 30.6529C301.006 29.6029 299.206 28.1029 298.256 29.2029C295.156 32.6029 291.106 39.2029 289.906 43.0029C289.856 43.6029 290.206 44.3529 291.006 44.3529C291.456 44.3529 291.906 44.0529 292.056 43.6529ZM286.756 51.4029C286.856 52.4529 287.906 53.1029 289.406 52.5529C291.806 51.4529 291.706 49.6529 290.656 48.9529C289.906 48.4529 288.556 48.4529 287.206 49.7529C286.906 50.0529 286.806 50.4029 286.856 50.7029C286.806 50.9529 286.756 51.2029 286.756 51.4029Z" fill="#FBF8EF"/>
<path d="M33.2676 82.806H29.374V93.3529H28.082V82.806H24.1973V81.6547H33.2676V82.806ZM39.1562 84.1332C40.2871 84.1332 41.1865 84.4789 41.8545 85.1703C42.5166 85.8676 42.8477 86.764 42.8477 87.8597V93.3529H41.5732V87.9916C41.5732 87.1713 41.3389 86.5092 40.8701 86.0052C40.4014 85.5131 39.7656 85.267 38.9629 85.267C38.1426 85.267 37.4805 85.516 36.9766 86.014C36.4609 86.5121 36.2031 87.1713 36.2031 87.9916V93.3529H34.9463V81.2416L36.1152 81.0746L36.2031 81.1449V85.4515C36.8887 84.5726 37.873 84.1332 39.1562 84.1332ZM48.8154 84.1332C50.04 84.1332 50.9775 84.4525 51.6279 85.0912C52.2783 85.724 52.6035 86.6293 52.6035 87.807V93.3529H51.373V92.1488C50.5586 93.098 49.5215 93.5726 48.2617 93.5726C47.2246 93.5726 46.3838 93.3002 45.7393 92.7552C45.0947 92.2162 44.7725 91.5101 44.7725 90.6371C44.7725 89.7406 45.124 89.014 45.8271 88.4574C46.5186 87.9066 47.4385 87.6312 48.5869 87.6312C49.5361 87.6312 50.4648 87.8597 51.373 88.3168V87.5345C51.373 86.8549 51.1416 86.3099 50.6787 85.8998C50.2158 85.4896 49.5947 85.2845 48.8154 85.2845C47.749 85.2845 46.8086 85.6215 45.9941 86.2953H45.8887L45.3262 85.4867V85.3812C45.748 85.0179 46.2842 84.7162 46.9346 84.476C47.5674 84.2474 48.1943 84.1332 48.8154 84.1332ZM48.3672 92.4213C49.1465 92.4213 49.8438 92.2015 50.459 91.7621C51.0684 91.3226 51.373 90.7484 51.373 90.0394V89.4857C50.418 88.9935 49.4951 88.7474 48.6045 88.7474C47.8428 88.7474 47.2275 88.9232 46.7588 89.2748C46.2959 89.6322 46.0645 90.098 46.0645 90.6722C46.0645 91.1996 46.2754 91.6215 46.6973 91.9379C47.1074 92.2601 47.6641 92.4213 48.3672 92.4213ZM59.5293 91.9818L59.6436 92.017L60.0742 92.8519L60.0391 92.9574C59.5234 93.3676 58.9404 93.5726 58.29 93.5726C57.4756 93.5726 56.8369 93.3265 56.374 92.8344C55.9111 92.3422 55.6797 91.6449 55.6797 90.7426V85.434H54.168V84.3529H55.6797V81.6019L56.8486 81.4349L56.9365 81.5052V84.3529H59.7666V85.434H56.9365V90.725C56.9365 91.8676 57.4229 92.4388 58.3955 92.4388C58.8643 92.4388 59.2422 92.2865 59.5293 91.9818ZM61.665 85.4515H61.542L61.1377 85.1439V85.0209C61.8467 84.0658 62.2012 83.4594 62.2012 83.2015C61.9492 83.1429 61.7441 83.0199 61.5859 82.8324C61.4336 82.6449 61.3574 82.4252 61.3574 82.1732C61.3574 81.8861 61.46 81.64 61.665 81.4349C61.8701 81.2299 62.1162 81.1273 62.4033 81.1273C62.7139 81.1273 62.9658 81.2299 63.1592 81.4349C63.3525 81.64 63.4492 81.9095 63.4492 82.2435C63.4551 82.601 63.3408 82.9906 63.1064 83.4125C62.8838 83.8109 62.4033 84.4906 61.665 85.4515ZM67.501 93.5726C66.0654 93.5726 64.9316 93.0248 64.0996 91.9291V91.8236L64.8906 91.1732H65.0049C65.2451 91.5599 65.582 91.8676 66.0156 92.0961C66.4551 92.3246 66.9209 92.4388 67.4131 92.4388C67.9932 92.4388 68.4648 92.3129 68.8281 92.0609C69.1914 91.8031 69.373 91.472 69.373 91.0677C69.373 90.7162 69.2354 90.3763 68.96 90.0482C68.8662 89.9545 68.6816 89.8314 68.4062 89.6791C68.1309 89.5385 67.9434 89.4447 67.8438 89.3978C67.6855 89.3334 67.4453 89.2367 67.123 89.1078C66.7539 88.9554 66.4434 88.8119 66.1914 88.6771C65.9746 88.5658 65.7256 88.4076 65.4443 88.2025C64.9229 87.7982 64.6621 87.265 64.6621 86.6029C64.6621 85.8529 64.9346 85.2552 65.4795 84.8099C66.0303 84.3588 66.7539 84.1332 67.6504 84.1332C68.2363 84.1332 68.7988 84.2709 69.3379 84.5463C69.8828 84.8334 70.2988 85.1996 70.5859 85.6449V85.7592L69.7861 86.4008H69.6807C69.4521 86.0551 69.1475 85.7797 68.7666 85.5746C68.3916 85.3695 68.002 85.267 67.5977 85.267C67.1055 85.267 66.707 85.3783 66.4023 85.601C66.1035 85.8236 65.9541 86.1166 65.9541 86.4799C65.9541 86.8256 66.0889 87.1068 66.3584 87.3236C66.6162 87.5287 67.0469 87.7631 67.6504 88.0267C68.6992 88.4838 69.376 88.8265 69.6807 89.0551C70.3428 89.5472 70.6738 90.2123 70.6738 91.0502C70.6738 91.8002 70.3838 92.4095 69.8037 92.8783C69.2178 93.3412 68.4502 93.5726 67.501 93.5726ZM80.5264 84.1332C81.751 84.1332 82.6885 84.4525 83.3389 85.0912C83.9893 85.724 84.3145 86.6293 84.3145 87.807V93.3529H83.084V92.1488C82.2695 93.098 81.2324 93.5726 79.9727 93.5726C78.9355 93.5726 78.0947 93.3002 77.4502 92.7552C76.8057 92.2162 76.4834 91.5101 76.4834 90.6371C76.4834 89.7406 76.835 89.014 77.5381 88.4574C78.2295 87.9066 79.1494 87.6312 80.2979 87.6312C81.2471 87.6312 82.1758 87.8597 83.084 88.3168V87.5345C83.084 86.8549 82.8525 86.3099 82.3896 85.8998C81.9268 85.4896 81.3057 85.2845 80.5264 85.2845C79.46 85.2845 78.5195 85.6215 77.7051 86.2953H77.5996L77.0371 85.4867V85.3812C77.459 85.0179 77.9951 84.7162 78.6455 84.476C79.2783 84.2474 79.9053 84.1332 80.5264 84.1332ZM80.0781 92.4213C80.8574 92.4213 81.5547 92.2015 82.1699 91.7621C82.7793 91.3226 83.084 90.7484 83.084 90.0394V89.4857C82.1289 88.9935 81.2061 88.7474 80.3154 88.7474C79.5537 88.7474 78.9385 88.9232 78.4697 89.2748C78.0068 89.6322 77.7754 90.098 77.7754 90.6722C77.7754 91.1996 77.9863 91.6215 78.4082 91.9379C78.8184 92.2601 79.375 92.4213 80.0781 92.4213ZM97.7529 84.1332C98.8428 84.1332 99.7041 84.476 100.337 85.1615C100.97 85.847 101.286 86.7465 101.286 87.8597V93.3529H100.003V87.9916C100.003 87.1595 99.7861 86.4945 99.3525 85.9965C98.9131 85.5101 98.3096 85.267 97.542 85.267C96.7451 85.267 96.0947 85.516 95.5908 86.014C95.0811 86.5121 94.8262 87.1713 94.8262 87.9916V93.3529H93.5254V87.9916C93.5254 87.1595 93.3086 86.4945 92.875 85.9965C92.4355 85.5101 91.8291 85.267 91.0557 85.267C90.2588 85.267 89.6084 85.516 89.1045 86.014C88.5947 86.5121 88.3398 87.1713 88.3398 87.9916V93.3529H87.0654V84.3529H88.2695V85.5394C88.9785 84.6019 89.9805 84.1332 91.2754 84.1332C92.7988 84.1332 93.8564 84.7572 94.4482 86.0052C94.7471 85.4135 95.1836 84.9535 95.7578 84.6254C96.3379 84.2972 97.0029 84.1332 97.7529 84.1332ZM107.263 84.1332C108.487 84.1332 109.425 84.4525 110.075 85.0912C110.726 85.724 111.051 86.6293 111.051 87.807V93.3529H109.82V92.1488C109.006 93.098 107.969 93.5726 106.709 93.5726C105.672 93.5726 104.831 93.3002 104.187 92.7552C103.542 92.2162 103.22 91.5101 103.22 90.6371C103.22 89.7406 103.571 89.014 104.274 88.4574C104.966 87.9066 105.886 87.6312 107.034 87.6312C107.983 87.6312 108.912 87.8597 109.82 88.3168V87.5345C109.82 86.8549 109.589 86.3099 109.126 85.8998C108.663 85.4896 108.042 85.2845 107.263 85.2845C106.196 85.2845 105.256 85.6215 104.441 86.2953H104.336L103.773 85.4867V85.3812C104.195 85.0179 104.731 84.7162 105.382 84.476C106.015 84.2474 106.642 84.1332 107.263 84.1332ZM106.814 92.4213C107.594 92.4213 108.291 92.2015 108.906 91.7621C109.516 91.3226 109.82 90.7484 109.82 90.0394V89.4857C108.865 88.9935 107.942 88.7474 107.052 88.7474C106.29 88.7474 105.675 88.9232 105.206 89.2748C104.743 89.6322 104.512 90.098 104.512 90.6722C104.512 91.1996 104.723 91.6215 105.145 91.9379C105.555 92.2601 106.111 92.4213 106.814 92.4213ZM120.209 93.3529H112.94V92.4916L118.302 85.3988H113.151V84.3529H119.901V85.2142L114.54 92.307H120.209V93.3529ZM123.558 82.4457C123.353 82.6508 123.106 82.7533 122.819 82.7533C122.532 82.7533 122.286 82.6508 122.081 82.4457C121.882 82.2406 121.782 81.9945 121.782 81.7074C121.782 81.4203 121.882 81.1742 122.081 80.9691C122.286 80.764 122.532 80.6615 122.819 80.6615C123.106 80.6615 123.353 80.764 123.558 80.9691C123.757 81.1742 123.856 81.4203 123.856 81.7074C123.856 81.9945 123.757 82.2406 123.558 82.4457ZM123.443 93.3529H122.187V84.3529H123.443V93.3529ZM130.598 84.1332C131.729 84.1332 132.628 84.4789 133.296 85.1703C133.958 85.8676 134.289 86.764 134.289 87.8597V93.3529H133.015V87.9916C133.015 87.1713 132.78 86.5092 132.312 86.0052C131.843 85.5131 131.207 85.267 130.404 85.267C129.584 85.267 128.922 85.516 128.418 86.014C127.902 86.5121 127.645 87.1713 127.645 87.9916V93.3529H126.37V84.3529H127.574V85.5394C128.26 84.6019 129.268 84.1332 130.598 84.1332ZM144.045 85.5219V84.3529H145.249V92.0785C145.249 93.4437 144.83 94.4779 143.992 95.181C143.148 95.8842 142.103 96.2357 140.854 96.2357C139.964 96.2357 139.158 96.057 138.438 95.6996C137.705 95.3422 137.113 94.8529 136.662 94.2318V94.1263L137.453 93.4584H137.559C138.35 94.5424 139.448 95.0902 140.854 95.1019C141.792 95.1019 142.548 94.85 143.122 94.3461C143.696 93.8422 143.983 93.098 143.983 92.1136V91.3051C143.187 92.1957 142.126 92.6381 140.802 92.6322C139.524 92.6322 138.47 92.225 137.638 91.4105C136.794 90.5961 136.372 89.5883 136.372 88.3871C136.372 87.1742 136.794 86.1605 137.638 85.3461C138.47 84.5375 139.53 84.1332 140.819 84.1332C142.167 84.1332 143.242 84.5961 144.045 85.5219ZM140.854 91.4808C141.804 91.4808 142.574 91.1908 143.166 90.6107C143.752 90.0424 144.045 89.307 144.045 88.4047C144.045 87.4965 143.749 86.7465 143.157 86.1547C142.56 85.5746 141.786 85.2845 140.837 85.2845C139.899 85.2845 139.138 85.5746 138.552 86.1547C137.966 86.7406 137.673 87.4847 137.673 88.3871C137.673 89.3011 137.963 90.0453 138.543 90.6195C139.129 91.1937 139.899 91.4808 140.854 91.4808ZM156.824 84.1332C157.955 84.1332 158.854 84.4789 159.522 85.1703C160.185 85.8676 160.516 86.764 160.516 87.8597V93.3529H159.241V87.9916C159.241 87.1713 159.007 86.5092 158.538 86.0052C158.069 85.5131 157.434 85.267 156.631 85.267C155.811 85.267 155.148 85.516 154.645 86.014C154.129 86.5121 153.871 87.1713 153.871 87.9916V93.3529H152.597V84.3529H153.801V85.5394C154.486 84.6019 155.494 84.1332 156.824 84.1332ZM171.528 89.2308H163.917C163.987 90.2269 164.351 91.0062 165.007 91.5687C165.651 92.1371 166.422 92.4213 167.318 92.4213C167.875 92.4213 168.452 92.3011 169.05 92.0609C169.63 91.8265 170.09 91.4896 170.43 91.0502H170.535L171.309 91.7006V91.806C170.887 92.3802 170.31 92.8168 169.577 93.1156C168.845 93.4203 168.104 93.5726 167.354 93.5726C166.064 93.5726 164.951 93.1478 164.014 92.2982C163.07 91.4545 162.599 90.3177 162.599 88.8881C162.599 87.5287 163.032 86.3978 163.899 85.4955C164.761 84.5873 165.833 84.1332 167.116 84.1332C168.353 84.1332 169.384 84.5375 170.21 85.3461C171.112 86.225 171.563 87.3353 171.563 88.6771C171.563 88.8998 171.552 89.0844 171.528 89.2308ZM167.116 85.2845C166.272 85.2845 165.563 85.5365 164.989 86.0404C164.409 86.556 164.063 87.2357 163.952 88.0795H170.271C170.166 87.3177 169.876 86.6937 169.401 86.2074C168.851 85.5922 168.089 85.2845 167.116 85.2845ZM184.079 84.3529H185.345L185.397 84.4584L182.014 93.3529H181.434L178.841 86.6732L176.248 93.3529H175.677L172.328 84.4584L172.381 84.3529H173.655L175.94 91.1029L178.533 84.3529H179.184L181.759 91.1381L184.079 84.3529ZM189.353 93.5726C187.917 93.5726 186.783 93.0248 185.951 91.9291V91.8236L186.742 91.1732H186.856C187.097 91.5599 187.434 91.8676 187.867 92.0961C188.307 92.3246 188.772 92.4388 189.265 92.4388C189.845 92.4388 190.316 92.3129 190.68 92.0609C191.043 91.8031 191.225 91.472 191.225 91.0677C191.225 90.7162 191.087 90.3763 190.812 90.0482C190.718 89.9545 190.533 89.8314 190.258 89.6791C189.982 89.5385 189.795 89.4447 189.695 89.3978C189.537 89.3334 189.297 89.2367 188.975 89.1078C188.605 88.9554 188.295 88.8119 188.043 88.6771C187.826 88.5658 187.577 88.4076 187.296 88.2025C186.774 87.7982 186.514 87.265 186.514 86.6029C186.514 85.8529 186.786 85.2552 187.331 84.8099C187.882 84.3588 188.605 84.1332 189.502 84.1332C190.088 84.1332 190.65 84.2709 191.189 84.5463C191.734 84.8334 192.15 85.1996 192.438 85.6449V85.7592L191.638 86.4008H191.532C191.304 86.0551 190.999 85.7797 190.618 85.5746C190.243 85.3695 189.854 85.267 189.449 85.267C188.957 85.267 188.559 85.3783 188.254 85.601C187.955 85.8236 187.806 86.1166 187.806 86.4799C187.806 86.8256 187.94 87.1068 188.21 87.3236C188.468 87.5287 188.898 87.7631 189.502 88.0267C190.551 88.4838 191.228 88.8265 191.532 89.0551C192.194 89.5472 192.525 90.2123 192.525 91.0502C192.525 91.8002 192.235 92.4095 191.655 92.8783C191.069 93.3412 190.302 93.5726 189.353 93.5726ZM196.243 92.5267C196.243 92.8197 196.141 93.0658 195.936 93.265C195.73 93.4642 195.484 93.5638 195.197 93.5638C194.91 93.5638 194.664 93.4642 194.459 93.265C194.254 93.0658 194.151 92.8197 194.151 92.5267C194.151 92.2338 194.254 91.9877 194.459 91.7885C194.664 91.5892 194.91 91.4896 195.197 91.4896C195.484 91.4896 195.73 91.5892 195.936 91.7885C196.141 91.9877 196.243 92.2338 196.243 92.5267Z" fill="#FBF8EF"/>
</svg>
