<svg width="28" height="28" viewBox="0 0 28 28" fill="none" xmlns="http://www.w3.org/2000/svg">
<path d="M8.23889 25.3139L8.15171 24.8216L8.32935 24.7901L8.48616 24.8793L8.23889 25.3139ZM4.00175 21.1821L4.42994 20.9239L4.56647 21.1503L4.45617 21.3906L4.00175 21.1821ZM1.5628 26.4961L1.64998 26.9884L0.710316 27.1548L1.10838 26.2875L1.5628 26.4961ZM14.0001 27.3333C11.8158 27.3333 9.7646 26.7573 7.99162 25.7485L8.48616 24.8793C10.1124 25.8046 11.9937 26.3333 14.0001 26.3333V27.3333ZM26.1667 15.1667C26.1667 21.8861 20.7195 27.3333 14.0001 27.3333V26.3333C20.1673 26.3333 25.1667 21.3338 25.1667 15.1667H26.1667ZM14.0001 3C20.7195 3 26.1667 8.4472 26.1667 15.1667H25.1667C25.1667 8.99949 20.1673 4 14.0001 4V3ZM1.83341 15.1667C1.83341 8.4472 7.28061 3 14.0001 3V4C7.8329 4 2.83341 8.99949 2.83341 15.1667H1.83341ZM3.57356 21.4403C2.46883 19.608 1.83341 17.4608 1.83341 15.1667H2.83341C2.83341 17.2738 3.41654 19.2431 4.42994 20.9239L3.57356 21.4403ZM4.45617 21.3906L2.01722 26.7047L1.10838 26.2875L3.54733 20.9735L4.45617 21.3906ZM1.47562 26.0038L8.15171 24.8216L8.32607 25.8063L1.64998 26.9884L1.47562 26.0038Z" fill="#7B798E"/>
<ellipse rx="1.16667" ry="1.16667" transform="matrix(-1 0 0 1 18.6666 18.6667)" fill="#7B798E"/>
<circle r="1.16667" transform="matrix(-1 0 0 1 13.9998 18.6667)" fill="#7B798E"/>
<circle r="1.16667" transform="matrix(-1 0 0 1 9.33333 18.6667)" fill="#7B798E"/>
</svg>
