<svg width="60" height="60" viewBox="0 0 60 60" fill="none" xmlns="http://www.w3.org/2000/svg">
<path fill-rule="evenodd" clip-rule="evenodd" d="M24.2388 41.3139C25.9384 42.281 27.9047 42.8333 30 42.8333C36.4433 42.8333 41.6666 37.61 41.6666 31.1667C41.6666 24.7233 36.4433 19.5 30 19.5C23.5566 19.5 18.3333 24.7233 18.3333 31.1667C18.3333 33.3673 18.9426 35.4256 20.0016 37.1821L17.5627 42.4961L24.2388 41.3139Z" fill="#1F1E2C"/>
<ellipse rx="1.16667" ry="1.16667" transform="matrix(-1 0 0 1 34.6667 34.6667)" fill="white"/>
<circle r="1.16667" transform="matrix(-1 0 0 1 30 34.6667)" fill="white"/>
<circle r="1.16667" transform="matrix(-1 0 0 1 25.3333 34.6667)" fill="white"/>
<circle cx="39" cy="24" r="8" fill="#EB5757"/>
<path d="M38.9434 27.256C37.9114 27.256 37.3714 26.704 37.1674 26.02L36.3274 26.32C36.5794 27.148 37.3594 28.156 38.9794 28.156C40.5634 28.156 41.6074 26.932 41.6074 25.336C41.6074 23.776 40.5394 22.672 38.9914 22.672C38.4274 22.672 37.9594 22.828 37.5874 23.08L37.7074 20.488H41.1154V19.6H36.8314L36.6514 23.92L37.4674 24.064C37.7914 23.788 38.1874 23.512 38.8594 23.512C39.9754 23.512 40.6234 24.352 40.6234 25.384C40.6234 26.428 39.9994 27.256 38.9434 27.256Z" fill="white"/>
</svg>
