<svg width="60" height="60" viewBox="0 0 60 60" fill="none" xmlns="http://www.w3.org/2000/svg">
<g clip-path="url(#clip0)">
<path d="M38.1084 35.5287L18.4122 39.0016C19.1958 38.8635 19.8924 38.4197 20.3487 37.7679C20.8051 37.1162 20.9839 36.3098 20.8457 35.5263L19.9775 30.6022C19.6551 28.7739 20.0722 26.8924 21.1371 25.3716C22.2019 23.8509 23.8273 22.8154 25.6556 22.493C27.4839 22.1706 29.3654 22.5878 30.8862 23.6526C32.4069 24.7175 33.4424 26.3428 33.7648 28.1711L34.633 33.0952C34.7712 33.8787 35.2149 34.5753 35.8667 35.0317C36.5185 35.4881 37.3248 35.6668 38.1084 35.5287ZM30.6586 40.904C30.5381 41.233 30.3333 41.5245 30.0646 41.7495C29.796 41.9744 29.473 42.1248 29.1279 42.1857C28.7829 42.2465 28.4279 42.2157 28.0985 42.0962C27.7691 41.9767 27.4769 41.7727 27.2512 41.5048" fill="#1F1E2C"/>
<path d="M25.6556 22.493C23.8273 22.8154 22.2019 23.8509 21.1371 25.3716C20.0722 26.8924 19.6551 28.7739 19.9775 30.6022L20.8457 35.5263C20.9839 36.3098 20.8051 37.1162 20.3487 37.7679C19.8924 38.4197 19.1958 38.8635 18.4122 39.0016L38.1084 35.5287C37.3248 35.6668 36.5185 35.4881 35.8667 35.0317C35.2149 34.5753 34.7712 33.8787 34.633 33.0952L33.7648 28.1711C33.4424 26.3428 32.4069 24.7175 30.8862 23.6526C29.3654 22.5878 27.4839 22.1706 25.6556 22.493ZM25.6556 22.493L25.1346 19.5386M30.6586 40.904C30.5381 41.233 30.3333 41.5245 30.0646 41.7495C29.796 41.9744 29.473 42.1248 29.1279 42.1857C28.7829 42.2465 28.4279 42.2157 28.0985 42.0962C27.7691 41.9767 27.4769 41.7727 27.2512 41.5048" stroke="#1F1E2C" stroke-linecap="round" stroke-linejoin="round"/>
</g>
<circle cx="37.6007" cy="23.9999" r="8" fill="#EB5757"/>
<path d="M37.5441 27.2559C36.5121 27.2559 35.9721 26.7039 35.7681 26.0199L34.9281 26.3199C35.1801 27.1479 35.9601 28.1559 37.5801 28.1559C39.1641 28.1559 40.2081 26.9319 40.2081 25.3359C40.2081 23.7759 39.1401 22.6719 37.5921 22.6719C37.0281 22.6719 36.5601 22.8279 36.1881 23.0799L36.3081 20.4879H39.7161V19.5999H35.4321L35.2521 23.9199L36.0681 24.0639C36.3921 23.7879 36.7881 23.5119 37.4601 23.5119C38.5761 23.5119 39.2241 24.3519 39.2241 25.3839C39.2241 26.4279 38.6001 27.2559 37.5441 27.2559Z" fill="white"/>
<defs>
<clipPath id="clip0">
<rect width="28" height="28" fill="white" transform="translate(11 20.0001) rotate(-10)"/>
</clipPath>
</defs>
</svg>
