<svg width="35" height="34" viewBox="0 0 35 34" fill="none" xmlns="http://www.w3.org/2000/svg">
<path d="M26.3116 29.3958H8.68832C8.19703 29.3758 7.71453 29.2591 7.2684 29.0524C6.82228 28.8456 6.42129 28.553 6.08839 28.1911C5.75549 27.8293 5.4972 27.4053 5.32831 26.9436C5.15943 26.4818 5.08325 25.9912 5.10415 25.5V21.25C5.10415 20.9682 5.21609 20.698 5.41535 20.4987C5.6146 20.2994 5.88486 20.1875 6.16665 20.1875C6.44844 20.1875 6.71869 20.2994 6.91795 20.4987C7.11721 20.698 7.22915 20.9682 7.22915 21.25V25.5C7.19257 25.9206 7.31931 26.3392 7.58308 26.6689C7.84684 26.9986 8.2274 27.2142 8.64581 27.2708H26.3116C26.7301 27.2142 27.1106 26.9986 27.3744 26.6689C27.6382 26.3392 27.7649 25.9206 27.7283 25.5V21.25C27.7283 20.9682 27.8403 20.698 28.0395 20.4987C28.2388 20.2994 28.509 20.1875 28.7908 20.1875C29.0726 20.1875 29.3429 20.2994 29.5421 20.4987C29.7414 20.698 29.8533 20.9682 29.8533 21.25V25.5C29.8957 26.4851 29.5474 27.4471 28.8842 28.1767C28.2209 28.9063 27.2963 29.3445 26.3116 29.3958Z" fill="#30426D"/>
<path d="M17.5 22.3125C17.3604 22.3132 17.2221 22.286 17.0932 22.2324C16.9642 22.1789 16.8473 22.1002 16.7492 22.0009L11.0825 16.3342C10.8948 16.1328 10.7927 15.8664 10.7975 15.5911C10.8024 15.3159 10.9139 15.0532 11.1086 14.8586C11.3032 14.6639 11.5659 14.5524 11.8411 14.5475C12.1164 14.5427 12.3828 14.6448 12.5842 14.8325L17.5 19.7484L22.4159 14.8325C22.6173 14.6448 22.8837 14.5427 23.1589 14.5475C23.4342 14.5524 23.6968 14.6639 23.8915 14.8586C24.0862 15.0532 24.1977 15.3159 24.2025 15.5911C24.2074 15.8664 24.1052 16.1328 23.9175 16.3342L18.2509 22.0009C18.1528 22.1002 18.0358 22.1789 17.9069 22.2324C17.7779 22.286 17.6396 22.3132 17.5 22.3125V22.3125Z" fill="#30426D"/>
<path d="M17.5 22.3123C17.2193 22.3087 16.9512 22.1955 16.7528 21.9971C16.5543 21.7986 16.4412 21.5305 16.4375 21.2498V5.6665C16.4375 5.38471 16.5494 5.11446 16.7487 4.9152C16.948 4.71595 17.2182 4.604 17.5 4.604C17.7818 4.604 18.052 4.71595 18.2513 4.9152C18.4506 5.11446 18.5625 5.38471 18.5625 5.6665V21.2498C18.5588 21.5305 18.4457 21.7986 18.2472 21.9971C18.0488 22.1955 17.7807 22.3087 17.5 22.3123V22.3123Z" fill="#30426D"/>
</svg>
