<svg width="1440" height="790" viewBox="0 0 1440 790" fill="none" xmlns="http://www.w3.org/2000/svg">
<path d="M-3.99997 745.26C28.8044 720.435 66.5144 701.907 106.441 691.693C185.231 671.528 271.574 684.006 340.041 725.448C351.298 732.258 362.567 740.378 367.863 752.282C373.158 764.187 370.07 780.693 358.089 786.644C338.697 796.271 319.783 772.4 316.101 751.612C305.538 691.916 340.823 629.033 393.622 596.355C446.431 563.672 513.145 558.375 573.305 571.805C633.468 585.245 687.962 615.859 738.01 650.797C781.034 680.835 822.025 714.64 870.376 735.705C918.728 756.746 977.334 763.419 1024.44 738.227C1089.58 703.392 1111.61 619.117 1099.67 548.031C1087.72 476.945 1050.01 413.433 1023.15 346.626C996.292 279.819 980.754 202.061 1013.07 136.577C1042.33 77.2686 1105.39 40.2724 1169.28 20.4017C1257.22 -6.94563 1355.19 -5.8605 1440 25.2882" stroke="#F57D7D" stroke-miterlimit="10"/>
</svg>
