<svg width="519" height="363" viewBox="0 0 519 363" fill="none" xmlns="http://www.w3.org/2000/svg">
<mask id="mask0_453_45295" style="mask-type:alpha" maskUnits="userSpaceOnUse" x="0" y="0" width="519" height="363">
<rect width="519" height="363" fill="#F3EDF6"/>
</mask>
<g mask="url(#mask0_453_45295)">
<path opacity="0.5" d="M162.253 259.977C132.763 229.337 118.07 193.334 118.07 152.127C118.07 124.678 125.698 99.2318 140.838 75.8655C155.978 52.4991 175.937 34.2123 200.838 20.9103C225.614 7.65576 251.743 1 279.329 1C319.704 1 353.907 14.302 381.941 40.8681C409.974 67.4247 423.991 103.153 423.991 147.996C423.991 191.995 409.527 229.347 380.589 259.986C351.651 290.739 315.657 306.054 272.483 306.054C228.309 306.045 191.639 290.73 162.253 259.977Z" fill="#E8D6EF"/>
<path d="M389.852 226.626C389.852 226.626 385.248 241.866 398.94 246.76C412.624 251.653 421.151 241.546 420.381 228.148" stroke="#661D40" stroke-width="1.2658" stroke-miterlimit="10"/>
<path d="M396.429 223.415C396.429 223.415 390.718 243.108 403.969 247.432C403.969 247.432 413.931 245.694 412.833 227.139" stroke="#661D40" stroke-width="1.2658" stroke-miterlimit="10"/>
<path d="M403.608 223.351C403.608 223.351 401.491 243.012 403.969 247.432" stroke="#661D40" stroke-width="1.2658" stroke-miterlimit="10"/>
<path d="M403.288 245.871C403.288 245.871 417.822 309.826 331.506 308.921" stroke="#661D40" stroke-width="1.2658" stroke-miterlimit="10"/>
<path d="M387.55 227.788C387.157 227.107 387.052 226.394 387.237 225.649C387.357 225.153 387.614 224.728 387.983 224.376C388.36 224.024 388.801 223.783 389.306 223.655C389.812 223.527 390.309 223.527 390.806 223.647C391.528 223.823 392.09 224.216 392.475 224.824C392.86 225.425 392.956 226.13 392.755 226.939C392.555 227.732 392.13 228.34 391.472 228.757C390.814 229.181 390.1 229.293 389.322 229.101C388.528 228.909 387.943 228.468 387.55 227.788Z" fill="#EC7D84"/>
<path d="M418.52 229.445C418.127 228.765 418.023 228.052 418.208 227.307C418.328 226.811 418.585 226.386 418.954 226.034C419.331 225.681 419.772 225.441 420.277 225.313C420.782 225.185 421.28 225.185 421.777 225.305C422.499 225.481 423.06 225.874 423.445 226.482C423.83 227.083 423.927 227.788 423.726 228.596C423.526 229.389 423.1 229.998 422.443 230.414C421.785 230.839 421.071 230.951 420.293 230.759C419.499 230.566 418.913 230.126 418.52 229.445Z" fill="#EC7D84"/>
<path d="M410.636 228.54C410.243 227.859 410.138 227.147 410.323 226.402C410.443 225.905 410.7 225.481 411.069 225.128C411.446 224.776 411.887 224.536 412.392 224.408C412.898 224.28 413.395 224.28 413.892 224.4C414.614 224.576 415.176 224.968 415.561 225.577C415.946 226.178 416.042 226.882 415.841 227.691C415.649 228.484 415.216 229.093 414.558 229.509C413.9 229.934 413.186 230.046 412.408 229.853C411.622 229.661 411.029 229.221 410.636 228.54Z" fill="#EC7D84"/>
<path d="M401.089 225.914C400.696 225.233 400.591 224.52 400.776 223.775C400.896 223.279 401.153 222.854 401.522 222.502C401.899 222.15 402.34 221.909 402.845 221.781C403.351 221.653 403.848 221.653 404.345 221.773C405.067 221.949 405.629 222.342 406.014 222.95C406.399 223.551 406.495 224.256 406.295 225.065C406.102 225.857 405.669 226.466 405.011 226.883C404.353 227.307 403.64 227.419 402.861 227.227C402.067 227.035 401.482 226.602 401.089 225.914Z" fill="#EC7D84"/>
<path d="M394.544 223.551C394.151 222.871 394.046 222.158 394.231 221.413C394.351 220.916 394.608 220.492 394.977 220.14C395.354 219.787 395.795 219.547 396.3 219.419C396.806 219.291 397.303 219.291 397.8 219.411C398.522 219.587 399.084 219.979 399.469 220.588C399.854 221.189 399.95 221.894 399.75 222.702C399.549 223.495 399.124 224.104 398.466 224.52C397.808 224.945 397.095 225.057 396.317 224.865C395.522 224.672 394.929 224.24 394.544 223.551Z" fill="#EC7D84"/>
<path d="M346.866 117.031C346.866 117.031 342.261 132.271 355.954 137.164C369.638 142.058 378.164 131.951 377.394 118.553" stroke="#661D40" stroke-width="1.2658" stroke-miterlimit="10"/>
<path d="M353.435 113.82C353.435 113.82 347.724 133.512 360.975 137.837C360.975 137.837 370.937 136.099 369.838 117.544" stroke="#661D40" stroke-width="1.2658" stroke-miterlimit="10"/>
<path d="M360.614 113.756C360.614 113.756 358.497 133.416 360.975 137.837" stroke="#661D40" stroke-width="1.2658" stroke-miterlimit="10"/>
<path d="M360.294 136.275C360.294 136.275 374.828 200.231 288.512 199.326" stroke="#661D40" stroke-width="1.2658" stroke-miterlimit="10"/>
<path d="M344.563 118.192C344.17 117.512 344.066 116.799 344.251 116.054C344.371 115.558 344.628 115.133 344.996 114.781C345.373 114.428 345.815 114.188 346.32 114.06C346.825 113.932 347.323 113.932 347.82 114.052C348.542 114.228 349.103 114.621 349.488 115.229C349.873 115.83 349.97 116.535 349.769 117.343C349.577 118.136 349.143 118.745 348.486 119.161C347.828 119.586 347.114 119.698 346.336 119.506C345.542 119.314 344.948 118.881 344.563 118.192Z" fill="#EC7D84"/>
<path d="M375.534 119.851C375.141 119.17 375.037 118.457 375.221 117.712C375.342 117.216 375.598 116.791 375.967 116.439C376.344 116.087 376.785 115.846 377.291 115.718C377.796 115.59 378.293 115.59 378.791 115.71C379.513 115.886 380.074 116.279 380.459 116.887C380.844 117.488 380.94 118.193 380.74 119.002C380.539 119.795 380.114 120.403 379.456 120.82C378.799 121.244 378.085 121.356 377.307 121.164C376.513 120.98 375.919 120.539 375.534 119.851Z" fill="#EC7D84"/>
<path d="M367.649 118.946C367.256 118.265 367.152 117.552 367.336 116.808C367.457 116.311 367.713 115.887 368.082 115.534C368.459 115.182 368.901 114.942 369.406 114.813C369.911 114.685 370.409 114.685 370.906 114.805C371.628 114.982 372.189 115.374 372.574 115.983C372.959 116.583 373.056 117.288 372.855 118.097C372.655 118.89 372.229 119.498 371.572 119.915C370.914 120.339 370.2 120.451 369.422 120.259C368.628 120.067 368.042 119.635 367.649 118.946Z" fill="#EC7D84"/>
<path d="M358.102 116.327C357.709 115.646 357.605 114.933 357.79 114.188C357.91 113.692 358.167 113.267 358.536 112.915C358.913 112.563 359.354 112.322 359.859 112.194C360.364 112.066 360.862 112.066 361.359 112.186C362.081 112.362 362.642 112.755 363.027 113.363C363.412 113.964 363.509 114.669 363.308 115.478C363.116 116.27 362.683 116.879 362.025 117.296C361.367 117.72 360.653 117.832 359.875 117.64C359.081 117.448 358.487 117.007 358.102 116.327Z" fill="#EC7D84"/>
<path d="M351.55 113.964C351.157 113.284 351.052 112.571 351.237 111.826C351.357 111.33 351.614 110.905 351.983 110.553C352.36 110.2 352.801 109.96 353.306 109.832C353.812 109.704 354.309 109.704 354.806 109.824C355.528 110 356.09 110.393 356.475 111.001C356.86 111.602 356.956 112.307 356.755 113.115C356.563 113.908 356.13 114.517 355.472 114.933C354.814 115.358 354.1 115.47 353.322 115.278C352.528 115.086 351.943 114.645 351.55 113.964Z" fill="#EC7D84"/>
<path d="M105.178 312.411C105.178 312.411 114.291 325.464 102.804 334.362C91.3178 343.259 80.072 336.292 76.6309 323.318" stroke="#661D40" stroke-width="1.2658" stroke-miterlimit="10"/>
<path d="M97.9263 311.394C97.9263 311.394 109.477 328.339 98.2311 336.564C98.2311 336.564 88.2206 338.006 83.4961 320.019" stroke="#661D40" stroke-width="1.2658" stroke-miterlimit="10"/>
<path d="M91.0762 313.564C91.0762 313.564 99.2097 331.591 98.2231 336.564" stroke="#661D40" stroke-width="1.2658" stroke-miterlimit="10"/>
<path d="M98.3047 335.635C98.3047 335.635 104.577 402.994 188.921 374.492" stroke="#661D40" stroke-width="1.3056" stroke-miterlimit="10"/>
<path d="M106.447 314.605C105.773 315.03 105.051 315.142 104.297 314.941C103.543 314.741 102.949 314.301 102.516 313.604C102.075 312.899 101.947 312.202 102.123 311.506C102.3 310.817 102.709 310.272 103.343 309.872C103.776 309.6 104.249 309.448 104.77 309.416C105.292 309.384 105.789 309.472 106.254 309.688C106.719 309.904 107.088 310.232 107.361 310.665C107.77 311.314 107.891 312.026 107.73 312.795C107.562 313.572 107.145 314.173 106.447 314.605Z" fill="#EC7D84"/>
<path d="M77.521 325.785C76.8472 326.209 76.1253 326.321 75.3713 326.121C74.6173 325.921 74.0237 325.48 73.5906 324.784C73.1494 324.079 73.0211 323.382 73.1975 322.685C73.374 321.997 73.7831 321.452 74.4168 321.052C74.8499 320.779 75.3232 320.627 75.8445 320.595C76.3659 320.563 76.8632 320.651 77.3285 320.867C77.7937 321.084 78.1627 321.412 78.4354 321.845C78.8445 322.493 78.9648 323.206 78.8044 323.975C78.6439 324.752 78.2188 325.352 77.521 325.785Z" fill="#EC7D84"/>
<path d="M84.7319 322.477C84.0581 322.902 83.3362 323.014 82.5822 322.813C81.8282 322.613 81.2347 322.173 80.8015 321.476C80.3603 320.771 80.232 320.075 80.4085 319.378C80.5849 318.681 80.994 318.145 81.6277 317.744C82.0608 317.472 82.5341 317.32 83.0555 317.288C83.5769 317.256 84.0742 317.344 84.5394 317.56C85.0046 317.776 85.3736 318.105 85.6463 318.537C86.0554 319.186 86.1757 319.898 86.0153 320.667C85.8549 321.444 85.4298 322.045 84.7319 322.477Z" fill="#EC7D84"/>
<path d="M92.9936 317.023C92.3198 317.447 91.5979 317.56 90.8439 317.359C90.0899 317.159 89.4964 316.719 89.0632 316.022C88.6221 315.317 88.4937 314.62 88.6702 313.924C88.8466 313.227 89.2557 312.69 89.8894 312.29C90.3226 312.018 90.7958 311.866 91.3172 311.834C91.8386 311.802 92.3359 311.89 92.8011 312.106C93.2664 312.322 93.6353 312.65 93.9081 313.083C94.3171 313.732 94.4375 314.436 94.277 315.213C94.1086 315.99 93.6835 316.591 92.9936 317.023Z" fill="#EC7D84"/>
<path d="M98.4897 312.747C97.8159 313.171 97.094 313.283 96.34 313.083C95.586 312.883 94.9925 312.442 94.5593 311.746C94.1181 311.041 93.9898 310.344 94.1663 309.647C94.3427 308.959 94.7518 308.414 95.3855 308.014C95.8186 307.741 96.2919 307.589 96.8133 307.557C97.3347 307.525 97.832 307.613 98.2972 307.829C98.7624 308.046 99.1314 308.374 99.4041 308.806C99.8132 309.455 99.9335 310.168 99.7731 310.937C99.6047 311.714 99.1795 312.314 98.4897 312.747Z" fill="#EC7D84"/>
<path d="M120.243 209.303C120.243 209.303 125.898 224.183 112.583 230.021C99.2753 235.851 90.0669 226.361 89.8984 212.939" stroke="#661D40" stroke-width="1.2658" stroke-miterlimit="10"/>
<path d="M113.464 206.557C113.464 206.557 120.531 225.801 107.617 231.038C107.617 231.038 97.558 229.997 97.3574 211.41" stroke="#661D40" stroke-width="1.2658" stroke-miterlimit="10"/>
<path d="M106.293 206.989C106.293 206.989 109.774 226.458 107.608 231.039" stroke="#661D40" stroke-width="1.2658" stroke-miterlimit="10"/>
<path d="M109.262 231.23C112.35 244.765 118.526 257.826 128.753 267.437C143.216 281.027 163.349 285.111 182.664 284.278C184.236 284.214 185.808 284.11 187.373 283.99" stroke="#661D40" stroke-width="1.2658" stroke-miterlimit="10"/>
<path d="M120.94 211.737C120.178 211.986 119.456 211.914 118.775 211.537C118.093 211.161 117.62 210.584 117.371 209.807C117.114 209.015 117.154 208.31 117.499 207.677C117.844 207.053 118.366 206.62 119.079 206.388C119.569 206.228 120.066 206.204 120.579 206.292C121.093 206.388 121.55 206.596 121.951 206.916C122.352 207.245 122.633 207.645 122.785 208.134C123.018 208.862 122.97 209.575 122.625 210.288C122.28 211.009 121.718 211.489 120.94 211.737Z" fill="#EC7D84"/>
<path d="M90.163 215.55C89.401 215.798 88.6791 215.726 87.9973 215.35C87.3155 214.973 86.8422 214.397 86.5936 213.62C86.3369 212.827 86.377 212.122 86.7219 211.49C87.0668 210.865 87.5882 210.433 88.3021 210.2C88.7914 210.04 89.2887 210.016 89.8021 210.104C90.3154 210.2 90.7727 210.409 91.1737 210.729C91.5748 211.057 91.8555 211.458 92.0079 211.946C92.2405 212.675 92.1924 213.388 91.8475 214.101C91.5026 214.821 90.9411 215.294 90.163 215.55Z" fill="#EC7D84"/>
<path d="M97.9677 214.092C97.2057 214.34 96.4838 214.268 95.802 213.892C95.1202 213.515 94.6469 212.939 94.3983 212.162C94.1416 211.369 94.1817 210.664 94.5266 210.032C94.8715 209.407 95.3929 208.975 96.1068 208.742C96.5961 208.582 97.0934 208.558 97.6068 208.646C98.1201 208.742 98.5773 208.951 98.9784 209.271C99.3795 209.599 99.6602 210 99.8126 210.488C100.045 211.217 99.9971 211.93 99.6522 212.642C99.2993 213.363 98.7458 213.844 97.9677 214.092Z" fill="#EC7D84"/>
<path d="M107.306 210.817C106.544 211.065 105.822 210.993 105.14 210.617C104.458 210.24 103.985 209.664 103.736 208.887C103.479 208.094 103.52 207.389 103.865 206.757C104.209 206.132 104.731 205.7 105.445 205.467C105.934 205.307 106.431 205.283 106.945 205.371C107.458 205.467 107.915 205.676 108.316 205.996C108.717 206.324 108.998 206.725 109.15 207.213C109.383 207.942 109.335 208.655 108.99 209.368C108.645 210.088 108.084 210.561 107.306 210.817Z" fill="#EC7D84"/>
<path d="M113.673 208.006C112.911 208.254 112.189 208.182 111.507 207.806C110.825 207.429 110.352 206.853 110.103 206.076C109.847 205.283 109.887 204.578 110.232 203.946C110.577 203.321 111.098 202.889 111.812 202.656C112.301 202.496 112.798 202.472 113.312 202.56C113.825 202.656 114.282 202.865 114.683 203.185C115.085 203.513 115.365 203.914 115.518 204.402C115.75 205.131 115.702 205.844 115.357 206.556C115.012 207.277 114.451 207.75 113.673 208.006Z" fill="#EC7D84"/>
<path d="M115.069 287.867C115.069 287.867 88.4709 265.259 105.749 258.78C122.866 252.365 116.754 288.427 116.754 288.427" fill="#85254F"/>
<path d="M115.069 287.867C115.069 287.867 106.237 267.918 105.748 258.78C122.865 252.365 116.753 288.427 116.753 288.427" fill="#AA306B"/>
<path d="M109.141 271.673C109.141 271.673 132.547 349.908 205.115 340.073" stroke="#661D40" stroke-width="1.6992" stroke-miterlimit="10"/>
<path d="M122.345 303.996C122.345 303.996 94.7841 305.405 101.193 292.327C107.554 279.378 123.621 303.411 123.621 303.411" fill="#85254F"/>
<path d="M122.345 303.996C122.345 303.996 106.439 297.309 101.193 292.327C107.554 279.378 123.621 303.411 123.621 303.411" fill="#AA306B"/>
<path d="M128.113 300.159C128.113 300.159 143.353 277.327 129.067 275.934C114.918 274.557 126.966 300.936 126.966 300.936" fill="#85254F"/>
<path d="M128.113 300.159C128.113 300.159 130.592 283.037 129.067 275.934C114.918 274.557 126.966 300.936 126.966 300.936" fill="#AA306B"/>
<path d="M105.301 296.227C105.301 296.227 118.303 303.259 126.381 304.676C126.381 304.676 129.493 296.94 129.124 286.233" stroke="#661D40" stroke-width="1.6992" stroke-miterlimit="10"/>
<path d="M137.126 321.286C137.126 321.286 109.148 328.453 112.999 313.718C116.817 299.111 138.306 320.421 138.306 320.421" fill="#85254F"/>
<path d="M137.126 321.286C137.126 321.286 119.415 317.738 112.998 313.718C116.816 299.111 138.305 320.421 138.305 320.421" fill="#AA306B"/>
<path d="M142.236 316.153C142.236 316.153 153.105 289.565 138.17 291.11C123.371 292.64 141.226 317.194 141.226 317.194" fill="#85254F"/>
<path d="M142.236 316.153C142.236 316.153 141.21 298.078 138.17 291.11C123.371 292.64 141.226 317.194 141.226 317.194" fill="#AA306B"/>
<path d="M118.02 316.865C118.02 316.865 132.827 321.374 141.401 321.15C141.401 321.15 142.982 312.573 140.367 301.657" stroke="#661D40" stroke-width="1.6992" stroke-miterlimit="10"/>
<path d="M159.666 336.734C159.666 336.734 133.87 351.486 133.661 335.805C133.453 320.269 160.605 335.549 160.605 335.549" fill="#85254F"/>
<path d="M159.666 336.734C159.666 336.734 141.121 338.047 133.661 335.805C133.453 320.269 160.605 335.549 160.605 335.549" fill="#AA306B"/>
<path d="M163.331 330.247C163.331 330.247 166.836 300.904 152.438 306.51C138.168 312.068 162.617 331.553 162.617 331.553" fill="#85254F"/>
<path d="M163.331 330.247C163.331 330.247 157.363 312.589 152.438 306.51C138.168 312.068 162.617 331.553 162.617 331.553" fill="#AA306B"/>
<path d="M139.5 337.567C139.5 337.567 155.422 337.999 163.869 335.428C163.869 335.428 163.082 326.491 157.508 316.376" stroke="#661D40" stroke-width="1.6992" stroke-miterlimit="10"/>
<path d="M185.495 343.069C185.495 343.069 165.506 365.036 160.468 350.188C155.471 335.477 186.024 341.651 186.024 341.651" fill="#85254F"/>
<path d="M185.495 343.069C185.495 343.069 168.257 350.02 160.468 350.188C155.471 335.477 186.024 341.651 186.024 341.651" fill="#AA306B"/>
<path d="M186.979 335.773C186.979 335.773 181.252 306.775 169.284 316.545C157.428 326.219 186.698 337.239 186.698 337.239" fill="#85254F"/>
<path d="M186.979 335.773C186.979 335.773 175.853 320.813 169.284 316.545C157.428 326.219 186.698 337.239 186.698 337.239" fill="#AA306B"/>
<path d="M166.564 350.068C166.564 350.068 181.845 345.575 189.088 340.538C189.088 340.538 185.583 332.273 177.152 324.369" stroke="#661D40" stroke-width="1.6992" stroke-miterlimit="10"/>
<path d="M429.028 311.275C429.028 311.275 424.648 392.809 351.791 400.241" stroke="#661D40" stroke-width="1.6992" stroke-miterlimit="10"/>
<path d="M427.062 328.406C427.062 328.406 447.612 300.2 429.292 297.95C411.139 295.723 425.562 329.343 425.562 329.343" fill="#85254F"/>
<path d="M427.062 328.406C427.062 328.406 430.96 306.943 429.292 297.95C411.14 295.723 425.562 329.343 425.562 329.343" fill="#AA306B"/>
<path d="M423.782 345.784C423.782 345.784 450.91 340.698 441.597 329.495C432.381 318.395 422.402 345.511 422.402 345.511" fill="#85254F"/>
<path d="M423.782 345.784C423.782 345.784 437.675 335.557 441.597 329.495C432.381 318.395 422.402 345.511 422.402 345.511" fill="#AA306B"/>
<path d="M417.277 343.405C417.277 343.405 397.095 324.777 410.659 320.084C424.095 315.431 418.568 343.901 418.568 343.901" fill="#85254F"/>
<path d="M417.276 343.405C417.276 343.405 410.843 327.34 410.658 320.084C424.094 315.431 418.567 343.901 418.567 343.901" fill="#AA306B"/>
<path d="M438.533 334.243C438.533 334.243 427.544 344.117 420.028 347.385C420.028 347.385 415.191 340.594 413.033 330.095" stroke="#661D40" stroke-width="1.6992" stroke-miterlimit="10"/>
<path d="M413.475 366.053C413.475 366.053 442.359 366.477 435.148 353.047C428.009 339.745 412.119 365.492 412.119 365.492" fill="#85254F"/>
<path d="M413.475 366.053C413.475 366.053 429.862 358.453 435.148 353.047C428.009 339.745 412.119 365.492 412.119 365.492" fill="#AA306B"/>
<path d="M407.298 362.257C407.298 362.257 390.485 338.952 405.373 336.958C420.124 334.98 408.525 363.026 408.525 363.026" fill="#85254F"/>
<path d="M407.297 362.257C407.297 362.257 404.048 344.446 405.372 336.958C420.123 334.98 408.524 363.026 408.524 363.026" fill="#AA306B"/>
<path d="M431.008 357.284C431.008 357.284 417.676 365.132 409.286 366.918C409.286 366.918 405.741 358.95 405.717 347.73" stroke="#661D40" stroke-width="1.6992" stroke-miterlimit="10"/>
<path d="M390.1 380.9C390.1 380.9 379.801 353.191 395.121 355.273C410.297 357.339 391.111 381.997 391.111 381.997" fill="#85254F"/>
<path d="M390.1 380.9C390.1 380.9 391.752 362.337 395.121 355.273C410.297 357.34 391.11 381.997 391.11 381.997" fill="#AA306B"/>
<path d="M368.411 391.808C368.411 391.808 367.168 362.281 381.093 368.976C394.89 375.607 369.029 393.161 369.029 393.161" fill="#85254F"/>
<path d="M169.26 156.992C169.26 156.992 161.158 138.828 189.209 130.772C189.209 130.772 190.604 156.167 169.26 156.992Z" fill="#7DB7A6"/>
<path d="M158.786 163.046C158.786 163.046 171.283 150.849 156.243 136.442C156.243 136.442 145.334 150.969 158.786 163.046Z" fill="#7DB7A6"/>
<path d="M167.609 167.379C167.609 167.379 181.342 178.166 193.702 161.405C193.702 161.405 177.861 152.491 167.609 167.379Z" fill="#7DB7A6"/>
<path d="M146.497 236.411C146.497 236.411 150.852 215.725 125.978 211.336C125.986 211.336 124.799 233.296 146.497 236.411Z" fill="#7DB7A6"/>
<path d="M158.295 234.833C158.295 234.833 179.399 236.459 180.53 211.265C180.53 211.273 158.568 212.954 158.295 234.833Z" fill="#7DB7A6"/>
<path d="M154.984 267.348C154.984 267.348 151.158 246.558 126.477 251.916C126.477 251.916 133.72 272.681 154.984 267.348Z" fill="#7DB7A6"/>
<path d="M165.298 261.429C165.298 261.429 185.448 254.943 176.921 231.206C176.921 231.206 157.237 241.072 165.298 261.429Z" fill="#7DB7A6"/>
<path d="M143.633 210.776C143.633 210.776 149.44 193.582 128.681 187.327C128.681 187.335 125.449 205.931 143.633 210.776Z" fill="#7DB7A6"/>
<path d="M153.852 210.624C153.852 210.624 171.683 214.139 175.196 192.773C175.188 192.781 156.298 191.996 153.852 210.624Z" fill="#7DB7A6"/>
<path d="M148.302 186.847C148.302 186.847 157.455 171.166 138.372 160.876C138.38 160.876 131.466 178.454 148.302 186.847Z" fill="#7DB7A6"/>
<path d="M158.344 188.745C158.344 188.745 175.1 195.768 182.841 175.547C182.841 175.547 164.496 170.99 158.344 188.745Z" fill="#7DB7A6"/>
<path d="M177.829 144.755C177.829 144.755 99.7179 229.876 204.211 316.143" stroke="#568075" stroke-width="1.7898" stroke-miterlimit="10"/>
<path d="M158.537 152.067C158.537 152.067 159.387 163.879 160.117 172.528C160.117 172.528 169.318 165.065 180.764 164.624" stroke="#568075" stroke-width="1.7898" stroke-miterlimit="10"/>
<path d="M138.828 225.528C138.828 225.528 147.651 236.844 154.229 245.068C154.229 245.068 158.456 231.374 169.686 223.221" stroke="#568075" stroke-width="1.7898" stroke-miterlimit="10"/>
<path d="M143.754 260.18C143.754 260.18 156.219 267.308 165.427 272.425C165.427 272.425 164.136 258.146 171.427 246.366" stroke="#568075" stroke-width="1.7898" stroke-miterlimit="10"/>
<path d="M138.195 200.726C138.195 200.726 144.572 211.265 149.353 218.937C149.353 218.937 154.342 207.685 164.738 201.871" stroke="#568075" stroke-width="1.7898" stroke-miterlimit="10"/>
<path d="M145.006 175.908C145.006 175.908 149.137 187.512 152.265 195.985C152.265 195.985 159.42 185.966 170.77 182.354" stroke="#568075" stroke-width="1.7898" stroke-miterlimit="10"/>
<path d="M378.231 273.347C378.231 273.347 394.691 262.159 375.087 240.568C375.079 240.568 360.512 261.43 378.231 273.347Z" fill="#7DB7A6"/>
<path d="M383.934 283.998C383.934 283.998 379.731 267.06 400.121 262.711C400.121 262.711 401.75 280.795 383.934 283.998Z" fill="#7DB7A6"/>
<path d="M374.156 283.045C374.156 283.045 356.79 285.007 355.113 264.257C355.121 264.257 373.289 264.994 374.156 283.045Z" fill="#7DB7A6"/>
<path d="M355.723 352.838C355.723 352.838 362.918 332.961 386.38 342.291C386.38 342.291 375.816 361.592 355.723 352.838Z" fill="#7DB7A6"/>
<path d="M346.522 345.302C346.522 345.302 327.72 335.596 340.033 313.581C340.033 313.581 357.824 326.547 346.522 345.302Z" fill="#7DB7A6"/>
<path d="M332.205 374.694C332.205 374.694 346.419 359.029 364.579 376.544C364.579 376.544 347.469 390.398 332.205 374.694Z" fill="#7DB7A6"/>
<path d="M326.55 364.234C326.55 364.234 312.834 348.129 332.598 332.425C332.598 332.425 344.132 351.156 326.55 364.234Z" fill="#7DB7A6"/>
<path d="M371.67 332.545C371.67 332.545 375.793 314.871 396.744 320.46C396.744 320.46 389.686 337.983 371.67 332.545Z" fill="#7DB7A6"/>
<path d="M363.063 327.051C363.063 327.051 346.05 320.669 354.32 300.664C354.32 300.656 370.804 309.921 363.063 327.051Z" fill="#7DB7A6"/>
<path d="M380.309 309.737C380.309 309.737 380.79 291.598 402.439 292.872C402.439 292.872 399.054 311.451 380.309 309.737Z" fill="#7DB7A6"/>
<path d="M370.772 306.086C370.772 306.086 352.82 303.251 356.895 281.988C356.895 281.988 374.902 287.754 370.772 306.086Z" fill="#7DB7A6"/>
<path d="M377.388 258.435C377.388 258.435 398.949 371.85 264.625 390.326" stroke="#568075" stroke-width="1.7898" stroke-miterlimit="10"/>
<path d="M389.942 274.796C389.942 274.796 382.995 284.39 377.806 291.366C377.806 291.366 373.915 280.186 364.41 273.795" stroke="#568075" stroke-width="1.7898" stroke-miterlimit="10"/>
<path d="M367.979 347.609C367.979 347.609 354.512 352.59 344.581 356.13C344.581 356.13 348.207 342.259 342.953 329.438" stroke="#568075" stroke-width="1.7898" stroke-miterlimit="10"/>
<path d="M345.526 374.493C345.526 374.493 331.168 374.005 320.645 373.516C320.645 373.516 329.267 362.056 329.275 348.202" stroke="#568075" stroke-width="1.7898" stroke-miterlimit="10"/>
<path d="M381.591 326.851C381.591 326.851 370.61 332.457 362.509 336.477C362.509 336.477 364.193 324.288 358.418 313.885" stroke="#568075" stroke-width="1.7898" stroke-miterlimit="10"/>
<path d="M388.881 302.169C388.881 302.169 379.256 309.865 372.125 315.431C372.125 315.431 371.323 303.154 363.566 294.12" stroke="#568075" stroke-width="1.7898" stroke-miterlimit="10"/>
<path d="M313.561 339.312C313.561 339.312 325.657 349.538 330.47 362.039H195.176L200.43 329.79L313.561 339.312Z" fill="#DDEAD8"/>
<path d="M326.25 190.483C326.25 190.483 349.351 199.861 351.308 246.767C353.137 290.621 314.9 348.786 314.9 348.786H240.912L326.25 190.483Z" fill="white"/>
<path d="M348.678 225.889C347.498 226.866 346.279 227.795 345.012 228.668C332.13 237.477 316.913 236.892 301.625 236.18L240.912 348.786H314.9C314.9 348.786 353.137 290.621 351.308 246.767C350.972 238.766 350.017 231.855 348.678 225.889Z" fill="#DDEAD8"/>
<path d="M214.676 88.272C214.676 88.272 214.051 88.5683 212.944 89.241C211.845 89.9217 210.265 90.9868 208.452 92.5725C206.647 94.1582 204.602 96.2804 202.821 99.1074C201.04 101.918 199.572 105.45 198.979 109.494C198.674 111.512 198.618 113.651 198.794 115.845C198.963 118.031 199.42 120.29 199.861 122.62C200.783 127.233 202.283 131.998 203.511 137.051C204.802 142.081 205.307 147.638 204.425 153.1C204.152 154.454 203.888 155.815 203.559 157.152C203.158 158.474 202.797 159.819 202.348 161.133C201.858 162.43 201.369 163.735 200.88 165.033L199.179 168.837C196.773 173.866 193.965 178.599 191.896 183.58C190.829 186.055 189.923 188.577 189.096 191.084C188.318 193.607 187.653 196.129 187.147 198.644C186.666 201.159 186.337 203.657 186.169 206.116C186.024 208.575 186.04 210.985 186.257 213.315C186.506 215.646 186.907 217.888 187.516 220.011C188.158 222.117 188.92 224.111 189.883 225.921C191.776 229.549 194.254 232.456 196.725 234.69C199.211 236.924 201.714 238.47 203.823 239.623C204.89 240.184 205.845 240.68 206.711 241.041C207.561 241.433 208.291 241.753 208.901 241.97C210.112 242.434 210.754 242.674 210.754 242.674C210.754 242.674 210.096 242.45 208.869 242.034C208.251 241.842 207.505 241.545 206.639 241.185C206.206 241.001 205.725 240.832 205.243 240.6C204.754 240.368 204.241 240.112 203.695 239.855C201.537 238.758 198.971 237.269 196.38 235.066C193.805 232.872 191.19 229.973 189.193 226.281C188.174 224.447 187.364 222.413 186.666 220.267C186.008 218.105 185.551 215.806 185.262 213.428C184.998 211.041 184.949 208.575 185.046 206.06C185.166 203.545 185.519 200.999 185.984 198.428C186.482 195.865 187.147 193.294 187.925 190.724C188.744 188.169 189.658 185.606 190.725 183.092C192.802 178.014 195.61 173.201 197.944 168.268L199.636 164.528C200.126 163.255 200.615 161.981 201.096 160.708C201.537 159.427 201.898 158.113 202.299 156.824C202.628 155.519 202.893 154.197 203.166 152.892C204.04 147.606 203.599 142.297 202.356 137.316C201.152 132.318 199.741 127.497 198.882 122.788C198.481 120.458 198.064 118.175 197.92 115.901C197.775 113.643 197.872 111.448 198.217 109.374C198.874 105.218 200.495 101.638 202.388 98.8271C204.281 96.0001 206.406 93.9099 208.275 92.3643C210.136 90.8106 211.773 89.8176 212.895 89.1689C214.043 88.5443 214.676 88.272 214.676 88.272Z" fill="#661D40"/>
<path d="M216.634 85.5405C216.634 85.5405 197.447 94.1416 200.583 115.636C203.711 137.131 213.112 142.993 197.455 171.919C181.797 200.846 182.968 230.157 212.719 239.927C242.47 249.697 285.536 218.817 289.057 162.141C292.579 105.465 216.634 85.5405 216.634 85.5405Z" fill="#661D40"/>
<path d="M262.443 176.412C262.443 176.412 291.416 180.712 285.93 210.808C280.451 240.903 320.774 188.528 320.774 188.528L285.537 140.846L262.443 176.412Z" fill="#FFA5A3"/>
<path opacity="0.6" d="M262.443 176.412C262.443 176.412 291.416 180.712 285.93 210.808C280.451 240.903 320.774 188.528 320.774 188.528L285.537 140.846L262.443 176.412Z" fill="#EC7D84"/>
<path d="M229.259 96.9283C229.259 96.9283 210.321 112.697 218.607 139.725C226.893 166.754 255.304 208.43 280.162 178.022C305.02 147.614 289.042 83.418 229.259 96.9283Z" fill="#FFA5A3"/>
<path d="M221.919 99.0184C221.919 99.0184 234.977 134.095 265.177 140.062C302.757 147.485 279.856 185.405 301.979 190.09C324.101 194.783 327.101 184.484 341.131 205.723C353.267 224.094 351.309 246.766 351.309 246.766C351.309 246.766 387.325 242.073 379.496 197.13C372.951 159.554 328.016 167.619 321.944 115.051C315.872 62.476 275.749 55.6368 252.648 62.2838C229.555 68.9228 212.325 83.7784 221.919 99.0184Z" fill="#85254F"/>
<path d="M253.057 64.5581C248.75 65.8234 244.539 67.4251 240.512 69.3792C236.493 71.3492 232.643 73.7037 229.282 76.6188C227.606 78.0763 226.05 79.678 224.734 81.4559C223.411 83.2177 222.336 85.1718 221.686 87.246C221.036 89.3282 220.852 91.5305 221.181 93.6767C221.518 95.815 222.344 97.8651 223.483 99.7311L223.507 99.7711L223.531 99.8352C225.079 103.871 227.076 107.796 229.282 111.544C231.504 115.291 234.023 118.871 236.806 122.211C239.597 125.55 242.702 128.617 246.127 131.276C249.552 133.927 253.306 136.161 257.316 137.763C259.314 138.572 261.383 139.221 263.485 139.709C265.602 140.182 267.824 140.718 269.934 141.495C274.153 142.993 278.196 145.419 281.172 148.903C284.164 152.386 285.888 156.743 286.859 161.092C287.845 165.456 288.174 169.877 288.76 174.193C289.056 176.348 289.417 178.486 290.027 180.52C290.645 182.546 291.551 184.476 292.947 185.982C294.326 187.495 296.187 188.512 298.201 189.081L298.955 189.281L299.757 189.457C300.294 189.57 300.832 189.698 301.361 189.794C302.42 190.002 303.495 190.178 304.57 190.33C306.719 190.627 308.885 190.795 311.059 190.875C313.241 190.963 315.43 190.883 317.684 191.035C318.807 191.115 319.954 191.283 321.069 191.636C322.184 191.98 323.235 192.525 324.173 193.181C326.058 194.511 327.574 196.193 328.946 197.938C330.318 199.692 331.569 201.51 332.772 203.368C333.366 204.305 333.967 205.218 334.529 206.179C335.09 207.148 335.596 208.149 336.037 209.174C337.818 213.275 338.523 217.783 338.395 222.204C338.275 226.641 337.392 231.005 336.037 235.194C334.673 239.382 332.852 243.418 330.566 247.174C332.74 243.354 334.409 239.27 335.692 235.081C336.943 230.893 337.729 226.544 337.745 222.188C337.777 217.839 336.967 213.483 335.203 209.535C334.762 208.55 334.256 207.597 333.711 206.668C333.149 205.739 332.532 204.826 331.93 203.913C330.719 202.095 329.451 200.309 328.088 198.627C326.724 196.945 325.232 195.36 323.5 194.174C321.775 192.965 319.738 192.429 317.596 192.333C315.454 192.22 313.249 192.325 311.027 192.268C308.805 192.236 306.575 192.076 304.369 191.772C303.27 191.62 302.171 191.444 301.064 191.235C300.511 191.139 299.981 191.019 299.436 190.907L298.626 190.739L297.784 190.523C295.57 189.914 293.42 188.761 291.824 187.023C290.212 185.293 289.209 183.139 288.543 180.985C287.877 178.814 287.5 176.604 287.188 174.418C286.578 170.037 286.225 165.672 285.254 161.468C284.3 157.28 282.656 153.227 279.88 150.024C277.145 146.797 273.407 144.506 269.372 143.049C267.351 142.296 265.29 141.783 263.124 141.287C260.942 140.774 258.8 140.086 256.731 139.237C252.576 137.555 248.71 135.224 245.204 132.486C241.691 129.739 238.531 126.575 235.699 123.156C232.86 119.744 230.373 116.052 228.167 112.216C225.969 108.364 224.02 104.408 222.48 100.22L222.528 100.324C221.357 98.3456 220.499 96.1433 220.17 93.8449C219.841 91.5465 220.082 89.176 220.804 86.9817C221.526 84.7874 222.681 82.7613 224.076 80.9674C225.48 79.1655 227.108 77.5638 228.849 76.1143C232.346 73.2232 236.285 70.9488 240.368 69.0588C244.434 67.1528 248.71 65.6873 253.057 64.5581Z" fill="#85254F"/>
<path d="M379.497 197.129C377.563 186.038 372.285 178.926 365.652 173.056C365.844 173.897 366.029 174.746 366.189 175.635C371.179 204.281 358.361 216.574 348.406 221.723C352.321 235.105 351.31 246.774 351.31 246.774C351.31 246.774 387.325 242.081 379.497 197.129Z" fill="#661D40"/>
<path d="M231.023 141.936C231.023 141.936 230.726 141.816 230.197 141.672C229.94 141.583 229.611 141.519 229.25 141.415C228.873 141.351 228.472 141.239 228.015 141.183C227.566 141.103 227.069 141.071 226.555 141.039C226.299 141.007 226.034 141.039 225.761 141.039C225.496 141.055 225.216 141.023 224.943 141.079C224.67 141.111 224.389 141.151 224.109 141.183C223.828 141.231 223.555 141.327 223.274 141.383C222.705 141.471 222.184 141.768 221.638 141.96C221.125 142.232 220.603 142.504 220.122 142.825C219.681 143.209 219.176 143.489 218.783 143.89C218.398 144.298 217.988 144.667 217.62 145.035C217.299 145.451 216.978 145.828 216.681 146.18C216.537 146.356 216.392 146.533 216.256 146.693C216.136 146.869 216.023 147.037 215.919 147.189C215.702 147.502 215.51 147.774 215.35 147.998C215.029 148.447 214.828 148.703 214.828 148.703C214.828 148.703 214.924 148.399 215.109 147.878C215.205 147.614 215.317 147.293 215.462 146.933C215.534 146.749 215.606 146.557 215.694 146.356C215.791 146.156 215.911 145.964 216.031 145.756C216.272 145.339 216.529 144.883 216.825 144.402C217.162 143.962 217.539 143.497 217.94 143.033C218.125 142.785 218.382 142.6 218.622 142.384C218.863 142.168 219.111 141.96 219.36 141.752C219.89 141.375 220.475 141.039 221.069 140.719C221.702 140.494 222.312 140.19 222.97 140.094C223.291 140.03 223.611 139.942 223.932 139.918C224.253 139.902 224.574 139.886 224.887 139.87C225.2 139.838 225.504 139.886 225.801 139.91C226.098 139.942 226.387 139.95 226.667 140.022C226.94 140.078 227.213 140.134 227.47 140.19C227.726 140.254 227.967 140.35 228.2 140.422C228.665 140.558 229.066 140.767 229.427 140.919C229.772 141.103 230.077 141.255 230.309 141.415C230.79 141.72 231.023 141.936 231.023 141.936Z" fill="#661D40"/>
<path d="M259.466 129.74C259.466 129.74 257.853 129.291 255.431 129.059C254.22 128.947 252.808 128.899 251.316 129.027C250.57 129.083 249.808 129.203 249.054 129.371C248.292 129.515 247.538 129.764 246.8 130.028C246.07 130.316 245.348 130.629 244.69 131.029C244.025 131.413 243.383 131.838 242.805 132.302C242.228 132.767 241.69 133.247 241.217 133.744C240.969 133.984 240.744 134.232 240.535 134.481C240.327 134.729 240.102 134.953 239.926 135.193C239.565 135.682 239.204 136.106 238.931 136.523C238.658 136.939 238.386 137.284 238.209 137.596C237.816 138.204 237.6 138.557 237.6 138.557C237.6 138.557 237.728 138.164 237.969 137.476C238.081 137.131 238.265 136.723 238.482 136.266C238.674 135.794 238.971 135.297 239.284 134.745C239.621 134.216 239.974 133.616 240.455 133.063C240.904 132.486 241.426 131.918 242.027 131.381C242.332 131.117 242.629 130.837 242.974 130.596C243.303 130.34 243.648 130.1 244.017 129.884C244.739 129.427 245.525 129.067 246.319 128.739C247.137 128.458 247.963 128.21 248.797 128.066C249.623 127.898 250.458 127.842 251.252 127.818C252.054 127.786 252.824 127.85 253.546 127.922C254.268 128.01 254.942 128.122 255.559 128.274C256.786 128.554 257.773 128.931 258.439 129.219C259.105 129.523 259.466 129.74 259.466 129.74Z" fill="#661D40"/>
<path d="M233.422 143.522C234.031 144.243 234.585 145.028 235.074 145.836C235.572 146.645 236.013 147.494 236.414 148.359C236.614 148.792 236.799 149.232 236.975 149.681C237.16 150.121 237.296 150.585 237.457 151.034C237.625 151.482 237.745 151.947 237.866 152.419C237.986 152.884 238.106 153.348 238.186 153.829C238.267 154.301 238.379 154.774 238.443 155.254L238.58 156.704C238.636 157.184 238.604 157.673 238.62 158.161C238.628 158.65 238.644 159.138 238.572 159.619L238.427 161.077L238.146 162.518C238.098 162.758 238.058 162.999 238.002 163.239L237.777 163.936L237.32 165.321L236.494 164.232C237.368 164.2 238.243 164.184 239.117 164.184C239.991 164.168 240.866 164.168 241.74 164.184C243.489 164.2 245.245 164.248 247.002 164.392C245.277 164.752 243.545 165.025 241.812 165.265C240.946 165.393 240.08 165.497 239.213 165.593C238.347 165.697 237.481 165.801 236.606 165.874L235.475 165.97L235.78 164.776L236.117 163.471L236.285 162.822L236.406 162.158L236.638 160.836L236.743 159.499C236.791 159.05 236.799 158.602 236.799 158.153C236.791 157.705 236.831 157.256 236.791 156.808L236.695 155.463C236.662 155.014 236.59 154.566 236.542 154.117C236.502 153.669 236.414 153.22 236.326 152.772C236.237 152.323 236.173 151.875 236.061 151.426C235.957 150.986 235.868 150.529 235.74 150.089L235.371 148.76C235.227 148.319 235.106 147.879 234.954 147.438C234.802 147.006 234.673 146.557 234.497 146.125C234.152 145.252 233.807 144.387 233.422 143.522Z" fill="#D8686E"/>
<path d="M266.381 161.044C266.381 161.044 266.357 161.324 266.22 161.797C266.084 162.261 265.867 162.934 265.474 163.679C265.29 164.063 265.057 164.448 264.801 164.856C264.528 165.256 264.239 165.681 263.902 166.081C263.557 166.482 263.196 166.898 262.779 167.267C262.571 167.451 262.378 167.651 262.154 167.835L261.48 168.356C261.039 168.708 260.533 168.988 260.06 169.269C259.587 169.565 259.065 169.757 258.584 169.981C258.103 170.206 257.598 170.31 257.132 170.462C256.675 170.622 256.218 170.67 255.801 170.742C255.384 170.806 255.015 170.878 254.67 170.87C254.333 170.886 254.028 170.878 253.787 170.87C253.298 170.862 253.025 170.83 253.025 170.83C253.025 170.83 253.282 170.694 253.715 170.502C253.932 170.406 254.197 170.286 254.501 170.174C254.806 170.061 255.127 169.861 255.488 169.709C255.849 169.533 256.242 169.381 256.627 169.157C257.02 168.932 257.445 168.748 257.854 168.492C258.263 168.228 258.704 168.011 259.122 167.723C259.531 167.427 259.98 167.186 260.373 166.858C260.79 166.562 261.191 166.249 261.576 165.921C261.977 165.609 262.33 165.264 262.699 164.952C263.413 164.303 264.055 163.655 264.6 163.078C265.146 162.502 265.579 161.997 265.891 161.629C266.204 161.252 266.381 161.044 266.381 161.044Z" fill="#D8686E"/>
<path d="M232.708 146.934C232.708 146.934 232.876 147.142 233.109 147.542C233.342 147.943 233.646 148.543 233.871 149.32C233.983 149.712 234.096 150.145 234.128 150.625C234.176 151.098 234.192 151.626 234.072 152.171C233.975 152.716 233.751 153.276 233.406 153.773C233.013 154.261 232.612 154.67 231.994 154.982L231.641 155.142C231.481 155.19 231.296 155.23 231.12 155.262C230.751 155.358 230.454 155.302 230.133 155.294C229.516 155.214 228.978 154.974 228.513 154.71C228.04 154.445 227.647 154.125 227.31 153.805C226.957 153.492 226.668 153.156 226.411 152.852C225.898 152.227 225.553 151.658 225.336 151.258C225.112 150.85 225.016 150.601 225.016 150.601C225.016 150.601 225.208 150.778 225.553 151.09C225.89 151.394 226.379 151.827 226.973 152.299C227.27 152.531 227.598 152.78 227.951 153.012C228.304 153.252 228.689 153.468 229.082 153.653C229.275 153.765 229.483 153.797 229.684 153.885C229.885 153.933 230.093 153.973 230.294 153.997C230.478 153.989 230.711 154.029 230.839 153.965C230.919 153.949 230.983 153.949 231.072 153.925L231.417 153.757L231.593 153.677L231.617 153.669L231.625 153.661H231.633C231.601 153.677 231.705 153.621 231.569 153.701L231.601 153.677L231.665 153.629L231.922 153.436C232.106 153.324 232.211 153.14 232.363 152.996C232.475 152.82 232.596 152.66 232.692 152.475C232.764 152.283 232.884 152.107 232.917 151.891C232.981 151.691 233.029 151.49 233.053 151.274C233.101 151.066 233.117 150.858 233.125 150.649C233.149 150.241 233.141 149.833 233.109 149.464C233.053 148.719 232.941 148.079 232.86 147.638C232.772 147.198 232.708 146.934 232.708 146.934Z" fill="#661D40"/>
<path d="M256.233 137.859C256.233 137.859 256.33 138.148 256.434 138.668C256.538 139.189 256.65 139.942 256.634 140.863C256.618 141.784 256.498 142.889 256.001 144.01C255.72 144.554 255.407 145.139 254.886 145.588C254.653 145.836 254.356 146.02 254.068 146.204L253.955 146.276L253.931 146.292L253.915 146.3L253.907 146.308L253.851 146.332L253.803 146.356L253.602 146.444L253.193 146.621C252.953 146.749 252.544 146.805 252.215 146.893C251.862 146.997 251.541 146.957 251.204 146.981C250.538 146.989 249.905 146.821 249.319 146.621C249.038 146.508 248.766 146.38 248.501 146.252C248.26 146.1 248.02 145.948 247.787 145.796C247.578 145.628 247.37 145.467 247.169 145.307C246.985 145.131 246.816 144.963 246.648 144.803C246.006 144.138 245.581 143.497 245.316 143.041C245.052 142.584 244.939 142.304 244.939 142.304C244.939 142.304 245.148 142.52 245.533 142.873C245.718 143.049 245.966 143.257 246.231 143.489C246.504 143.722 246.824 143.962 247.169 144.218C247.522 144.466 247.915 144.707 248.332 144.939C248.549 145.035 248.766 145.139 248.998 145.243C249.231 145.323 249.463 145.403 249.704 145.483C249.953 145.531 250.193 145.612 250.442 145.628C250.691 145.628 250.947 145.692 251.196 145.66C251.445 145.628 251.717 145.66 251.934 145.571C252.175 145.491 252.367 145.507 252.664 145.355L253.073 145.187L253.282 145.099L253.33 145.075C253.378 145.051 253.274 145.099 253.282 145.099H253.29L253.298 145.091L253.314 145.075L253.394 145.027C253.602 144.891 253.819 144.779 253.987 144.594C254.364 144.282 254.661 143.866 254.918 143.441C255.142 142.993 255.359 142.544 255.495 142.08C255.64 141.623 255.76 141.175 255.84 140.75C256.009 139.902 256.097 139.165 256.145 138.652C256.217 138.156 256.233 137.859 256.233 137.859Z" fill="#661D40"/>
<path d="M273.584 169.91C272.116 168.86 270.456 168.18 268.683 167.771C263.67 166.202 251.991 164.119 240.304 173.425C240.304 173.425 245.269 170.486 253.09 169.453C252.849 169.541 252.608 169.621 252.376 169.709C248.1 170.43 243.857 172.096 241.082 175.572L241.956 175.708C238.635 179.319 237.561 183.588 237.561 183.588L268.097 225.024C268.097 225.024 288.263 213.692 290.413 200.205C292.57 186.719 283.177 176.749 273.584 169.91Z" fill="#85254F"/>
<path d="M286.907 183.379C283.274 190.979 275.926 194.727 267.368 196.201C266.622 196.401 265.884 196.593 265.162 196.793C260.445 198.075 254.67 199.653 249.336 199.572L268.09 225.023C268.09 225.023 288.255 213.691 290.405 200.205C291.439 193.822 289.859 188.232 286.907 183.379Z" fill="#661D40"/>
<path d="M237.569 183.596C237.569 183.596 265.363 182.812 281.221 211.546C281.221 211.546 241.291 356.947 216.04 356.362C190.79 355.777 169.06 298.902 177.282 260.798C185.496 222.677 237.569 183.596 237.569 183.596Z" fill="#EC7D84"/>
<path d="M273.088 200.142C271.676 203.842 269.686 207.286 267.264 210.497C261.176 218.553 250.66 228.676 239.607 227.883C230.07 227.203 222.241 219.835 217.099 212.315C215.591 210.113 214.196 207.798 212.968 205.388C198.273 220.163 181.629 240.609 177.282 260.782C169.06 298.894 190.79 355.762 216.04 356.346C241.291 356.931 281.221 211.53 281.221 211.53C278.742 207.061 275.983 203.305 273.088 200.142Z" fill="#D8686E"/>
<path d="M169.26 292.431C169.26 292.431 172.268 284.422 175.276 277.912C178.284 271.401 196.339 241.858 179.286 281.419C179.286 281.419 214.893 237.853 180.289 291.43C180.289 291.43 215.895 254.375 180.794 297.941C180.794 297.941 215.903 264.393 181.3 304.451C181.3 304.451 182.808 313.461 189.321 333.49C183.802 326.483 170.262 316.969 169.26 292.431Z" fill="#FFA5A3"/>
<path d="M293.156 211.345C282.263 214.58 255.649 267.996 243.12 294.28C236.703 272.065 215.807 233.648 210.609 221.011C214.965 217.287 220.018 212.17 222.689 206.652C227.975 195.704 240.545 181.513 236.783 178.51C235.828 177.749 232.596 181.121 229.122 185.189C226.403 185.854 221.294 187.167 218.775 188.28C218.278 188.505 217.508 189.065 216.561 189.866C215.735 189.626 213.738 189.346 210.168 190.627C205.275 192.389 197.439 199.076 193.717 203.761C193.404 204.153 193.219 204.658 193.115 205.226C190.629 209.03 188.262 214.908 188.711 223.269C189.875 244.732 214.853 355.961 241.082 359.485C267.312 363 325.249 264.112 325.249 264.112C325.249 264.112 307.642 207.044 293.156 211.345ZM220.861 195.088C220.435 195.568 220.058 195.985 219.746 196.289C218.631 197.418 219.361 196.649 220.861 195.088Z" fill="#FFA5A3"/>
<path opacity="0.6" d="M262.837 267.628C269.935 272.849 277.949 278.167 286.202 281.314C294.488 284.47 303.031 285.511 311.694 285.919C319.9 273.274 325.266 264.12 325.266 264.12C325.266 264.12 307.651 207.052 293.165 211.353C285.689 213.571 270.81 239.422 258.16 263.92C259.668 265.209 261.232 266.443 262.837 267.628Z" fill="#EC7D84"/>
<path d="M261.055 254.342C261.055 254.342 286.498 188.673 313.514 187.504C340.529 186.335 346.794 216.038 339.35 240.272C331.914 264.505 321.735 282.484 321.735 282.484C321.735 282.484 287.677 277.399 261.055 254.342Z" fill="white"/>
</g>
</svg>
