<svg width="519" height="363" viewBox="0 0 519 363" fill="none" xmlns="http://www.w3.org/2000/svg">
<mask id="mask0_456_45867" style="mask-type:alpha" maskUnits="userSpaceOnUse" x="0" y="0" width="519" height="363">
<rect width="519" height="363" fill="#F3EDF6"/>
</mask>
<g mask="url(#mask0_456_45867)">
<path opacity="0.5" d="M162.253 259.977C132.763 229.337 118.07 193.334 118.07 152.127C118.07 124.678 125.698 99.2318 140.838 75.8655C155.978 52.4991 175.937 34.2123 200.838 20.9103C225.614 7.65576 251.743 1 279.329 1C319.704 1 353.907 14.302 381.941 40.8681C409.974 67.4247 423.991 103.153 423.991 147.996C423.991 191.995 409.527 229.347 380.589 259.986C351.651 290.739 315.657 306.054 272.483 306.054C228.309 306.045 191.639 290.73 162.253 259.977Z" fill="#E8D6EF"/>
<path d="M356.346 218.305C356.346 218.305 351.742 233.545 365.434 238.438C379.118 243.331 387.645 233.224 386.875 219.826" stroke="#661D40" stroke-width="1.2658" stroke-miterlimit="10"/>
<path d="M362.923 215.093C362.923 215.093 357.212 234.786 370.463 239.11C370.463 239.11 380.426 237.373 379.327 218.817" stroke="#661D40" stroke-width="1.2658" stroke-miterlimit="10"/>
<path d="M370.102 215.029C370.102 215.029 367.985 234.69 370.463 239.111" stroke="#661D40" stroke-width="1.2658" stroke-miterlimit="10"/>
<path d="M369.782 237.549C369.782 237.549 384.317 301.504 298 300.599" stroke="#661D40" stroke-width="1.2658" stroke-miterlimit="10"/>
<path d="M354.044 219.466C353.651 218.785 353.546 218.072 353.731 217.328C353.851 216.831 354.108 216.407 354.477 216.054C354.854 215.702 355.295 215.462 355.8 215.333C356.306 215.205 356.803 215.205 357.3 215.325C358.022 215.502 358.584 215.894 358.969 216.503C359.354 217.103 359.45 217.808 359.25 218.617C359.049 219.41 358.624 220.018 357.966 220.435C357.308 220.859 356.595 220.971 355.817 220.779C355.022 220.587 354.437 220.147 354.044 219.466Z" fill="#EC7D84"/>
<path d="M385.015 221.124C384.621 220.443 384.517 219.73 384.702 218.985C384.822 218.489 385.079 218.064 385.448 217.712C385.825 217.36 386.266 217.119 386.771 216.991C387.276 216.863 387.774 216.863 388.271 216.983C388.993 217.159 389.554 217.552 389.94 218.16C390.325 218.761 390.421 219.466 390.22 220.275C390.02 221.067 389.595 221.676 388.937 222.093C388.279 222.517 387.565 222.629 386.787 222.437C385.993 222.245 385.408 221.804 385.015 221.124Z" fill="#EC7D84"/>
<path d="M377.13 220.218C376.737 219.538 376.632 218.825 376.817 218.08C376.937 217.584 377.194 217.159 377.563 216.807C377.94 216.454 378.381 216.214 378.886 216.086C379.392 215.958 379.889 215.958 380.386 216.078C381.108 216.254 381.67 216.647 382.055 217.255C382.44 217.856 382.536 218.561 382.336 219.369C382.143 220.162 381.71 220.771 381.052 221.187C380.394 221.612 379.681 221.724 378.902 221.532C378.116 221.339 377.523 220.899 377.13 220.218Z" fill="#EC7D84"/>
<path d="M367.583 217.592C367.19 216.911 367.086 216.198 367.27 215.454C367.39 214.957 367.647 214.533 368.016 214.18C368.393 213.828 368.834 213.588 369.34 213.459C369.845 213.331 370.342 213.331 370.84 213.451C371.561 213.628 372.123 214.02 372.508 214.629C372.893 215.229 372.989 215.934 372.789 216.743C372.596 217.536 372.163 218.144 371.505 218.561C370.848 218.985 370.134 219.097 369.356 218.905C368.561 218.713 367.976 218.28 367.583 217.592Z" fill="#EC7D84"/>
<path d="M361.038 215.229C360.645 214.549 360.541 213.836 360.725 213.091C360.845 212.595 361.102 212.17 361.471 211.818C361.848 211.466 362.289 211.225 362.795 211.097C363.3 210.969 363.797 210.969 364.295 211.089C365.016 211.265 365.578 211.658 365.963 212.266C366.348 212.867 366.444 213.572 366.244 214.381C366.043 215.173 365.618 215.782 364.96 216.198C364.303 216.623 363.589 216.735 362.811 216.543C362.017 216.351 361.423 215.918 361.038 215.229Z" fill="#EC7D84"/>
<path d="M346.866 117.031C346.866 117.031 342.261 132.271 355.954 137.164C369.638 142.058 378.164 131.951 377.394 118.553" stroke="#661D40" stroke-width="1.2658" stroke-miterlimit="10"/>
<path d="M353.435 113.82C353.435 113.82 347.724 133.512 360.975 137.837C360.975 137.837 370.937 136.099 369.838 117.544" stroke="#661D40" stroke-width="1.2658" stroke-miterlimit="10"/>
<path d="M360.614 113.756C360.614 113.756 358.497 133.416 360.975 137.837" stroke="#661D40" stroke-width="1.2658" stroke-miterlimit="10"/>
<path d="M360.294 136.275C360.294 136.275 374.828 200.231 288.512 199.326" stroke="#661D40" stroke-width="1.2658" stroke-miterlimit="10"/>
<path d="M344.563 118.192C344.17 117.512 344.066 116.799 344.251 116.054C344.371 115.558 344.628 115.133 344.996 114.781C345.373 114.428 345.815 114.188 346.32 114.06C346.825 113.932 347.323 113.932 347.82 114.052C348.542 114.228 349.103 114.621 349.488 115.229C349.873 115.83 349.97 116.535 349.769 117.343C349.577 118.136 349.143 118.745 348.486 119.161C347.828 119.586 347.114 119.698 346.336 119.506C345.542 119.314 344.948 118.881 344.563 118.192Z" fill="#EC7D84"/>
<path d="M375.534 119.851C375.141 119.17 375.037 118.457 375.221 117.712C375.342 117.216 375.598 116.791 375.967 116.439C376.344 116.087 376.785 115.846 377.291 115.718C377.796 115.59 378.293 115.59 378.791 115.71C379.513 115.886 380.074 116.279 380.459 116.887C380.844 117.488 380.94 118.193 380.74 119.002C380.539 119.795 380.114 120.403 379.456 120.82C378.799 121.244 378.085 121.356 377.307 121.164C376.513 120.98 375.919 120.539 375.534 119.851Z" fill="#EC7D84"/>
<path d="M367.649 118.946C367.256 118.265 367.152 117.552 367.336 116.808C367.457 116.311 367.713 115.887 368.082 115.534C368.459 115.182 368.901 114.942 369.406 114.813C369.911 114.685 370.409 114.685 370.906 114.805C371.628 114.982 372.189 115.374 372.574 115.983C372.959 116.583 373.056 117.288 372.855 118.097C372.655 118.89 372.229 119.498 371.572 119.915C370.914 120.339 370.2 120.451 369.422 120.259C368.628 120.067 368.042 119.635 367.649 118.946Z" fill="#EC7D84"/>
<path d="M358.102 116.327C357.709 115.646 357.605 114.933 357.79 114.188C357.91 113.692 358.167 113.267 358.536 112.915C358.913 112.563 359.354 112.322 359.859 112.194C360.364 112.066 360.862 112.066 361.359 112.186C362.081 112.362 362.642 112.755 363.027 113.363C363.412 113.964 363.509 114.669 363.308 115.478C363.116 116.27 362.683 116.879 362.025 117.296C361.367 117.72 360.653 117.832 359.875 117.64C359.081 117.448 358.487 117.007 358.102 116.327Z" fill="#EC7D84"/>
<path d="M351.55 113.964C351.157 113.284 351.052 112.571 351.237 111.826C351.357 111.33 351.614 110.905 351.983 110.553C352.36 110.2 352.801 109.96 353.306 109.832C353.812 109.704 354.309 109.704 354.806 109.824C355.528 110 356.09 110.393 356.475 111.001C356.86 111.602 356.956 112.307 356.755 113.115C356.563 113.908 356.13 114.517 355.472 114.933C354.814 115.358 354.1 115.47 353.322 115.278C352.528 115.086 351.943 114.645 351.55 113.964Z" fill="#EC7D84"/>
<path d="M120.243 209.303C120.243 209.303 125.898 224.183 112.583 230.021C99.2753 235.851 90.0669 226.361 89.8984 212.939" stroke="#661D40" stroke-width="1.2658" stroke-miterlimit="10"/>
<path d="M113.464 206.557C113.464 206.557 120.531 225.801 107.617 231.038C107.617 231.038 97.558 229.997 97.3574 211.41" stroke="#661D40" stroke-width="1.2658" stroke-miterlimit="10"/>
<path d="M106.293 206.989C106.293 206.989 109.774 226.458 107.608 231.039" stroke="#661D40" stroke-width="1.2658" stroke-miterlimit="10"/>
<path d="M109.262 231.23C112.35 244.765 118.526 257.826 128.753 267.437C143.216 281.027 163.349 285.111 182.664 284.278C184.236 284.214 185.808 284.11 187.373 283.99" stroke="#661D40" stroke-width="1.2658" stroke-miterlimit="10"/>
<path d="M120.94 211.737C120.178 211.986 119.456 211.914 118.775 211.537C118.093 211.161 117.62 210.584 117.371 209.807C117.114 209.015 117.154 208.31 117.499 207.677C117.844 207.053 118.366 206.62 119.079 206.388C119.569 206.228 120.066 206.204 120.579 206.292C121.093 206.388 121.55 206.596 121.951 206.916C122.352 207.245 122.633 207.645 122.785 208.134C123.018 208.862 122.97 209.575 122.625 210.288C122.28 211.009 121.718 211.489 120.94 211.737Z" fill="#EC7D84"/>
<path d="M90.163 215.55C89.401 215.798 88.6791 215.726 87.9973 215.35C87.3155 214.973 86.8422 214.397 86.5936 213.62C86.3369 212.827 86.377 212.122 86.7219 211.49C87.0668 210.865 87.5882 210.433 88.3021 210.2C88.7914 210.04 89.2887 210.016 89.8021 210.104C90.3154 210.2 90.7727 210.409 91.1737 210.729C91.5748 211.057 91.8555 211.458 92.0079 211.946C92.2405 212.675 92.1924 213.388 91.8475 214.101C91.5026 214.821 90.9411 215.294 90.163 215.55Z" fill="#EC7D84"/>
<path d="M97.9677 214.092C97.2057 214.34 96.4838 214.268 95.802 213.892C95.1202 213.515 94.6469 212.939 94.3983 212.162C94.1416 211.369 94.1817 210.664 94.5266 210.032C94.8715 209.407 95.3929 208.975 96.1068 208.742C96.5961 208.582 97.0934 208.558 97.6068 208.646C98.1201 208.742 98.5773 208.951 98.9784 209.271C99.3795 209.599 99.6602 210 99.8126 210.488C100.045 211.217 99.9971 211.93 99.6522 212.642C99.2993 213.363 98.7458 213.844 97.9677 214.092Z" fill="#EC7D84"/>
<path d="M107.306 210.817C106.544 211.065 105.822 210.993 105.14 210.617C104.458 210.24 103.985 209.664 103.736 208.887C103.479 208.094 103.52 207.389 103.865 206.757C104.209 206.132 104.731 205.7 105.445 205.467C105.934 205.307 106.431 205.283 106.945 205.371C107.458 205.467 107.915 205.676 108.316 205.996C108.717 206.324 108.998 206.725 109.15 207.213C109.383 207.942 109.335 208.655 108.99 209.368C108.645 210.088 108.084 210.561 107.306 210.817Z" fill="#EC7D84"/>
<path d="M113.673 208.006C112.911 208.254 112.189 208.182 111.507 207.806C110.825 207.429 110.352 206.853 110.103 206.076C109.847 205.283 109.887 204.578 110.232 203.946C110.577 203.321 111.098 202.889 111.812 202.656C112.301 202.496 112.798 202.472 113.312 202.56C113.825 202.656 114.282 202.865 114.683 203.185C115.085 203.513 115.365 203.914 115.518 204.402C115.75 205.131 115.702 205.844 115.357 206.556C115.012 207.277 114.451 207.75 113.673 208.006Z" fill="#EC7D84"/>
<path d="M124.155 295.851C124.155 295.851 97.5568 273.243 114.835 266.765C131.952 260.35 125.84 296.412 125.84 296.412" fill="#85254F"/>
<path d="M124.155 295.851C124.155 295.851 115.323 275.902 114.834 266.765C131.951 260.35 125.839 296.412 125.839 296.412" fill="#AA306B"/>
<path d="M118.227 279.658C118.227 279.658 141.633 357.892 214.201 348.058" stroke="#661D40" stroke-width="1.6992" stroke-miterlimit="10"/>
<path d="M131.431 311.98C131.431 311.98 103.87 313.39 110.279 300.312C116.64 287.362 132.706 311.395 132.706 311.395" fill="#85254F"/>
<path d="M131.431 311.98C131.431 311.98 115.525 305.293 110.279 300.312C116.64 287.362 132.707 311.395 132.707 311.395" fill="#AA306B"/>
<path d="M137.199 308.144C137.199 308.144 152.439 285.312 138.153 283.918C124.004 282.541 136.052 308.921 136.052 308.921" fill="#85254F"/>
<path d="M137.199 308.144C137.199 308.144 139.677 291.022 138.153 283.918C124.004 282.541 136.052 308.921 136.052 308.921" fill="#AA306B"/>
<path d="M114.387 304.212C114.387 304.212 127.389 311.243 135.467 312.661C135.467 312.661 138.579 304.925 138.21 294.217" stroke="#661D40" stroke-width="1.6992" stroke-miterlimit="10"/>
<path d="M146.212 329.27C146.212 329.27 118.234 336.438 122.085 321.702C125.903 307.095 147.392 328.405 147.392 328.405" fill="#85254F"/>
<path d="M146.212 329.27C146.212 329.27 128.501 325.722 122.084 321.702C125.902 307.095 147.391 328.405 147.391 328.405" fill="#AA306B"/>
<path d="M151.322 324.137C151.322 324.137 162.191 297.549 147.256 299.095C132.456 300.624 150.312 325.178 150.312 325.178" fill="#85254F"/>
<path d="M151.322 324.137C151.322 324.137 150.296 306.062 147.256 299.095C132.456 300.624 150.312 325.178 150.312 325.178" fill="#AA306B"/>
<path d="M127.105 324.85C127.105 324.85 141.913 329.358 150.487 329.134C150.487 329.134 152.068 320.557 149.453 309.642" stroke="#661D40" stroke-width="1.6992" stroke-miterlimit="10"/>
<path d="M168.752 344.718C168.752 344.718 142.956 359.47 142.747 343.789C142.539 328.253 169.691 343.533 169.691 343.533" fill="#85254F"/>
<path d="M168.752 344.718C168.752 344.718 150.207 346.032 142.747 343.789C142.539 328.253 169.691 343.533 169.691 343.533" fill="#AA306B"/>
<path d="M172.417 338.232C172.417 338.232 175.922 308.889 161.524 314.495C147.254 320.052 171.703 339.537 171.703 339.537" fill="#85254F"/>
<path d="M172.417 338.232C172.417 338.232 166.449 320.573 161.524 314.495C147.254 320.052 171.703 339.537 171.703 339.537" fill="#AA306B"/>
<path d="M148.586 345.551C148.586 345.551 164.508 345.984 172.954 343.413C172.954 343.413 172.168 334.475 166.594 324.361" stroke="#661D40" stroke-width="1.6992" stroke-miterlimit="10"/>
<path d="M194.581 351.053C194.581 351.053 174.592 373.02 169.554 358.172C164.557 343.461 195.11 349.635 195.11 349.635" fill="#85254F"/>
<path d="M194.581 351.053C194.581 351.053 177.343 358.004 169.554 358.172C164.557 343.461 195.11 349.635 195.11 349.635" fill="#AA306B"/>
<path d="M196.065 343.758C196.065 343.758 190.337 314.759 178.37 324.529C166.514 334.204 195.784 345.223 195.784 345.223" fill="#85254F"/>
<path d="M196.065 343.758C196.065 343.758 184.939 328.798 178.37 324.529C166.514 334.204 195.784 345.223 195.784 345.223" fill="#AA306B"/>
<path d="M175.65 358.053C175.65 358.053 190.931 353.56 198.174 348.522C198.174 348.522 194.669 340.258 186.238 332.354" stroke="#661D40" stroke-width="1.6992" stroke-miterlimit="10"/>
<path d="M429.028 311.275C429.028 311.275 424.648 392.809 351.791 400.241" stroke="#661D40" stroke-width="1.6992" stroke-miterlimit="10"/>
<path d="M427.062 328.406C427.062 328.406 447.612 300.2 429.292 297.95C411.139 295.723 425.562 329.343 425.562 329.343" fill="#85254F"/>
<path d="M427.062 328.406C427.062 328.406 430.96 306.943 429.292 297.95C411.14 295.723 425.562 329.343 425.562 329.343" fill="#AA306B"/>
<path d="M423.782 345.784C423.782 345.784 450.91 340.698 441.597 329.495C432.381 318.395 422.402 345.511 422.402 345.511" fill="#85254F"/>
<path d="M423.782 345.784C423.782 345.784 437.675 335.557 441.597 329.495C432.381 318.395 422.402 345.511 422.402 345.511" fill="#AA306B"/>
<path d="M417.277 343.405C417.277 343.405 397.095 324.777 410.659 320.084C424.095 315.431 418.568 343.901 418.568 343.901" fill="#85254F"/>
<path d="M417.276 343.405C417.276 343.405 410.843 327.34 410.658 320.084C424.094 315.431 418.567 343.901 418.567 343.901" fill="#AA306B"/>
<path d="M438.533 334.243C438.533 334.243 427.544 344.117 420.028 347.385C420.028 347.385 415.191 340.594 413.033 330.095" stroke="#661D40" stroke-width="1.6992" stroke-miterlimit="10"/>
<path d="M413.475 366.053C413.475 366.053 442.359 366.477 435.148 353.047C428.009 339.745 412.119 365.492 412.119 365.492" fill="#85254F"/>
<path d="M413.475 366.053C413.475 366.053 429.862 358.453 435.148 353.047C428.009 339.745 412.119 365.492 412.119 365.492" fill="#AA306B"/>
<path d="M407.298 362.257C407.298 362.257 390.485 338.952 405.373 336.958C420.124 334.98 408.525 363.026 408.525 363.026" fill="#85254F"/>
<path d="M407.297 362.257C407.297 362.257 404.048 344.446 405.372 336.958C420.123 334.98 408.524 363.026 408.524 363.026" fill="#AA306B"/>
<path d="M431.008 357.284C431.008 357.284 417.676 365.132 409.286 366.918C409.286 366.918 405.741 358.95 405.717 347.73" stroke="#661D40" stroke-width="1.6992" stroke-miterlimit="10"/>
<path d="M390.1 380.9C390.1 380.9 379.801 353.191 395.121 355.273C410.297 357.339 391.111 381.997 391.111 381.997" fill="#85254F"/>
<path d="M390.1 380.9C390.1 380.9 391.752 362.337 395.121 355.273C410.297 357.34 391.11 381.997 391.11 381.997" fill="#AA306B"/>
<path d="M368.411 391.808C368.411 391.808 367.168 362.281 381.093 368.976C394.89 375.607 369.029 393.161 369.029 393.161" fill="#85254F"/>
<path d="M378.231 273.347C378.231 273.347 394.691 262.159 375.087 240.568C375.079 240.568 360.512 261.43 378.231 273.347Z" fill="#7DB7A6"/>
<path d="M383.934 283.998C383.934 283.998 379.731 267.06 400.121 262.711C400.121 262.711 401.75 280.795 383.934 283.998Z" fill="#7DB7A6"/>
<path d="M374.156 283.045C374.156 283.045 356.79 285.007 355.113 264.257C355.121 264.257 373.289 264.994 374.156 283.045Z" fill="#7DB7A6"/>
<path d="M355.723 352.838C355.723 352.838 362.918 332.961 386.38 342.291C386.38 342.291 375.816 361.592 355.723 352.838Z" fill="#7DB7A6"/>
<path d="M346.522 345.302C346.522 345.302 327.72 335.596 340.033 313.581C340.033 313.581 357.824 326.547 346.522 345.302Z" fill="#7DB7A6"/>
<path d="M332.205 374.694C332.205 374.694 346.419 359.029 364.579 376.544C364.579 376.544 347.469 390.398 332.205 374.694Z" fill="#7DB7A6"/>
<path d="M326.55 364.234C326.55 364.234 312.834 348.129 332.598 332.425C332.598 332.425 344.132 351.156 326.55 364.234Z" fill="#7DB7A6"/>
<path d="M371.67 332.545C371.67 332.545 375.793 314.871 396.744 320.46C396.744 320.46 389.686 337.983 371.67 332.545Z" fill="#7DB7A6"/>
<path d="M363.063 327.051C363.063 327.051 346.05 320.669 354.32 300.664C354.32 300.656 370.804 309.921 363.063 327.051Z" fill="#7DB7A6"/>
<path d="M380.309 309.737C380.309 309.737 380.79 291.598 402.439 292.872C402.439 292.872 399.054 311.451 380.309 309.737Z" fill="#7DB7A6"/>
<path d="M370.772 306.086C370.772 306.086 352.82 303.251 356.895 281.988C356.895 281.988 374.902 287.754 370.772 306.086Z" fill="#7DB7A6"/>
<path d="M377.388 258.435C377.388 258.435 398.949 371.85 264.625 390.326" stroke="#568075" stroke-width="1.7898" stroke-miterlimit="10"/>
<path d="M389.942 274.796C389.942 274.796 382.995 284.39 377.806 291.366C377.806 291.366 373.915 280.186 364.41 273.795" stroke="#568075" stroke-width="1.7898" stroke-miterlimit="10"/>
<path d="M367.979 347.609C367.979 347.609 354.512 352.59 344.581 356.13C344.581 356.13 348.207 342.259 342.953 329.438" stroke="#568075" stroke-width="1.7898" stroke-miterlimit="10"/>
<path d="M345.526 374.493C345.526 374.493 331.168 374.005 320.645 373.516C320.645 373.516 329.267 362.056 329.275 348.202" stroke="#568075" stroke-width="1.7898" stroke-miterlimit="10"/>
<path d="M381.591 326.851C381.591 326.851 370.61 332.457 362.509 336.477C362.509 336.477 364.193 324.288 358.418 313.885" stroke="#568075" stroke-width="1.7898" stroke-miterlimit="10"/>
<path d="M388.881 302.169C388.881 302.169 379.256 309.865 372.125 315.431C372.125 315.431 371.323 303.154 363.566 294.12" stroke="#568075" stroke-width="1.7898" stroke-miterlimit="10"/>
<path d="M41.3969 95.9052C41.3969 95.8978 41.3969 95.8978 41.4044 95.8904C41.7908 95.066 42.2813 94.2787 42.8165 93.5434C43.3515 92.8007 43.961 92.1174 44.6076 91.4787C44.667 91.4193 44.7265 91.3673 44.7859 91.3079C45.9379 90.0304 47.2162 88.8718 48.606 87.8617C49.7802 87.0076 51.0437 86.2798 52.3814 85.7004C53.132 85.3291 53.905 85.0023 54.7002 84.7498C54.7597 84.7275 54.8191 84.7201 54.8786 84.7201C55.109 84.7201 55.3245 84.8538 55.4137 85.084C55.4806 85.2697 55.4285 85.4702 55.3096 85.6187C55.3022 85.8416 55.161 86.0347 54.9454 86.1312C54.5813 86.2946 54.2171 86.4654 53.8604 86.6511C53.3922 86.8962 52.9463 87.1561 52.4929 87.4235C53.9719 87.0299 55.54 86.7848 57.2122 86.7105L80.2737 85.7153L104.331 84.6681L152.342 82.5811L199.78 80.5312C199.981 80.5238 200.174 80.5164 200.375 80.5164C204.641 80.5164 209.338 82.5588 212.638 85.8564C215.945 89.1689 217.736 93.4914 217.966 98.7052L220.255 151.333L222.544 203.962L222.775 209.198L223.466 225.188L224.157 241.186C224.306 244.647 223.102 248.398 220.917 251.532C222.165 250.306 223.302 248.955 224.246 247.469C224.893 246.422 225.458 245.323 225.881 244.172C225.963 243.964 226.179 243.852 226.394 243.852C226.476 243.852 226.55 243.867 226.625 243.897C226.914 244.031 227.004 244.35 226.9 244.64C226.268 246.348 225.346 247.93 224.276 249.393C223.117 250.975 221.734 252.393 220.233 253.663C218.769 254.896 217.164 255.936 215.454 256.79C215.187 256.946 214.912 257.095 214.629 257.236C214.094 257.503 213.552 257.741 212.987 257.941C212.697 258.045 212.4 258.135 212.102 258.216C210.222 258.87 208.178 259.263 205.971 259.36L147.994 261.878L89.363 264.425L84.2498 264.648L63.3956 265.547C63.195 265.554 62.9943 265.562 62.7936 265.562C58.5277 265.562 53.8307 263.519 50.5309 260.222C47.2236 256.909 45.4325 252.594 45.2021 247.373L42.6975 189.679L40.1855 131.986L39.5984 118.439L39.0113 104.892C38.8923 101.921 39.7619 98.7349 41.3969 95.9052Z" fill="#ECF1FC"/>
<path d="M204.618 77.0331C208.884 77.0331 213.573 79.0755 216.866 82.3657C220.173 85.6708 221.964 89.9933 222.187 95.2071L224.476 147.835L226.765 200.463L226.996 205.699L227.687 221.69L228.378 237.68C228.571 242.129 226.535 247.046 223.057 250.522C219.749 253.827 215.431 255.609 210.214 255.84L152.237 258.357L93.6062 260.905L88.493 261.128L67.6388 262.026C67.4381 262.034 67.2449 262.041 67.0368 262.041C62.7708 262.041 58.0813 259.999 54.7889 256.709C51.4891 253.403 49.698 249.088 49.4676 243.875L46.963 186.181L44.451 128.488L43.8638 114.941L43.2767 101.394C43.0835 96.945 45.1199 92.0283 48.598 88.5525C51.9053 85.2548 56.2233 83.4649 61.4405 83.2347L84.5094 82.232L108.567 81.1922L156.577 79.1052L204.023 77.0479C204.217 77.0405 204.417 77.0331 204.618 77.0331Z" fill="white"/>
<path d="M198.286 87.7875C202.046 87.7875 206.193 89.5923 209.114 92.5037C212.035 95.4299 213.618 99.2474 213.819 103.845L215.833 150.249L217.847 196.653L218.047 201.266L218.657 215.37L219.266 229.466C219.437 233.388 217.639 237.74 214.562 240.815C211.634 243.733 207.821 245.315 203.213 245.516L152.088 247.729L100.391 249.972L95.8802 250.165L77.486 250.96C77.3076 250.967 77.1367 250.967 76.9583 250.967C73.1977 250.967 69.0507 249.163 66.1299 246.251C63.2091 243.325 61.6261 239.515 61.4255 234.91L59.2182 184.035L57.0108 133.159L56.4906 121.217L55.9704 109.274C55.7994 105.352 57.598 101 60.6748 97.9254C63.603 95.0066 67.4231 93.432 72.0235 93.2241L92.3574 92.3477L113.568 91.4267L155.901 89.5848L197.736 87.7652C197.936 87.7949 198.107 87.7875 198.286 87.7875Z" fill="#CAD9F0"/>
<g clip-path="url(#clip0_456_45867)">
<path d="M104.133 164.62C104.5 164.444 104.949 164.653 105.19 164.984C105.431 165.315 105.504 165.713 105.599 166.107C106.336 169.298 108.143 172.125 110.553 174.348C115.269 173.419 120.237 173.811 124.757 175.469C125.522 175.754 126.295 176.085 126.983 176.541C126.69 174.659 126.12 172.852 124.78 171.596C124.417 171.263 124.339 170.637 124.627 170.222C124.9 169.797 125.622 169.642 126.08 169.837C126.05 169.468 126.261 169.103 126.609 168.955C126.948 168.821 127.46 168.91 127.702 169.18C127.676 168.834 127.915 168.488 128.244 168.368C128.587 168.258 128.972 168.381 129.158 168.674C129.099 168.286 129.363 167.875 129.725 167.737C130.097 167.585 130.534 167.662 130.842 167.897C131.16 168.117 131.274 168.544 131.356 168.928C131.747 168.482 132.503 168.454 132.987 168.789C133.471 169.124 133.74 169.74 133.776 170.338C133.812 170.936 133.643 171.535 133.442 172.092C133.24 172.648 132.992 173.213 132.856 173.794C132.541 175.193 132.866 176.646 133.191 178.037C133.238 178.234 133.282 178.408 133.33 178.605C133.878 177.163 134.427 175.721 134.873 174.25C135.681 171.576 136.674 168.519 135.501 165.987C135.285 165.531 135.455 164.932 135.875 164.65C136.295 164.368 137.017 164.479 137.36 164.84C137.465 164.482 137.819 164.237 138.179 164.22C138.552 164.212 138.991 164.495 139.101 164.838C139.21 164.504 139.555 164.272 139.909 164.293C140.263 164.313 140.59 164.58 140.64 164.922C140.74 164.541 141.137 164.263 141.524 164.265C141.921 164.254 142.304 164.499 142.498 164.838C142.717 165.173 142.648 165.597 142.599 165.993C143.131 165.727 143.831 165.987 144.163 166.483C144.495 166.978 144.506 167.641 144.309 168.221C144.122 168.787 143.74 169.28 143.335 169.716C142.931 170.152 142.489 170.583 142.154 171.067C141.326 172.233 141.085 173.703 140.859 175.122C140.501 177.412 140.142 179.702 139.775 182.005C139.664 182.726 139.544 183.401 139.925 184.033C142.522 185.218 145.346 185.987 148.197 186.244C149.143 186.326 149.777 185.292 149.273 184.513C149.087 184.22 148.83 184.001 148.5 183.916C147.905 183.77 147.68 183.061 147.653 182.449C147.641 181.847 147.727 181.19 147.428 180.676C147.252 180.37 146.971 180.155 146.733 179.908C146.504 179.647 146.309 179.308 146.404 178.964C146.48 178.648 146.801 178.42 146.812 178.08C146.817 177.777 146.579 177.53 146.458 177.262C146.26 176.838 146.372 176.322 146.617 175.939C146.871 175.542 147.177 175.16 147.523 174.868C147.143 174.441 146.821 173.931 146.705 173.36C146.589 172.789 146.694 172.165 147.061 171.724C147.619 171.066 148.568 170.967 149.357 170.654C150.495 170.194 151.114 169.005 151.716 167.929C153.399 164.879 155.092 161.815 157.388 159.21C159.698 156.614 162.685 154.488 166.131 153.827C170.2 153.064 174.507 154.41 178.045 156.718C183.106 160.019 186.86 165.383 187.88 171.267C188.885 177.142 187.028 183.428 182.769 187.477C178.293 191.723 170.044 191.37 165.42 195.474C158.161 201.906 154.327 212.225 145.237 215.568C136.138 218.924 125.901 219.077 116.707 215.982C112.277 214.489 107.941 212.181 105.563 207.873C104.695 206.29 104.19 204.507 104.264 202.716C104.419 198.505 107.116 195.646 110.026 192.893C108.989 193.178 109.965 192.892 109.928 192.887C108.064 192.742 106.143 192.885 104.396 193.516C103.489 193.85 102.58 194.305 101.636 194.162C100.64 194.004 99.8846 193.174 99.2975 192.338C96.8673 188.874 96.0388 184.309 97.1988 180.241C97.2681 180.023 97.3373 179.805 97.4895 179.645C97.779 179.374 98.2727 179.43 98.595 179.674C98.9173 179.917 99.1162 180.28 99.3246 180.629C100.963 183.463 103.533 185.633 106.476 187.057C109.713 185.309 113.344 184.263 117.007 183.997C117.068 183.732 117.072 183.756 117.123 183.505C115.493 182.579 113.862 181.654 112.105 180.97C110.363 180.294 108.504 179.846 106.622 179.934C105.664 179.987 104.644 180.16 103.793 179.734C102.877 179.283 102.405 178.281 102.095 177.309C100.795 173.277 101.339 168.681 103.633 165.133C103.8 164.922 103.935 164.728 104.133 164.62Z" fill="#97ACCA"/>
</g>
<path d="M204.432 226.956C204.432 227.275 204.179 227.498 203.874 227.513C195.528 227.884 187.175 228.248 178.828 228.619C173.76 228.842 168.699 229.065 163.637 229.288C163.333 229.295 163.08 229.02 163.08 228.731C163.08 228.411 163.333 228.181 163.637 228.174L163.779 228.166C163.793 228.166 163.808 228.166 163.823 228.166C169.576 227.914 175.335 227.661 181.088 227.401C188.683 227.067 196.279 226.733 203.874 226.399H203.897C204.194 226.399 204.432 226.673 204.432 226.956Z" fill="#FEFFFE"/>
<path d="M204.365 232.229C204.365 232.541 204.113 232.771 203.808 232.786C195.826 233.135 187.844 233.484 179.862 233.841C174.578 234.078 169.286 234.309 163.995 234.539C163.69 234.554 163.437 234.279 163.437 233.982C163.437 233.67 163.69 233.44 163.995 233.425C170.951 233.12 177.907 232.816 184.864 232.504C191.181 232.222 197.491 231.947 203.808 231.672C203.815 231.672 203.823 231.672 203.83 231.672C204.127 231.672 204.365 231.947 204.365 232.229Z" fill="#FEFFFE"/>
<path d="M204.871 238.081C204.871 238.401 204.618 238.624 204.314 238.638C196.191 238.995 188.067 239.351 179.937 239.708C172.401 240.042 164.865 240.376 157.329 240.703C156.585 240.733 155.842 240.77 155.099 240.8C154.794 240.815 154.542 240.532 154.542 240.243C154.542 239.931 154.794 239.701 155.099 239.686H155.106C155.121 239.686 155.136 239.686 155.151 239.686C162.107 239.381 169.071 239.077 176.028 238.765C184.039 238.408 192.051 238.059 200.063 237.703C201.475 237.636 202.894 237.576 204.306 237.517C204.314 237.517 204.321 237.517 204.329 237.517C204.626 237.524 204.871 237.792 204.871 238.081Z" fill="#FEFFFE"/>
<path d="M93.1621 231.947C93.1621 232.266 92.9094 232.489 92.6047 232.504C86.7855 232.764 80.9662 233.016 75.1544 233.276C74.8497 233.291 74.597 233.016 74.597 232.719C74.597 232.4 74.8497 232.177 75.1544 232.162C80.9736 231.902 86.7929 231.65 92.6047 231.39H92.6196C92.9169 231.39 93.1621 231.657 93.1621 231.947Z" fill="#FEFFFE"/>
<path d="M93.082 237.227C93.082 237.539 92.8293 237.769 92.5246 237.784C86.8094 238.037 81.0868 238.289 75.3716 238.542C75.0669 238.557 74.8142 238.274 74.8142 237.985C74.8142 237.673 75.0669 237.443 75.3716 237.428C80.9679 237.183 86.5642 236.938 92.1605 236.685H92.1902C92.3017 236.678 92.4132 236.678 92.5246 236.67C92.5321 236.67 92.5395 236.67 92.5469 236.67C92.8442 236.67 93.082 236.938 93.082 237.227Z" fill="#FEFFFE"/>
<path d="M120.654 107.113C121.1 107.157 121.502 107.246 121.873 107.38C122.341 107.558 122.765 107.774 123.166 108.056C123.449 108.249 123.739 108.472 124.028 108.732C124.311 108.992 124.534 109.274 124.742 109.541C125.076 109.972 125.351 110.477 125.589 111.131C125.775 111.628 125.886 112.193 125.946 112.898C126.005 113.567 125.938 114.22 125.864 114.777C125.708 115.921 125.351 117.087 124.697 118.543C124.199 119.657 123.553 120.793 122.601 122.227C121.895 123.296 121.063 124.418 119.978 125.762C119.19 126.728 118.313 127.73 117.221 128.896C116.359 129.817 115.682 130.5 115.021 131.109C114.895 131.228 114.761 131.34 114.634 131.459C114.612 131.459 114.59 131.466 114.575 131.466C114.501 131.466 114.426 131.444 114.367 131.399C112.836 130.322 111.32 129.082 109.737 127.619C108.072 126.074 106.66 124.559 105.434 122.977C104.051 121.209 103.011 119.531 102.238 117.845C101.42 116.07 101.093 114.369 101.272 112.809C101.324 112.393 101.383 112.052 101.465 111.732C101.562 111.361 101.71 111.004 101.851 110.67C102.111 110.083 102.52 109.519 103.003 109.073C103.501 108.62 104.096 108.286 104.78 108.078C105.166 107.967 105.575 107.922 105.894 107.9C105.961 107.9 106.036 107.892 106.102 107.892C106.415 107.892 106.727 107.937 107.031 107.974C107.797 108.086 108.555 108.353 109.417 108.821C110.294 109.289 111.097 109.89 111.81 110.603C112.405 111.205 112.955 111.925 113.43 112.75C113.757 112.029 114.151 111.346 114.612 110.7C115.14 109.942 115.682 109.318 116.269 108.799C116.559 108.539 116.886 108.286 117.265 108.034C117.585 107.818 117.942 107.64 118.425 107.439C118.997 107.202 119.614 107.083 120.216 107.083C120.372 107.09 120.513 107.098 120.654 107.113Z" fill="#FA7979"/>
<path d="M128.332 118.855C133.431 118.632 138.529 118.409 143.627 118.186C143.65 118.179 143.665 118.164 143.687 118.157C143.739 118.142 143.791 118.134 143.843 118.134C144.081 118.134 144.333 118.276 144.386 118.521C144.869 120.756 145.359 122.984 145.879 125.212C146.414 127.53 146.979 129.839 147.559 132.149C148.518 135.937 149.551 139.71 150.628 143.468C150.814 142.228 151 140.995 151.171 139.755C152.464 130.107 153.341 120.407 154.56 110.744C154.946 107.692 155.37 104.639 155.846 101.594C155.868 101.461 155.987 101.327 156.098 101.26C156.188 101.208 156.284 101.186 156.381 101.186C156.396 101.186 156.41 101.193 156.425 101.193C156.463 101.186 156.492 101.164 156.529 101.164C156.723 101.164 156.916 101.26 157.012 101.438C159.695 106.622 162.133 111.925 164.482 117.265C169.194 117.057 173.905 116.85 178.617 116.642C180.289 112.579 182.14 108.598 183.939 104.587C183.991 104.461 184.147 104.365 184.273 104.335C184.318 104.32 184.37 104.313 184.422 104.313C184.518 104.313 184.622 104.342 184.704 104.387L184.712 104.394C184.719 104.394 184.726 104.387 184.734 104.387C184.927 104.387 185.113 104.491 185.217 104.662C187.551 108.323 189.379 112.267 191.46 116.07C195.577 115.884 199.694 115.706 203.812 115.52C203.819 115.52 203.827 115.52 203.834 115.52C204.131 115.52 204.369 115.787 204.369 116.077C204.369 116.389 204.116 116.619 203.812 116.634C199.657 116.82 195.503 116.998 191.341 117.184H191.333C191.185 117.191 191.051 117.124 190.954 117.028C190.798 116.998 190.657 116.916 190.575 116.768C188.569 113.114 186.8 109.333 184.607 105.783C183.114 109.111 181.59 112.416 180.171 115.773C180.178 115.765 180.178 115.75 180.185 115.743C180.178 115.758 180.171 115.773 180.163 115.787C180.163 115.78 180.163 115.78 180.171 115.78C180.171 115.787 180.163 115.795 180.163 115.802C179.948 116.315 179.732 116.827 179.524 117.347C179.465 117.488 179.405 117.6 179.271 117.681C179.145 117.756 178.989 117.778 178.84 117.733C178.833 117.733 178.833 117.726 178.825 117.726C178.803 117.726 178.788 117.741 178.773 117.741C173.935 117.949 169.097 118.164 164.266 118.379C164.147 118.387 164.043 118.342 163.954 118.276C163.828 118.238 163.679 118.142 163.627 118.023C161.442 113.062 159.183 108.138 156.73 103.31C156.485 104.914 156.247 106.518 156.031 108.123C156.031 108.115 156.031 108.108 156.031 108.1C154.746 117.756 153.869 127.455 152.642 137.111C152.263 140.119 151.847 143.126 151.379 146.127C151.357 146.261 151.238 146.394 151.126 146.461C150.993 146.535 150.836 146.558 150.695 146.513C150.614 146.491 150.539 146.446 150.472 146.387C150.361 146.32 150.272 146.224 150.234 146.09C148.904 141.574 147.67 137.044 146.518 132.483C145.411 128.109 144.4 123.712 143.442 119.308C138.41 119.531 133.379 119.754 128.347 119.969C128.043 119.984 127.79 119.709 127.79 119.412C127.775 119.1 128.028 118.87 128.332 118.855Z" fill="#FEFEFE"/>
<path d="M66.5438 121.581C71.0253 121.38 75.5068 121.187 79.9882 120.986C81.2814 116.916 82.307 112.772 83.4813 108.672C83.5333 108.479 83.6671 108.331 83.838 108.264C83.8529 108.249 83.8678 108.227 83.8826 108.219C83.9718 108.16 84.0833 108.13 84.1948 108.13C84.3806 108.13 84.5589 108.212 84.663 108.375C87.1527 112.326 89.0478 116.642 91.7382 120.467C94.5252 120.348 97.3122 120.221 100.107 120.095C100.114 120.095 100.122 120.095 100.122 120.095C100.419 120.095 100.664 120.363 100.664 120.652C100.664 120.964 100.411 121.194 100.107 121.209C97.223 121.336 94.3394 121.469 91.4558 121.588H91.4484H91.441C91.2329 121.595 91.0471 121.462 90.9579 121.284C90.9504 121.276 90.9504 121.276 90.943 121.269C88.3864 117.681 86.5581 113.663 84.2914 109.898C83.1914 113.812 82.1956 117.756 80.947 121.633C80.9024 121.774 80.8429 121.893 80.7091 121.982C80.6125 122.048 80.4862 122.071 80.3673 122.063C80.3524 122.063 80.3301 122.078 80.3153 122.078C75.7223 122.279 71.1367 122.479 66.5438 122.687C66.2391 122.702 65.9864 122.427 65.9864 122.13C65.9864 121.818 66.2391 121.588 66.5438 121.581Z" fill="#FEFEFE"/>
<path d="M204.911 113.077C206.487 112.869 207.929 113.983 208.129 115.55C208.337 117.117 207.223 118.565 205.654 118.766C204.086 118.974 202.637 117.86 202.436 116.293C202.236 114.725 203.343 113.285 204.911 113.077Z" fill="#5569B7"/>
<path d="M64.7355 119.464C66.3111 119.256 67.7529 120.37 67.9535 121.937C68.1616 123.512 67.0468 124.952 65.4787 125.153C63.9105 125.361 62.4613 124.247 62.2606 122.68C62.0525 121.113 63.1599 119.672 64.7355 119.464Z" fill="#5569B7"/>
<path d="M257.023 456.899C257.023 456.899 254.347 459.905 250.603 464.144C252.277 469.826 253.818 475.177 255.184 479.989H315.898C317.407 452.087 320.072 407.25 321.789 402.725C324.3 396.118 339.902 382.046 332.668 352.173C326.998 328.753 308.576 315.385 301.188 303.273C296.057 309.351 290.122 314.758 284.341 320.197C276.138 327.927 267.747 335.48 259.038 342.627C254.743 346.15 250.361 349.585 245.89 352.889C241.332 356.258 236.707 359.572 231.873 362.523C225.278 366.553 218.539 370.33 211.701 373.931C212.89 375.098 214.157 376.364 215.456 377.675C217.383 374.382 218.517 372.466 218.517 372.466L257.023 456.899Z" fill="#484848"/>
<path d="M214.189 376.408C217.173 374.768 220.102 373.039 222.987 371.244C230.672 366.465 238.061 361.235 245.46 356.049C249.204 353.428 252.992 350.885 256.692 348.209C260.457 345.489 264.157 342.704 267.802 339.83C275.08 334.093 282.116 328.026 288.822 321.628C293.887 316.806 298.754 311.774 303.389 306.532C300.053 302.018 297.906 297.779 298.082 293.385C298.71 277.981 316.635 249.671 321.04 227.969C325.444 206.266 309.093 155.637 309.093 155.637L294.437 120.611C293.083 121.096 291.718 121.514 290.33 121.911C287.368 122.747 284.395 123.54 281.433 124.399C278.141 125.346 274.849 126.304 271.556 127.24C266.601 128.649 261.624 129.993 256.603 131.149C256.714 131.248 256.813 131.358 256.89 131.479C259.72 135.52 269.002 154.757 263.342 165.922C257.694 177.087 245.317 189.463 240.065 192.425C234.824 195.387 213.022 207.224 212.086 223.102C211.139 238.98 219.617 246.776 219.617 246.776C219.617 246.776 180.132 279.236 179.868 309.23C179.603 339.224 201.163 363.9 201.163 363.9C201.163 363.9 206.768 368.998 214.189 376.408Z" fill="#FFA5A3"/>
<path d="M260.302 137.899C261.557 138.493 262.746 139.22 263.859 139.87C266.391 141.367 268.802 142.953 270.972 144.968C273.086 146.928 274.969 149.174 276.477 151.629C277.997 154.085 279.219 156.728 280.232 159.436C281.047 161.616 281.729 163.874 282.082 166.175C282.093 166.197 282.093 166.23 282.093 166.252C282.137 166.538 282.17 166.825 282.203 167.111C283.326 167.012 284.416 166.693 285.506 166.351C286.706 165.977 287.907 165.602 289.107 165.217C293.676 163.742 298.235 162.255 302.749 160.614C305.128 159.745 307.484 158.886 309.83 157.972C309.367 156.474 309.103 155.648 309.103 155.648L294.447 120.622C293.093 121.107 291.727 121.525 290.34 121.922C287.378 122.759 284.405 123.551 281.443 124.41C278.151 125.357 274.859 126.315 271.566 127.251C266.611 128.66 261.634 130.004 256.613 131.16C256.723 131.259 256.823 131.369 256.9 131.49C257.681 132.591 258.97 134.904 260.302 137.899Z" fill="#F48D90"/>
<path d="M184.063 311.399C183.49 312.754 183.369 314.306 183.721 315.738C183.776 315.969 183.853 316.211 184.041 316.365C184.349 316.641 184.866 316.53 185.153 316.233C185.439 315.936 185.549 315.517 185.615 315.11C185.67 314.736 185.692 314.35 185.681 313.965C185.67 313.602 185.615 313.216 185.406 312.908C185.285 312.732 185.087 312.589 184.877 312.611C184.591 312.644 184.448 312.974 184.382 313.249C184.261 313.778 184.228 314.328 184.294 314.868" stroke="#222221" stroke-width="0.25" stroke-miterlimit="10" stroke-linecap="round" stroke-linejoin="round"/>
<path d="M298.084 293.374C298.48 283.673 305.725 268.864 312.145 253.812C310.548 253.569 308.94 253.338 307.344 253.085C298.469 251.686 289.616 250.134 280.741 248.724C272.098 247.348 263.421 246.126 254.7 245.311C255.394 246.787 256.066 248.328 257.2 249.495C257.442 249.737 257.299 250.057 257.079 250.189C262.166 259.978 263.366 271.187 261.901 282.066C260.283 294.057 255.823 305.552 250.263 316.244C247.51 321.54 244.46 326.671 241.179 331.648C237.996 336.471 234.638 341.151 230.905 345.566C223.594 354.232 215.027 361.885 205.305 367.765C207.595 369.934 210.678 372.907 214.18 376.397C217.164 374.757 220.092 373.028 222.977 371.233C230.663 366.454 238.051 361.224 245.451 356.038C249.195 353.417 252.982 350.874 256.682 348.198C260.448 345.478 264.148 342.692 267.792 339.819C275.071 334.082 282.107 328.015 288.812 321.617C293.877 316.795 298.744 311.763 303.38 306.521C300.066 302.018 297.907 297.768 298.084 293.374Z" fill="#F48D90"/>
<path d="M310.69 160.846C308.95 160.559 307.21 160.328 305.449 160.185C301.859 159.899 298.093 159.899 294.581 160.768C288.316 162.321 283.647 166.979 278.406 170.436C272.801 174.136 266.866 177.384 260.568 179.751C257.562 180.875 254.479 181.789 251.352 182.471C246.969 187.228 242.653 190.961 240.076 192.425C234.835 195.387 213.033 207.224 212.097 223.102C211.15 238.98 219.629 246.776 219.629 246.776C219.629 246.776 216.491 248.868 212.978 252.777C217.57 255.761 223.527 257.743 229.021 258.491C236.035 259.449 243.17 258.954 250.206 258.469C257.43 257.974 264.708 257.401 271.931 258.128C280.839 259.02 289.505 261.233 298.049 263.832C300.185 264.481 302.289 265.142 304.502 265.505C305.317 265.637 306.131 265.737 306.946 265.814C312.353 253.316 318.673 239.684 321.051 227.969C324.586 210.505 314.687 174.323 310.69 160.846Z" fill="#DDEAD8"/>
<path d="M310.69 160.846C308.951 160.559 307.211 160.328 305.449 160.185C302.994 159.987 300.472 159.932 297.995 160.185C296.53 169.72 293.843 179.058 290.122 187.955C286.136 197.457 280.994 206.475 274.684 214.634C268.474 222.661 261.108 229.852 252.662 235.522C248.06 238.616 243.16 241.292 237.963 243.241C232.644 245.234 227.051 246.423 221.402 246.963C220.686 247.029 219.739 247.172 219.024 247.216C218.22 247.998 215.687 249.771 212.979 252.777C217.57 255.761 223.527 257.743 229.022 258.491C236.036 259.449 243.171 258.954 250.207 258.469C257.43 257.974 264.708 257.401 271.932 258.128C280.839 259.02 289.505 261.233 298.05 263.832C300.186 264.481 302.289 265.142 304.502 265.505C305.317 265.637 306.132 265.737 306.947 265.814C312.353 253.316 318.673 239.684 321.052 227.969C324.586 210.505 314.687 174.323 310.69 160.846Z" fill="white"/>
<path d="M260.872 133.692C261.401 133.439 262.028 133.428 262.623 133.428C263.735 133.428 264.847 133.34 265.948 133.208C268.107 132.944 270.309 132.382 272.368 131.688C274.449 130.984 276.431 130.059 278.49 129.299C281.782 128.088 285.152 127.042 288.268 125.434C285.944 118.519 284.755 111.483 287.211 107.123C293.41 96.0897 238.575 67.5381 238.575 67.5381C238.575 67.5381 242.803 82.9316 238.388 87.7434C232.926 93.7223 226.804 94.4271 227.311 97.1798C227.817 99.9326 232.717 102.278 232.717 102.278C232.717 102.278 233.4 106.011 231.847 108.026C230.284 110.041 229.81 110.228 235.481 114.566C235.481 114.566 231.539 115.799 231.638 117.407C231.726 119.015 234.259 118.96 234.105 120.909C233.961 122.869 232.431 127.812 233.73 129.398C235.04 130.984 254.012 132.558 255.906 133.428C256.093 133.516 260.19 133.208 260.575 133.637C260.696 133.648 260.784 133.67 260.872 133.692Z" fill="#FFA5A3"/>
<path d="M247.449 103.632C246.381 106.275 245.555 109.116 245.599 111.99C245.643 114.643 246.678 117.132 248.98 118.585C252.041 120.523 256.06 120.567 259.484 119.796C263.327 118.938 266.906 117.099 270.297 115.15C273.71 113.179 277.113 111.164 280.174 108.675C282.574 106.726 284.799 104.579 286.957 102.377C284.292 96.7945 274.779 89.4721 264.891 82.9756C259.925 86.356 255.465 90.5622 251.986 95.4071C250.169 97.9506 248.627 100.725 247.449 103.632Z" fill="#F48D90"/>
<path d="M239.709 85.365C240.116 85.7614 240.524 86.1468 240.942 86.5322C244.069 89.3841 247.483 91.7955 251.348 93.5683C255.224 95.341 259.463 96.6624 263.713 97.0698C267.886 97.4662 272.137 96.9707 276.211 96.0347C277.708 95.6934 279.206 95.275 280.67 94.8015C267.093 82.3811 238.586 67.5382 238.586 67.5382C238.586 67.5382 241.768 79.1548 239.709 85.365Z" fill="#F48D90"/>
<path d="M235.415 117.517C235.481 117.473 235.536 117.418 235.602 117.374C236.901 116.438 240.821 114.588 240.821 114.588C237.452 114.952 234.611 111.164 234.611 111.164C233.433 109.545 232.199 108.224 231.142 108.951C228.984 110.459 235.481 114.555 235.481 114.555C231.374 115.513 230.603 117.33 232.265 118.508C233.014 119.037 234.225 118.42 235.338 117.572C235.338 117.572 235.349 117.572 235.349 117.561C235.371 117.55 235.393 117.528 235.415 117.517Z" fill="#85254F"/>
<path d="M236.592 98.4902C236.911 99.1618 236.999 99.9546 236.779 100.67C236.548 101.375 235.986 101.992 235.281 102.212" stroke="#222221" stroke-width="0.25" stroke-miterlimit="10" stroke-linecap="round" stroke-linejoin="round"/>
<path d="M236.529 130.378L255.92 133.428C255.92 133.428 266.589 134.728 273.747 130.918" stroke="#222221" stroke-width="0.25" stroke-miterlimit="10" stroke-linecap="round" stroke-linejoin="round"/>
<path d="M315.436 123.871L315.481 123.882C315.448 123.838 315.425 123.826 315.436 123.871Z" fill="#85254F"/>
<path d="M321.086 141.037L321.02 141.125C321.075 141.258 321.108 141.357 321.119 141.456C321.13 141.235 321.163 140.982 321.086 141.037Z" fill="#85254F"/>
<path d="M317.816 131.942C317.783 131.887 317.75 131.832 317.706 131.766L317.695 131.832C317.739 131.876 317.772 131.909 317.816 131.942Z" fill="#85254F"/>
<path d="M317.286 131.733L317.275 131.457C317.275 131.523 317.275 131.612 317.286 131.733Z" fill="#85254F"/>
<path d="M314.302 117.484L314.191 117.341C314.224 117.583 314.246 117.473 314.302 117.484Z" fill="#85254F"/>
<path d="M316.308 123.079C316.275 123.001 316.253 122.968 316.23 122.968C316.264 123.056 316.286 123.101 316.308 123.079Z" fill="#85254F"/>
<path d="M313.533 108.291C313.533 108.28 313.533 108.269 313.533 108.257C313.499 108.136 313.511 108.191 313.533 108.291Z" fill="#85254F"/>
<path d="M319.18 138.537L319.19 138.548V138.526L319.18 138.537Z" fill="#85254F"/>
<path d="M318.98 138.108C319.146 138.262 319.168 138.373 319.19 138.527L319.4 138.307L318.98 138.108Z" fill="#85254F"/>
<path d="M313.541 111.208C313.541 111.241 313.541 111.263 313.552 111.285C313.541 111.263 313.541 111.241 313.541 111.208Z" fill="#85254F"/>
<path d="M317.34 131.733C317.351 131.7 317.373 131.688 317.384 131.677C317.351 131.655 317.34 131.655 317.34 131.733Z" fill="#85254F"/>
<path d="M314.312 117.506V117.495C314.302 117.484 314.302 117.484 314.291 117.484L314.312 117.506Z" fill="#85254F"/>
<path d="M320.029 141.488C320.117 141.885 320.183 141.543 320.249 141.907C320.327 141.984 320.194 141.609 320.272 141.686C320.139 141.477 320.128 141.345 320.029 141.488Z" fill="#85254F"/>
<path d="M320.27 141.686C320.292 141.72 320.314 141.753 320.336 141.797C320.303 141.731 320.281 141.709 320.27 141.686Z" fill="#85254F"/>
<path d="M315.637 126.095L315.67 126.106C315.692 126.062 315.692 125.996 315.67 125.875L315.637 126.095Z" fill="#85254F"/>
<path d="M315.085 122.638L315.185 122.505L315.074 122.572L315.085 122.638Z" fill="#85254F"/>
<path d="M314.414 119.653C314.425 119.775 314.469 119.918 314.491 120.04C314.425 119.775 314.558 119.598 314.414 119.653Z" fill="#85254F"/>
<path d="M338.525 200.221L338.558 200.265C338.547 200.199 338.536 200.166 338.525 200.221Z" fill="#85254F"/>
<path d="M339.574 210.935L339.585 211.023C339.64 211.067 339.706 211.1 339.75 211.144C339.695 211.067 339.64 211.001 339.574 210.935Z" fill="#85254F"/>
<path d="M339.023 210.593C339.046 210.682 339.079 210.792 339.134 210.947L339.023 210.593Z" fill="#85254F"/>
<path d="M341.876 192.206V191.974C341.743 192.283 341.842 192.161 341.876 192.206Z" fill="#85254F"/>
<path d="M339.738 199.792C339.76 199.681 339.76 199.626 339.738 199.626C339.716 199.737 339.705 199.803 339.738 199.792Z" fill="#85254F"/>
<path d="M344.978 180.578C344.978 180.567 344.978 180.556 344.989 180.545C344.956 180.368 344.956 180.445 344.978 180.578Z" fill="#85254F"/>
<path d="M302.366 193.526C302.476 193.691 302.575 193.846 302.674 194.011C309.479 196.444 316.339 198.712 323.254 200.794C327.163 201.972 331.094 203.095 335.047 204.174C335.047 204.108 335.047 204.042 335.047 203.976C338.317 191.203 344.065 178.254 339.473 166.274C339.286 165.79 339.066 165.327 338.856 164.854V164.843C339.01 165.085 339.044 165.14 339.11 165.261C339.33 165.514 338.658 164.589 338.867 164.81C339.032 165.162 340.012 166.494 340.068 166.77C340.299 167.144 340.034 166.637 340.266 167.012L340.31 167.122L340.398 167.199C340.552 167.452 340.596 167.595 340.585 167.617C340.541 167.562 340.475 167.452 340.431 167.386C340.662 167.794 340.948 168.278 341.025 168.421L340.827 168.036C341.455 169.071 342.116 170.392 342.633 171.438L342.622 171.35C343.029 172.143 342.908 172.011 343.272 172.914L343.25 172.881C343.349 173.057 343.448 173.288 343.547 173.541C343.426 173.321 343.646 173.993 343.503 173.706C343.855 174.598 343.69 174.147 343.998 174.719V174.874C344.098 175.072 344.153 175.072 344.285 175.545C344.142 175.171 344.285 175.865 344.12 175.446C344.241 176.47 344.615 176.889 344.505 177.395C344.747 177.825 344.428 176.503 344.505 176.757C344.505 176.525 344.714 177.109 344.736 177.439C344.78 177.77 344.659 178.023 344.758 178.827C344.747 178.75 344.747 178.738 344.736 178.661C344.725 178.97 344.846 179.256 344.813 179.63C344.934 179.829 344.846 180.115 344.989 180.17L344.89 179.421C344.967 179.84 345.166 180.236 345.089 180.941C345.067 180.886 345.022 180.676 345 180.533C344.967 180.742 345.033 180.93 344.989 181.139C344.846 181.084 344.978 180.225 344.813 179.774C344.791 179.994 344.956 180.621 344.802 180.401C344.978 180.72 344.78 181.205 344.923 181.756L344.846 181.722C344.868 181.811 344.89 181.987 344.868 182.152L344.791 181.855C344.846 182.306 344.648 182.702 344.659 183.132C344.725 182.24 344.769 182.945 344.857 182.57C344.879 183.649 344.637 183.231 344.483 184.299C344.527 184.101 344.615 183.837 344.615 184.057C344.56 184.288 344.494 184.585 344.406 184.717C344.252 185.521 344.516 184.607 344.494 184.96C344.329 185.213 344.45 185.367 344.417 185.719L344.329 185.697C344.031 186.589 344.45 185.984 344.164 186.788L344.131 186.413L344.054 186.843L343.976 186.733C343.91 187.206 343.844 187.349 343.679 187.79C343.767 187.701 343.822 187.9 343.69 188.296C343.547 188.549 343.657 188.12 343.481 188.681C343.47 188.538 343.448 188.373 343.613 188.164C343.591 188.131 343.602 188.021 343.58 187.988C343.415 188.252 343.316 188.703 343.239 188.913C343.272 188.836 343.305 188.748 343.338 188.703C343.283 188.99 343.217 189.265 343.162 189.551C343.085 189.661 343.096 189.551 343.107 189.441C343.052 189.606 343.052 189.739 342.963 189.981C342.919 189.893 342.831 189.882 342.93 189.529L342.71 190.322C342.655 190.355 342.468 190.674 342.479 190.564C342.27 190.961 342.182 191.643 341.884 192.172C341.884 192.205 341.873 192.271 341.829 192.392C341.576 192.899 341.279 193.317 341.103 193.978L340.816 194.264C340.629 194.76 341.202 193.868 340.882 194.693C340.662 195.277 340.673 194.859 340.541 195.035C340.475 195.343 340.398 195.905 340.046 196.378C340.101 196.191 340.178 196.07 340.244 195.894L339.99 196.257C340.09 195.717 340.288 195.387 340.012 195.718C340.244 195.883 339.341 197.292 339.583 197.468L339.418 197.71C339.451 197.633 339.44 197.611 339.473 197.545C339.132 198.019 339.506 198.008 339.187 198.668C339.077 198.9 338.966 199.043 338.999 198.878L338.867 199.428C338.801 199.582 338.768 199.527 338.834 199.373C338.735 199.648 338.647 199.924 338.559 200.199L338.548 200.188C338.548 200.32 338.526 200.606 338.504 200.75C338.394 200.948 338.515 200.639 338.46 200.672L338.372 201.146C338.24 201.311 338.284 200.904 338.405 200.595C337.986 200.926 338.339 200.992 337.898 201.884L337.986 201.432C337.744 201.674 337.7 202.027 337.469 202.522C337.546 202.401 337.986 201.575 337.92 202.104C337.865 202.247 337.799 202.434 337.799 202.721C337.7 202.698 337.656 202.974 337.601 203.326L337.469 203.282C337.436 203.667 337.524 203.645 337.546 203.877C337.48 204.295 337.37 204.372 337.26 204.471C337.194 205.132 337.436 204.119 337.436 204.758C337.678 204.824 337.931 204.89 338.174 204.956C338.207 204.78 338.229 204.592 338.229 204.427L338.152 204.625C338.097 204.306 338.548 203.811 338.636 203.535C338.669 203.469 338.647 203.645 338.647 203.734C338.922 202.985 338.526 203.612 338.614 203.018C338.713 202.93 338.768 203.194 338.867 202.809C338.966 202.632 338.922 201.63 339.242 201.146C339.154 201.245 339.066 201.344 339.11 201.058C339.231 200.639 339.682 200.034 339.66 199.604C339.693 199.56 339.715 199.549 339.726 199.549C339.792 199.23 340.034 198.525 340.034 198.305C340.464 198.151 340.673 196.345 340.97 196.477L341.367 195.541L341.389 195.574C341.675 194.991 341.697 194.749 341.719 194.506C341.796 194.374 341.785 194.495 341.796 194.506C342.248 193.658 342.27 193.57 342.446 192.778L342.567 192.745C342.6 192.524 343.261 191.533 343.503 190.619C343.514 190.63 343.525 190.652 343.503 190.73C343.8 189.716 344.626 188.428 344.417 187.944L344.538 187.25C344.252 188.109 344.439 187.085 344.274 187.415C344.362 187.074 344.626 186.567 344.527 186.986L344.494 187.052C344.637 187.261 344.835 185.984 344.945 186.028C345.353 184.288 345.606 182.537 345.54 180.853L345.419 181.051L345.408 180.467C345.43 180.313 345.496 180.258 345.507 180.676C345.573 180.456 345.43 179.983 345.397 179.972C345.364 179.157 345.562 180.28 345.54 180.027L345.496 179.685V179.763C345.419 179.487 345.364 179.476 345.32 178.97C345.309 178.65 345.375 178.805 345.364 178.672C345.375 178.672 345.375 178.628 345.342 178.485L345.221 177.759L345.188 178.067C345.089 177.759 345.067 177.384 345.034 177.736C345.133 177.208 344.483 175.05 344.395 174.764C344.186 174.356 344.076 173.916 343.877 173.398C343.91 173.53 343.866 173.64 343.701 173.189C343.921 173.288 343.448 172.352 343.404 171.945C343.481 172.286 342.798 170.722 342.941 171.251C342.787 170.888 342.985 171.207 342.886 170.91C342.424 170.084 341.961 169.027 341.334 168.036C341.312 168.025 341.389 168.212 341.235 168.003L340.981 167.43C340.849 167.243 340.794 167.298 340.596 166.913C340.618 166.968 340.651 167.056 340.563 166.924C339.913 165.867 339.176 164.843 338.394 163.83C334.826 156.816 328.275 151.662 322.802 145.738C322.78 145.683 322.758 145.628 322.747 145.573L322.67 145.584L322.648 145.551C322.549 145.276 322.428 145.012 322.263 144.681L322.197 144.736C322.009 144.45 321.954 143.922 321.756 143.437C321.8 143.459 321.833 143.58 321.855 143.679C321.822 143.03 321.305 142.479 321.25 141.896C321.173 141.775 321.151 141.675 321.14 141.576C321.14 141.587 321.151 141.598 321.151 141.609C321.151 141.598 321.14 141.576 321.129 141.554C321.129 141.488 321.118 141.422 321.118 141.356C321.118 141.422 321.118 141.477 321.129 141.532C321.096 141.433 321.029 141.279 320.952 141.136L321.018 141.037C321.018 141.026 321.007 141.015 321.007 141.004C320.996 140.839 320.919 140.894 320.886 141.004C320.842 140.927 320.798 140.872 320.765 140.817C320.875 140.64 320.578 140.431 320.688 140.211C320.578 140.134 320.369 139.462 320.182 139.429C320.204 139.418 320.193 139.363 320.226 139.451C320.193 139.275 320.149 139.099 320.049 138.956L320.149 138.846L319.873 138.515C319.884 138.262 319.895 138.152 320.061 138.35C319.752 137.844 319.873 137.921 319.598 137.502H319.686C319.631 137.337 319.444 137.106 319.488 136.985C319.532 136.566 318.97 135.124 318.827 134.133C318.629 134.386 318.816 133.648 318.618 133.67C318.662 133.593 318.662 133.45 318.75 133.593C318.574 133.12 318.651 132.823 318.409 132.525C318.453 132.448 318.519 132.613 318.541 132.547C318.519 132.514 318.453 132.404 318.475 132.338C318.497 132.283 318.541 132.393 318.585 132.47C318.453 131.964 318.255 131.964 318.079 131.975C318.09 131.699 318.046 131.578 317.891 131.413C317.924 131.314 317.946 131.149 318.045 131.457C318.012 131.281 317.858 130.356 317.715 130.378C317.737 130.312 317.66 130.125 317.638 130.081C317.55 129.684 317.539 129.651 317.44 129.255V129.365C317.242 129.244 317.33 129.046 317.242 128.737H317.264C317.22 127.989 317.143 128.44 317.121 127.691L317.021 127.757C316.79 127.735 317.01 127.097 316.834 126.7L316.812 126.866C316.691 126.656 316.977 126.172 316.955 125.93C316.966 125.875 316.999 126.007 317.032 126.073C317.032 125.445 316.878 126.029 316.757 125.588C316.812 125.489 316.966 125.654 316.911 125.357C316.944 125.192 316.482 124.542 316.548 124.102C316.504 124.201 316.471 124.3 316.394 124.102C316.317 123.783 316.449 123.199 316.218 122.946C316.229 122.902 316.24 122.88 316.251 122.88C316.163 122.648 316.03 122.098 315.909 121.977C316.218 121.69 315.458 120.49 315.777 120.446L315.623 119.697L315.656 119.708C315.601 119.224 315.502 119.07 315.403 118.905C315.403 118.795 315.447 118.872 315.469 118.872C315.425 118.156 315.403 118.09 315.161 117.528L315.249 117.451C315.172 117.297 315.249 116.416 315.028 115.744C315.039 115.744 315.061 115.766 315.084 115.811C314.841 115.051 315.073 113.917 314.698 113.674L314.555 113.168C314.61 113.84 314.401 113.091 314.379 113.366C314.324 113.102 314.401 112.672 314.456 112.992L314.445 113.047C314.632 113.146 314.401 112.21 314.522 112.221C314.346 110.911 314.269 109.633 314.159 108.4L314.048 108.554L314.015 108.125C314.037 108.015 314.093 107.96 314.115 108.268C314.17 108.103 314.004 107.761 313.982 107.75C313.971 107.145 314.148 107.971 314.126 107.783L314.093 107.53L314.082 107.585C314.015 107.387 313.96 107.376 313.927 107.002C313.927 106.77 313.982 106.881 313.982 106.781C313.993 106.781 313.993 106.748 313.971 106.638L313.927 106.099L313.861 106.319C313.795 106.088 313.817 105.813 313.74 106.066C313.839 105.691 313.608 104.04 313.641 103.82C313.553 103.489 313.531 103.159 313.509 102.74C313.498 102.84 313.421 102.906 313.41 102.553C313.586 102.674 313.432 101.904 313.531 101.606C313.476 101.871 313.432 100.604 313.355 101.012C313.355 100.979 313.355 100.957 313.355 100.935L313.366 100.869C313.388 100.825 313.421 100.924 313.432 100.758C313.421 100.692 313.421 100.615 313.41 100.538C314.544 91.7955 315.469 83.0968 312.573 74.9156C308.554 63.5743 295.759 54.4681 283.603 54.2479C286.444 53.1248 289.351 51.7594 288.888 51.0547C287.996 49.7114 280.905 53.6753 280.905 53.6753C280.905 53.6753 289.461 46.8815 286.444 44.4261C283.427 41.9816 279.033 54.1048 279.033 54.1048C279.033 54.1048 280.304 42.8329 276.285 44.0992C273.544 44.9691 275.653 50.0197 277.239 53.4001C273.902 52.0127 270.588 51.297 267.109 50.9666C267.064 50.9556 267.031 50.9336 266.987 50.9226C267.031 50.9336 267.042 50.9226 267.086 50.9336C266.921 50.8455 266.723 50.9006 266.514 50.7794C266.371 50.8455 266.228 50.7024 266.162 50.8235L266.613 50.9006C266.536 50.8896 266.448 50.8896 266.36 50.9006C266.217 50.8896 266.062 50.8785 265.919 50.8675C265.853 50.8565 265.776 50.8345 265.699 50.8015C265.732 50.7794 265.864 50.7684 265.952 50.7684C265.842 50.7024 265.71 50.7464 265.6 50.6803C265.666 50.5592 266.14 50.7684 266.437 50.7464C266.316 50.6583 265.908 50.7134 266.073 50.6143C265.842 50.7354 265.6 50.4932 265.248 50.5592L265.281 50.4822C265.226 50.4822 265.116 50.4932 265.016 50.4711L265.215 50.4051C264.928 50.4381 264.719 50.2179 264.455 50.2179C264.994 50.328 264.554 50.339 264.774 50.4491C264.091 50.4271 264.433 50.1518 263.684 50.0527C263.783 50.0637 264.058 50.1628 263.893 50.1738C263.75 50.1298 263.574 50.0637 263.497 50.0087C263.001 49.9426 263.563 50.1078 263.343 50.1298C263.189 49.9977 263.09 50.1298 262.869 50.1298L262.88 50.0417C262.33 49.8876 262.704 50.1959 262.209 50.0527L262.44 49.9646L262.176 49.9536L262.242 49.8655C261.944 49.8876 261.856 49.8655 261.581 49.7995C261.636 49.8765 261.526 49.9646 261.273 49.9316C261.108 49.8545 261.383 49.8545 261.019 49.8215C261.107 49.7774 261.207 49.7114 261.35 49.8215C261.372 49.7885 261.438 49.7774 261.46 49.7444C261.284 49.6563 260.997 49.6673 260.865 49.6563C260.909 49.6673 260.975 49.6783 260.997 49.7004L260.469 49.7664C260.392 49.7224 260.458 49.7004 260.524 49.6783C260.414 49.6783 260.337 49.7114 260.194 49.7004C260.238 49.6233 260.238 49.5462 260.458 49.5352L259.962 49.5572C259.929 49.5132 259.72 49.4471 259.786 49.4141C259.511 49.348 259.104 49.5132 258.74 49.4141C258.718 49.4251 258.685 49.4361 258.608 49.4471C258.267 49.4031 257.969 49.2709 257.562 49.37L257.342 49.2159C257.022 49.2379 257.65 49.4141 257.122 49.4471C256.747 49.4801 256.989 49.315 256.857 49.2709C256.67 49.337 256.34 49.4801 255.998 49.348C256.108 49.326 256.197 49.348 256.307 49.337L256.042 49.2489C256.362 49.1278 256.593 49.1829 256.34 49.0507C256.296 49.326 255.316 49.0617 255.283 49.359L255.106 49.304C255.162 49.304 255.162 49.293 255.217 49.293C254.875 49.1608 254.974 49.5022 254.534 49.4691C254.38 49.4471 254.281 49.4141 254.38 49.37L254.049 49.4471C253.95 49.4471 253.972 49.3921 254.071 49.3921C253.895 49.4031 253.73 49.4141 253.565 49.4361V49.4251C253.499 49.4801 253.334 49.5572 253.257 49.6013C253.125 49.5682 253.323 49.5682 253.279 49.5352L253.003 49.6233C252.882 49.5572 253.113 49.4691 253.312 49.4581C253.025 49.1829 253.08 49.5462 252.497 49.4251L252.761 49.37C252.574 49.2159 252.365 49.293 252.056 49.2159C252.134 49.2599 252.684 49.4361 252.387 49.5242C252.299 49.5132 252.178 49.5022 252.023 49.5792C252.012 49.4801 251.847 49.5022 251.649 49.5352V49.3921C251.429 49.4581 251.462 49.5242 251.341 49.6123C251.099 49.6343 251.032 49.5352 250.966 49.4471C250.57 49.4801 251.253 49.5792 250.801 49.6673C250.471 49.6563 250.251 49.7444 249.876 49.8765C249.645 49.8545 249.898 49.7885 249.81 49.7554L249.634 49.8986C249.59 49.9096 249.59 49.8655 249.601 49.8545C249.436 49.9316 249.612 49.9977 249.359 50.0858C249.315 50.2509 248.775 49.9646 248.489 50.2069C248.401 50.1849 248.511 50.1188 248.478 50.0637C248.048 50.2619 248.115 50.2179 247.784 50.4381L247.454 50.4271C247.707 50.4711 247.443 50.6693 247.212 50.8235C247.3 50.8565 247.377 50.8785 247.432 50.8896L247.046 51.0657C246.991 51.0547 247.024 50.9997 247.068 50.9226C247.046 50.9446 247.024 50.9556 247.002 50.9776C246.848 50.9666 246.903 50.8675 246.98 50.7684C247.035 50.7794 247.09 50.8015 247.146 50.8125C247.223 50.7024 247.3 50.5923 247.256 50.5152C247.234 50.5372 247.19 50.5592 247.135 50.5813C247.157 50.5482 247.168 50.5262 247.157 50.5152C247.135 50.5042 247.102 50.5482 247.046 50.5923L246.914 50.4601L246.903 50.5262L246.353 50.5702C246.011 50.8345 245.758 51.1428 245.197 51.3961C245.307 51.2419 245.175 51.2089 245.131 51.0767C245.34 51.1648 245.571 50.8675 245.89 50.8015C245.725 50.8345 245.736 50.7574 245.78 50.7244L245.208 51.1979C245.186 51.0878 245.064 51.1538 244.91 51.1648C245.086 51.33 244.558 51.4401 244.36 51.5833C244.316 51.5172 244.349 51.4291 244.624 51.352C244.272 51.308 244.327 51.7264 243.996 51.7154C244.062 51.6934 244.095 51.6824 244.106 51.6383C243.974 51.7594 243.589 51.8585 243.655 51.7594L243.721 51.7374C243.281 51.8806 242.433 52.31 242.444 52.4972C242.433 52.4751 242.4 52.2769 242.411 52.2329L241.959 53.1358C241.948 52.9706 241.53 52.7835 241.827 52.5192C241.717 52.5522 241.585 52.5963 241.409 52.7614C241.486 52.7394 241.684 52.8605 241.596 52.9266C241.266 52.9156 241.376 52.9376 241.012 52.9927C241.123 52.9596 241.134 53.2349 240.979 53.312C240.979 53.2679 240.847 53.1248 240.891 53.0697L240.638 53.4992C240.715 53.4111 240.55 53.323 240.429 53.323C240.495 53.334 240.11 53.5432 240.021 53.6203L240.209 53.5542C239.768 53.8075 239.988 54.1048 239.592 54.3801C239.614 54.314 239.537 54.0607 239.317 54.2039C239.295 54.3801 239.262 54.9526 239.008 55.294L238.909 55.305C238.843 55.3931 238.777 55.4812 238.722 55.5803C238.755 55.327 238.942 54.6663 239.107 54.347C238.931 54.4241 239.019 54.325 238.799 54.5122C238.678 54.5342 238.854 54.347 238.92 54.281C238.733 54.4131 238.568 54.5562 238.392 54.6994C238.502 54.7764 238.106 55.1398 238.205 55.2059C238.337 54.9967 238.491 54.8095 238.634 54.6113C238.744 54.6994 238.568 55.1618 238.238 55.4701C238.117 55.5142 238.139 55.2499 238.105 55.2169C238.094 55.294 237.852 55.5913 237.808 55.6023C237.83 55.5362 237.863 55.4701 237.896 55.4151C237.676 55.5692 237.742 55.8555 237.445 56.0097C237.368 56.0868 237.115 56.1528 237.159 56.2189C237.379 56.1748 237.742 56.4391 237.753 56.5823C237.72 56.5933 237.291 56.9126 237.181 56.9787C236.993 57.0557 237.115 56.6043 236.96 56.6703C236.982 56.6924 236.96 56.8025 236.949 56.8465C236.861 56.9236 236.894 56.7474 236.762 56.9566C236.839 57.0667 236.476 57.364 236.784 57.1108C236.674 57.331 236.619 57.309 236.465 57.5402C236.575 57.5072 236.564 57.9036 236.487 58.1128C236.465 58.0908 236.41 58.1128 236.377 58.1238C236.124 58.5312 235.958 58.7404 235.782 59.1588C235.738 59.1809 235.617 59.368 235.617 59.2689C235.606 59.335 235.617 59.4121 235.562 59.5332C235.364 59.7424 235.672 59.2359 235.485 59.3901C235.54 59.4341 235.419 59.7534 235.408 59.9626C235.507 59.9406 235.584 59.5442 235.628 59.346C235.76 59.4011 235.738 59.7644 235.65 60.2269C235.562 60.5793 235.518 60.348 235.518 60.4141C235.265 61.0637 235.551 61.0417 235.32 61.5592C235.188 61.7574 235.166 61.5372 235.088 61.5702C235.133 61.2729 235.254 61.1298 235.298 60.9316L235.199 61.1628C235.199 61.0637 235.221 60.8545 235.287 60.7664C235.166 60.9316 234.956 61.9006 234.824 62.4291C234.835 62.5282 234.835 62.6934 234.879 62.6273L234.89 62.4621C234.978 62.319 234.923 62.7925 234.989 62.5833C235 62.8145 235 63.0677 234.945 63.3871L234.857 63.4421C234.879 63.4421 234.912 63.2329 234.912 63.1448C234.923 63.277 234.758 63.6293 234.857 63.7835L234.934 63.5632C234.956 63.7945 235.011 64.0808 234.967 64.356C235.055 64.2349 234.967 64.29 235.077 64.0918C234.945 64.2569 235.155 63.3761 235 63.6513C235.133 63.4531 235.066 63.299 235.21 63.0567C235.177 63.0567 235.144 63.1448 235.199 62.9136C235.188 62.9026 235.188 62.8806 235.188 62.8585V62.8475L235.177 62.8585C235.177 62.8475 235.177 62.8475 235.177 62.8585C235.155 62.9136 235.133 62.9576 235.11 62.9686C235.066 62.8475 235.133 62.4732 235.122 62.341C235.155 62.2089 235.144 62.4071 235.188 62.33L235.166 62.1318C235.221 62.1208 235.364 61.7905 235.32 62.1208L235.397 61.8345C235.474 61.6804 235.551 61.4491 235.562 61.306C235.617 61.1739 235.573 60.9426 235.595 61.0748C235.617 60.9206 235.672 60.7775 235.705 60.6233H235.727C235.815 60.37 235.881 60.0838 235.991 59.8085C235.98 59.8305 235.98 59.8415 235.991 59.8635C236.068 59.7534 236.124 59.6653 236.168 59.5773C236.09 59.6764 236.002 59.7534 235.98 59.8085C236.046 59.6323 236.135 59.4451 236.278 59.28C236.333 59.1368 236.355 58.9716 236.509 58.7624L236.597 58.7514C236.674 58.5753 236.949 58.278 236.927 58.1789C237.17 58.0798 237.489 57.4301 237.709 57.1658L237.643 57.0998C237.786 56.9126 237.929 56.7364 238.083 56.4942L238.006 56.4501C238.116 56.2079 238.48 55.9987 238.766 55.7234C238.766 55.7674 238.689 55.8335 238.623 55.8665C239.096 55.6683 239.273 55.0737 239.713 54.9086C239.779 54.8205 239.845 54.7764 239.922 54.7434C239.911 54.7544 239.911 54.7544 239.9 54.7654C239.911 54.7544 239.922 54.7544 239.933 54.7434C239.977 54.7324 240.032 54.7104 240.087 54.6884C240.032 54.6994 239.988 54.7104 239.955 54.7214C240.021 54.6663 240.121 54.5893 240.209 54.4902L240.308 54.5342C240.319 54.5232 240.319 54.5232 240.33 54.5122C240.451 54.4681 240.385 54.4131 240.286 54.3911C240.33 54.336 240.363 54.292 240.385 54.2479C240.561 54.325 240.627 54.0167 240.836 54.0828C240.858 53.9616 241.332 53.6974 241.299 53.5102C241.31 53.5322 241.354 53.5212 241.299 53.5542C241.431 53.4992 241.563 53.4441 241.651 53.345L241.761 53.4221L241.948 53.1248C242.147 53.1028 242.246 53.1138 242.125 53.2789C242.455 52.9486 242.422 53.0697 242.697 52.7614L242.719 52.8495C242.84 52.7945 242.994 52.5963 243.093 52.6293C243.435 52.6403 244.492 52.0567 245.285 51.9576C245.064 51.7594 245.67 51.9576 245.637 51.7594C245.703 51.8035 245.813 51.8035 245.703 51.8916C246.066 51.7154 246.298 51.8145 246.518 51.5722C246.573 51.6163 246.463 51.6824 246.507 51.7044C246.529 51.6824 246.617 51.6163 246.661 51.6493C246.705 51.6713 246.617 51.7154 246.562 51.7594C246.947 51.6493 246.947 51.4621 246.925 51.286C247.146 51.308 247.245 51.2749 247.366 51.1318C247.454 51.1758 247.586 51.1979 247.333 51.2749C247.476 51.2419 248.203 51.1648 248.192 51.0327C248.247 51.0547 248.39 50.9997 248.423 50.9776C248.742 50.9226 248.775 50.9336 249.083 50.8565L248.995 50.8455C249.083 50.6583 249.249 50.7574 249.491 50.6914V50.7134C250.085 50.7244 249.733 50.6033 250.328 50.6583L250.284 50.5592C250.306 50.328 250.812 50.6253 251.132 50.4932L250.999 50.4491C251.176 50.35 251.539 50.6803 251.726 50.6914C251.77 50.7024 251.671 50.7354 251.616 50.7574C252.101 50.8235 251.66 50.6033 252.012 50.5482C252.089 50.6143 251.946 50.7464 252.189 50.7354C252.31 50.7905 252.86 50.4381 253.202 50.5592C253.125 50.5042 253.047 50.4601 253.213 50.4051C253.466 50.361 253.906 50.5592 254.127 50.3831C254.16 50.3941 254.171 50.4161 254.171 50.4271C254.358 50.372 254.798 50.328 254.919 50.2399C255.107 50.5813 256.131 50.0417 256.131 50.372L256.725 50.361L256.714 50.3941C257.1 50.4271 257.232 50.35 257.375 50.2729C257.463 50.295 257.397 50.328 257.386 50.339C257.947 50.4051 258.002 50.4161 258.476 50.284L258.52 50.3831C258.652 50.339 259.313 50.5923 259.874 50.5152C259.863 50.5262 259.852 50.5482 259.808 50.5482C260.436 50.5042 261.251 50.9666 261.515 50.6473C261.658 50.6363 261.79 50.6143 261.933 50.6143C261.416 50.5262 262.032 50.4711 261.823 50.3941C262.032 50.4051 262.341 50.5813 262.087 50.5592L262.054 50.5372C261.933 50.7024 262.693 50.7024 262.66 50.8125C262.726 50.8235 262.781 50.8345 262.836 50.8455C261.977 50.8235 261.108 50.8235 260.227 50.8345C254.699 50.8896 249.017 52.0787 244.503 55.2719C240.264 58.2669 237.302 62.9136 236.102 67.9566C235.969 68.5292 235.859 69.1128 235.76 69.6964C235.749 69.6523 235.738 69.6193 235.716 69.5642C235.738 69.6744 235.782 69.8065 235.705 69.6303C235.727 69.6854 235.738 69.7184 235.749 69.7514C235.044 74.266 235.639 78.9677 237.313 83.2289C236.476 79.1438 236.949 74.6954 239.284 71.2379C237.621 78.4722 238.689 86.279 242.356 92.7424C241.178 88.1508 241.387 83.339 242.895 78.8465C242.906 85.9817 245.186 93.1168 249.392 98.8756C250.856 100.891 252.706 102.84 255.14 103.401C252.001 99.7565 249.92 95.275 250.13 90.4742C250.977 95.0107 253.411 98.6554 257.022 101.518C260.634 104.381 265.303 105.879 269.905 105.669C264.125 120.633 266.349 138.152 275.268 151.486C271.975 144.692 271.986 137.018 272.427 129.453C272.394 134.981 274.31 140.662 276.666 145.639C279.386 151.365 282.711 156.86 284.55 162.927C285.948 167.551 286.444 172.418 286.642 177.241C287.589 174.125 288.018 171.064 288.14 167.86C288.239 172.517 290.32 177.021 292.94 180.919C295.825 185.29 299.47 189.144 302.366 193.526ZM321.184 143.988C321.14 143.933 321.096 143.878 321.04 143.823C321.04 143.823 321.04 143.823 321.052 143.823L320.633 143.03C320.754 142.953 321.14 143.393 321.327 143.933C321.327 144.032 321.25 144.021 321.184 143.988ZM311.967 114.357C312.111 110.635 312.573 106.892 313.057 103.137C313.124 103.654 313.113 103.39 313.245 103.831L313.201 103.941C313.256 104.106 313.278 104.117 313.311 104.48C313.245 104.183 313.245 104.722 313.168 104.392C313.091 105.174 313.366 105.526 313.212 105.901C313.388 106.242 313.245 105.229 313.289 105.427C313.322 105.262 313.421 105.713 313.432 105.956C313.454 106.198 313.267 106.385 313.322 107.013C313.322 106.947 313.3 106.947 313.3 106.892C313.278 107.123 313.388 107.343 313.344 107.629C313.454 107.783 313.366 108.004 313.498 108.037L313.421 107.475C313.476 107.795 313.652 108.081 313.63 108.62C313.597 108.576 313.553 108.422 313.52 108.323C313.498 108.477 313.575 108.62 313.542 108.785C313.41 108.752 313.454 108.103 313.333 107.761C313.289 107.938 313.476 108.411 313.322 108.246C313.52 108.477 313.344 108.863 313.52 109.27L313.443 109.248C313.465 109.314 313.509 109.446 313.52 109.567L313.399 109.358C313.52 109.688 313.366 110.019 313.454 110.338C313.388 109.655 313.542 110.173 313.575 109.876C313.762 110.679 313.443 110.415 313.542 111.241C313.531 111.087 313.564 110.867 313.608 111.032C313.608 111.208 313.608 111.45 313.575 111.571C313.663 112.188 313.652 111.461 313.729 111.725C313.652 111.946 313.806 112.023 313.872 112.298L313.784 112.309C313.806 113.025 313.993 112.474 313.993 113.124L313.839 112.871L313.905 113.201L313.795 113.146C313.905 113.498 313.905 113.619 313.916 113.972C313.971 113.884 314.082 113.994 314.126 114.313C314.093 114.533 314.026 114.203 314.093 114.643C314.026 114.555 313.938 114.445 314.004 114.247C313.971 114.236 313.938 114.159 313.905 114.137C313.872 114.379 313.949 114.72 313.971 114.886C313.971 114.82 313.96 114.753 313.971 114.709C314.037 114.919 314.104 115.128 314.181 115.337C314.159 115.447 314.126 115.37 314.082 115.293C314.115 115.425 314.17 115.502 314.203 115.7C314.115 115.656 314.037 115.689 313.971 115.414L314.137 116.02C314.115 116.064 314.093 116.35 314.048 116.273C314.048 116.625 314.313 117.088 314.324 117.55C314.346 117.572 314.368 117.616 314.39 117.715C314.434 118.145 314.39 118.53 314.566 119.015L314.467 119.323C314.555 119.708 314.588 118.905 314.742 119.554C314.852 120.006 314.643 119.752 314.632 119.918C314.742 120.138 314.962 120.512 314.918 120.953C314.863 120.821 314.863 120.699 314.83 120.578L314.808 120.92C314.61 120.556 314.599 120.259 314.544 120.589C314.83 120.589 314.797 121.845 315.084 121.834L315.062 122.054C315.05 121.988 315.039 121.988 315.028 121.922C314.962 122.362 315.293 122.197 315.348 122.736C315.359 122.924 315.337 123.067 315.282 122.946L315.425 123.342C315.436 123.463 315.381 123.441 315.37 123.32L315.502 123.948H315.491C315.557 124.025 315.656 124.223 315.711 124.311C315.7 124.476 315.667 124.234 315.634 124.289L315.766 124.619C315.722 124.773 315.59 124.498 315.557 124.256C315.337 124.641 315.667 124.531 315.656 125.269L315.546 124.95C315.425 125.192 315.546 125.434 315.524 125.831C315.557 125.731 315.623 125.038 315.777 125.401C315.777 125.511 315.799 125.654 315.898 125.842C315.799 125.864 315.865 126.062 315.92 126.304L315.777 126.315C315.876 126.579 315.942 126.535 316.03 126.689C316.086 126.987 315.986 127.075 315.92 127.163C315.997 127.647 316.019 126.8 316.163 127.361C316.196 127.768 316.317 128.044 316.493 128.495C316.504 128.782 316.394 128.462 316.383 128.572L316.548 128.793C316.559 128.859 316.526 128.837 316.504 128.837C316.592 129.035 316.647 128.826 316.757 129.145C316.922 129.2 316.68 129.872 316.966 130.224C316.955 130.334 316.867 130.191 316.823 130.235C317.077 130.763 317.021 130.686 317.286 131.105L317.297 131.512C317.33 131.204 317.539 131.534 317.715 131.832C317.737 131.721 317.759 131.622 317.77 131.556L317.968 132.041C317.957 132.107 317.902 132.074 317.825 131.997C317.847 132.03 317.869 132.052 317.88 132.085C317.88 132.283 317.77 132.206 317.671 132.096C317.682 132.03 317.693 131.964 317.704 131.898C317.594 131.799 317.473 131.699 317.396 131.743C317.418 131.776 317.451 131.832 317.473 131.898C317.44 131.876 317.418 131.854 317.407 131.876C317.396 131.898 317.44 131.942 317.495 132.019L317.374 132.173L317.44 132.184L317.517 132.867C317.792 133.296 318.112 133.648 318.365 134.386C318.211 134.232 318.178 134.397 318.045 134.419C318.134 134.177 317.836 133.858 317.77 133.461C317.803 133.67 317.737 133.637 317.704 133.593L318.012 134.254C317.902 134.265 317.968 134.419 317.979 134.617C318.145 134.419 318.266 135.091 318.42 135.355C318.354 135.388 318.266 135.344 318.178 135.003C318.134 135.421 318.563 135.421 318.541 135.829C318.519 135.74 318.508 135.696 318.464 135.674C318.585 135.851 318.673 136.335 318.585 136.247L318.563 136.159C318.706 136.72 319.07 137.844 319.257 137.877C319.235 137.888 319.025 137.866 318.981 137.844L319.851 138.647C319.675 138.603 319.433 139.044 319.213 138.614C319.235 138.757 319.257 138.923 319.389 139.187C319.378 139.088 319.532 138.901 319.576 139.011C319.521 139.396 319.565 139.275 319.565 139.726C319.554 139.583 319.829 139.66 319.895 139.87C319.851 139.848 319.675 139.958 319.631 139.892L320.027 140.343C319.939 140.222 319.829 140.376 319.818 140.519C319.84 140.453 319.972 140.971 320.038 141.103L320.016 140.861C320.193 141.466 320.523 141.345 320.71 141.929C320.644 141.874 320.38 141.852 320.457 142.149C320.611 142.248 321.184 142.567 321.437 143.063L321.415 143.184L321.613 143.558C321.371 143.371 320.798 142.799 320.534 142.468C320.567 142.71 320.479 142.556 320.6 142.887C320.589 143.019 320.446 142.732 320.413 142.644L320.644 143.404C319.664 142.215 318.75 140.993 317.924 139.704C313.157 132.228 311.615 123.144 311.967 114.357Z" fill="#85254F"/>
<path d="M345.332 178.683L345.321 178.805C345.277 178.54 345.31 178.617 345.332 178.683Z" fill="#85254F"/>
<path d="M235.387 61.615C235.453 61.4598 235.431 61.5152 235.387 61.615V61.615Z" fill="#85254F"/>
<path d="M246.541 50.9227C246.585 50.8786 246.673 50.8675 246.784 50.8786C246.707 50.9117 246.629 50.9337 246.541 50.9227Z" fill="#85254F"/>
<path d="M252.346 49.6785C252.423 49.6454 252.566 49.5681 252.622 49.6343C252.555 49.7557 252.478 49.7006 252.346 49.6785Z" fill="#85254F"/>
<path d="M320.863 143.614C320.786 143.526 320.709 143.437 320.643 143.349C320.698 143.338 320.775 143.482 320.863 143.614Z" fill="#85254F"/>
<path d="M313.93 106.87L313.919 106.959C313.875 106.759 313.897 106.814 313.93 106.87Z" fill="#85254F"/>
<path d="M313.137 102.884C313.103 102.741 313.092 103.017 313.07 103.061C313.092 102.928 313.103 102.807 313.125 102.674C313.137 102.741 313.137 102.818 313.137 102.884Z" fill="#85254F"/>
<path d="M315.757 125.325C315.713 125.237 315.613 125.06 315.658 124.983C315.801 125.071 315.757 125.159 315.757 125.325Z" fill="#85254F"/>
<path d="M317.684 132.515C317.629 132.46 317.618 132.349 317.629 132.217C317.662 132.305 317.684 132.404 317.684 132.515Z" fill="#85254F"/>
<path d="M338.054 201.696C338.131 201.873 338.043 201.961 337.955 202.17C337.966 202.038 337.966 201.774 338.054 201.696Z" fill="#85254F"/>
<path d="M339.684 211.507C339.75 211.607 339.816 211.728 339.871 211.871C339.794 211.805 339.739 211.673 339.684 211.507Z" fill="#85254F"/>
<path d="M344.473 184.354C344.462 184.398 344.462 184.432 344.451 184.465C344.462 184.421 344.473 184.398 344.473 184.354Z" fill="#85254F"/>
<path d="M339.188 210.946C339.188 210.902 339.199 210.891 339.21 210.869C339.177 210.836 339.155 210.847 339.188 210.946Z" fill="#85254F"/>
<path d="M341.875 192.249L341.886 192.227C341.886 192.216 341.886 192.205 341.875 192.205V192.249Z" fill="#85254F"/>
<path d="M337.449 203.085L337.482 203.118C337.526 203.073 337.549 202.985 337.593 202.82L337.449 203.085Z" fill="#85254F"/>
<path d="M339.033 198.481L339 198.558L339.176 198.459L339.033 198.481Z" fill="#85254F"/>
<path d="M340.497 194.749C340.42 194.892 340.365 195.079 340.299 195.222C340.431 194.892 340.662 194.771 340.497 194.749Z" fill="#85254F"/>
<path d="M235.629 69.3442L235.706 69.5208C235.706 69.4767 235.651 69.3111 235.684 69.3663C235.617 69.1787 235.617 69.2229 235.629 69.3442Z" fill="#85254F"/>
<path d="M235.617 69.366C235.595 69.355 235.628 69.3881 235.661 69.4762L235.584 69.278C235.584 69.3 235.562 69.311 235.617 69.366Z" fill="#85254F"/>
<path d="M235.355 68.1659C235.344 68.1548 235.333 68.2431 235.322 68.2542L235.366 68.3866C235.355 68.3204 235.333 68.1769 235.355 68.1659Z" fill="#85254F"/>
<path d="M235.323 68.254L235.246 68.0558C235.29 68.232 235.312 68.265 235.323 68.254Z" fill="#85254F"/>
<path d="M235.475 69.157L235.63 69.4881L235.453 69.1018L235.475 69.157Z" fill="#85254F"/>
<path d="M235.211 67.362L235.255 67.4721L235.178 67.2629L235.211 67.362Z" fill="#85254F"/>
<path d="M235.122 66.8234C235.167 66.9117 235.155 66.691 235.189 66.7903C235.155 66.6469 235.144 66.5255 235.111 66.4151C235.122 66.5255 235.111 66.6579 235.122 66.8234Z" fill="#85254F"/>
<path d="M235.166 67.6043C235.166 67.6263 235.177 67.6594 235.177 67.6924C235.177 67.6704 235.199 67.6374 235.188 67.5162L235.166 67.6043Z" fill="#85254F"/>
<path d="M235.169 67.6043C235.158 67.5052 235.146 67.4501 235.146 67.4171C235.146 67.4501 235.158 67.5052 235.169 67.6043Z" fill="#85254F"/>
<path d="M235.254 68.4964C235.298 68.5737 235.276 68.4302 235.353 68.6068C235.298 68.4854 235.21 68.2426 235.254 68.4964Z" fill="#85254F"/>
<path d="M235.2 68.0452C235.211 68.0342 235.211 67.99 235.234 68.0562C235.211 67.979 235.167 67.9017 235.156 67.8245C235.167 67.9017 235.189 67.979 235.2 68.0452Z" fill="#85254F"/>
<path d="M235.121 67.7144L235.154 67.8253L235.143 67.7366L235.121 67.7144Z" fill="#85254F"/>
<path d="M235.044 66.625C235.022 66.5257 235.011 66.4263 235 66.3049C235 66.4374 235.011 66.5698 235.011 66.7022C235.022 66.7022 235.055 66.7574 235.044 66.625Z" fill="#85254F"/>
<path d="M234.934 65.1155L234.944 65.1263V65.1048L234.934 65.1155Z" fill="#85254F"/>
<path d="M235 66.7125C235 66.8118 235.022 66.867 235.044 66.9221C235.033 66.8449 235.011 66.7787 235 66.6904C235 66.6793 235 66.6793 235 66.7125Z" fill="#85254F"/>
<path d="M235.011 65.8976C235.011 65.9526 235 66.0077 235 66.0738C235.011 66.0187 235.022 65.9086 235.011 65.8976Z" fill="#85254F"/>
<path d="M235.045 66.9216C235.056 66.9767 235.067 67.0207 235.089 67.0758C235.089 67.0648 235.089 67.0538 235.1 67.0428C235.078 66.9987 235.067 66.9547 235.045 66.9216Z" fill="#85254F"/>
<path d="M234.869 64.8846C234.847 64.9616 234.814 65.3911 234.77 65.1929C234.748 64.8956 234.781 64.9506 234.814 64.7965C234.759 64.9176 234.726 64.4111 234.638 64.4772L234.671 64.7414C234.66 64.7414 234.638 64.6533 234.627 64.7194C234.671 64.7414 234.726 64.9947 234.671 65.2259C234.704 65.4461 234.858 65.292 234.946 65.1048C234.913 65.1158 234.902 65.1158 234.869 64.8846Z" fill="#85254F"/>
<path d="M234.946 65.1268L234.935 65.5783L234.924 65.5453L234.935 65.6333C234.935 65.5232 234.957 65.4462 234.99 65.314C234.979 65.1709 234.957 65.1378 234.946 65.1268Z" fill="#85254F"/>
<path d="M235 66.0738C234.989 66.0958 234.989 66.1068 235 66.0738C234.989 66.0738 234.978 66.0628 234.978 66.0518C234.967 65.9307 234.978 66.0298 235 66.0738L234.945 65.6334C234.945 65.7214 234.956 65.8426 234.978 66.0518C234.923 65.9857 234.89 65.7655 234.846 65.8976C234.868 66.1729 234.901 66.0848 234.934 66.25C234.89 65.8095 234.967 66.3711 234.967 66.0518C234.978 66.1509 234.989 66.2169 235 66.283C235 66.2169 235 66.1509 235 66.0738Z" fill="#85254F"/>
<path d="M235.121 68.2861C235.121 68.2753 235.121 68.2753 235.121 68.2753C235.111 68.2431 235.111 68.2324 235.121 68.2861Z" fill="#85254F"/>
<path d="M235.121 67.8904C235.121 67.8795 235.121 67.8795 235.132 67.8685C235.121 67.8576 235.121 67.8685 235.121 67.8904Z" fill="#85254F"/>
<path d="M235.154 68.2539C235.132 68.1218 235.11 67.9566 235.11 67.9016C235.088 67.9566 235.088 68.0007 235.088 68.1108C235.099 68.1328 235.121 68.1548 235.154 68.2539C235.165 68.353 235.132 68.2649 235.121 68.2759C235.143 68.331 235.198 68.4851 235.165 68.2869L235.154 68.2539Z" fill="#85254F"/>
<path d="M234.881 66.9L234.903 66.889C234.936 67.0987 234.947 67.0545 234.969 67.0766L234.892 66.7124C234.881 66.7676 234.881 66.8338 234.881 66.9Z" fill="#85254F"/>
<path d="M234.97 65.0607L235.025 65.1048L234.959 64.8956L234.97 65.0607Z" fill="#85254F"/>
<path d="M234.969 64.588L235.024 64.5991L234.991 64.4772L234.969 64.588Z" fill="#85254F"/>
<path d="M253.534 49.5352L253.512 49.5796C253.556 49.5574 253.567 49.5352 253.534 49.5352Z" fill="#85254F"/>
<path d="M240.375 54.6114L240.287 54.5673C240.21 54.6445 240.133 54.6887 240.066 54.7107C240.243 54.6776 240.442 54.6666 240.375 54.6114Z" fill="#85254F"/>
<path d="M247.149 50.9778L247.093 50.9556C247.06 51 247.038 51.0332 247.016 51.0665C247.049 51.0443 247.093 51.0111 247.149 50.9778Z" fill="#85254F"/>
<path d="M258.718 49.5248L258.851 49.4472C258.651 49.4361 258.74 49.4915 258.718 49.5248Z" fill="#85254F"/>
<path d="M254.063 50.5155C254.129 50.4933 254.151 50.4823 254.151 50.4601C254.085 50.4712 254.052 50.4823 254.063 50.5155Z" fill="#85254F"/>
<path d="M236.3 59.2469C236.278 59.269 236.267 59.2801 236.256 59.3021C236.223 59.3904 236.19 59.4897 236.135 59.5891C236.223 59.5008 236.3 59.3904 236.3 59.2469Z" fill="#85254F"/>
<path d="M235.212 62.7043C235.201 62.8041 235.212 62.7154 235.212 62.7043V62.7043Z" fill="#85254F"/>
<path d="M235.188 62.8256C235.177 62.8588 235.177 62.881 235.166 62.9143C235.177 62.9253 235.177 62.9143 235.188 62.8256Z" fill="#85254F"/>
<path d="M235.208 62.7044C235.208 62.6714 235.219 62.6383 235.23 62.5723C235.219 62.6273 235.208 62.6824 235.197 62.7264C235.197 62.7044 235.208 62.6934 235.208 62.7044Z" fill="#85254F"/>
<path d="M265.932 50.9116C265.943 50.9116 265.943 50.9227 265.954 50.9227C266.065 50.9227 266.02 50.9227 265.932 50.9116Z" fill="#85254F"/>
<path d="M242.138 52.2769C242.05 52.4535 241.961 52.4866 241.84 52.5197L242.072 52.6963L242.138 52.2769Z" fill="#85254F"/>
<path d="M247.156 50.6143C247.178 50.6252 247.189 50.647 247.2 50.6579C247.222 50.647 247.222 50.6252 247.156 50.6143Z" fill="#85254F"/>
<path d="M258.697 49.5457H258.708C258.719 49.5457 258.719 49.535 258.719 49.5242L258.697 49.5457Z" fill="#85254F"/>
<path d="M236.828 56.7701C236.884 56.7147 236.917 56.6925 236.95 56.6814C236.928 56.6703 236.895 56.6814 236.828 56.7701Z" fill="#85254F"/>
<path d="M235.103 63.5082C235.092 63.6073 235.081 63.6514 235.059 63.6954C235.07 63.6954 235.103 63.6514 235.092 63.7174L235.103 63.5082Z" fill="#85254F"/>
<path d="M234.67 65.6223C234.681 65.6774 234.681 65.6664 234.692 65.7214L234.714 65.7104C234.703 65.5783 234.67 65.4792 234.67 65.6223Z" fill="#85254F"/>
<path d="M234.87 63.9156C234.814 63.9267 234.825 64.0702 234.814 64.2247V64.2026C234.892 64.2467 234.881 64.0812 234.87 63.9156Z" fill="#85254F"/>
<path d="M234.805 64.4001C234.827 64.4221 234.816 64.345 234.816 64.257C234.816 64.301 234.816 64.3561 234.805 64.4001Z" fill="#85254F"/>
<path d="M235.222 62.3633C235.2 62.4295 235.289 62.4185 235.255 62.4516C235.311 62.5509 235.255 61.977 235.222 62.3633Z" fill="#85254F"/>
<path d="M234.706 63.8825L234.684 64.0266L234.761 63.9712L234.706 63.8825Z" fill="#85254F"/>
<path d="M234.86 62.8145L234.805 63.0573C234.816 63.0573 234.816 63.0904 234.816 63.1235C234.838 62.969 234.882 62.8035 234.86 62.8145Z" fill="#85254F"/>
<path d="M234.816 63.1228C234.805 63.1999 234.794 63.277 234.805 63.321C234.805 63.277 234.805 63.1999 234.816 63.1228Z" fill="#85254F"/>
<path d="M234.726 63.4421L234.693 63.6849L234.704 63.6187L234.726 63.4421Z" fill="#85254F"/>
<path d="M235.573 59.9736C235.551 59.9405 235.518 60.0067 235.495 60.106C235.495 60.1722 235.473 60.2716 235.507 60.2384L235.573 59.9736Z" fill="#85254F"/>
<path d="M235.134 60.8548L235.045 60.8215C235.045 60.8659 235.045 60.9102 235.045 60.9546C235.078 60.8881 235.1 60.8881 235.134 60.8548Z" fill="#85254F"/>
<path d="M235.268 60.1833C235.246 60.1502 235.323 59.775 235.212 60.106C235.235 60.1392 235.168 60.4151 235.268 60.1833Z" fill="#85254F"/>
<path d="M237.281 56.6703L237.435 56.7804L237.325 56.6152L237.281 56.6703Z" fill="#85254F"/>
<path d="M239.57 53.9842C239.702 53.8187 239.801 53.7856 239.647 53.7304C239.349 53.896 239.658 53.8849 239.382 54.0174C239.349 54.0946 239.603 53.896 239.57 53.9842Z" fill="#85254F"/>
<path d="M251.738 49.436L251.727 49.4691C251.76 49.5021 251.815 49.5021 251.914 49.5021L251.738 49.436Z" fill="#85254F"/>
<path d="M254.6 49.3811L254.545 49.37L254.645 49.503L254.6 49.3811Z" fill="#85254F"/>
<path d="M256.991 49.2378C256.891 49.2268 256.781 49.2489 256.682 49.2489C256.902 49.2268 257.013 49.3923 256.991 49.2378Z" fill="#85254F"/>
<path d="M352.158 253.338C356.287 234.3 311.637 134.32 284.715 154.261C257.793 174.202 312.023 252.997 312.023 252.997L261.185 300.08C261.185 300.08 246.012 292.306 243.975 292.78C241.938 293.253 222.91 299.001 222.91 299.001C222.91 299.001 225.939 302.469 229.132 302.359C229.132 302.359 204.533 310.794 204.555 311.752C204.577 312.71 214.091 313.436 214.091 313.436C214.091 313.436 201.758 318.138 201.99 319.955C202.221 321.761 209.774 320.329 209.774 320.329C209.774 320.329 204.544 322.41 204.863 323.412C205.183 324.414 209.488 325.295 215.489 324.8C221.49 324.304 235.815 322.454 235.815 322.454C235.815 322.454 214.586 327.674 214.961 329.534C215.335 331.384 245.681 329.325 245.681 329.325C245.681 329.325 259.588 329.27 271.315 319.569C271.304 319.58 348.029 272.376 352.158 253.338Z" fill="#FFA5A3"/>
<path d="M312.024 252.997L306.64 257.985C307.543 258.789 308.468 259.581 309.415 260.341C316.308 265.946 324.059 270.427 332.042 274.27C332.659 274.567 333.287 274.854 333.914 275.151C343.67 266.739 350.959 258.855 352.159 253.338C354.857 240.896 336.722 193.89 316.319 168.366C313.885 170.469 311.375 172.473 308.776 174.367C301.575 179.608 293.801 184.057 285.675 187.69C283.869 188.494 282.041 189.265 280.191 189.992C288.604 218.984 312.024 252.997 312.024 252.997Z" fill="#DDEAD8"/>
<path d="M352.158 253.338C356.287 234.3 311.637 134.32 284.715 154.261C257.793 174.202 312.023 252.997 312.023 252.997L261.185 300.08C261.185 300.08 246.012 292.306 243.975 292.78C241.938 293.253 222.91 299.001 222.91 299.001C222.91 299.001 225.939 302.469 229.132 302.359C229.132 302.359 204.533 310.794 204.555 311.752C204.577 312.71 214.091 313.436 214.091 313.436C214.091 313.436 201.758 318.138 201.99 319.955C202.221 321.761 209.774 320.329 209.774 320.329C209.774 320.329 204.544 322.41 204.863 323.412C205.183 324.414 209.488 325.295 215.489 324.8C221.49 324.304 235.815 322.454 235.815 322.454C235.815 322.454 214.586 327.674 214.961 329.534C215.335 331.384 245.681 329.325 245.681 329.325C245.681 329.325 259.588 329.27 271.315 319.569C271.304 319.58 348.029 272.376 352.158 253.338Z" stroke="#222221" stroke-width="0.25" stroke-miterlimit="10" stroke-linecap="round" stroke-linejoin="round"/>
<path d="M209.699 320.252C212.463 319.404 215.37 319.173 218.255 318.942C222.78 318.579 227.317 318.215 231.787 317.411C232.657 317.257 233.538 317.081 234.353 316.718" stroke="#222221" stroke-width="0.25" stroke-miterlimit="10" stroke-linecap="round" stroke-linejoin="round"/>
<path d="M214.465 313.58C220.554 312.996 226.5 311.069 232.314 309.186" stroke="#222221" stroke-width="0.25" stroke-miterlimit="10" stroke-linecap="round" stroke-linejoin="round"/>
<path d="M229.121 302.469C234.274 301.126 239.527 299.684 243.876 296.612" stroke="#222221" stroke-width="0.25" stroke-miterlimit="10" stroke-linecap="round" stroke-linejoin="round"/>
<path d="M228.747 297.239C228.747 297.239 228.373 299.607 223.319 300.664C223.319 300.664 222.108 299.441 222.041 299.254C221.975 299.056 228.747 297.239 228.747 297.239Z" fill="#DDEAD8"/>
<path d="M203.994 310.97C203.994 310.97 209.951 308.878 210.601 310.518C211.25 312.148 204.699 313.954 204.699 313.954L203.994 310.97Z" fill="#DDEAD8"/>
<path d="M200.383 318.865C200.383 318.865 206.34 316.773 206.989 318.413C207.639 320.043 201.088 321.849 201.088 321.849L200.383 318.865Z" fill="#DDEAD8"/>
<path d="M204.732 321.122C204.732 321.122 211.019 320.55 211.25 322.289C211.481 324.029 204.688 324.183 204.688 324.183L204.732 321.122Z" fill="#DDEAD8"/>
<path d="M214.553 328.158C214.553 328.158 219.387 327.277 219.695 328.61C219.992 329.942 214.74 330.537 214.74 330.537L214.553 328.158Z" fill="#DDEAD8"/>
<path d="M83.7809 265.59C83.8759 265.746 83.9619 266.013 83.9483 266.251C83.7538 269.055 83.6407 271.866 83.5411 274.677C83.4868 276.217 83.428 277.756 83.3783 279.295C83.2606 282.768 83.1656 286.249 83.1159 289.729C83.0028 297.441 83.1068 305.19 83.6995 312.842C83.7176 313.073 83.7357 313.303 83.7537 313.541C83.7447 313.459 83.7402 313.377 83.7357 313.296C84.2242 319.252 85.0204 325.202 86.4274 330.764C86.4229 330.749 86.4183 330.727 86.4138 330.712C86.4229 330.742 86.4319 330.772 86.4364 330.801C86.4455 330.846 86.4591 330.883 86.4681 330.928C86.4636 330.906 86.4591 330.883 86.45 330.854C87.2191 333.813 88.1691 336.654 89.3634 339.22C90.2546 341.094 91.268 342.804 92.4125 344.269C93.5254 345.66 94.7378 346.813 96.0226 347.712C97.0676 348.419 98.1489 348.939 99.2708 349.207C100.148 349.378 101.031 349.393 101.908 349.222C102.763 349.029 103.596 348.649 104.392 348.121C105.31 347.474 106.165 346.634 106.952 345.638C107.921 344.381 108.776 342.916 109.536 341.317C110.617 338.989 111.49 336.409 112.187 333.717C112.476 332.571 112.739 331.404 112.965 330.221C113.105 329.507 113.232 328.786 113.331 328.05C113.512 326.711 113.634 325.358 113.743 323.997C113.738 324.056 113.734 324.108 113.729 324.168C114.204 318.323 114.48 312.426 115.281 306.662C115.675 303.836 116.195 301.025 117.005 298.437C117.71 296.176 118.692 294.087 120.018 292.741C120.787 291.96 121.655 291.506 122.546 291.305C123.555 291.09 124.582 291.268 125.573 291.64C125.871 291.752 126.048 292.309 125.966 292.785C125.881 293.291 125.568 293.551 125.27 293.44C124.985 293.328 124.695 293.246 124.406 293.172C123.822 293.061 123.234 293.038 122.65 293.15C122.166 293.261 121.696 293.47 121.243 293.782C120.836 294.087 120.452 294.466 120.094 294.912C119.66 295.485 119.276 296.147 118.932 296.868C118.353 298.132 117.9 299.538 117.52 301.003C117.534 300.951 117.543 300.906 117.556 300.862C117.005 303.033 116.616 305.316 116.308 307.614C115.973 310.068 115.738 312.559 115.534 315.051C115.539 314.969 115.548 314.887 115.557 314.805C115.322 317.646 115.145 320.502 114.924 323.343C114.747 325.655 114.557 327.983 114.145 330.221C113.394 334.304 112.282 338.26 110.753 341.718C109.35 344.894 107.563 347.69 105.396 349.408C104.319 350.256 103.179 350.813 101.999 351.066C100.768 351.327 99.5287 351.215 98.3117 350.828C96.9138 350.39 95.5748 349.519 94.3126 348.456C93.2902 347.593 92.3356 346.56 91.4354 345.385C88.0741 340.982 85.9433 334.572 84.5771 327.983C83.8352 324.413 83.3195 320.732 82.9349 317.014C82.5323 313.125 82.2835 309.191 82.1297 305.249C81.8401 297.775 81.9216 290.272 82.1342 282.798C82.1975 280.626 82.2699 278.462 82.3468 276.291C82.469 272.944 82.5775 269.591 82.8128 266.251C82.8309 265.991 82.8625 265.783 82.9802 265.59C83.0842 265.419 83.229 265.322 83.3783 265.322C83.5321 265.314 83.6768 265.411 83.7809 265.59ZM122.646 293.15C122.614 293.157 122.587 293.165 122.555 293.165C122.583 293.157 122.614 293.157 122.646 293.15ZM124.419 293.172C124.46 293.18 124.501 293.187 124.541 293.202C124.501 293.187 124.46 293.18 124.419 293.172ZM99.1441 349.177C99.1803 349.185 99.221 349.192 99.2572 349.2C99.221 349.192 99.1803 349.185 99.1441 349.177ZM86.45 330.861C86.4455 330.839 86.441 330.824 86.4364 330.801L86.4274 330.757C86.4364 330.794 86.441 330.824 86.45 330.861Z" fill="#30426D"/>
<path d="M125.493 290.736C125.657 290.736 125.82 290.751 125.977 290.766C126.764 290.848 127.53 291.093 128.273 291.33L128.6 291.434C128.741 291.479 128.853 291.575 128.92 291.709C128.994 291.843 129.001 292.006 128.957 292.147C128.897 292.333 128.734 292.474 128.533 292.519C128.57 292.853 128.533 293.187 128.422 293.514C128.28 293.922 128.013 294.286 127.634 294.576C127.612 294.851 127.366 295.096 127.099 295.096C126.192 294.984 125.33 294.665 124.617 294.205C124.193 293.93 123.866 293.581 123.665 293.202C123.45 292.794 123.427 292.288 123.606 291.813C123.68 291.62 123.799 291.442 123.985 291.241C124.171 291.041 124.438 290.929 124.624 290.87C124.877 290.781 125.166 290.736 125.493 290.736Z" fill="#677EDD"/>
<path d="M126.432 293.9C126.447 293.559 126.507 293.217 126.626 292.846C126.826 292.222 127.168 291.642 127.629 291.122C127.703 291.041 127.792 290.981 127.896 290.952C127.978 290.9 128.075 290.877 128.164 290.877L128.223 290.885C130.364 291.174 132.512 291.583 134.593 291.984L135.366 292.133L136.949 292.422C137.61 292.541 138.264 292.667 138.925 292.794C140.115 293.016 141.296 293.254 142.478 293.499C146.803 294.383 151.173 295.386 155.402 296.351L156.68 296.641C164.454 298.416 171.463 299.983 178.568 301.119C182.083 297.829 185.502 295.876 189.025 295.148C189.062 295.141 189.091 295.141 189.129 295.141C189.396 295.141 189.634 295.341 189.686 295.601C189.738 295.898 189.545 296.195 189.24 296.255C191.589 302.293 191.447 309.393 188.861 315.721C187.018 320.214 183.911 324.076 180.114 326.594C180.381 326.795 180.426 327.144 180.24 327.389C180.232 327.396 180.218 327.404 180.21 327.411C180.232 327.426 180.247 327.448 180.27 327.471C180.5 327.671 180.478 328.05 180.27 328.258C180.047 328.481 179.705 328.466 179.482 328.258C178.575 327.441 177.802 326.49 177.141 325.465C176.45 324.388 175.907 323.222 175.454 322.034C175.417 321.945 175.394 321.848 175.365 321.759C175.357 321.737 175.342 321.715 175.335 321.692C175.327 321.67 175.32 321.64 175.313 321.618C174.971 320.779 174.658 319.858 174.369 318.796C174.101 317.845 173.893 316.85 173.729 315.758C164.187 311.859 155.588 308.324 147.049 304.58C143.563 303.05 140.033 301.454 136.911 300.035C133.849 298.646 130.245 296.997 126.737 295.244C126.64 295.193 126.566 295.148 126.507 295.081C126.499 295.037 126.492 294.985 126.477 294.94C126.455 294.784 126.44 294.628 126.425 294.48L126.44 294.405C126.425 294.227 126.425 294.064 126.432 293.9Z" fill="#E8F1FF"/>
<path d="M136.056 297.822C138.331 298.676 140.605 299.515 142.879 300.347C145.146 301.171 147.42 301.988 149.687 302.827C158.717 306.17 167.687 309.698 176.91 312.475C176.903 312.498 176.895 312.52 176.895 312.542C176.903 313.612 176.984 314.681 177.185 315.736C177.371 316.731 177.631 317.711 177.973 318.655C178.523 320.162 179.273 321.596 180.225 322.888C180.797 323.668 181.436 324.411 182.135 325.086C181.488 325.629 180.819 326.141 180.121 326.602C180.254 326.676 180.344 326.817 180.359 326.973C180.381 327.121 180.344 327.27 180.254 327.389C180.388 327.545 180.44 327.678 180.448 327.827C180.448 327.983 180.388 328.146 180.284 328.258C180.173 328.362 180.032 328.421 179.89 328.421C179.742 328.421 179.593 328.369 179.474 328.265C178.619 327.493 177.832 326.557 177.133 325.465C176.516 324.507 175.959 323.386 175.446 322.034C175.379 321.856 175.312 321.677 175.245 321.499C174.918 320.682 174.628 319.798 174.353 318.788C174.086 317.845 173.878 316.85 173.714 315.751C164.276 311.903 155.751 308.405 147.048 304.58C143.734 303.125 140.493 301.661 136.911 300.035C133.849 298.653 130.252 297.005 126.737 295.244C126.633 295.192 126.558 295.14 126.506 295.074L126.477 294.925C126.454 294.769 126.439 294.621 126.417 294.465L126.432 294.39C126.417 294.286 126.417 294.175 126.417 294.071C129.613 295.356 132.823 296.604 136.056 297.822Z" fill="#CAD9F0"/>
<path d="M193.757 294.539C195.258 294.947 196.715 295.824 197.963 297.094C199.115 298.267 200.03 299.73 200.684 301.453C200.973 302.204 201.182 303.021 201.33 303.956C201.471 304.818 201.561 305.731 201.598 306.667C201.665 308.42 201.516 310.24 201.144 312.223C200.825 314.013 200.297 315.847 199.576 317.696C198.142 321.365 196.165 324.537 193.698 327.121C193.14 327.708 192.56 328.228 191.929 328.711C191.356 329.156 190.717 329.557 190.034 329.907C188.666 330.612 187.232 331.028 185.76 331.162C185.53 331.184 185.299 331.191 185.062 331.191C184.593 331.191 184.118 331.154 183.605 331.073C182.936 330.969 182.275 330.761 181.576 330.434C180.409 329.892 179.376 328.986 178.559 327.782C178.388 327.478 178.224 327.181 178.053 326.876C178.053 326.854 178.061 326.839 178.068 326.817C178.12 326.653 178.232 326.557 178.328 326.483C178.425 326.416 178.492 326.364 178.544 326.319C179.265 325.747 179.889 325.19 180.461 324.611C181.019 324.039 181.569 323.415 182.096 322.732C183.479 320.92 184.697 318.796 185.723 316.419C187.009 313.344 187.901 310.047 188.376 306.623C188.785 303.533 188.815 300.577 188.458 297.844V297.792V297.755C188.399 297.383 188.339 297.042 188.28 296.722C188.265 296.403 188.242 296.084 188.205 295.764C188.19 295.653 188.176 295.549 188.161 295.438C188.146 295.348 188.153 295.252 188.183 295.155C188.451 295.022 188.718 294.895 188.993 294.777L188.948 294.791C189.275 294.65 189.617 294.524 189.952 294.413C189.967 294.405 189.989 294.405 190.004 294.398C190.1 294.375 190.19 294.353 190.286 294.338C190.598 294.286 190.918 294.257 191.238 294.242C191.356 294.234 191.483 294.234 191.602 294.234C192.308 294.249 193.029 294.353 193.757 294.539Z" fill="#FEFEFE"/>
</g>
<defs>
<clipPath id="clip0_456_45867">
<rect width="78.1112" height="84.7902" fill="white" transform="translate(131.736 124.596) rotate(34.7132)"/>
</clipPath>
</defs>
</svg>
