<svg width="519" height="363" viewBox="0 0 519 363" fill="none" xmlns="http://www.w3.org/2000/svg">
<mask id="mask0_471_43393" style="mask-type:alpha" maskUnits="userSpaceOnUse" x="0" y="0" width="519" height="363">
<rect width="519" height="363" fill="#F3EDF6"/>
</mask>
<g mask="url(#mask0_471_43393)">
<path opacity="0.5" d="M165.132 273.977C135.642 243.337 120.949 207.334 120.949 166.127C120.949 138.678 128.577 113.232 143.717 89.8655C158.857 66.4991 178.816 48.2124 203.716 34.9103C228.493 21.6558 254.622 15 282.208 15C322.582 15 356.786 28.302 384.82 54.8681C412.853 81.4247 426.87 117.153 426.87 161.996C426.87 205.995 412.406 243.347 383.468 273.986C354.53 304.739 318.536 320.054 275.362 320.054C231.188 320.045 194.518 304.73 165.132 273.977Z" fill="#E8D6EF"/>
<path d="M392.731 240.626C392.731 240.626 388.127 255.866 401.819 260.76C415.503 265.653 424.03 255.546 423.26 242.148" stroke="#661D40" stroke-width="1.2658" stroke-miterlimit="10"/>
<path d="M399.308 237.415C399.308 237.415 393.597 257.108 406.848 261.432C406.848 261.432 416.81 259.694 415.711 241.139" stroke="#661D40" stroke-width="1.2658" stroke-miterlimit="10"/>
<path d="M406.487 237.351C406.487 237.351 404.37 257.012 406.848 261.432" stroke="#661D40" stroke-width="1.2658" stroke-miterlimit="10"/>
<path d="M406.167 259.871C406.167 259.871 420.701 323.826 334.385 322.921" stroke="#661D40" stroke-width="1.2658" stroke-miterlimit="10"/>
<path d="M390.429 241.788C390.036 241.107 389.931 240.394 390.116 239.649C390.236 239.153 390.493 238.728 390.862 238.376C391.239 238.024 391.68 237.783 392.185 237.655C392.691 237.527 393.188 237.527 393.685 237.647C394.407 237.823 394.969 238.216 395.354 238.824C395.739 239.425 395.835 240.13 395.634 240.939C395.434 241.732 395.009 242.34 394.351 242.757C393.693 243.181 392.979 243.293 392.201 243.101C391.407 242.909 390.822 242.468 390.429 241.788Z" fill="#EC7D84"/>
<path d="M421.399 243.445C421.006 242.765 420.902 242.052 421.086 241.307C421.207 240.811 421.463 240.386 421.832 240.034C422.209 239.681 422.651 239.441 423.156 239.313C423.661 239.185 424.159 239.185 424.656 239.305C425.378 239.481 425.939 239.874 426.324 240.482C426.709 241.083 426.806 241.788 426.605 242.596C426.404 243.389 425.979 243.998 425.322 244.414C424.664 244.839 423.95 244.951 423.172 244.759C422.378 244.566 421.792 244.126 421.399 243.445Z" fill="#EC7D84"/>
<path d="M413.515 242.54C413.121 241.859 413.017 241.147 413.202 240.402C413.322 239.905 413.579 239.481 413.948 239.128C414.325 238.776 414.766 238.536 415.271 238.408C415.776 238.28 416.274 238.28 416.771 238.4C417.493 238.576 418.055 238.968 418.44 239.577C418.825 240.178 418.921 240.882 418.72 241.691C418.528 242.484 418.095 243.093 417.437 243.509C416.779 243.934 416.065 244.046 415.287 243.853C414.501 243.661 413.908 243.221 413.515 242.54Z" fill="#EC7D84"/>
<path d="M403.968 239.914C403.575 239.233 403.47 238.52 403.655 237.775C403.775 237.279 404.032 236.854 404.401 236.502C404.778 236.15 405.219 235.909 405.724 235.781C406.23 235.653 406.727 235.653 407.224 235.773C407.946 235.949 408.508 236.342 408.893 236.95C409.278 237.551 409.374 238.256 409.173 239.065C408.981 239.857 408.548 240.466 407.89 240.883C407.232 241.307 406.518 241.419 405.74 241.227C404.946 241.035 404.361 240.602 403.968 239.914Z" fill="#EC7D84"/>
<path d="M397.423 237.551C397.03 236.871 396.925 236.158 397.11 235.413C397.23 234.916 397.487 234.492 397.856 234.14C398.233 233.787 398.674 233.547 399.179 233.419C399.685 233.291 400.182 233.291 400.679 233.411C401.401 233.587 401.963 233.979 402.348 234.588C402.733 235.189 402.829 235.894 402.629 236.702C402.428 237.495 402.003 238.104 401.345 238.52C400.687 238.945 399.973 239.057 399.195 238.865C398.401 238.672 397.808 238.24 397.423 237.551Z" fill="#EC7D84"/>
<path d="M396.116 141.918C396.116 141.918 383.274 151.327 391.272 163.47C399.264 175.608 412.154 172.66 419.595 161.491" stroke="#661D40" stroke-width="1.2658" stroke-miterlimit="10"/>
<path d="M403.296 143.302C403.296 143.302 386.892 155.603 394.879 167.027C394.879 167.027 403.885 171.628 414.164 156.141" stroke="#661D40" stroke-width="1.2658" stroke-miterlimit="10"/>
<path d="M409.072 147.568C409.072 147.568 395.558 162.004 394.88 167.027" stroke="#661D40" stroke-width="1.2658" stroke-miterlimit="10"/>
<path d="M395.274 165.369C395.274 165.369 368.431 225.21 300.006 172.585" stroke="#661D40" stroke-width="1.2658" stroke-miterlimit="10"/>
<path d="M393.578 141.462C393.673 140.682 394.019 140.049 394.614 139.565C395.009 139.241 395.469 139.056 395.976 138.996C396.489 138.941 396.986 139.015 397.467 139.216C397.947 139.418 398.345 139.717 398.67 140.112C399.141 140.687 399.353 141.338 399.295 142.056C399.242 142.767 398.895 143.388 398.248 143.914C397.618 144.432 396.906 144.657 396.13 144.595C395.349 144.538 394.711 144.199 394.205 143.577C393.686 142.946 393.472 142.244 393.578 141.462Z" fill="#EC7D84"/>
<path d="M417.328 161.409C417.423 160.629 417.769 159.996 418.364 159.512C418.759 159.188 419.219 159.003 419.726 158.943C420.239 158.889 420.736 158.962 421.217 159.163C421.697 159.365 422.095 159.664 422.42 160.059C422.891 160.634 423.103 161.285 423.045 162.003C422.992 162.714 422.645 163.335 421.998 163.861C421.361 164.374 420.656 164.604 419.88 164.542C419.099 164.485 418.461 164.146 417.955 163.524C417.431 162.9 417.222 162.191 417.328 161.409Z" fill="#EC7D84"/>
<path d="M411.572 155.945C411.668 155.165 412.013 154.532 412.608 154.048C413.003 153.724 413.463 153.539 413.97 153.479C414.483 153.425 414.98 153.498 415.461 153.699C415.942 153.901 416.339 154.2 416.664 154.595C417.135 155.17 417.348 155.821 417.289 156.539C417.236 157.25 416.889 157.871 416.242 158.397C415.605 158.91 414.9 159.14 414.124 159.078C413.343 159.021 412.705 158.682 412.199 158.06C411.68 157.429 411.472 156.732 411.572 155.945Z" fill="#EC7D84"/>
<path d="M405.52 148.113C405.615 147.332 405.96 146.7 406.555 146.216C406.95 145.892 407.41 145.707 407.917 145.647C408.43 145.592 408.927 145.665 409.408 145.867C409.889 146.068 410.286 146.367 410.611 146.762C411.082 147.337 411.295 147.989 411.237 148.706C411.183 149.418 410.836 150.039 410.19 150.564C409.559 151.082 408.847 151.308 408.071 151.245C407.29 151.189 406.652 150.849 406.146 150.228C405.627 149.597 405.418 148.888 405.52 148.113Z" fill="#EC7D84"/>
<path d="M401.703 142.285C401.798 141.504 402.144 140.872 402.739 140.388C403.134 140.064 403.594 139.879 404.101 139.819C404.614 139.764 405.111 139.837 405.592 140.039C406.072 140.24 406.47 140.539 406.795 140.934C407.266 141.509 407.478 142.16 407.42 142.878C407.367 143.59 407.02 144.211 406.373 144.736C405.743 145.254 405.031 145.48 404.255 145.417C403.474 145.361 402.836 145.021 402.33 144.4C401.811 143.769 401.608 143.065 401.703 142.285Z" fill="#EC7D84"/>
<path d="M108.057 326.411C108.057 326.411 117.169 339.464 105.683 348.362C94.1967 357.259 82.9509 350.292 79.5098 337.318" stroke="#661D40" stroke-width="1.2658" stroke-miterlimit="10"/>
<path d="M100.805 325.394C100.805 325.394 112.356 342.339 101.11 350.564C101.11 350.564 91.0995 352.006 86.375 334.019" stroke="#661D40" stroke-width="1.2658" stroke-miterlimit="10"/>
<path d="M93.9551 327.564C93.9551 327.564 102.089 345.591 101.102 350.564" stroke="#661D40" stroke-width="1.2658" stroke-miterlimit="10"/>
<path d="M101.184 349.635C101.184 349.635 107.456 416.994 191.8 388.492" stroke="#661D40" stroke-width="1.3056" stroke-miterlimit="10"/>
<path d="M109.326 328.605C108.652 329.03 107.93 329.142 107.176 328.941C106.422 328.741 105.828 328.301 105.395 327.604C104.954 326.899 104.826 326.202 105.002 325.506C105.179 324.817 105.588 324.272 106.221 323.872C106.655 323.6 107.128 323.448 107.649 323.416C108.171 323.384 108.668 323.472 109.133 323.688C109.598 323.904 109.967 324.232 110.24 324.665C110.649 325.314 110.769 326.026 110.609 326.795C110.441 327.572 110.024 328.173 109.326 328.605Z" fill="#EC7D84"/>
<path d="M80.3999 339.785C79.7261 340.209 79.0042 340.321 78.2502 340.121C77.4962 339.921 76.9026 339.48 76.4695 338.784C76.0283 338.079 75.9 337.382 76.0764 336.685C76.2529 335.997 76.662 335.452 77.2957 335.052C77.7288 334.779 78.2021 334.627 78.7234 334.595C79.2448 334.563 79.7421 334.651 80.2074 334.867C80.6726 335.084 81.0416 335.412 81.3143 335.845C81.7234 336.493 81.8437 337.206 81.6833 337.975C81.5229 338.752 81.0977 339.352 80.3999 339.785Z" fill="#EC7D84"/>
<path d="M87.6108 336.477C86.937 336.902 86.2151 337.014 85.4611 336.813C84.7071 336.613 84.1136 336.173 83.6804 335.476C83.2392 334.771 83.1109 334.075 83.2874 333.378C83.4638 332.681 83.8729 332.145 84.5066 331.744C84.9397 331.472 85.413 331.32 85.9344 331.288C86.4558 331.256 86.9531 331.344 87.4183 331.56C87.8835 331.776 88.2525 332.105 88.5252 332.537C88.9343 333.186 89.0546 333.898 88.8942 334.667C88.7338 335.444 88.3087 336.045 87.6108 336.477Z" fill="#EC7D84"/>
<path d="M95.8725 331.023C95.1988 331.447 94.4768 331.56 93.7228 331.359C92.9688 331.159 92.3753 330.719 91.9421 330.022C91.501 329.317 91.3726 328.62 91.5491 327.924C91.7256 327.227 92.1346 326.69 92.7683 326.29C93.2015 326.018 93.6747 325.866 94.1961 325.834C94.7175 325.802 95.2148 325.89 95.68 326.106C96.1453 326.322 96.5142 326.65 96.787 327.083C97.196 327.732 97.3164 328.436 97.1559 329.213C96.9875 329.99 96.5624 330.591 95.8725 331.023Z" fill="#EC7D84"/>
<path d="M101.369 326.747C100.695 327.171 99.9729 327.283 99.2189 327.083C98.4649 326.883 97.8714 326.442 97.4382 325.746C96.9971 325.041 96.8687 324.344 97.0452 323.647C97.2216 322.959 97.6307 322.414 98.2644 322.014C98.6976 321.741 99.1708 321.589 99.6922 321.557C100.214 321.525 100.711 321.613 101.176 321.829C101.641 322.046 102.01 322.374 102.283 322.806C102.692 323.455 102.812 324.168 102.652 324.937C102.484 325.714 102.058 326.314 101.369 326.747Z" fill="#EC7D84"/>
<path d="M123.122 223.303C123.122 223.303 128.777 238.183 115.461 244.021C102.154 249.851 92.9458 240.361 92.7773 226.939" stroke="#661D40" stroke-width="1.2658" stroke-miterlimit="10"/>
<path d="M116.343 220.557C116.343 220.557 123.41 239.801 110.495 245.038C110.495 245.038 100.437 243.997 100.236 225.41" stroke="#661D40" stroke-width="1.2658" stroke-miterlimit="10"/>
<path d="M109.172 220.989C109.172 220.989 112.653 240.458 110.487 245.039" stroke="#661D40" stroke-width="1.2658" stroke-miterlimit="10"/>
<path d="M112.141 245.23C115.229 258.765 121.405 271.826 131.632 281.437C146.095 295.027 166.228 299.111 185.543 298.278C187.115 298.214 188.687 298.11 190.252 297.99" stroke="#661D40" stroke-width="1.2658" stroke-miterlimit="10"/>
<path d="M123.819 225.737C123.057 225.986 122.335 225.914 121.654 225.537C120.972 225.161 120.498 224.584 120.25 223.807C119.993 223.015 120.033 222.31 120.378 221.677C120.723 221.053 121.244 220.62 121.958 220.388C122.448 220.228 122.945 220.204 123.458 220.292C123.972 220.388 124.429 220.596 124.83 220.916C125.231 221.245 125.512 221.645 125.664 222.134C125.897 222.862 125.849 223.575 125.504 224.288C125.159 225.009 124.597 225.489 123.819 225.737Z" fill="#EC7D84"/>
<path d="M93.0419 229.55C92.2799 229.798 91.558 229.726 90.8762 229.35C90.1944 228.973 89.7212 228.397 89.4725 227.62C89.2158 226.827 89.2559 226.122 89.6008 225.49C89.9457 224.865 90.4671 224.433 91.181 224.2C91.6703 224.04 92.1676 224.016 92.681 224.104C93.1943 224.2 93.6516 224.409 94.0526 224.729C94.4537 225.057 94.7344 225.458 94.8868 225.946C95.1194 226.675 95.0713 227.388 94.7264 228.101C94.3815 228.821 93.82 229.294 93.0419 229.55Z" fill="#EC7D84"/>
<path d="M100.847 228.092C100.085 228.34 99.3627 228.268 98.6809 227.892C97.9991 227.515 97.5258 226.939 97.2772 226.162C97.0205 225.369 97.0606 224.664 97.4055 224.032C97.7504 223.407 98.2718 222.975 98.9857 222.742C99.475 222.582 99.9723 222.558 100.486 222.646C100.999 222.742 101.456 222.951 101.857 223.271C102.258 223.599 102.539 224 102.692 224.488C102.924 225.217 102.876 225.93 102.531 226.642C102.178 227.363 101.625 227.844 100.847 228.092Z" fill="#EC7D84"/>
<path d="M110.185 224.817C109.423 225.065 108.701 224.993 108.019 224.617C107.337 224.24 106.864 223.664 106.615 222.887C106.358 222.094 106.398 221.389 106.743 220.757C107.088 220.132 107.61 219.7 108.324 219.467C108.813 219.307 109.31 219.283 109.824 219.371C110.337 219.467 110.794 219.676 111.195 219.996C111.596 220.324 111.877 220.725 112.029 221.213C112.262 221.942 112.214 222.655 111.869 223.368C111.524 224.088 110.963 224.561 110.185 224.817Z" fill="#EC7D84"/>
<path d="M116.552 222.006C115.79 222.254 115.068 222.182 114.386 221.806C113.704 221.429 113.231 220.853 112.982 220.076C112.726 219.283 112.766 218.578 113.111 217.946C113.456 217.321 113.977 216.889 114.691 216.656C115.18 216.496 115.677 216.472 116.191 216.56C116.704 216.656 117.161 216.865 117.562 217.185C117.963 217.513 118.244 217.914 118.397 218.402C118.629 219.131 118.581 219.844 118.236 220.556C117.891 221.277 117.33 221.75 116.552 222.006Z" fill="#EC7D84"/>
<path d="M117.948 301.867C117.948 301.867 91.3498 279.259 108.628 272.78C125.745 266.365 119.633 302.427 119.633 302.427" fill="#85254F"/>
<path d="M117.948 301.867C117.948 301.867 109.116 281.918 108.627 272.78C125.744 266.365 119.632 302.427 119.632 302.427" fill="#AA306B"/>
<path d="M112.02 285.673C112.02 285.673 135.426 363.908 207.994 354.073" stroke="#661D40" stroke-width="1.6992" stroke-miterlimit="10"/>
<path d="M125.224 317.996C125.224 317.996 97.6631 319.405 104.072 306.327C110.433 293.378 126.499 317.411 126.499 317.411" fill="#85254F"/>
<path d="M125.224 317.996C125.224 317.996 109.318 311.309 104.072 306.327C110.433 293.378 126.5 317.411 126.5 317.411" fill="#AA306B"/>
<path d="M130.992 314.159C130.992 314.159 146.232 291.327 131.946 289.934C117.797 288.557 129.845 314.936 129.845 314.936" fill="#85254F"/>
<path d="M130.992 314.159C130.992 314.159 133.47 297.037 131.946 289.934C117.797 288.557 129.845 314.936 129.845 314.936" fill="#AA306B"/>
<path d="M108.18 310.227C108.18 310.227 121.182 317.259 129.26 318.676C129.26 318.676 132.372 310.94 132.003 300.233" stroke="#661D40" stroke-width="1.6992" stroke-miterlimit="10"/>
<path d="M140.005 335.286C140.005 335.286 112.027 342.453 115.877 327.718C119.696 313.111 141.185 334.421 141.185 334.421" fill="#85254F"/>
<path d="M140.005 335.286C140.005 335.286 122.294 331.738 115.877 327.718C119.695 313.111 141.184 334.421 141.184 334.421" fill="#AA306B"/>
<path d="M145.115 330.153C145.115 330.153 155.984 303.565 141.049 305.11C126.249 306.64 144.105 331.194 144.105 331.194" fill="#85254F"/>
<path d="M145.115 330.153C145.115 330.153 144.089 312.078 141.049 305.11C126.249 306.64 144.105 331.194 144.105 331.194" fill="#AA306B"/>
<path d="M120.898 330.865C120.898 330.865 135.706 335.374 144.28 335.15C144.28 335.15 145.861 326.573 143.246 315.657" stroke="#661D40" stroke-width="1.6992" stroke-miterlimit="10"/>
<path d="M162.545 350.734C162.545 350.734 136.749 365.486 136.54 349.805C136.332 334.269 163.484 349.549 163.484 349.549" fill="#85254F"/>
<path d="M162.545 350.734C162.545 350.734 144 352.047 136.54 349.805C136.332 334.269 163.484 349.549 163.484 349.549" fill="#AA306B"/>
<path d="M166.21 344.247C166.21 344.247 169.715 314.904 155.317 320.51C141.047 326.068 165.496 345.553 165.496 345.553" fill="#85254F"/>
<path d="M166.21 344.247C166.21 344.247 160.242 326.589 155.317 320.51C141.047 326.068 165.496 345.553 165.496 345.553" fill="#AA306B"/>
<path d="M142.379 351.567C142.379 351.567 158.301 351.999 166.747 349.428C166.747 349.428 165.961 340.491 160.387 330.376" stroke="#661D40" stroke-width="1.6992" stroke-miterlimit="10"/>
<path d="M188.374 357.069C188.374 357.069 168.385 379.036 163.347 364.188C158.35 349.477 188.903 355.651 188.903 355.651" fill="#85254F"/>
<path d="M188.374 357.069C188.374 357.069 171.136 364.02 163.347 364.188C158.35 349.477 188.903 355.651 188.903 355.651" fill="#AA306B"/>
<path d="M189.858 349.773C189.858 349.773 184.13 320.775 172.163 330.545C160.307 340.219 189.577 351.239 189.577 351.239" fill="#85254F"/>
<path d="M189.858 349.773C189.858 349.773 178.732 334.813 172.163 330.545C160.307 340.219 189.577 351.239 189.577 351.239" fill="#AA306B"/>
<path d="M169.443 364.068C169.443 364.068 184.724 359.575 191.967 354.538C191.967 354.538 188.462 346.273 180.031 338.369" stroke="#661D40" stroke-width="1.6992" stroke-miterlimit="10"/>
<path d="M431.907 325.275C431.907 325.275 427.527 406.809 354.67 414.241" stroke="#661D40" stroke-width="1.6992" stroke-miterlimit="10"/>
<path d="M429.941 342.406C429.941 342.406 450.491 314.2 432.171 311.95C414.018 309.723 428.441 343.343 428.441 343.343" fill="#85254F"/>
<path d="M429.941 342.406C429.941 342.406 433.839 320.943 432.17 311.95C414.018 309.723 428.441 343.343 428.441 343.343" fill="#AA306B"/>
<path d="M426.661 359.784C426.661 359.784 453.789 354.698 444.476 343.495C435.26 332.395 425.281 359.511 425.281 359.511" fill="#85254F"/>
<path d="M426.661 359.784C426.661 359.784 440.554 349.557 444.476 343.495C435.26 332.395 425.281 359.511 425.281 359.511" fill="#AA306B"/>
<path d="M420.156 357.405C420.156 357.405 399.974 338.777 413.538 334.084C426.974 329.431 421.447 357.901 421.447 357.901" fill="#85254F"/>
<path d="M420.155 357.405C420.155 357.405 413.722 341.34 413.537 334.084C426.973 329.431 421.446 357.901 421.446 357.901" fill="#AA306B"/>
<path d="M441.412 348.243C441.412 348.243 430.423 358.117 422.907 361.385C422.907 361.385 418.07 354.594 415.912 344.095" stroke="#661D40" stroke-width="1.6992" stroke-miterlimit="10"/>
<path d="M416.354 380.053C416.354 380.053 445.238 380.477 438.027 367.047C430.888 353.745 414.998 379.492 414.998 379.492" fill="#85254F"/>
<path d="M416.354 380.053C416.354 380.053 432.741 372.453 438.027 367.047C430.888 353.745 414.998 379.492 414.998 379.492" fill="#AA306B"/>
<path d="M410.177 376.257C410.177 376.257 393.364 352.952 408.252 350.958C423.003 348.98 411.404 377.026 411.404 377.026" fill="#85254F"/>
<path d="M410.176 376.257C410.176 376.257 406.927 358.446 408.251 350.958C423.002 348.98 411.403 377.026 411.403 377.026" fill="#AA306B"/>
<path d="M433.887 371.284C433.887 371.284 420.555 379.132 412.165 380.918C412.165 380.918 408.62 372.95 408.596 361.73" stroke="#661D40" stroke-width="1.6992" stroke-miterlimit="10"/>
<path d="M172.139 170.992C172.139 170.992 164.037 152.828 192.088 144.772C192.088 144.772 193.483 170.167 172.139 170.992Z" fill="#7DB7A6"/>
<path d="M161.665 177.046C161.665 177.046 174.162 164.849 159.122 150.442C159.122 150.442 148.213 164.969 161.665 177.046Z" fill="#7DB7A6"/>
<path d="M170.488 181.379C170.488 181.379 184.221 192.166 196.581 175.405C196.581 175.405 180.739 166.491 170.488 181.379Z" fill="#7DB7A6"/>
<path d="M149.375 250.411C149.375 250.411 153.731 229.725 128.857 225.336C128.865 225.336 127.678 247.296 149.375 250.411Z" fill="#7DB7A6"/>
<path d="M161.174 248.833C161.174 248.833 182.278 250.459 183.409 225.265C183.409 225.273 161.447 226.954 161.174 248.833Z" fill="#7DB7A6"/>
<path d="M157.863 281.348C157.863 281.348 154.037 260.558 129.355 265.916C129.355 265.916 136.599 286.681 157.863 281.348Z" fill="#7DB7A6"/>
<path d="M168.177 275.429C168.177 275.429 188.326 268.943 179.8 245.206C179.8 245.206 160.116 255.072 168.177 275.429Z" fill="#7DB7A6"/>
<path d="M146.512 224.776C146.512 224.776 152.319 207.582 131.56 201.327C131.56 201.335 128.328 219.931 146.512 224.776Z" fill="#7DB7A6"/>
<path d="M156.73 224.624C156.73 224.624 174.562 228.139 178.075 206.773C178.067 206.781 159.177 205.996 156.73 224.624Z" fill="#7DB7A6"/>
<path d="M151.181 200.847C151.181 200.847 160.333 185.166 141.251 174.876C141.259 174.876 134.345 192.454 151.181 200.847Z" fill="#7DB7A6"/>
<path d="M161.223 202.745C161.223 202.745 177.979 209.768 185.72 189.547C185.72 189.547 167.375 184.99 161.223 202.745Z" fill="#7DB7A6"/>
<path d="M180.708 158.755C180.708 158.755 102.597 243.876 207.09 330.143" stroke="#568075" stroke-width="1.7898" stroke-miterlimit="10"/>
<path d="M161.416 166.067C161.416 166.067 162.266 177.879 162.996 186.528C162.996 186.528 172.197 179.065 183.643 178.624" stroke="#568075" stroke-width="1.7898" stroke-miterlimit="10"/>
<path d="M141.707 239.528C141.707 239.528 150.53 250.844 157.108 259.068C157.108 259.068 161.335 245.374 172.565 237.221" stroke="#568075" stroke-width="1.7898" stroke-miterlimit="10"/>
<path d="M146.633 274.18C146.633 274.18 159.098 281.308 168.306 286.425C168.306 286.425 167.015 272.146 174.306 260.366" stroke="#568075" stroke-width="1.7898" stroke-miterlimit="10"/>
<path d="M141.074 214.726C141.074 214.726 147.451 225.265 152.232 232.937C152.232 232.937 157.221 221.685 167.617 215.871" stroke="#568075" stroke-width="1.7898" stroke-miterlimit="10"/>
<path d="M147.885 189.908C147.885 189.908 152.016 201.512 155.144 209.985C155.144 209.985 162.299 199.966 173.649 196.354" stroke="#568075" stroke-width="1.7898" stroke-miterlimit="10"/>
<path d="M381.11 287.347C381.11 287.347 397.57 276.159 377.966 254.568C377.958 254.568 363.391 275.43 381.11 287.347Z" fill="#7DB7A6"/>
<path d="M386.813 297.998C386.813 297.998 382.61 281.06 403 276.711C403 276.711 404.628 294.795 386.813 297.998Z" fill="#7DB7A6"/>
<path d="M377.035 297.045C377.035 297.045 359.669 299.007 357.992 278.257C358 278.257 376.168 278.994 377.035 297.045Z" fill="#7DB7A6"/>
<path d="M358.602 366.838C358.602 366.838 365.797 346.961 389.259 356.291C389.259 356.291 378.695 375.592 358.602 366.838Z" fill="#7DB7A6"/>
<path d="M349.401 359.302C349.401 359.302 330.599 349.596 342.912 327.581C342.912 327.581 360.703 340.547 349.401 359.302Z" fill="#7DB7A6"/>
<path d="M329.429 378.234C329.429 378.234 315.712 362.129 335.477 346.425C335.477 346.425 347.011 365.156 329.429 378.234Z" fill="#7DB7A6"/>
<path d="M374.549 346.545C374.549 346.545 378.672 328.871 399.623 334.46C399.623 334.46 392.565 351.983 374.549 346.545Z" fill="#7DB7A6"/>
<path d="M365.942 341.051C365.942 341.051 348.929 334.669 357.199 314.664C357.199 314.656 373.683 323.921 365.942 341.051Z" fill="#7DB7A6"/>
<path d="M383.188 323.737C383.188 323.737 383.669 305.598 405.318 306.872C405.318 306.872 401.933 325.451 383.188 323.737Z" fill="#7DB7A6"/>
<path d="M373.65 320.086C373.65 320.086 355.699 317.251 359.774 295.988C359.774 295.988 377.781 301.754 373.65 320.086Z" fill="#7DB7A6"/>
<path d="M380.267 272.435C380.267 272.435 401.828 385.85 267.504 404.326" stroke="#568075" stroke-width="1.7898" stroke-miterlimit="10"/>
<path d="M392.821 288.796C392.821 288.796 385.874 298.39 380.684 305.366C380.684 305.366 376.794 294.186 367.289 287.795" stroke="#568075" stroke-width="1.7898" stroke-miterlimit="10"/>
<path d="M370.858 361.609C370.858 361.609 357.391 366.59 347.46 370.13C347.46 370.13 351.086 356.259 345.832 343.438" stroke="#568075" stroke-width="1.7898" stroke-miterlimit="10"/>
<path d="M348.405 388.493C348.405 388.493 334.047 388.005 323.523 387.516C323.523 387.516 332.146 376.056 332.154 362.202" stroke="#568075" stroke-width="1.7898" stroke-miterlimit="10"/>
<path d="M384.47 340.851C384.47 340.851 373.489 346.457 365.388 350.477C365.388 350.477 367.072 338.288 361.297 327.885" stroke="#568075" stroke-width="1.7898" stroke-miterlimit="10"/>
<path d="M391.76 316.169C391.76 316.169 382.135 323.865 375.004 329.431C375.004 329.431 374.202 317.154 366.445 308.12" stroke="#568075" stroke-width="1.7898" stroke-miterlimit="10"/>
<g clip-path="url(#clip0_471_43393)">
<path d="M257.468 171.548C256.19 170.145 239.135 175.757 230.292 142.863C221.449 109.977 234.075 79.2 247.347 77.2904C247.057 77.3319 248.882 74.5589 249.081 74.368C253.03 70.416 259.044 68.8552 263.523 68.2823C276.157 66.6633 288.119 72.1014 295.983 81.5828C301.724 88.4987 305.548 97.4487 313.312 101.965C318.555 105.012 324.818 105.552 330.7 107.038C347.216 111.189 362.031 124.847 363.774 141.8C364.885 152.627 361.111 164.848 367.482 173.665C373.554 182.059 384.802 180.954 391.306 188.867C397.046 195.857 399.27 205.612 397.942 214.479C396.117 226.709 388.469 237.436 379.162 245.564C356.988 264.933 322.255 273.045 295.793 258.192C276.97 247.623 266.493 231.906 263.407 210.876C262.462 204.45 261.126 199.668 261.814 193.059C262.694 184.715 263.631 178.322 257.468 171.548Z" fill="#85254F"/>
<path d="M225.587 303C225.587 303 222.974 314.573 218.013 314.573C213.052 314.573 176.337 302.634 154.478 303.921C135.059 305.059 129.534 313.934 126.415 323.349C126.415 323.349 117.796 348.181 164.624 358.966C220.452 371.827 288.931 370.083 323.149 367.808C357.368 365.533 405.415 351.843 408.551 330.746C411.686 309.65 398.364 302.809 375.643 302.518C352.922 302.236 320.038 314.366 318.471 312.373C316.903 310.381 313.676 301.904 313.676 301.904L225.587 303Z" fill="#2B2B2B"/>
<path d="M259.407 358.734C259.407 358.734 256.23 358.692 251.17 353.943C246.11 349.194 239.241 349.02 230.158 355.944C221.074 362.868 212.364 357.696 198.942 360.303C192.082 361.631 179.713 372.491 191.816 373.105C203.919 373.72 201.928 371.304 222.493 375.305C243.057 379.307 263.19 376.26 263.19 376.26L259.407 358.734Z" fill="#FFA5A3"/>
<path d="M410.143 335.055C415.021 319.015 402.918 302.817 387.472 303.838C383.781 304.079 379.517 304.918 374.614 306.603C348.6 315.528 287.877 347.202 256.745 353.578C256.745 353.578 250.805 369.826 262.701 379C262.701 379 380.595 361.424 399.708 348.721C405.548 344.836 408.65 339.962 410.143 335.055Z" fill="#3A3A3A"/>
<path d="M394.108 338.675C366.144 351.228 338.172 345.458 320.154 348.173C302.128 350.888 296.852 363.441 284.111 360.386C278.644 359.074 274.894 354.267 272.398 349.203C266.674 351.112 261.381 352.632 256.752 353.578C256.752 353.578 250.813 369.826 262.708 379C262.708 379 380.603 361.424 399.716 348.721C405.556 344.836 408.658 339.962 410.151 335.055C411.761 329.758 411.512 324.445 409.911 319.737C409.214 326.504 405.298 333.644 394.108 338.675Z" fill="#2A2A2A"/>
<path d="M280.013 342.528C280.013 342.528 283.182 342.237 287.911 337.089C292.639 331.95 299.475 331.22 309.006 337.397C318.537 343.574 326.866 337.72 340.429 339.24C347.364 340.02 360.429 349.859 348.401 351.436C336.373 353.022 338.198 350.448 317.957 356.085C297.716 361.723 277.434 360.303 277.434 360.303L280.013 342.528Z" fill="#FFA5A3"/>
<path opacity="0.5" d="M349.372 343.183C348.592 345.35 346.336 347.152 340.969 347.152C327.605 347.152 321.391 346.131 312.383 347.152C303.374 348.173 297.774 341.05 292.805 343.084C288.525 344.836 290.217 350.597 278.703 351.527L277.426 360.311C277.426 360.311 297.7 361.731 317.949 356.094C338.19 350.456 336.365 353.022 348.393 351.444C355.793 350.465 353.694 346.372 349.372 343.183Z" fill="#FFA5A3"/>
<path d="M126.98 340.253C120.543 324.885 129.527 307.192 146.433 306.553C150.124 306.412 154.446 306.686 159.49 307.782C186.234 313.594 249.736 337.928 281.308 340.593C281.308 340.593 288.815 356.044 277.907 366.571C277.907 366.571 158.967 362.985 138.701 352.607C132.513 349.435 128.954 344.952 126.98 340.253Z" fill="#3A3A3A"/>
<path d="M272.921 360.046C266.393 358.352 263.913 352.922 259.25 354.616C254.588 356.31 255.211 359.024 247.131 359.024C239.051 359.024 228.483 352.241 206.11 352.241C183.737 352.241 143.339 351.561 133.401 333.245C130.182 327.318 128.407 322.569 127.461 318.849C124.359 325.126 123.936 332.947 126.988 340.253C128.954 344.952 132.521 349.435 138.71 352.607C158.967 362.993 277.915 366.571 277.915 366.571C288.824 356.044 281.316 340.593 281.316 340.593C281.316 340.593 279.442 361.739 272.921 360.046Z" fill="#2A2A2A"/>
<path d="M238.635 166.666C238.635 166.666 245.604 165.545 252.572 162.174C259.54 158.804 256.927 141.684 256.927 141.684L277.84 140.845C277.84 140.845 276.761 156.911 281.473 160.771C286.434 164.831 297.641 166.608 297.641 166.608C297.641 166.608 301.656 165.836 298.752 181.552C295.849 197.269 278.711 215.517 253.443 202.325C228.183 189.124 238.635 166.666 238.635 166.666Z" fill="#FFA5A3"/>
<path opacity="0.5" d="M277.841 140.837L256.929 141.676C256.929 141.676 258.156 149.737 256.68 155.889C262.287 158.679 269.911 160.148 278.878 155.848C277.252 149.712 277.841 140.837 277.841 140.837Z" fill="#FFA5A3"/>
<path d="M146.731 292.373C146.731 292.373 141.248 296.159 139.78 296.159C138.311 296.159 129.518 294.473 124.093 295.469C118.668 296.466 115.54 297.055 113.923 297.072C113.284 297.08 113.019 298.873 116.411 299.571C119.804 300.268 124.209 299.172 125.254 300.991C125.835 301.995 119.506 304.253 117.025 304.253C115.74 304.253 115.93 299.455 114.155 299.023C112.405 298.591 112.803 299.604 112.803 300.268C112.803 302.037 112.927 305.839 114.62 307.334C116.312 308.828 121.505 306.769 121.505 306.769C121.505 306.769 118.004 308.471 113.483 309.168C108.962 309.866 104.673 310.165 106.258 311.568C107.842 312.971 114.512 312.406 120.153 310.97C120.153 310.97 113.649 312.921 110.281 313.311C107.867 313.585 108.415 316.01 113.79 315.42C118.427 314.914 122.517 313.56 122.517 313.56C122.517 313.56 115.175 315.561 115.175 316.757C115.175 317.952 122.633 316.856 128.846 314.756C135.06 312.655 142.633 307.624 145.57 306.121C148.506 304.619 157.515 300.542 157.515 300.542L146.731 292.373Z" fill="#FFA5A3"/>
<path opacity="0.5" d="M151.177 295.743C150.364 297.014 147.718 300.31 144.317 300.542C139.945 300.841 139.165 298.807 137.133 298.807C135.1 298.807 137.597 301.522 136.278 306.578C134.951 311.634 121.098 316.126 118.327 316.624C117.249 316.815 116.145 316.815 115.191 316.798C115.382 317.928 122.707 316.832 128.846 314.756C135.059 312.655 142.633 307.624 145.569 306.121C148.506 304.619 157.515 300.542 157.515 300.542L151.177 295.743Z" fill="#FFA5A3"/>
<path d="M383.407 292.373C383.407 292.373 388.89 296.159 390.359 296.159C391.827 296.159 400.62 294.473 406.045 295.469C411.471 296.466 414.598 297.055 416.215 297.072C416.854 297.08 417.12 298.873 413.727 299.571C410.334 300.268 405.929 299.172 404.884 300.991C404.303 301.995 410.633 304.253 413.113 304.253C414.399 304.253 414.208 299.455 415.983 299.023C417.734 298.591 417.335 299.604 417.335 300.268C417.335 302.037 417.211 305.839 415.519 307.334C413.826 308.828 408.633 306.769 408.633 306.769C408.633 306.769 412.134 308.471 416.655 309.168C421.176 309.866 425.465 310.165 423.88 311.568C422.296 312.971 415.627 312.406 409.986 310.97C409.986 310.97 416.489 312.921 419.857 313.311C422.271 313.585 421.724 316.01 416.348 315.42C411.711 314.914 407.621 313.56 407.621 313.56C407.621 313.56 414.963 315.561 414.963 316.757C414.963 317.952 407.505 316.856 401.292 314.756C395.079 312.655 387.505 307.624 384.568 306.121C381.632 304.619 372.623 300.542 372.623 300.542L383.407 292.373Z" fill="#FFA5A3"/>
<path opacity="0.5" d="M378.97 295.743C379.783 297.014 382.429 300.31 385.83 300.542C390.202 300.841 390.982 298.807 393.014 298.807C395.047 298.807 392.55 301.522 393.877 306.578C395.204 311.634 409.057 316.126 411.828 316.624C412.907 316.815 414.01 316.815 414.964 316.798C414.773 317.928 407.448 316.832 401.31 314.756C395.096 312.655 387.523 307.624 384.586 306.121C381.649 304.619 372.641 300.542 372.641 300.542L378.97 295.743Z" fill="#FFA5A3"/>
<path d="M152.372 307.093C152.372 307.093 200.56 282.609 211.394 264.684C219.075 251.973 222.758 236.34 223.654 221.636C223.654 230.835 232.265 241.114 227.827 250.13C226.807 252.197 225.338 253.999 223.969 255.859C213.069 270.728 207.669 291.244 214.919 308.845C215.79 310.962 216.329 312.29 218.395 313.286C219.05 313.602 219.714 313.909 220.386 314.191C222.509 315.105 224.683 315.902 226.881 316.607C234.38 319.032 242.178 320.51 250.001 321.365C259.192 322.369 268.474 322.494 277.707 321.971C280.121 321.838 282.535 321.672 284.941 321.473C293.767 320.742 302.71 319.696 311.262 317.263C329.695 312.008 329.537 293.676 324.311 277.37C321.69 269.201 317.791 261.529 314.323 256.282C313.286 254.713 312.249 253.144 311.212 251.575C310.723 250.836 310.25 250.072 309.736 249.35C308.74 247.938 308.682 246.311 308.724 244.559C308.79 241.77 308.782 238.764 309.346 236.024C309.52 235.194 309.91 234.546 310.258 233.791C311.519 231.084 311.785 227.78 312.415 224.891C312.697 223.62 313.353 221.985 313.311 220.673C313.32 220.806 314.406 253.957 322.27 264.327C333.652 279.33 378.198 305.557 378.198 305.557C378.198 305.557 379.202 296.325 390.027 293.427C390.027 293.427 347.754 261.015 343.366 243.123C336.381 214.629 333.071 182.117 325.423 175.757C317.782 169.397 297.641 166.591 297.641 166.591C297.641 166.591 289.669 200.224 268.839 200.067C245.297 199.892 238.636 166.666 238.636 166.666C238.636 166.666 218.013 169.472 210.133 181.544C205.686 188.343 200.303 228.17 188.913 253.243C182.459 267.449 142.666 292.049 142.666 292.049C142.666 292.049 149.095 296.458 152.372 307.093Z" fill="#DDEAD8"/>
<path opacity="0.5" d="M229.071 244.418C228.972 243.936 224.608 223.537 224.608 212.968C224.608 202.275 222.476 194.836 222.476 197.393C222.476 199.95 214.662 245.854 211.178 249.225C207.694 252.596 205.645 252.48 205.645 254.804C205.645 257.129 207.569 256.664 205.645 258.524C203.72 260.384 203.961 259.919 202.277 261.546C200.593 263.173 201.555 263.173 199.871 267.125C198.187 271.077 183.04 284.56 169.576 290.828C158.751 295.868 149.651 295.984 146.49 295.835C148.465 298.267 150.787 301.945 152.372 307.093C152.372 307.093 200.56 282.609 211.394 264.684C222.219 246.759 223.862 221.611 223.862 221.611C223.862 221.611 224.368 227.963 229.071 244.418Z" fill="#DDEAD8"/>
<path opacity="0.5" d="M313.303 220.673C313.303 220.673 314.382 253.933 322.263 264.327C333.644 279.33 378.19 305.557 378.19 305.557C378.19 305.557 378.63 301.663 381.898 298.135C378.588 298.342 373.802 297.163 367.232 292.364C352.085 281.289 329.48 266.187 331.164 261.305C332.847 256.423 334.83 254.099 331.072 254.099C327.314 254.099 326.112 255.726 326.112 248.519C326.112 241.313 316.729 227.838 316.729 216.68C316.729 205.521 318.173 190.187 316.729 191.581C315.286 192.976 310.234 211.798 306.866 221.097C303.498 230.395 288.351 236.904 278.728 234.812C269.105 232.72 260.453 237.369 249.868 235.974C239.292 234.58 239.532 240.391 255.883 242.716C272.233 245.041 287.38 245.041 293.394 253.177C299.409 261.313 315.518 294.971 296.762 306.495C278.006 318.019 227.985 319.505 223.182 307.956C222.128 305.432 221.448 303.033 221.009 300.8C218.702 307.79 216.902 312.523 216.902 312.523C216.902 312.523 236.919 324.295 277.691 321.979C318.455 319.663 322.843 311.468 322.843 311.468C322.843 311.468 330.375 295.743 324.287 277.37C320.139 264.842 306.908 247.15 308.368 241.579C311.57 229.44 313.303 220.673 313.303 220.673Z" fill="#DDEAD8"/>
<path d="M289.728 93.3805C286.144 78.2203 268.732 77.8882 267.139 77.8882C265.546 77.8882 248.134 78.212 244.551 93.3805C241.672 105.568 242.145 117.972 244.285 130.343C246.027 140.397 256.322 151.522 267.139 151.34C277.956 151.514 288.251 140.397 289.993 130.343C292.133 117.972 292.614 105.568 289.728 93.3805Z" fill="#FFA5A3"/>
<path d="M273.518 120.662C273.518 120.662 275.119 123.875 278.686 123.244C281.581 122.73 282.41 120.845 282.41 120.845C282.41 120.845 283.729 122.19 285.206 120.754C285.206 120.754 284.692 122.281 282.709 122.281C282.709 122.281 283.298 123.178 284.401 123.178C284.401 123.178 283.149 123.626 281.979 123.178C281.971 123.178 276.421 127.678 273.518 120.662Z" fill="#85254F"/>
<path d="M286.567 117.881C286.567 117.881 284.592 115.075 280.013 115.49C275.434 115.905 274.082 116.951 274.082 115.49C274.082 114.029 277.309 112.368 281.465 113.198C285.638 114.029 286.567 117.881 286.567 117.881Z" fill="#85254F"/>
<path d="M260.761 120.662C260.761 120.662 259.16 123.875 255.592 123.244C252.697 122.73 251.868 120.845 251.868 120.845C251.868 120.845 250.549 122.19 249.072 120.754C249.072 120.754 249.587 122.281 251.569 122.281C251.569 122.281 250.98 123.178 249.877 123.178C249.877 123.178 251.13 123.626 252.299 123.178C252.316 123.178 257.857 127.678 260.761 120.662Z" fill="#85254F"/>
<path d="M247.711 117.881C247.711 117.881 249.685 115.075 254.264 115.49C258.843 115.905 260.196 116.951 260.196 115.49C260.196 114.029 256.969 112.368 252.813 113.198C248.648 114.029 247.711 117.881 247.711 117.881Z" fill="#85254F"/>
<path d="M263.521 131.621C263.521 131.621 265.853 133.473 267.213 133.473C268.582 133.473 270.747 131.621 270.747 130.741C270.747 129.853 268.101 125.926 268.416 122.298C268.416 122.298 266.956 125.444 269.279 129.562C270.78 132.203 266.334 132.593 263.521 131.621Z" fill="#C8735C"/>
<path d="M260.254 137.018C260.254 137.018 266.716 139.882 273.651 137.018C273.651 137.018 267.28 141.501 260.254 137.018Z" fill="#B45741"/>
<path d="M264.186 140.862C264.186 140.862 267.064 142.705 269.719 140.862C269.719 140.862 267.188 145.37 264.186 140.862Z" fill="#C8735C"/>
<path d="M242.195 132.817C242.195 132.817 240.743 109.554 255.783 96.5354C255.783 96.5354 255.177 105.278 267.571 110.16C279.964 115.041 289.114 117.076 292.565 132.327C295.319 144.49 303.747 152.103 315.278 156.479C311.636 154.586 309.089 150.974 307.737 147.097C306.377 143.22 306.078 139.052 305.995 134.942C305.605 116.021 307.687 97.3988 290.333 84.8456C287.14 82.5375 283.614 80.7359 280.014 79.1418C274.149 76.5432 267.919 74.4261 261.507 74.3763C254.929 74.3181 245.356 76.7673 241.042 82.2386C238.238 85.7921 236.272 91.7615 234.903 96.0871C230.781 109.072 232.979 122.53 242.195 132.817Z" fill="#85254F"/>
<path d="M244.285 81.7322C244.285 81.7322 226.342 93.422 229.27 116.594C229.27 116.594 230.108 106.158 234.281 99.159C234.281 99.159 228.648 111.239 235.326 123.834C235.326 123.834 231.809 102.604 246.5 86.1076C246.5 86.1076 241.531 87.5439 237.209 95.5059C237.201 95.5059 238.86 89.661 244.285 81.7322Z" fill="#6C163C"/>
<path d="M261.035 81.9398C261.035 81.9398 257.526 100.105 275.676 107.113C293.826 114.12 296.688 125.187 302.379 139.201C308.07 153.216 314.772 169.015 345.2 173.839C345.2 173.839 315.336 164.325 309.737 141.07C309.737 141.07 317.037 153.216 338.779 156.902C338.779 156.902 311.877 150.518 305.614 127.894C299.351 105.27 276.721 105.17 269.098 98.8933C260.761 92.0023 261.035 81.9398 261.035 81.9398Z" fill="#6C163C"/>
</g>
<g clip-path="url(#clip1_471_43393)">
<path d="M229.789 243.223C229.689 242.729 225.315 221.828 225.315 210.999C225.315 200.042 223.177 192.42 223.177 195.04C223.177 197.66 215.343 244.694 211.851 248.148C208.358 251.602 206.304 251.483 206.304 253.865C206.304 256.247 208.233 255.77 206.304 257.676C204.374 259.581 204.615 259.105 202.927 260.772C201.239 262.44 202.204 262.44 200.515 266.489C198.827 270.538 183.642 284.353 170.144 290.776C159.291 295.94 150.169 296.059 147 295.906C148.979 298.398 151.308 302.167 152.896 307.441C152.896 307.441 201.206 282.354 212.067 263.988C222.92 245.622 224.566 219.854 224.566 219.854C224.566 219.854 225.082 226.371 229.789 243.223Z" fill="white"/>
<path d="M313.241 218.893C313.241 218.893 314.323 252.972 322.223 263.622C333.633 278.994 378.292 305.867 378.292 305.867C378.292 305.867 378.732 301.877 382.009 298.262C378.691 298.475 373.892 297.267 367.306 292.35C352.12 281.002 329.458 265.528 331.146 260.526C332.835 255.524 334.822 253.142 331.055 253.142C327.288 253.142 326.082 254.809 326.082 247.425C326.082 240.041 316.676 226.235 316.676 214.801C316.676 203.368 318.123 187.656 316.676 189.085C315.229 190.514 310.164 209.799 306.788 219.327C303.412 228.855 288.226 235.524 278.579 233.38C268.932 231.237 260.258 236 249.647 234.571C239.043 233.142 239.285 239.097 255.676 241.479C272.067 243.861 287.253 243.861 293.282 252.197C299.312 260.534 315.462 295.021 296.659 306.828C277.856 318.636 227.708 320.159 222.893 308.326C221.837 305.74 221.155 303.281 220.714 300.993C218.402 308.156 216.598 313.004 216.598 313.004C216.598 313.004 236.665 325.067 277.54 322.694C318.406 320.32 322.805 311.924 322.805 311.924C322.805 311.924 330.356 295.812 324.252 276.986C320.094 264.15 306.83 246.021 308.293 240.313C311.495 227.876 313.241 218.893 313.241 218.893Z" fill="white"/>
</g>
</g>
<defs>
<clipPath id="clip0_471_43393">
<rect width="341" height="311" fill="white" transform="translate(95 68)"/>
</clipPath>
<clipPath id="clip1_471_43393">
<rect width="236" height="134" fill="white" transform="translate(146 188)"/>
</clipPath>
</defs>
</svg>
