<svg width="25" height="25" viewBox="0 0 25 25" fill="none" xmlns="http://www.w3.org/2000/svg">
<path d="M25.0972 7.05828C25.097 7.05742 25.0968 7.05657 25.0966 7.05576C25.094 7.0076 25.0846 6.96003 25.0687 6.91444C25.0669 6.9031 25.0632 6.88848 25.055 6.87364C25.0302 6.81956 24.9961 6.77005 24.9543 6.72742L24.9544 6.72726L24.9492 6.72266C24.936 6.7109 24.9221 6.69975 24.9078 6.6893C24.8862 6.66932 24.8628 6.65125 24.8381 6.63523L24.8382 6.63502L24.8321 6.63162L12.7498 -0.0344457C12.7498 -0.0344536 12.7498 -0.0344615 12.7498 -0.0344694C12.5944 -0.120816 12.4056 -0.120816 12.2502 -0.0344688C12.2502 -0.0344611 12.2502 -0.0344534 12.2502 -0.0344457L0.167928 6.63162L0.167808 6.6314L0.161893 6.63523C0.13715 6.65125 0.113835 6.66932 0.0921646 6.6893C0.077877 6.69975 0.064034 6.71089 0.0507569 6.72266L0.0505978 6.72248L0.0457399 6.72742C0.00240607 6.77153 -0.0325157 6.82301 -0.0575946 6.8793L-0.0662522 6.89873V6.9077C-0.0836934 6.95533 -0.0938754 7.00522 -0.0965991 7.05576C-0.0967979 7.05657 -0.0969958 7.05742 -0.0971869 7.05828C-0.098575 7.06456 -0.1 7.07329 -0.1 7.08374V8.75029C-0.1 9.03561 0.131321 9.26693 0.416639 9.26693H1.56822V21.5661H0.418305C0.132988 21.5661 -0.0983334 21.7974 -0.0983334 22.0827V24.5826C-0.0983334 24.8679 0.132988 25.0992 0.418305 25.0992H24.5834C24.8687 25.0992 25.1 24.8679 25.1 24.5826V22.0827C25.1 21.7974 24.8687 21.5661 24.5834 21.5661H23.4334V9.26693H24.5834C24.8687 9.26693 25.1 9.03561 25.1 8.75029V7.08374C25.1 7.07329 25.0986 7.06456 25.0972 7.05828ZM2.42436 6.5671L12.5008 1.00753L22.5773 6.5671H2.42436ZM24.0667 22.5994V24.0659H0.934944V22.5994H24.0667ZM2.6015 21.5661V9.26693H4.06806V21.5661H2.6015ZM5.10133 21.5661V9.26693H19.9003V21.5661H5.10133ZM20.9336 21.5661V9.26693H22.4002V21.5661H20.9336ZM0.934944 8.23365V7.60037H24.0667V8.23365H0.934944Z" fill="black" stroke="black" stroke-width="0.2"/>
</svg>
