<svg width="28" height="28" viewBox="0 0 28 28" fill="none" xmlns="http://www.w3.org/2000/svg">
<rect x="0.5" y="0.5" width="27" height="27" rx="3.5" fill="white" stroke="#E6E5EB"/>
<path d="M21.8574 19C21.8574 19.3789 21.7068 19.7423 21.4389 20.0102C21.171 20.2781 20.8077 20.4286 20.4288 20.4286H7.57164C7.19276 20.4286 6.82939 20.2781 6.56149 20.0102C6.29358 19.7423 6.14307 19.3789 6.14307 19V11.1429C6.14307 10.764 6.29358 10.4006 6.56149 10.1327C6.82939 9.86481 7.19276 9.7143 7.57164 9.7143H10.4288L11.8574 7.57144H16.1431L17.5716 9.7143H20.4288C20.8077 9.7143 21.171 9.86481 21.4389 10.1327C21.7068 10.4006 21.8574 10.764 21.8574 11.1429V19Z" stroke="#7B798E" stroke-width="2" stroke-linecap="round" stroke-linejoin="round"/>
<path d="M14.0002 17.5714C15.5782 17.5714 16.8574 16.2923 16.8574 14.7143C16.8574 13.1363 15.5782 11.8572 14.0002 11.8572C12.4223 11.8572 11.1431 13.1363 11.1431 14.7143C11.1431 16.2923 12.4223 17.5714 14.0002 17.5714Z" stroke="#7B798E" stroke-width="2" stroke-linecap="round" stroke-linejoin="round"/>
</svg>
