<svg width="32" height="32" viewBox="0 0 32 32" fill="none" xmlns="http://www.w3.org/2000/svg">
<g filter="url(#filter0_d)">
<path d="M27 21C27 21.5304 26.7893 22.0391 26.4142 22.4142C26.0391 22.7893 25.5304 23 25 23H7C6.46957 23 5.96086 22.7893 5.58579 22.4142C5.21071 22.0391 5 21.5304 5 21V10C5 9.46957 5.21071 8.96086 5.58579 8.58579C5.96086 8.21071 6.46957 8 7 8H11L13 5H19L21 8H25C25.5304 8 26.0391 8.21071 26.4142 8.58579C26.7893 8.96086 27 9.46957 27 10V21Z" stroke="white" stroke-width="2" stroke-linecap="round" stroke-linejoin="round"/>
<path d="M16 19C18.2091 19 20 17.2091 20 15C20 12.7909 18.2091 11 16 11C13.7909 11 12 12.7909 12 15C12 17.2091 13.7909 19 16 19Z" stroke="white" stroke-width="2" stroke-linecap="round" stroke-linejoin="round"/>
</g>
<defs>
<filter id="filter0_d" x="-2" y="0" width="36" height="36" filterUnits="userSpaceOnUse" color-interpolation-filters="sRGB">
<feFlood flood-opacity="0" result="BackgroundImageFix"/>
<feColorMatrix in="SourceAlpha" type="matrix" values="0 0 0 0 0 0 0 0 0 0 0 0 0 0 0 0 0 0 127 0"/>
<feOffset dy="4"/>
<feGaussianBlur stdDeviation="2"/>
<feColorMatrix type="matrix" values="0 0 0 0 0 0 0 0 0 0 0 0 0 0 0 0 0 0 0.25 0"/>
<feBlend mode="normal" in2="BackgroundImageFix" result="effect1_dropShadow"/>
<feBlend mode="normal" in="SourceGraphic" in2="effect1_dropShadow" result="shape"/>
</filter>
</defs>
</svg>
