<svg width="28" height="29" viewBox="0 0 28 29" fill="none" xmlns="http://www.w3.org/2000/svg">
<path d="M26.8983 10.878C26.9026 10.9578 26.897 11.039 26.8776 11.1196L25.1505 18.2748C25.0634 18.6352 24.7515 18.8887 24.3929 18.8906L14.0303 18.9449C14.0289 18.9449 14.0276 18.9449 14.0263 18.9449H3.66355C3.30306 18.9449 2.98893 18.6905 2.90185 18.3282L1.17474 11.146C1.15486 11.0631 1.1491 10.9797 1.15412 10.8978C0.485996 10.6798 0 10.0323 0 9.26915C0 8.3276 0.739514 7.56167 1.6486 7.56167C2.55768 7.56167 3.2972 8.3276 3.2972 9.26915C3.2972 9.79939 3.06262 10.2738 2.69533 10.5872L4.85766 12.8437C5.40416 13.414 6.16251 13.741 6.93835 13.741C7.8557 13.741 8.73035 13.2898 9.28114 12.5338L12.8348 7.65707C12.5363 7.3481 12.3514 6.92118 12.3514 6.45046C12.3514 5.50891 13.0909 4.74298 14 4.74298C14.9091 4.74298 15.6486 5.50891 15.6486 6.45046C15.6486 6.90709 15.4736 7.32154 15.1907 7.62824C15.1916 7.62954 15.1927 7.63062 15.1937 7.63203L18.7216 12.5222C19.2722 13.2855 20.15 13.7411 21.0699 13.7411C21.8529 13.7411 22.5891 13.4253 23.1428 12.8518L25.3187 10.5982C24.9437 10.2849 24.7028 9.80589 24.7028 9.26915C24.7028 8.3276 25.4423 7.56167 26.3514 7.56167C27.2605 7.56167 28 8.3276 28 9.26915C28 10.0119 27.5389 10.6436 26.8983 10.878ZM24.982 21.4925C24.982 21.0435 24.6305 20.6794 24.1969 20.6794H3.89038C3.45682 20.6794 3.10533 21.0435 3.10533 21.4925V23.4439C3.10533 23.893 3.45682 24.257 3.89038 24.257H24.1969C24.6305 24.257 24.982 23.893 24.982 23.4439V21.4925Z" fill="#1F1E2C"/>
</svg>
