<svg width="24" height="24" viewBox="0 0 24 24" fill="none" xmlns="http://www.w3.org/2000/svg">
<path d="M10.9999 16.2857C10.9999 16.838 11.4476 17.2857 11.9999 17.2857C12.5522 17.2857 12.9999 16.838 12.9999 16.2857H10.9999ZM12.9999 12C12.9999 11.4477 12.5522 11 11.9999 11C11.4476 11 10.9999 11.4477 10.9999 12H12.9999ZM21.7142 12C21.7142 17.365 17.365 21.7143 11.9999 21.7143V23.7143C18.4696 23.7143 23.7142 18.4696 23.7142 12H21.7142ZM11.9999 21.7143C6.63488 21.7143 2.28564 17.365 2.28564 12H0.285645C0.285645 18.4696 5.53031 23.7143 11.9999 23.7143V21.7143ZM2.28564 12C2.28564 6.63494 6.63488 2.2857 11.9999 2.2857V0.285702C5.53031 0.285702 0.285645 5.53037 0.285645 12H2.28564ZM11.9999 2.2857C17.365 2.2857 21.7142 6.63494 21.7142 12H23.7142C23.7142 5.53037 18.4696 0.285702 11.9999 0.285702V2.2857ZM12.9999 16.2857V12H10.9999V16.2857H12.9999ZM12.0714 7.71427C12.0714 7.75372 12.0394 7.7857 11.9999 7.7857V9.7857C13.1439 9.7857 14.0714 8.85829 14.0714 7.71427H12.0714ZM11.9999 7.7857C11.9605 7.7857 11.9285 7.75372 11.9285 7.71427H9.9285C9.9285 8.85829 10.8559 9.7857 11.9999 9.7857V7.7857ZM11.9285 7.71427C11.9285 7.67482 11.9605 7.64284 11.9999 7.64284V5.64284C10.8559 5.64284 9.9285 6.57025 9.9285 7.71427H11.9285ZM11.9999 7.64284C12.0394 7.64284 12.0714 7.67482 12.0714 7.71427H14.0714C14.0714 6.57025 13.1439 5.64284 11.9999 5.64284V7.64284Z" fill="#BDBDBD"/>
</svg>
