<svg width="26" height="25" viewBox="0 0 26 25" fill="none" xmlns="http://www.w3.org/2000/svg">
<path d="M1.14307 1.21428H5.42878L8.30021 15.5607C8.39818 16.054 8.66654 16.4971 9.05829 16.8125C9.45005 17.1278 9.94024 17.2953 10.4431 17.2857H20.8573C21.3602 17.2953 21.8504 17.1278 22.2421 16.8125C22.6339 16.4971 22.9022 16.054 23.0002 15.5607L24.7145 6.57143H6.50021M10.7859 22.6429C10.7859 23.2346 10.3062 23.7143 9.71449 23.7143C9.12276 23.7143 8.64307 23.2346 8.64307 22.6429C8.64307 22.0511 9.12276 21.5714 9.71449 21.5714C10.3062 21.5714 10.7859 22.0511 10.7859 22.6429ZM22.5716 22.6429C22.5716 23.2346 22.0919 23.7143 21.5002 23.7143C20.9085 23.7143 20.4288 23.2346 20.4288 22.6429C20.4288 22.0511 20.9085 21.5714 21.5002 21.5714C22.0919 21.5714 22.5716 22.0511 22.5716 22.6429Z" stroke="#1F1E2C" stroke-width="2" stroke-linecap="round" stroke-linejoin="round"/>
</svg>
