<svg width="28" height="28" viewBox="0 0 28 28" fill="none" xmlns="http://www.w3.org/2000/svg">
<path d="M22.4578 6.59134C21.9691 6.08684 21.3889 5.68664 20.7503 5.41359C20.1117 5.14054 19.4272 5.00001 18.7359 5.00001C18.0446 5.00001 17.3601 5.14054 16.7215 5.41359C16.0829 5.68664 15.5026 6.08684 15.0139 6.59134L13.9997 7.63786L12.9855 6.59134C11.9984 5.57276 10.6596 5.00054 9.26361 5.00054C7.86761 5.00054 6.52879 5.57276 5.54168 6.59134C4.55456 7.60991 4 8.99139 4 10.4319C4 11.8724 4.55456 13.2538 5.54168 14.2724L6.55588 15.3189L13.9997 23L21.4436 15.3189L22.4578 14.2724C22.9467 13.7682 23.3346 13.1694 23.5992 12.5105C23.8638 11.8515 24 11.1452 24 10.4319C24 9.71857 23.8638 9.01226 23.5992 8.35329C23.3346 7.69432 22.9467 7.0956 22.4578 6.59134V6.59134Z" stroke="#1F1E2C" stroke-linecap="round" stroke-linejoin="round"/>
</svg>
