<svg width="96" height="30" viewBox="0 0 96 30" fill="none" xmlns="http://www.w3.org/2000/svg">
<path d="M6.29473 3.48421H4.32806V0.979958H1.42908V3.48421H0V5.66182H1.42908V11.106C1.41546 13.1542 2.81051 14.1683 4.91329 14.0797C5.66185 14.0525 6.19266 13.9029 6.48528 13.8076L6.02933 11.6503C5.88643 11.6775 5.58019 11.7457 5.30799 11.7457C4.72956 11.7457 4.32806 11.5279 4.32806 10.7248V5.66182H6.29473V3.48421ZM15.3806 14.1411C18.5519 14.1411 20.5253 11.9702 20.5253 8.75141C20.5253 5.51215 18.5519 3.34815 15.3806 3.34815C12.2095 3.34815 10.236 5.51215 10.236 8.75141C10.236 11.9702 12.2095 14.1411 15.3806 14.1411ZM15.3942 11.8953C13.9311 11.8953 13.1826 10.5548 13.1826 8.731C13.1826 6.90723 13.9311 5.55977 15.3942 5.55977C16.8301 5.55977 17.5787 6.90723 17.5787 8.731C17.5787 10.5548 16.8301 11.8953 15.3942 11.8953ZM24.9974 13.9369H27.8963V10.616L28.6789 9.72451L31.5302 13.9369H34.9261L30.8498 8.0096L34.7287 3.48421H31.401L28.0529 7.45157H27.8963V0H24.9974V13.9369ZM45.441 9.48631C45.4478 10.8882 44.4883 11.6231 43.4472 11.6231C42.3515 11.6231 41.6438 10.8542 41.637 9.62247V3.48421H38.738V10.1396C38.7448 12.5826 40.1739 14.0729 42.2767 14.0729C43.8486 14.0729 44.9783 13.2632 45.4478 12.0383H45.5567V13.9369H48.34V3.48421H45.441V9.48631ZM58.8056 3.48421H56.839V0.979958H53.94V3.48421H52.5109V5.66182H53.94V11.106C53.9264 13.1542 55.3215 14.1683 57.4242 14.0797C58.1727 14.0525 58.7036 13.9029 58.9962 13.8076L58.5403 11.6503C58.3973 11.6775 58.0911 11.7457 57.8189 11.7457C57.2405 11.7457 56.839 11.5279 56.839 10.7248V5.66182H58.8056V3.48421ZM67.9324 14.1411C70.5184 14.1411 72.2605 12.882 72.6688 10.9426L69.9875 10.7656C69.6949 11.5619 68.9464 11.977 67.98 11.977C66.5306 11.977 65.6119 11.0175 65.6119 9.4591V9.4523H72.73V8.65607C72.73 5.10378 70.5796 3.34815 67.8167 3.34815C64.7408 3.34815 62.7469 5.53256 62.7469 8.75821C62.7469 12.0723 64.7136 14.1411 67.9324 14.1411ZM65.6119 7.65575C65.6731 6.46485 66.5782 5.51215 67.8643 5.51215C69.1233 5.51215 69.9943 6.41043 70.0011 7.65575H65.6119ZM80.1078 7.89395C80.1146 6.54649 80.9177 5.75715 82.0881 5.75715C83.2518 5.75715 83.9527 6.51927 83.9459 7.79871V13.9369H86.8449V7.28149C86.8449 4.84527 85.4158 3.34815 83.2382 3.34815C81.6867 3.34815 80.5638 4.11027 80.0942 5.32838H79.9718V3.48421H77.2089V13.9369H80.1078V7.89395ZM93.4112 14.1138C94.2823 14.1138 95.0377 13.3856 95.0445 12.4806C95.0377 11.5891 94.2823 10.861 93.4112 10.861C92.5129 10.861 91.7712 11.5891 91.778 12.4806C91.7712 13.3856 92.5129 14.1138 93.4112 14.1138Z" fill="#050038"/>
<path d="M1.49682 20.611L0.265883 21.1557C0.709022 22.288 1.1817 23.4309 1.63469 24.3388C0.689326 25.0972 0 25.9838 0 27.1587C0 28.9959 1.48697 29.5834 3.44663 29.5834C4.72681 29.5834 5.77064 29.4766 6.60768 29.3164L6.62738 27.7782C5.75095 28.0132 4.42153 28.1735 3.40724 28.1735C2.03844 28.1735 1.35896 27.7676 1.35896 26.9985C1.35896 26.2508 1.91042 25.6419 2.72776 25.0545C3.62389 24.4243 4.86467 23.8047 5.47522 23.4736C5.83958 23.2707 6.1547 23.0891 6.45012 22.8968L5.77064 21.6578C5.51461 21.8927 5.22903 22.0743 4.85483 22.3093C4.39199 22.5977 3.53526 23.057 2.72776 23.5697C2.33386 22.7473 1.87103 21.7218 1.49682 20.611ZM16.354 21.4228L15.2019 20.3226C15.0443 20.5789 14.7292 20.9207 14.4436 21.2305C13.7838 21.9248 12.4347 23.1104 11.6568 23.7941C10.672 24.6913 10.5932 25.2574 11.578 26.1653C12.4741 26.9985 13.9217 28.3337 14.5224 29.0066C14.8178 29.3271 15.1034 29.6689 15.3791 30L16.5313 28.8571C15.5268 27.7996 13.6558 26.1974 12.9172 25.5245C12.3855 25.0224 12.3756 24.9049 12.8976 24.4136C13.5573 23.8047 14.8572 22.7152 15.4973 22.1598C15.7238 21.9568 16.0488 21.6791 16.354 21.4228ZM20.7039 21.7753L20.832 23.2386C21.9743 22.9716 23.9832 22.7366 24.9088 22.6298C24.249 23.1745 23.4514 24.3922 23.4514 25.9303C23.4514 28.2375 25.4012 29.4446 27.4593 29.5941L27.9222 28.1307C26.2579 28.0346 24.7414 27.3937 24.7414 25.6419C24.7414 24.3709 25.6277 22.9823 26.8192 22.6405C27.3412 22.5123 28.1881 22.5123 28.7198 22.5016L28.71 21.1344C28.0206 21.1557 26.9374 21.2305 25.9231 21.3159C24.121 21.4869 22.4962 21.6471 21.6788 21.7218C21.4819 21.7432 21.0978 21.7646 20.7039 21.7753ZM36.8637 21.1878L35.4654 20.5789C35.298 21.0275 35.1109 21.38 34.9828 21.6684C34.4609 22.6832 32.4422 27.0412 31.7135 29.1775L33.102 29.6902C33.2497 29.1241 33.5943 27.9278 33.8504 27.3083C34.2049 26.4431 34.7563 25.6954 35.426 25.6954C35.7805 25.6954 35.9774 25.9197 36.007 26.2935C36.0365 26.7315 36.0267 27.6073 36.0661 28.1735C36.1055 28.9532 36.6175 29.6582 37.7106 29.6582C39.2173 29.6582 40.1331 28.4405 40.6452 26.614L39.5816 25.674C39.2961 26.9985 38.7741 28.1948 37.9174 28.1948C37.5924 28.1948 37.3167 28.0346 37.2773 27.618C37.2281 27.1694 37.2576 26.3149 37.2379 25.8342C37.1985 24.9477 36.7554 24.4456 36.0168 24.4456C35.6426 24.4456 35.2487 24.5418 34.8844 24.7661C35.3767 23.8261 36.0661 22.4589 36.5486 21.6898C36.6569 21.5189 36.7652 21.3373 36.8637 21.1878Z" fill="#050038"/>
</svg>
