<svg width="57" height="57" viewBox="0 0 57 57" fill="none" xmlns="http://www.w3.org/2000/svg">
<g filter="url(#filter0_d)">
<g opacity="0.887">
<g opacity="0.887">
<mask id="mask0" mask-type="alpha" maskUnits="userSpaceOnUse" x="10" y="10" width="37" height="37">
<g opacity="0.887">
<path opacity="0.887" d="M10.2391 10.8553H46.307V46.4387H10.2391V10.8553Z" fill="white"/>
</g>
</mask>
<g mask="url(#mask0)">
<path fill-rule="evenodd" clip-rule="evenodd" d="M45.3519 46.4387C45.8776 46.4387 46.3077 46.0147 46.3077 45.4961V28.639C46.3077 18.8204 38.2307 10.8553 28.2737 10.8553C18.3168 10.8553 10.2399 18.8204 10.2399 28.6392C10.2239 38.4424 18.2371 46.376 28.1463 46.4387H45.3518H45.3519Z" fill="white"/>
</g>
</g>
<path fill-rule="evenodd" clip-rule="evenodd" d="M44.0099 45.0532C44.4878 45.0532 44.8861 44.6604 44.8861 44.1891V28.5419C44.8861 19.4143 37.3824 12.0305 28.1426 12.0305C18.9026 12.0148 11.399 19.4143 11.399 28.5261C11.399 37.6066 18.8388 44.9903 28.047 45.0375C28.047 45.0375 33.3679 45.0375 44.0099 45.0532Z" fill="#DB0011"/>
<path fill-rule="evenodd" clip-rule="evenodd" d="M43.4522 43.8434C43.5797 43.8434 43.6751 43.7492 43.6751 43.6237V39.7117C43.6751 37.4337 41.7954 35.5799 39.4854 35.5799C37.1754 35.5799 35.2955 37.4337 35.2955 39.7117C35.2955 41.9896 37.1595 43.8277 39.4534 43.8434H43.4522Z" fill="white"/>
<path opacity="0.887" d="M38.0485 39.8595V39.2854H37.4588V39.8595H37.163V38.5162H37.4588V39.0662H38.0485V38.5162H38.3443V39.8595H38.0485ZM38.8379 39.4434C38.8361 39.5846 38.8964 39.7183 39.0565 39.7183C39.1677 39.7183 39.2318 39.6645 39.2468 39.5548H39.5144C39.4805 39.7983 39.2751 39.88 39.0527 39.88C38.7456 39.88 38.5704 39.7091 38.5704 39.4062C38.5704 39.0941 38.7362 38.8971 39.0622 38.8971C39.2468 38.8971 39.4089 38.9714 39.4823 39.1461C39.5219 39.2371 39.5238 39.3318 39.5238 39.4434H38.8379ZM39.2582 39.2873C39.2582 39.1461 39.1922 39.0569 39.0603 39.0569C38.9247 39.0569 38.8436 39.1535 38.8436 39.2873H39.2582ZM40.3321 39.1554C40.3046 39.1518 40.2769 39.1499 40.2492 39.1498C40.0722 39.1498 40.0024 39.2501 40.0024 39.4174V39.8595H39.7273V39.1517C39.7273 39.0773 39.7197 39.0011 39.7197 38.9231H39.9854L39.9929 39.0959C40.0552 38.9733 40.1493 38.9175 40.2869 38.9175C40.3019 38.9175 40.3152 38.9175 40.3321 38.9194V39.1554ZM40.6317 39.4434C40.6298 39.5846 40.6901 39.7183 40.8503 39.7183C40.9615 39.7183 41.0255 39.6645 41.0406 39.5548H41.3081C41.2741 39.7983 41.0688 39.88 40.8465 39.88C40.5394 39.88 40.3641 39.7091 40.3641 39.4062C40.3641 39.0941 40.5299 38.8971 40.8559 38.8971C41.0406 38.8971 41.2026 38.9714 41.2761 39.1461C41.3157 39.2371 41.3175 39.3318 41.3175 39.4434H40.6317ZM41.0518 39.2873C41.0518 39.1461 40.9859 39.0569 40.854 39.0569C40.7183 39.0569 40.6373 39.1535 40.6373 39.2873H41.0518ZM41.5475 39.8595V39.6217H41.8169V39.8595H41.5474H41.5475Z" fill="#DB0011"/>
<path opacity="0.887" fill-rule="evenodd" clip-rule="evenodd" d="M28.2179 25.1637H26.9434V23.9069C26.9434 23.2157 27.517 22.6501 28.2179 22.6501C28.9187 22.6501 29.4924 23.2157 29.4924 23.9069C29.4924 24.5982 28.9348 25.1637 28.2179 25.1637ZM28.2179 22.4145C27.3736 22.4145 26.7045 23.0743 26.7045 23.9069V25.2737C26.7045 25.3366 26.7523 25.3994 26.8319 25.3994H28.2179C29.0623 25.3994 29.7314 24.7396 29.7314 23.9069C29.7314 23.0743 29.0623 22.4145 28.2179 22.4145Z" fill="white"/>
<path opacity="0.887" fill-rule="evenodd" clip-rule="evenodd" d="M28.1541 26.2949C27.5806 26.2949 26.1308 26.2949 25.6529 26.3106C25.6529 25.855 25.637 24.5196 25.637 23.9069C25.637 22.5873 26.7681 21.519 28.1541 21.519C29.5401 21.519 30.6712 22.5873 30.6712 23.9069C30.6712 25.2266 29.5401 26.2949 28.1541 26.2949ZM28.1541 21.2048C26.5928 21.2048 25.3184 22.4145 25.3184 23.9069C25.3184 24.6453 25.3343 26.452 25.3343 26.4677C25.3343 26.5462 25.4139 26.6248 25.4936 26.6248C25.5095 26.6248 27.469 26.6091 28.1541 26.6091C29.7153 26.6091 30.9898 25.3994 30.9898 23.9069C30.9898 22.4145 29.7153 21.2048 28.1541 21.2048Z" fill="white"/>
<path opacity="0.887" fill-rule="evenodd" clip-rule="evenodd" d="M28.1541 27.536C27.2779 27.536 25.0317 27.5517 24.4104 27.5517C24.4104 26.9547 24.3944 24.8495 24.3944 23.9226C24.3944 21.9275 26.0831 20.3093 28.1541 20.3093C30.2252 20.3093 31.914 21.9275 31.914 23.9226C31.914 25.9021 30.2252 27.536 28.1541 27.536ZM28.1541 19.9794C25.9079 19.9794 24.0758 21.7389 24.0758 23.9069C24.0758 24.7396 24.0917 26.5462 24.0917 27.316V30.9293C24.0917 31.0236 24.1714 31.0864 24.251 31.0864C24.3466 31.0864 24.4104 31.0236 24.4104 30.9293V27.8502C25.0157 27.8502 27.2779 27.8345 28.1541 27.8345C30.4006 27.8345 32.2327 26.0749 32.2327 23.9069C32.2327 21.7389 30.4006 19.9794 28.1541 19.9794Z" fill="white"/>
<path opacity="0.887" fill-rule="evenodd" clip-rule="evenodd" d="M28.1861 28.62H25.5256L25.4937 28.6357C25.43 28.6514 25.3822 28.7142 25.3822 28.7771C25.3822 28.8556 25.3504 30.6623 25.3504 30.9608C25.3504 30.9765 25.3026 31.9819 24.2193 31.9819C23.2156 31.9819 23.1837 30.9136 23.1837 30.9136V28.7928C23.1837 28.7614 23.1678 25.2266 23.1678 23.797C23.1678 21.142 25.43 18.974 28.202 18.974C30.974 18.974 33.2362 21.142 33.2362 23.797C33.2362 26.4677 30.974 28.62 28.1861 28.62ZM28.1861 18.6598C25.2388 18.6598 22.8333 20.9691 22.8333 23.797C22.8333 25.2266 22.8492 28.7614 22.8492 28.7928V30.9136C22.8492 31.275 23.1041 32.2961 24.2193 32.2961C25.4141 32.2961 25.6849 31.3064 25.6849 30.9608C25.6849 30.7094 25.7008 29.3741 25.7008 28.9342H28.1861C31.1333 28.9342 33.539 26.6248 33.539 23.797C33.5549 20.9691 31.1493 18.6598 28.1862 18.6598H28.1861ZM25.9717 35.7681C25.9557 35.6895 25.9398 35.5951 25.9398 35.5165C25.7964 35.7208 25.5893 35.7993 25.3344 35.7993C24.9999 35.7993 24.6972 35.6422 24.6972 35.2809C24.6972 34.7626 25.2866 34.6996 25.7327 34.6996H25.9079V34.5898C25.9079 34.3227 25.8124 34.1656 25.5097 34.1656C25.2866 34.1656 25.1592 34.2442 25.1433 34.4798H24.8246C24.8406 34.1026 25.1592 33.9771 25.4937 33.9771C25.9557 33.9771 26.1788 34.1498 26.1788 34.6055V35.2495C26.1788 35.4851 26.2106 35.6895 26.2425 35.7681H25.9717ZM25.7486 34.8881C25.4778 34.8881 25.0158 34.9197 25.0158 35.2809C25.0158 35.501 25.207 35.611 25.4141 35.611C25.8601 35.611 25.9079 35.2495 25.9079 34.904C25.8283 34.8881 25.7964 34.8881 25.7486 34.8881ZM27.2622 36.4278H26.9435L27.2462 35.7681L26.4815 34.0242H26.832L27.4055 35.4539L27.9631 34.0242H28.2818L27.2622 36.4278ZM31.0856 35.7681V33.5058L30.1775 35.7681H29.8747L28.9668 33.5058V35.7681H28.6641V33.2545H29.2058L30.0501 35.391L30.8785 33.2545H31.4042V35.7681H31.0856ZM24.1077 34.6369C23.9803 34.6841 23.805 34.6996 23.6457 34.6996H23.1678V35.7681H22.8333V33.2545H23.6298C23.8528 33.2545 24.0759 33.2545 24.267 33.3801C24.4741 33.5058 24.5697 33.7415 24.5697 33.9771C24.5857 34.2913 24.4104 34.527 24.1077 34.6369ZM23.6139 33.5058H23.1678V34.4484H23.5183C23.8847 34.4484 24.2193 34.3854 24.2193 33.9614C24.2352 33.5844 23.9484 33.5058 23.6139 33.5058ZM32.2327 34.9511V34.9826C32.2327 35.3125 32.4079 35.5953 32.7741 35.5953C33.0292 35.5953 33.2044 35.4382 33.2363 35.2025H33.5388C33.4753 35.611 33.1567 35.7993 32.7584 35.7993C32.2008 35.7993 31.93 35.4382 31.93 34.9197C31.93 34.4013 32.2008 33.9771 32.7902 33.9771C33.3956 33.9771 33.5549 34.4327 33.5549 34.9353H32.2327V34.9511ZM32.7584 34.1971C32.4237 34.1971 32.2643 34.464 32.2327 34.7469H33.2363C33.2363 34.464 33.0928 34.1971 32.7584 34.1971ZM27.3895 37.2919H27.6126V37.3391H27.4692V37.449H27.6126V37.5118H27.4692V37.6689H27.3895V37.2919ZM27.6763 37.4804V37.3861H27.7241V37.4333C27.74 37.4018 27.7719 37.3704 27.7878 37.3704H27.8037V37.4333H27.7878C27.7559 37.4333 27.74 37.449 27.7241 37.4804V37.6375H27.6604V37.4804H27.6763ZM28.1384 37.5275C28.1384 37.6219 28.0587 37.6689 27.995 37.6689C27.9153 37.6689 27.8516 37.6219 27.8516 37.5275C27.8516 37.4333 27.9153 37.3862 27.995 37.3862C28.0747 37.3862 28.1384 37.449 28.1384 37.5275ZM27.9153 37.5275C27.9153 37.5747 27.9472 37.6219 27.9791 37.6219C28.0269 37.6219 28.0428 37.5904 28.0428 37.5275C28.0428 37.4804 28.0269 37.4333 27.9791 37.4333C27.9472 37.4333 27.9153 37.4804 27.9153 37.5275ZM28.1861 37.4804V37.4018H28.2498V37.449C28.2657 37.4333 28.2817 37.4018 28.3295 37.4018C28.3613 37.4018 28.3932 37.4177 28.4091 37.449C28.425 37.4333 28.425 37.4177 28.441 37.4177C28.4569 37.4018 28.4728 37.4018 28.5047 37.4018C28.5525 37.4018 28.6003 37.4333 28.6003 37.5275V37.6846H28.5366V37.5275C28.5366 37.4804 28.5206 37.449 28.4888 37.449C28.4569 37.449 28.441 37.4647 28.441 37.4804V37.6534H28.3773V37.4963C28.3773 37.4647 28.3613 37.4333 28.3295 37.4333C28.2976 37.4333 28.2817 37.449 28.2817 37.4647V37.6375H28.2179V37.4804H28.1861ZM27.0709 38.3444L26.0035 37.3076V39.3656L27.0709 38.3444Z" fill="white"/>
<path opacity="0.887" fill-rule="evenodd" clip-rule="evenodd" d="M24.9522 38.3444L26.0036 37.3076H23.8848L24.9522 38.3444ZM22.8333 38.3444L23.8847 39.3656V37.3076L22.8333 38.3444ZM24.9522 38.3444L23.8848 39.3656H26.0036L24.9522 38.3444ZM27.9949 38.4074H27.6126V38.7687H27.4214V37.9046H27.6126V38.266H27.9949V37.9046H28.1861V38.7687H27.9949V38.4074ZM28.6482 38.7843C28.457 38.7843 28.2977 38.7058 28.2977 38.5015H28.4889C28.4889 38.5959 28.5524 38.643 28.6482 38.643C28.7278 38.643 28.8075 38.6115 28.8075 38.5173C28.8075 38.4544 28.7438 38.423 28.6482 38.4074L28.5844 38.3916C28.4409 38.3444 28.3134 38.2973 28.3134 38.1402C28.3134 37.9517 28.5048 37.8889 28.6641 37.8889C28.8392 37.8889 28.9827 37.9517 28.9827 38.1402H28.7914C28.7914 38.0617 28.7438 38.0146 28.6482 38.0146C28.5844 38.0146 28.5048 38.046 28.5048 38.1246C28.5048 38.1873 28.5685 38.2031 28.696 38.2503L28.7756 38.2659C28.9349 38.313 29.0303 38.3602 29.0303 38.5015C29.0146 38.7058 28.8234 38.7843 28.6482 38.7843ZM29.1261 37.9046H29.4286C29.5244 37.9046 29.5722 37.9046 29.604 37.9204C29.7154 37.9518 29.795 38.0146 29.795 38.1246C29.795 38.2346 29.7154 38.2974 29.62 38.3131C29.7472 38.3288 29.8269 38.3917 29.8269 38.5173C29.8269 38.7059 29.6357 38.753 29.4764 38.753H29.1261V37.9046ZM29.4286 38.266C29.5083 38.266 29.604 38.2503 29.604 38.156C29.604 38.0617 29.5244 38.046 29.4447 38.046H29.3171V38.2817H29.4286V38.266ZM29.4447 38.643C29.5403 38.643 29.62 38.6273 29.62 38.5173C29.62 38.4074 29.5403 38.3917 29.4606 38.3917H29.3013V38.643H29.4447ZM30.3209 38.7843C30.034 38.7843 29.9065 38.6115 29.9065 38.3444C29.9065 38.0774 30.0501 37.8889 30.3369 37.8889C30.5119 37.8889 30.6873 37.9675 30.6873 38.1559H30.4962C30.4802 38.0774 30.4323 38.0302 30.3369 38.0302C30.1616 38.0302 30.1136 38.2188 30.1136 38.3444C30.1136 38.4859 30.1616 38.643 30.3369 38.643C30.4165 38.643 30.4802 38.5959 30.4962 38.5173H30.7031C30.6712 38.7058 30.5119 38.7843 30.3209 38.7843Z" fill="white"/>
</g>
</g>
<defs>
<filter id="filter0_d" x="-1" y="0" width="58.5885" height="57.9661" filterUnits="userSpaceOnUse" color-interpolation-filters="sRGB">
<feFlood flood-opacity="0" result="BackgroundImageFix"/>
<feColorMatrix in="SourceAlpha" type="matrix" values="0 0 0 0 0 0 0 0 0 0 0 0 0 0 0 0 0 0 127 0"/>
<feOffset/>
<feGaussianBlur stdDeviation="5"/>
<feColorMatrix type="matrix" values="0 0 0 0 0 0 0 0 0 0 0 0 0 0 0 0 0 0 0.2 0"/>
<feBlend mode="normal" in2="BackgroundImageFix" result="effect1_dropShadow"/>
<feBlend mode="normal" in="SourceGraphic" in2="effect1_dropShadow" result="shape"/>
</filter>
</defs>
</svg>
