<svg width="28" height="28" viewBox="0 0 28 28" fill="none" xmlns="http://www.w3.org/2000/svg">
<circle cx="14" cy="14" r="14" fill="#F1EFF7"/>
<path d="M17.1226 10.9273C17.5337 11.3379 17.8598 11.8255 18.0823 12.3622C18.3048 12.8989 18.4193 13.4742 18.4193 14.0552C18.4193 14.6362 18.3048 15.2115 18.0823 15.7482C17.8598 16.2849 17.5337 16.7725 17.1226 17.1831M10.8742 17.1757C10.4632 16.7651 10.1371 16.2775 9.9146 15.7408C9.69211 15.2041 9.57759 14.6288 9.57759 14.0478C9.57759 13.4668 9.69211 12.8915 9.9146 12.3548C10.1371 11.8181 10.4632 11.3305 10.8742 10.9199M19.2079 8.84204C20.5893 10.2238 21.3653 12.0977 21.3653 14.0515C21.3653 16.0054 20.5893 17.8792 19.2079 19.261M8.78897 19.261C7.4076 17.8792 6.63159 16.0054 6.63159 14.0515C6.63159 12.0977 7.4076 10.2238 8.78897 8.84204M15.4721 14.0515C15.4721 14.8654 14.8123 15.5252 13.9984 15.5252C13.1845 15.5252 12.5248 14.8654 12.5248 14.0515C12.5248 13.2376 13.1845 12.5778 13.9984 12.5778C14.8123 12.5778 15.4721 13.2376 15.4721 14.0515Z" stroke="#1F1E2C" stroke-linecap="round" stroke-linejoin="round"/>
</svg>
