<svg width="16" height="16" viewBox="0 0 16 16" fill="none" xmlns="http://www.w3.org/2000/svg">
<path d="M8 0.823051L8.93347 2.0436C9.08325 2.23944 9.35343 2.29687 9.56991 2.17888L10.9191 1.44353L11.2755 2.93824C11.3326 3.17807 11.5561 3.34042 11.8019 3.32069L13.3335 3.19768L13.0511 4.7081C13.0058 4.95045 13.1439 5.18966 13.3764 5.27159L14.8257 5.7822L13.9533 7.04716C13.8134 7.25012 13.8422 7.52483 14.0213 7.69425L15.1376 8.7502L13.8262 9.55097C13.6158 9.67946 13.5304 9.94215 13.6251 10.1698L14.2154 11.5885L12.6917 11.7866C12.4472 11.8184 12.2623 12.0237 12.2563 12.2701L12.2185 13.8063L10.7459 13.3675C10.5096 13.2971 10.2573 13.4095 10.1515 13.6322L9.49217 15.0201L8.32533 14.0203C8.13811 13.8599 7.86189 13.8599 7.67467 14.0203L6.50783 15.0201L5.84852 13.6322C5.74273 13.4095 5.4904 13.2971 5.25411 13.3675L3.7815 13.8063L3.74372 12.2701C3.73766 12.0237 3.55284 11.8184 3.30835 11.7866L1.78458 11.5885L2.37487 10.1698C2.46959 9.94215 2.38423 9.67946 2.17381 9.55097L0.862367 8.7502L1.97866 7.69425C2.15777 7.52483 2.18664 7.25012 2.04667 7.04716L1.17432 5.7822L2.62359 5.27159C2.85613 5.18966 2.99424 4.95045 2.94892 4.7081L2.66649 3.19768L4.19815 3.32069C4.44391 3.34042 4.66737 3.17807 4.72455 2.93824L5.08087 1.44353L6.43009 2.17888C6.64657 2.29687 6.91675 2.23944 7.06653 2.0436L8 0.823051Z" stroke="#2F80ED" stroke-linecap="round" stroke-linejoin="round"/>
<path d="M10.8 6L7.5 9.3L6 7.8" stroke="#2F80ED" stroke-linecap="round" stroke-linejoin="round"/>
</svg>
