<svg width="28" height="33" viewBox="0 0 28 33" fill="none" xmlns="http://www.w3.org/2000/svg">
<g filter="url(#filter0_d)">
<path d="M10.59 15.51L17.42 19.49M17.41 8.51L10.59 12.49M23 7C23 8.65685 21.6569 10 20 10C18.3431 10 17 8.65685 17 7C17 5.34315 18.3431 4 20 4C21.6569 4 23 5.34315 23 7ZM11 14C11 15.6569 9.65685 17 8 17C6.34315 17 5 15.6569 5 14C5 12.3431 6.34315 11 8 11C9.65685 11 11 12.3431 11 14ZM23 21C23 22.6569 21.6569 24 20 24C18.3431 24 17 22.6569 17 21C17 19.3431 18.3431 18 20 18C21.6569 18 23 19.3431 23 21Z" stroke="white" stroke-width="2" stroke-linecap="round" stroke-linejoin="round"/>
</g>
<defs>
<filter id="filter0_d" x="-4" y="0" width="36" height="36" filterUnits="userSpaceOnUse" color-interpolation-filters="sRGB">
<feFlood flood-opacity="0" result="BackgroundImageFix"/>
<feColorMatrix in="SourceAlpha" type="matrix" values="0 0 0 0 0 0 0 0 0 0 0 0 0 0 0 0 0 0 127 0"/>
<feOffset dy="4"/>
<feGaussianBlur stdDeviation="2"/>
<feColorMatrix type="matrix" values="0 0 0 0 0 0 0 0 0 0 0 0 0 0 0 0 0 0 0.25 0"/>
<feBlend mode="normal" in2="BackgroundImageFix" result="effect1_dropShadow"/>
<feBlend mode="normal" in="SourceGraphic" in2="effect1_dropShadow" result="shape"/>
</filter>
</defs>
</svg>
