<svg width="20" height="23" viewBox="0 0 20 23" fill="none" xmlns="http://www.w3.org/2000/svg">
<mask id="path-1-outside-1" maskUnits="userSpaceOnUse" x="0" y="0" width="20" height="23" fill="black">
<rect fill="white" width="20" height="23"/>
<path fill-rule="evenodd" clip-rule="evenodd" d="M7.40134 13.7176C7.25439 13.802 7.06448 13.8075 6.90968 13.7151L3.40916 11.6461C3.39874 11.6406 3.38926 11.6352 3.37884 11.6288C3.24147 11.5448 3.07379 11.5 2.89474 11.5C2.37274 11.5 1.94737 11.9091 1.94737 12.4131C1.94737 12.5829 1.99379 12.7463 2.07811 12.8787C2.08047 12.8819 2.0826 12.8851 2.08473 12.8883C2.08687 12.8915 2.089 12.8947 2.09137 12.8979L6.44547 19.5896C7.05558 20.5273 8.10526 21.087 9.25442 21.087H14.7368C16.5653 21.087 18.0526 19.6535 18.0526 17.8913V10.1305C18.0526 9.62648 17.6273 9.21743 17.1053 9.21743C16.585 9.21743 16.1606 9.62384 16.1579 10.1256V12.413C16.1579 12.665 15.9457 12.8695 15.6842 12.8695C15.4228 12.8695 15.2105 12.665 15.2105 12.413V10.1342C15.2105 10.1329 15.2105 10.1317 15.2105 10.1305C15.2105 10.128 15.2105 10.1255 15.2105 10.1231V9.21732C15.2105 8.71332 14.7852 8.30428 14.2632 8.30428C13.7412 8.30428 13.3158 8.71332 13.3158 9.21732L13.3157 9.2283V12.413C13.3157 12.665 13.1035 12.8696 12.842 12.8696C12.5805 12.8696 12.3683 12.665 12.3683 12.413V8.30435C12.3683 7.80036 11.9429 7.39131 11.4209 7.39131C10.8989 7.39131 10.4736 7.80036 10.4736 8.30435L10.4734 8.31541V12.413C10.4734 12.665 10.2612 12.8695 9.99975 12.8695C9.73828 12.8695 9.52607 12.665 9.52607 12.413V2.82608C9.52607 2.32208 9.1007 1.91304 8.5787 1.91304C8.0567 1.91304 7.63133 2.32208 7.63133 2.82608V13.3129C7.63411 13.3988 7.61175 13.4865 7.56147 13.5653C7.52031 13.6298 7.46484 13.6811 7.40134 13.7176ZM16.0515 8.61343C15.7923 7.9023 15.0886 7.39124 14.2632 7.39124C13.8734 7.39124 13.5107 7.5052 13.2092 7.70039C12.95 6.9893 12.2464 6.47827 11.4209 6.47827C11.076 6.47827 10.7523 6.56752 10.4734 6.72333V2.82608C10.4734 1.819 9.62365 1 8.5787 1C7.53376 1 6.68397 1.819 6.68397 2.82608V12.511L3.88379 10.8563C3.87716 10.8518 3.86958 10.8472 3.862 10.8436C3.57779 10.6756 3.24337 10.587 2.89474 10.587C1.84979 10.587 1 11.406 1 12.4131C1 12.7701 1.10232 13.1088 1.29558 13.3928L1.29558 13.3928C1.29748 13.3955 1.29937 13.3983 1.30126 13.4019L5.64305 20.0744C6.42747 21.2796 7.77747 22 9.25442 22H14.7368C17.0873 22 19 20.1566 19 17.8913V10.1305C19 9.12339 18.1502 8.30439 17.1053 8.30439C16.7155 8.30439 16.353 8.41832 16.0515 8.61343Z"/>
</mask>
<path fill-rule="evenodd" clip-rule="evenodd" d="M7.40134 13.7176C7.25439 13.802 7.06448 13.8075 6.90968 13.7151L3.40916 11.6461C3.39874 11.6406 3.38926 11.6352 3.37884 11.6288C3.24147 11.5448 3.07379 11.5 2.89474 11.5C2.37274 11.5 1.94737 11.9091 1.94737 12.4131C1.94737 12.5829 1.99379 12.7463 2.07811 12.8787C2.08047 12.8819 2.0826 12.8851 2.08473 12.8883C2.08687 12.8915 2.089 12.8947 2.09137 12.8979L6.44547 19.5896C7.05558 20.5273 8.10526 21.087 9.25442 21.087H14.7368C16.5653 21.087 18.0526 19.6535 18.0526 17.8913V10.1305C18.0526 9.62648 17.6273 9.21743 17.1053 9.21743C16.585 9.21743 16.1606 9.62384 16.1579 10.1256V12.413C16.1579 12.665 15.9457 12.8695 15.6842 12.8695C15.4228 12.8695 15.2105 12.665 15.2105 12.413V10.1342C15.2105 10.1329 15.2105 10.1317 15.2105 10.1305C15.2105 10.128 15.2105 10.1255 15.2105 10.1231V9.21732C15.2105 8.71332 14.7852 8.30428 14.2632 8.30428C13.7412 8.30428 13.3158 8.71332 13.3158 9.21732L13.3157 9.2283V12.413C13.3157 12.665 13.1035 12.8696 12.842 12.8696C12.5805 12.8696 12.3683 12.665 12.3683 12.413V8.30435C12.3683 7.80036 11.9429 7.39131 11.4209 7.39131C10.8989 7.39131 10.4736 7.80036 10.4736 8.30435L10.4734 8.31541V12.413C10.4734 12.665 10.2612 12.8695 9.99975 12.8695C9.73828 12.8695 9.52607 12.665 9.52607 12.413V2.82608C9.52607 2.32208 9.1007 1.91304 8.5787 1.91304C8.0567 1.91304 7.63133 2.32208 7.63133 2.82608V13.3129C7.63411 13.3988 7.61175 13.4865 7.56147 13.5653C7.52031 13.6298 7.46484 13.6811 7.40134 13.7176ZM16.0515 8.61343C15.7923 7.9023 15.0886 7.39124 14.2632 7.39124C13.8734 7.39124 13.5107 7.5052 13.2092 7.70039C12.95 6.9893 12.2464 6.47827 11.4209 6.47827C11.076 6.47827 10.7523 6.56752 10.4734 6.72333V2.82608C10.4734 1.819 9.62365 1 8.5787 1C7.53376 1 6.68397 1.819 6.68397 2.82608V12.511L3.88379 10.8563C3.87716 10.8518 3.86958 10.8472 3.862 10.8436C3.57779 10.6756 3.24337 10.587 2.89474 10.587C1.84979 10.587 1 11.406 1 12.4131C1 12.7701 1.10232 13.1088 1.29558 13.3928L1.29558 13.3928C1.29748 13.3955 1.29937 13.3983 1.30126 13.4019L5.64305 20.0744C6.42747 21.2796 7.77747 22 9.25442 22H14.7368C17.0873 22 19 20.1566 19 17.8913V10.1305C19 9.12339 18.1502 8.30439 17.1053 8.30439C16.7155 8.30439 16.353 8.41832 16.0515 8.61343Z" fill="#1F1E2C"/>
<path d="M7.40134 13.7176L7.25183 13.4575L7.25183 13.4575L7.40134 13.7176ZM6.90968 13.7151L7.0635 13.4575L7.06233 13.4568L6.90968 13.7151ZM3.40916 11.6461L3.5618 11.3879L3.55536 11.3841L3.54875 11.3806L3.40916 11.6461ZM3.37884 11.6288L3.53567 11.373L3.53535 11.3728L3.37884 11.6288ZM2.07811 12.8787L1.82506 13.0399L1.83076 13.0488L1.83707 13.0573L2.07811 12.8787ZM2.08473 12.8883L2.3343 12.7218L2.33429 12.7218L2.08473 12.8883ZM2.09137 12.8979L2.34282 12.7343L2.33783 12.7266L2.33238 12.7193L2.09137 12.8979ZM6.44547 19.5896L6.69693 19.426L6.69693 19.426L6.44547 19.5896ZM16.1579 10.1256L15.8579 10.1239V10.1256H16.1579ZM15.2105 10.1342H15.5106L15.5105 10.1316L15.2105 10.1342ZM15.2105 10.1231L15.5105 10.1244V10.1231H15.2105ZM13.3158 9.21732L13.6158 9.22099V9.21732H13.3158ZM13.3157 9.2283L13.0157 9.22462V9.2283H13.3157ZM10.4736 8.30435L10.7736 8.30806V8.30435H10.4736ZM10.4734 8.31541L10.1734 8.31171V8.31541H10.4734ZM7.63133 13.3129H7.33118L7.33149 13.3226L7.63133 13.3129ZM7.56147 13.5653L7.81432 13.7268L7.81444 13.7266L7.56147 13.5653ZM16.0515 8.61343L15.7696 8.71617L15.8985 9.06979L16.2145 8.86528L16.0515 8.61343ZM13.2092 7.70039L12.9274 7.80314L13.0563 8.15677L13.3723 7.95222L13.2092 7.70039ZM10.4734 6.72333H10.1734V7.23459L10.6198 6.98522L10.4734 6.72333ZM6.68397 12.511L6.53135 12.7693L6.98397 13.0367V12.511H6.68397ZM3.88379 10.8563L3.71368 11.1035L3.72223 11.1093L3.73117 11.1146L3.88379 10.8563ZM3.862 10.8436L3.70934 11.1018L3.72029 11.1083L3.73175 11.1138L3.862 10.8436ZM1.29558 13.3928L1.55354 13.2396L1.5488 13.2316L1.54359 13.224L1.29558 13.3928ZM1.29558 13.3928L1.03763 13.5459L1.04294 13.5549L1.04885 13.5634L1.29558 13.3928ZM1.30126 13.4019L1.03495 13.54L1.04176 13.5531L1.04981 13.5655L1.30126 13.4019ZM5.64305 20.0744L5.3916 20.238L5.39162 20.2381L5.64305 20.0744ZM7.25183 13.4575C7.19382 13.4908 7.12008 13.4913 7.0635 13.4575L6.75587 13.9726C7.00889 14.1237 7.31496 14.1132 7.55086 13.9776L7.25183 13.4575ZM7.06233 13.4568L3.5618 11.3879L3.25651 11.9044L6.75704 13.9733L7.06233 13.4568ZM3.54875 11.3806C3.54545 11.3788 3.54183 11.3768 3.53567 11.373L3.22201 11.8845C3.2367 11.8935 3.25202 11.9024 3.26957 11.9117L3.54875 11.3806ZM3.53535 11.3728C3.34592 11.257 3.12293 11.2 2.89474 11.2V11.8C3.02465 11.8 3.13702 11.8326 3.22233 11.8847L3.53535 11.3728ZM2.89474 11.2C2.21778 11.2 1.64737 11.7329 1.64737 12.4131H2.24737C2.24737 12.0853 2.52769 11.8 2.89474 11.8V11.2ZM1.64737 12.4131C1.64737 12.6362 1.70809 12.8562 1.82506 13.0399L2.33115 12.7176C2.27949 12.6365 2.24737 12.5296 2.24737 12.4131H1.64737ZM1.83707 13.0573C1.83544 13.0551 1.83436 13.0536 1.83407 13.0532C1.83391 13.0529 1.83393 13.0529 1.83517 13.0548L2.33429 12.7218C2.33277 12.7195 2.32662 12.7102 2.31914 12.7001L1.83707 13.0573ZM1.83517 13.0548C1.83671 13.0571 1.84286 13.0664 1.85035 13.0765L2.33238 12.7193C2.33402 12.7215 2.3351 12.723 2.3354 12.7235C2.33556 12.7237 2.33554 12.7237 2.3343 12.7218L1.83517 13.0548ZM1.83991 13.0615L6.19402 19.7532L6.69693 19.426L2.34282 12.7343L1.83991 13.0615ZM6.19402 19.7532C6.86125 20.7787 8.00707 21.387 9.25442 21.387V20.787C8.20346 20.787 7.24991 20.2759 6.69693 19.426L6.19402 19.7532ZM9.25442 21.387H14.7368V20.787H9.25442V21.387ZM14.7368 21.387C16.7204 21.387 18.3526 19.8295 18.3526 17.8913H17.7526C17.7526 19.4775 16.4101 20.787 14.7368 20.787V21.387ZM18.3526 17.8913V10.1305H17.7526V17.8913H18.3526ZM18.3526 10.1305C18.3526 9.45026 17.7822 8.91743 17.1053 8.91743V9.51744C17.4723 9.51744 17.7526 9.80269 17.7526 10.1305H18.3526ZM17.1053 8.91743C16.4305 8.91743 15.8616 9.4468 15.8579 10.1239L16.4579 10.1272C16.4597 9.80087 16.7395 9.51744 17.1053 9.51744V8.91743ZM15.8579 10.1256V12.413H16.4579V10.1256H15.8579ZM15.8579 12.413C15.8579 12.4889 15.7905 12.5695 15.6842 12.5695V13.1695C16.1009 13.1695 16.4579 12.841 16.4579 12.413H15.8579ZM15.6842 12.5695C15.5779 12.5695 15.5105 12.4889 15.5105 12.413H14.9105C14.9105 12.841 15.2676 13.1695 15.6842 13.1695V12.5695ZM15.5105 12.413V10.1342H14.9105V12.413H15.5105ZM15.5105 10.1316C15.5105 10.1313 15.5105 10.1309 15.5105 10.1305H14.9105C14.9105 10.1325 14.9105 10.1346 14.9106 10.1367L15.5105 10.1316ZM15.5105 10.1305C15.5105 10.1284 15.5105 10.1264 15.5105 10.1244L14.9105 10.1218C14.9105 10.1247 14.9105 10.1276 14.9105 10.1305H15.5105ZM15.5105 10.1231V9.21732H14.9105V10.1231H15.5105ZM15.5105 9.21732C15.5105 8.5371 14.9401 8.00428 14.2632 8.00428V8.60428C14.6302 8.60428 14.9105 8.88954 14.9105 9.21732H15.5105ZM14.2632 8.00428C13.5862 8.00428 13.0158 8.5371 13.0158 9.21732H13.6158C13.6158 8.88954 13.8961 8.60428 14.2632 8.60428V8.00428ZM13.0158 9.21364L13.0157 9.22462L13.6157 9.23197L13.6158 9.22099L13.0158 9.21364ZM13.0157 9.2283V12.413H13.6157V9.2283H13.0157ZM13.0157 12.413C13.0157 12.489 12.9483 12.5696 12.842 12.5696V13.1696C13.2586 13.1696 13.6157 12.8411 13.6157 12.413H13.0157ZM12.842 12.5696C12.7357 12.5696 12.6683 12.489 12.6683 12.413H12.0683C12.0683 12.8411 12.4254 13.1696 12.842 13.1696V12.5696ZM12.6683 12.413V8.30435H12.0683V12.413H12.6683ZM12.6683 8.30435C12.6683 7.62414 12.0979 7.09131 11.4209 7.09131V7.69131C11.788 7.69131 12.0683 7.97657 12.0683 8.30435H12.6683ZM11.4209 7.09131C10.744 7.09131 10.1736 7.62414 10.1736 8.30435H10.7736C10.7736 7.97657 11.0539 7.69131 11.4209 7.69131V7.09131ZM10.1736 8.30065L10.1735 8.31171L10.7734 8.31911L10.7735 8.30806L10.1736 8.30065ZM10.1734 8.31541V12.413H10.7734V8.31541H10.1734ZM10.1734 12.413C10.1734 12.489 10.1061 12.5695 9.99975 12.5695V13.1695C10.4164 13.1695 10.7734 12.841 10.7734 12.413H10.1734ZM9.99975 12.5695C9.89343 12.5695 9.82607 12.489 9.82607 12.413H9.22607C9.22607 12.841 9.58312 13.1695 9.99975 13.1695V12.5695ZM9.82607 12.413V2.82608H9.22607V12.413H9.82607ZM9.82607 2.82608C9.82607 2.14587 9.25566 1.61304 8.5787 1.61304V2.21304C8.94575 2.21304 9.22607 2.4983 9.22607 2.82608H9.82607ZM8.5787 1.61304C7.90175 1.61304 7.33133 2.14587 7.33133 2.82608H7.93133C7.93133 2.4983 8.21166 2.21304 8.5787 2.21304V1.61304ZM7.33133 2.82608V13.3129H7.93133V2.82608H7.33133ZM7.33149 13.3226C7.33235 13.3493 7.32565 13.3772 7.30851 13.4041L7.81444 13.7266C7.89784 13.5958 7.93586 13.4483 7.93118 13.3032L7.33149 13.3226ZM7.30862 13.4039C7.29471 13.4257 7.2755 13.4439 7.25183 13.4575L7.55086 13.9776C7.65418 13.9182 7.74592 13.8339 7.81432 13.7268L7.30862 13.4039ZM14.2632 7.69124C14.964 7.69124 15.5541 8.12482 15.7696 8.71617L16.3334 8.5107C16.0305 7.67978 15.2133 7.09124 14.2632 7.09124V7.69124ZM13.3723 7.95222C13.6263 7.78779 13.9325 7.69124 14.2632 7.69124V7.09124C13.8143 7.09124 13.3952 7.22261 13.0462 7.44855L13.3723 7.95222ZM11.4209 6.77827C12.1217 6.77827 12.7118 7.21182 12.9274 7.80314L13.4911 7.59764C13.1882 6.76678 12.371 6.17827 11.4209 6.17827V6.77827ZM10.6198 6.98522C10.8548 6.85392 11.1282 6.77827 11.4209 6.77827V6.17827C11.0238 6.17827 10.6498 6.28113 10.3271 6.46143L10.6198 6.98522ZM10.1734 2.82608V6.72333H10.7734V2.82608H10.1734ZM8.5787 1.3C9.46849 1.3 10.1734 1.99502 10.1734 2.82608H10.7734C10.7734 1.64297 9.7788 0.7 8.5787 0.7V1.3ZM6.98397 2.82608C6.98397 1.99502 7.68891 1.3 8.5787 1.3V0.7C7.3786 0.7 6.38397 1.64297 6.38397 2.82608H6.98397ZM6.98397 12.511V2.82608H6.38397V12.511H6.98397ZM3.73117 11.1146L6.53135 12.7693L6.83659 12.2527L4.03641 10.5981L3.73117 11.1146ZM3.73175 11.1138C3.72693 11.1115 3.72324 11.1094 3.72067 11.1079C3.71805 11.1064 3.71576 11.1049 3.71368 11.1035L4.0539 10.6092C4.03721 10.5977 4.01628 10.5849 3.99225 10.5733L3.73175 11.1138ZM2.89474 10.887C3.19292 10.887 3.47409 10.9628 3.70934 11.1018L4.01466 10.5853C3.68149 10.3884 3.29381 10.287 2.89474 10.287V10.887ZM1.3 12.4131C1.3 11.582 2.00494 10.887 2.89474 10.887V10.287C1.69464 10.287 0.7 11.23 0.7 12.4131H1.3ZM1.54359 13.224C1.38553 12.9917 1.3 12.7123 1.3 12.4131H0.7C0.7 12.8279 0.819103 13.2259 1.04757 13.5616L1.54359 13.224ZM1.55354 13.2396L1.55354 13.2396L1.03762 13.5459L1.03763 13.5459L1.55354 13.2396ZM1.56757 13.2638C1.55598 13.2414 1.54412 13.2247 1.54232 13.2221L1.04885 13.5634C1.05083 13.5663 1.04276 13.5551 1.03495 13.54L1.56757 13.2638ZM5.89451 19.9108L1.55272 13.2383L1.04981 13.5655L5.3916 20.238L5.89451 19.9108ZM9.25442 21.7C7.87576 21.7 6.62184 21.0283 5.89449 19.9108L5.39162 20.2381C6.23311 21.531 7.67918 22.3 9.25442 22.3V21.7ZM14.7368 21.7H9.25442V22.3H14.7368V21.7ZM18.7 17.8913C18.7 19.9806 16.9321 21.7 14.7368 21.7V22.3C17.2424 22.3 19.3 20.3326 19.3 17.8913H18.7ZM18.7 10.1305V17.8913H19.3V10.1305H18.7ZM17.1053 8.60439C17.9951 8.60439 18.7 9.29942 18.7 10.1305H19.3C19.3 8.94737 18.3054 8.00439 17.1053 8.00439V8.60439ZM16.2145 8.86528C16.4685 8.70091 16.7746 8.60439 17.1053 8.60439V8.00439C16.6565 8.00439 16.2375 8.13572 15.8885 8.36158L16.2145 8.86528Z" fill="#1F1E2C" mask="url(#path-1-outside-1)"/>
</svg>
