<svg width="22" height="22" viewBox="0 0 22 22" fill="none" xmlns="http://www.w3.org/2000/svg">
<path d="M6.47341 19.8895L6.38622 19.3972L6.56387 19.3657L6.72068 19.4549L6.47341 19.8895ZM3.14425 16.6431L3.57244 16.3849L3.70896 16.6113L3.59867 16.8516L3.14425 16.6431ZM1.22794 20.8184L1.31512 21.3107L0.375454 21.4771L0.773514 20.6098L1.22794 20.8184ZM11.0001 21.5833C9.26481 21.5833 7.63492 21.1257 6.22614 20.3241L6.72068 19.4549C7.98272 20.173 9.44272 20.5833 11.0001 20.5833V21.5833ZM20.6667 11.9167C20.6667 17.2554 16.3388 21.5833 11.0001 21.5833V20.5833C15.7865 20.5833 19.6667 16.7031 19.6667 11.9167H20.6667ZM11.0001 2.25C16.3388 2.25 20.6667 6.57791 20.6667 11.9167H19.6667C19.6667 7.1302 15.7865 3.25 11.0001 3.25V2.25ZM1.33341 11.9167C1.33341 6.57791 5.66133 2.25 11.0001 2.25V3.25C6.21361 3.25 2.33341 7.1302 2.33341 11.9167H1.33341ZM2.71606 16.9012C1.83827 15.4454 1.33341 13.7392 1.33341 11.9167H2.33341C2.33341 13.5522 2.78598 15.0805 3.57244 16.3849L2.71606 16.9012ZM3.59867 16.8516L1.68236 21.0269L0.773514 20.6098L2.68983 16.4345L3.59867 16.8516ZM1.14075 20.326L6.38622 19.3972L6.56059 20.3818L1.31512 21.3107L1.14075 20.326Z" fill="white"/>
<ellipse rx="0.916668" ry="0.916667" transform="matrix(-1 0 0 1 14.6666 14.6667)" fill="white"/>
<ellipse rx="0.916666" ry="0.916667" transform="matrix(-1 0 0 1 10.9998 14.6667)" fill="white"/>
<circle r="0.916667" transform="matrix(-1 0 0 1 7.33333 14.6667)" fill="white"/>
</svg>
