<svg width="186" height="200" viewBox="0 0 186 200" fill="none" xmlns="http://www.w3.org/2000/svg">
<g clip-path="url(#clip0_4207_75562)">
<path d="M117.855 72.7115C125.089 70.6395 132.273 68.3595 139.457 66.1544C141.159 65.6315 142.915 65.1077 144.673 65.2517C149.89 65.6843 152.332 71.3437 153.726 76.1286C155.294 81.5126 156.605 88.0184 152.572 92.273C150.474 94.4938 147.376 95.5193 144.425 96.4558L52.5209 125.678C49.1224 126.756 47.2045 130.242 48.2484 133.433L62.7777 178.048C63.7473 181.033 65.0848 184.391 68.1864 185.386C70.1817 186.027 72.4048 185.492 74.4768 184.945C103.683 177.247 132.505 168.059 160.779 157.433C164.962 155.864 169.685 153.696 170.845 149.563C171.601 146.865 170.569 144.097 169.55 141.537C164.507 128.884 161.393 122.059 156.35 109.406" stroke="#F5CF70" stroke-width="4" stroke-linejoin="round"/>
<path d="M58.2915 79.0781C67.2826 80.5424 76.6837 80.552 85.8324 79.5223C96.6816 78.2982 107.312 75.7299 117.849 72.7144" stroke="#F5CF70" stroke-width="4" stroke-linejoin="round"/>
<path d="M71.2208 41.0397C61.0951 38.3615 50.4665 37.2263 39.8579 37.7199C34.3968 37.9725 28.4544 38.874 24.5928 42.6862C20.5378 46.689 19.9669 53.0633 22.0692 58.0862C24.1697 63.1039 28.5044 66.9387 33.1989 69.923C40.7148 74.6975 49.3012 77.6144 58.2923 79.0787" stroke="#F5CF70" stroke-width="4" stroke-linejoin="round"/>
<path d="M100.457 58.2271C99.2963 56.2329 97.8097 54.3982 96.1159 52.805C91.9539 48.9015 86.623 46.3006 81.1685 44.2302C77.9204 42.9959 74.6014 41.9348 71.228 41.0415" stroke="#F5CF70" stroke-width="4" stroke-linejoin="round"/>
<path d="M79.0337 62.5762C77.5417 65.8171 76.6164 69.2391 77.2485 72.6062C78.5096 79.3128 86.8095 83.7068 93.6157 81.2639C99.2435 79.2456 102.896 73.4179 103.046 67.7473C103.136 64.3832 102.144 61.1292 100.462 58.2247" stroke="#F5CF70" stroke-width="4" stroke-linejoin="round"/>
<path d="M31.7615 118.157C29.9645 115.809 28.132 113.41 27.2535 110.608C26.375 107.806 26.6041 104.476 28.6169 102.163C30.3478 100.179 33.0377 99.2657 35.589 98.4501C45.84 95.1607 56.0856 91.8731 66.3366 88.5837C74.6948 85.9036 81.4751 81.851 89.2563 77.8702C109.753 67.3828 129.002 51.3362 134.465 29.688C134.937 27.81 134.792 25.8248 133.888 24.1431C131.086 18.9429 124.167 20.7146 119.259 23.1915C103.379 31.2065 89.9187 43.7301 81.1098 58.6822C80.3665 59.9419 79.6569 61.2479 79.0377 62.5874" stroke="#F5CF70" stroke-width="4" stroke-linejoin="round"/>
</g>
<defs>
<clipPath id="clip0_4207_75562">
<rect width="141" height="163.381" fill="white" transform="translate(0 44.3062) rotate(-18.3143)"/>
</clipPath>
</defs>
</svg>
