<svg width="1372" height="576" viewBox="0 0 1372 576" fill="none" xmlns="http://www.w3.org/2000/svg">
<mask id="mask0_4207_75482" style="mask-type:alpha" maskUnits="userSpaceOnUse" x="0" y="0" width="1372" height="576">
<rect width="1372" height="576" rx="14" fill="#F57D7D"/>
</mask>
<g mask="url(#mask0_4207_75482)">
<path d="M-187.754 -68.234C-182.717 -6.05067 -177.13 57.9873 -146.302 113.564C-115.475 169.141 -52.7007 214.757 15.5535 209.731C83.0777 204.756 134.455 154.731 181.787 110.444C229.118 66.1509 289.648 21.2228 356.539 30.6387C418.05 39.3026 462.068 94.6981 468.909 151.078C475.749 207.458 452.593 263.556 422.363 313.269C392.133 362.983 354.462 408.972 328.114 460.473C301.767 511.982 287.376 571.773 306.955 625.564C315.429 648.83 330.087 670.191 349.331 687.295C422.615 752.437 545.016 743.582 637.366 702.574C729.723 661.558 805.583 594.846 895.49 549.529C985.397 504.205 1103.3 483.511 1186.85 537.448C1274.28 593.89 1288.58 708.953 1265.06 804.472" stroke="#F5CF70" stroke-width="2" stroke-miterlimit="10"/>
</g>
</svg>
