<svg width="500" height="378" viewBox="0 0 500 378" fill="none" xmlns="http://www.w3.org/2000/svg">
<mask id="mask0_202_20882" style="mask-type:alpha" maskUnits="userSpaceOnUse" x="0" y="0" width="500" height="378">
<rect width="500" height="378" fill="#4CC4B0"/>
</mask>
<g mask="url(#mask0_202_20882)">
<path d="M-60.2633 -26.7367C-10.8654 -5.6747 31.3119 34.8214 54.756 83.6798C69.1794 113.74 75.8334 151.325 57.035 176.157C38.9222 200.075 4.14624 203.445 -26.8335 200.573C-57.8133 197.7 -90.0716 190.514 -118.847 199.852C-137.922 206.044 -155.362 222.522 -153.553 243.265C-152.409 256.39 -143.923 268.156 -135.143 278.487C-101.449 318.139 -56.4695 350.028 -6.9273 359.857C42.6067 369.695 96.3296 354.683 125.022 315.8C133.96 303.682 140.46 289.159 140.68 273.529C140.9 257.9 134.04 241.149 120.985 231.636C100.289 216.555 70.356 224.915 56.6993 244.523C43.0425 264.132 42.768 291.181 48.417 315.781C60.2357 367.263 97.0098 414.092 144.481 438.108C152.734 442.28 161.705 445.882 170.54 445.07C179.383 444.266 187.845 437.76 188.07 428.763" stroke="#FAC9C2" stroke-miterlimit="10"/>
<path d="M559.085 392.395C517.475 373.641 482.339 338.499 463.266 296.576C451.531 270.782 446.529 238.73 462.934 217.956C478.74 197.946 508.348 195.686 534.622 198.664C560.897 201.643 588.183 208.309 612.796 200.874C629.112 195.943 644.217 182.243 643.04 164.586C642.296 153.414 635.289 143.269 628.008 134.338C600.065 100.06 562.398 72.1827 520.471 62.9709C478.552 53.7522 432.642 65.5757 407.587 98.1181C399.781 108.26 394.006 120.488 393.548 133.765C393.09 147.042 398.628 161.395 409.557 169.705C426.88 182.878 452.46 176.294 464.405 159.869C476.35 143.444 477.052 120.464 472.679 99.4635C463.53 55.5124 433.094 15.0827 393.174 -6.14782C386.233 -9.83643 378.673 -13.052 371.151 -12.5154C363.624 -11.9858 356.32 -6.60471 355.973 1.03683" stroke="#FAC9C2" stroke-miterlimit="10"/>
</g>
</svg>
