<svg width="1440" height="1610" viewBox="0 0 1440 1610" fill="none" xmlns="http://www.w3.org/2000/svg">
<mask id="mask0_197_21395" style="mask-type:alpha" maskUnits="userSpaceOnUse" x="0" y="0" width="1440" height="1610">
<rect width="1440" height="1610" fill="#C4C4C4"/>
</mask>
<g mask="url(#mask0_197_21395)">
<path d="M1429.55 2075.47C1473.83 1980.25 1518.9 1881.89 1523.99 1777.62C1529.07 1673.35 1484.15 1560.49 1390.61 1518.19C1298.07 1476.36 1189.83 1512.61 1091.59 1543.35C993.334 1574.11 877.272 1596.19 797.339 1533.62C723.838 1476.08 711.49 1362.47 748.657 1274.49C785.824 1186.5 862.06 1120.76 942.34 1069.57C1022.62 1018.39 1109.6 978.103 1186.26 921.458C1262.92 864.803 1330.69 787.247 1349.05 693.795C1356.99 653.37 1355.26 611.248 1344.04 572.054C1301.33 422.789 1133.72 346.712 979.172 339.855C824.612 333.002 670.643 375.995 515.773 377.26C360.898 378.535 189.501 323.166 124.164 182.923C55.7909 36.1638 131.199 -143.657 240.17 -267.165" stroke="#4CC4B0" stroke-miterlimit="10"/>
</g>
</svg>
