<svg width="1440" height="1150" viewBox="0 0 1440 1150" fill="none" xmlns="http://www.w3.org/2000/svg">
<mask id="mask0_212_20806" style="mask-type:alpha" maskUnits="userSpaceOnUse" x="0" y="0" width="1440" height="1150">
<rect width="1440" height="1150" fill="white"/>
</mask>
<g mask="url(#mask0_212_20806)">
<mask id="mask1_212_20806" style="mask-type:alpha" maskUnits="userSpaceOnUse" x="0" y="-1" width="1440" height="1151">
<rect y="-1" width="1440" height="1151" fill="white"/>
</mask>
<g mask="url(#mask1_212_20806)">
<path d="M1410.32 922.826C1408.82 855.193 1406.9 785.532 1381.33 724.352C1355.76 663.172 1300.28 611.916 1237.2 615.472C1174.8 618.992 1124.99 671.86 1079.19 718.611C1033.39 765.369 975.418 812.449 914.324 800.368C858.144 789.253 820.42 727.903 816.966 666.52C813.512 605.136 837.652 544.892 867.982 491.775C898.311 438.658 935.302 389.79 962.149 334.625C988.996 279.451 1005.25 214.955 989.944 156.027C983.317 130.539 970.902 106.946 954.051 87.846C889.882 15.1032 776.775 21.3088 689.707 63.2497C602.632 105.198 529.448 175.495 444.411 222.18C359.375 268.873 249.814 288.053 175.629 227.187C97.9965 163.493 82.6456 36.1855 126.573 -44.312" stroke="#B693C8" stroke-width="2" stroke-miterlimit="10"/>
</g>
<mask id="mask2_212_20806" style="mask-type:alpha" maskUnits="userSpaceOnUse" x="0" y="-1" width="1440" height="1151">
<rect y="-1" width="1440" height="1151" fill="white"/>
</mask>
<g mask="url(#mask2_212_20806)">
<path d="M1410.32 922.826C1408.82 855.193 1406.9 785.532 1381.33 724.352C1355.76 663.172 1300.28 611.916 1237.2 615.472C1174.8 618.992 1124.99 671.86 1079.19 718.611C1033.39 765.369 975.418 812.449 914.324 800.368C858.144 789.253 820.42 727.903 816.966 666.52C813.512 605.136 837.652 544.892 867.982 491.775C898.311 438.658 935.302 389.79 962.149 334.625C988.996 279.451 1005.25 214.955 989.944 156.027C983.317 130.539 970.902 106.946 954.051 87.846C889.882 15.1032 776.775 21.3088 689.707 63.2497C602.632 105.198 529.448 175.495 444.411 222.18C359.375 268.873 249.814 288.053 175.629 227.187C97.9965 163.493 82.6456 36.1855 126.573 -44.312" stroke="#B693C8" stroke-width="2" stroke-miterlimit="10"/>
</g>
</g>
</svg>
