<svg width="1440" height="1624" viewBox="0 0 1440 1624" fill="none" xmlns="http://www.w3.org/2000/svg">
<mask id="mask0_1222_40061" style="mask-type:alpha" maskUnits="userSpaceOnUse" x="0" y="0" width="1440" height="1624">
<rect width="1440" height="1624" fill="#C4C4C4"/>
</mask>
<g mask="url(#mask0_1222_40061)">
<path d="M1783.33 2120.59C1803.43 2017.52 1823.56 1911.22 1803.45 1808.78C1783.33 1706.35 1712.61 1607.58 1611.65 1588.99C1511.78 1570.61 1415.41 1631.8 1327.43 1685.25C1239.44 1738.7 1132.09 1788.02 1039.46 1746.49C954.292 1708.29 915.014 1600.98 929.955 1506.64C944.895 1412.3 1003.11 1330.17 1068.74 1261.2C1134.37 1192.22 1209.13 1132.22 1269.93 1058.82C1330.74 985.41 1377.9 893.844 1373.27 798.718C1371.26 757.571 1359.46 717.097 1339.16 681.747C1261.84 547.114 1080.86 513.53 929.193 544C777.512 574.478 638.38 653.2 488.35 691.632C338.316 730.075 158.637 717.503 61.5227 597.062C-40.104 471.026 -10.1027 278.356 66.0068 132.287" stroke="#4CC4B0" stroke-miterlimit="10"/>
</g>
</svg>
