<svg width="1440" height="1249" viewBox="0 0 1440 1249" fill="none" xmlns="http://www.w3.org/2000/svg">
<mask id="mask0_197_21402" style="mask-type:alpha" maskUnits="userSpaceOnUse" x="0" y="0" width="1440" height="1249">
<rect width="1440" height="1249" fill="#C4C4C4"/>
</mask>
<g mask="url(#mask0_197_21402)">
<path d="M1812.33 2105.59C1832.43 2002.52 1852.56 1896.22 1832.45 1793.78C1812.33 1691.35 1741.61 1592.58 1640.65 1573.99C1540.78 1555.61 1444.41 1616.8 1356.43 1670.25C1268.44 1723.7 1161.09 1773.02 1068.46 1731.49C983.292 1693.29 944.014 1585.98 958.955 1491.64C973.895 1397.3 1032.11 1315.17 1097.74 1246.2C1163.37 1177.22 1238.13 1117.22 1298.93 1043.82C1359.74 970.41 1406.9 878.844 1402.27 783.718C1400.26 742.571 1388.46 702.097 1368.16 666.747C1290.84 532.114 1109.86 498.53 958.193 529C806.512 559.478 667.38 638.2 517.35 676.632C367.316 715.075 187.637 702.503 90.5227 582.062C-11.104 456.026 18.8973 263.356 95.0068 117.287" stroke="#4CC4B0" stroke-miterlimit="10"/>
</g>
</svg>
