<svg width="1440" height="948" viewBox="0 0 1440 948" fill="none" xmlns="http://www.w3.org/2000/svg">
<mask id="mask0_197_21416" style="mask-type:alpha" maskUnits="userSpaceOnUse" x="0" y="0" width="1440" height="948">
<rect width="1440" height="948" fill="#C4C4C4"/>
</mask>
<g mask="url(#mask0_197_21416)">
<path d="M2033.17 1267.85C2011.58 1165.08 1988.75 1059.33 1930.35 972.793C1871.95 886.259 1768.37 822.802 1668.14 844.974C1568.98 866.913 1504.03 960.782 1443.78 1044.26C1383.54 1127.74 1303.84 1214.95 1202.35 1212.74C1109.03 1210.71 1031.09 1127.14 1008.13 1034.42C985.178 941.701 1006.84 843.395 1040.45 754.317C1074.07 665.239 1119.58 580.874 1147.02 489.596C1174.46 398.306 1182.27 295.606 1140.98 209.781C1123.12 172.661 1096.5 139.968 1064.04 115.307C940.414 21.3824 760.634 60.8795 632.784 147.974C504.924 235.081 407.399 361.744 284.155 455.536C160.912 549.34 -9.49515 607.687 -145.827 534.538C-288.492 457.99 -335.841 268.834 -322.58 104.661" stroke="#4CC4B0" stroke-miterlimit="10"/>
</g>
</svg>
