<svg width="255" height="85" viewBox="0 0 255 85" fill="none" xmlns="http://www.w3.org/2000/svg">
<g clip-path="url(#clip0_848_50108)">
<path d="M45.3788 53.7374V54.3038H25.8452V53.7374C29.3474 53.2566 30.402 52.2951 30.402 49.3247V25.8849C30.402 19.9574 28.2065 16.7302 23.4043 16.7302C19.3318 16.7302 16.8909 19.2988 15.75 22.1111V49.3313C15.75 52.3017 16.8113 53.283 20.3134 53.744V54.3104H0.773193V53.744C4.52073 53.1842 6.14575 52.1436 6.14575 48.9296V22.6709C6.14575 18.1726 4.92533 17.211 0.773193 17.29V16.7302L15.75 12.7127V21.0112C17.1363 16.1968 21.8589 12.502 28.1269 12.502C36.1791 12.502 40.0659 17.481 40.0659 25.1077V48.9493C40.0659 52.1633 41.618 53.2039 45.3722 53.7638" fill="#30426D"/>
<path d="M87.1322 53.7374V54.3038H72.1554V47.2369C71.295 49.6448 69.7082 51.7308 67.611 53.211C65.5138 54.6912 63.0081 55.4936 60.4352 55.509C53.1391 55.509 48.4961 51.4125 48.4961 42.4225V21.3076C48.4961 16.7302 47.3553 15.7687 43.1235 15.8477V15.2879L58.1005 12.7127V41.6915C58.1005 47.3884 60.8664 50.6024 65.3966 50.4444C66.8298 50.4224 68.227 49.9949 69.4242 49.2122C70.6214 48.4294 71.5688 47.3238 72.1554 46.0251V21.2285C72.1554 16.6512 71.1803 15.683 67.4328 15.683V15.2022L81.8392 12.7127V48.0141C81.8392 52.1106 83.5505 53.2303 87.1455 53.7111" fill="#30426D"/>
<path d="M115.534 12.4493V21.9201H115.129C113.95 21.4185 112.67 21.1931 111.388 21.2614C106.016 21.2614 102.514 24.3898 102.514 35.2305V48.8769C102.514 52.249 104.139 53.2896 109.432 53.6913V54.2577H87.5435V53.6913C91.291 53.1315 92.9161 52.0909 92.9161 48.8769V23.1517C92.9161 18.4163 91.6956 17.2242 87.5435 17.29V16.7302L102.136 12.7127V29.415H102.461C103.19 17.6918 107.833 12.4756 114.91 12.4756L115.534 12.4493Z" fill="#30426D"/>
<path d="M146.463 45.709C144.672 51.5706 140.606 55.509 134.418 55.509C128.229 55.509 125.218 51.6496 125.218 45.6299V15.1232H119.912V14.6424C123.104 13.4554 126.027 11.6523 128.514 9.33719C131 7.02209 133 4.24089 134.398 1.15415H134.802V13.7665H143.591V15.1298H134.842V44.1085C134.842 48.0602 136.388 50.6946 139.565 50.6946C142.742 50.6946 144.692 48.7715 145.833 45.4785L146.463 45.709Z" fill="#30426D"/>
<path d="M190.412 53.7374V54.3038H175.435V47.2369C174.575 49.6453 172.989 51.7319 170.891 53.2122C168.794 54.6925 166.288 55.4946 163.715 55.509C156.419 55.509 151.776 51.4125 151.776 42.4225V21.3076C151.776 16.7302 150.635 15.7687 146.403 15.8477V15.2879L161.373 12.7127V41.6915C161.373 47.3884 164.146 50.6024 168.669 50.4444C170.103 50.4256 171.5 50.001 172.699 49.2205C173.897 48.44 174.847 47.336 175.435 46.0383V21.2285C175.435 16.6512 174.46 15.683 170.719 15.683V15.2022L185.125 12.7127V48.0141C185.125 52.1106 186.83 53.2303 190.432 53.7111" fill="#30426D"/>
<path d="M218.82 12.4493V21.9201H218.416C217.236 21.4178 215.956 21.1924 214.675 21.2614C209.302 21.2614 205.8 24.3898 205.8 35.2305V48.8769C205.8 52.249 207.432 53.2896 212.725 53.6913V54.2577H190.836V53.6913C194.584 53.1315 196.209 52.0909 196.209 48.8769V23.1517C196.209 18.4163 194.989 17.2242 190.836 17.29V16.7302L205.429 12.7127V29.415H205.754C206.477 17.7181 211.12 12.4493 218.17 12.4493H218.82Z" fill="#30426D"/>
<path d="M226.959 28.4534H243.806C243.965 18.3372 240.549 14.3987 235.913 14.3987C230.454 14.3987 226.959 19.8586 226.959 28.4534ZM253.41 40.012C251.421 51.0107 244.788 55.5091 237.372 55.5091C227.688 55.5091 219.629 48.3631 219.629 34.7102C219.629 21.7883 226.468 12.4756 237.783 12.4756C246.326 12.4756 253.324 18.3372 252.999 30.1395H226.959C227.529 41.2963 233.14 47.6387 241.551 47.6387C246.108 47.6387 250.426 46.3544 252.787 39.8539L253.41 40.012Z" fill="#30426D"/>
<path d="M177.717 71.0654C177.903 71.0589 178.088 71.0926 178.26 71.1643C178.432 71.2359 178.586 71.3437 178.712 71.4803C178.969 71.7654 179.107 72.1379 179.096 72.5209C179.11 72.9044 178.972 73.2778 178.712 73.5615C178.588 73.7007 178.434 73.8107 178.262 73.8836C178.09 73.9565 177.904 73.9905 177.717 73.983C177.349 73.9908 176.994 73.8534 176.728 73.601C176.591 73.4577 176.485 73.2879 176.416 73.1021C176.348 72.9162 176.319 72.7184 176.33 72.5209C176.318 72.3243 176.347 72.1273 176.415 71.9425C176.484 71.7576 176.59 71.589 176.728 71.4474C176.859 71.3212 177.014 71.2224 177.183 71.1567C177.353 71.0911 177.534 71.0601 177.717 71.0654ZM177.856 70.0643C177.334 70.0549 176.824 70.2221 176.41 70.5385V68.6088L176.284 68.5166L175.269 68.6351V74.8656H176.304V74.3847C176.723 74.7768 177.28 74.9897 177.856 74.9775C178.176 74.9858 178.493 74.9267 178.788 74.8041C179.083 74.6815 179.349 74.4981 179.567 74.2662C179.996 73.7846 180.233 73.1639 180.233 72.5209C180.233 71.878 179.996 71.2572 179.567 70.7756C179.347 70.5441 179.08 70.3612 178.784 70.2387C178.488 70.1161 178.17 70.0567 177.849 70.0643" fill="#51CCB8"/>
<path d="M184.204 70.1894V72.2904V72.4221C184.219 72.7117 184.119 72.9958 183.925 73.2124C183.825 73.3123 183.704 73.3902 183.572 73.4412C183.439 73.4922 183.297 73.5153 183.156 73.5088C183.022 73.5158 182.888 73.4942 182.763 73.4453C182.638 73.3964 182.526 73.3215 182.433 73.2256C182.34 73.1244 182.268 73.0059 182.221 72.8771C182.175 72.7483 182.154 72.6116 182.161 72.4748V70.1894H181.02V72.5077C181.008 72.7716 181.049 73.0352 181.141 73.2829C181.234 73.5307 181.375 73.7575 181.557 73.9501C181.739 74.1312 181.957 74.2733 182.196 74.3673C182.436 74.4614 182.692 74.5054 182.95 74.4967C183.192 74.5102 183.434 74.4751 183.662 74.3936C183.89 74.3121 184.099 74.1859 184.276 74.0225V74.2399C184.289 74.4073 184.263 74.5753 184.201 74.7315C184.139 74.8877 184.042 75.028 183.918 75.1421C183.643 75.3566 183.299 75.4643 182.95 75.4451C182.7 75.4547 182.452 75.4088 182.222 75.3108C181.993 75.2128 181.788 75.0652 181.623 74.8787H181.491L180.987 75.4253V75.5505C181.229 75.8199 181.528 76.0329 181.863 76.1741C182.198 76.3153 182.56 76.3812 182.923 76.3671C183.55 76.3873 184.163 76.1866 184.655 75.8007C184.884 75.5873 185.062 75.3258 185.177 75.0353C185.292 74.7448 185.34 74.4326 185.318 74.1213V70.1697L184.204 70.1894Z" fill="#51CCB8"/>
<path d="M231.814 75.9391C231.645 75.903 231.478 75.8545 231.316 75.7942C229.632 75.1751 228.769 73.1597 229.326 71.1444C229.519 70.3114 230.03 69.5853 230.751 69.1196C231.473 68.6538 232.349 68.4848 233.193 68.6483C234.872 68.8985 236.006 70.3804 236.006 72.3101C236.006 74.7799 234.162 76.3935 231.847 75.9391H231.814ZM218.946 73.4232C218.815 74.1866 218.403 74.8745 217.79 75.3539C217.178 75.8332 216.408 76.0699 215.63 76.0181C214.822 75.996 214.049 75.6845 213.454 75.141C212.859 74.5975 212.482 73.8587 212.393 73.061C212.353 72.8041 212.346 72.5341 212.34 72.4023C212.34 70.5056 213.242 69.1817 214.688 68.7339C215.106 68.5784 215.552 68.5116 215.997 68.5379C216.442 68.5642 216.877 68.683 217.274 68.8866C217.67 69.0901 218.019 69.374 218.298 69.7198C218.577 70.0656 218.779 70.4656 218.893 70.8941C219.104 71.7123 219.133 72.5662 218.979 73.3968L218.946 73.4232ZM229.141 66.6724C229.099 66.4603 228.984 66.2693 228.816 66.1322C228.648 65.9952 228.436 65.9207 228.219 65.9216H226.136C226.014 65.9199 225.893 65.942 225.78 65.9867C225.666 66.0315 225.563 66.098 225.476 66.1824C225.388 66.2668 225.318 66.3674 225.27 66.4787C225.222 66.5899 225.196 66.7094 225.194 66.8305V67.4562C225.194 68.5034 225.194 69.3398 225.194 69.9918V73.489V74.635C225.194 74.7376 225.174 74.8392 225.134 74.9339C225.094 75.0287 225.036 75.1146 224.963 75.1869C224.889 75.2591 224.802 75.3162 224.706 75.3549C224.611 75.3936 224.508 75.413 224.405 75.4121H224.027C223.811 75.4122 223.604 75.3279 223.45 75.1776C223.296 75.0273 223.208 74.823 223.204 74.6087V72.1916V66.8305V66.791C223.191 66.5546 223.086 66.3324 222.912 66.1705C222.738 66.0087 222.508 65.9195 222.269 65.9216H220.127C219.918 65.9199 219.715 65.9877 219.551 66.1144C219.386 66.241 219.269 66.419 219.218 66.6197C216.074 64.5781 211.736 65.5462 209.846 67.9963C209.089 69.0412 208.622 70.2655 208.491 71.5462C208.361 72.827 208.572 74.1193 209.103 75.2936C208.845 75.4507 208.563 75.5643 208.267 75.6295C207.266 75.7678 206.941 75.4648 206.941 74.4769C206.941 73.2651 206.941 72.0532 206.941 70.8414C206.937 69.4277 206.369 68.0732 205.36 67.0754C204.352 66.0776 202.985 65.5181 201.561 65.5199C200.651 65.4344 199.733 65.5289 198.86 65.7979C197.987 66.067 197.176 66.5053 196.474 67.0874C195.393 65.5462 193.821 65.3355 192.169 65.5857C191.042 65.757 190.949 65.8953 190.949 66.9886V68.0818C190.949 68.7404 191.115 69.0039 191.838 68.9249C192.879 68.8129 193.164 69.0764 193.164 70.084C193.164 70.7426 193.164 71.4012 193.164 72.0599V73.5549C193.164 73.6735 193.164 73.8315 193.164 74.0225C193.164 74.062 193.164 74.0949 193.164 74.1344V77.77C193.166 77.8911 193.192 78.0106 193.24 78.1218C193.288 78.233 193.358 78.3337 193.446 78.4181C193.533 78.5025 193.637 78.569 193.75 78.6137C193.863 78.6585 193.984 78.6806 194.106 78.6789H196.249C196.371 78.6806 196.492 78.6585 196.605 78.6137C196.718 78.569 196.822 78.5025 196.909 78.4181C196.997 78.3337 197.067 78.233 197.115 78.1218C197.163 78.0106 197.189 77.8911 197.19 77.77V72.4155C197.197 72.394 197.197 72.3711 197.19 72.3496C197.19 72.1257 197.19 71.9018 197.19 71.691C197.152 71.0091 197.381 70.3388 197.83 69.8215C198.279 69.3042 198.913 68.9804 199.598 68.9183C201.588 68.6746 202.915 69.7547 202.915 71.6976C202.915 73.0807 202.915 74.4638 202.915 75.8469C202.885 76.513 203.086 77.1691 203.484 77.7059C203.883 78.2428 204.454 78.628 205.103 78.7974C206.344 79.1727 207.67 79.1727 208.911 78.7974C209.668 78.5996 210.357 78.1985 210.901 77.6382C212.211 78.5817 213.793 79.0809 215.412 79.0619C217.031 79.0429 218.6 78.5068 219.888 77.5329C220.541 78.2497 221.398 78.753 222.345 78.9764C223.293 79.1998 224.286 79.1328 225.194 78.7842V83.8489C225.196 83.97 225.222 84.0896 225.27 84.2008C225.318 84.312 225.388 84.4127 225.476 84.4971C225.563 84.5815 225.666 84.6479 225.78 84.6927C225.893 84.7374 226.014 84.7595 226.136 84.7578H228.219C228.464 84.7596 228.7 84.665 228.875 84.4947C229.05 84.3245 229.15 84.0923 229.154 83.8489V78.04C229.22 78.04 229.26 78.0861 229.26 78.04C232.988 80.1607 237.22 78.6064 238.831 76.2157C239.766 74.8869 240.199 73.2732 240.053 71.6588C239.907 70.0443 239.192 68.5329 238.034 67.3907C236.875 66.2485 235.348 65.5488 233.721 65.415C232.095 65.2812 230.472 65.7218 229.141 66.6593" fill="#51CCB8"/>
<path d="M250.034 71.3617C249.218 71.1662 248.392 71.0123 247.56 70.9007C246.839 70.8155 246.13 70.6429 245.451 70.387C245.211 70.3299 244.997 70.1969 244.84 70.0079C244.683 69.8189 244.592 69.5844 244.582 69.3398C244.59 69.1656 244.648 68.9974 244.751 68.8559C244.853 68.7143 244.995 68.6055 245.159 68.5429C245.628 68.3206 246.145 68.2166 246.665 68.2399C247.199 68.2318 247.728 68.3539 248.204 68.5956C248.613 68.7848 248.941 69.1145 249.125 69.5242C249.175 69.621 249.251 69.702 249.345 69.7579C249.439 69.8138 249.547 69.8423 249.656 69.8404H252.309C252.687 69.8404 252.846 69.6625 252.793 69.3135C252.692 68.7372 252.46 68.1913 252.115 67.7168C251.771 67.2422 251.322 66.8514 250.804 66.5736C249.524 65.8454 248.065 65.4872 246.592 65.5396C245.076 65.4672 243.576 65.8605 242.294 66.6659C241.787 66.9838 241.37 67.4258 241.085 67.9493C240.799 68.4729 240.653 69.0605 240.662 69.6559C240.615 70.5402 240.922 71.407 241.518 72.0665C242.078 72.6561 242.804 73.0665 243.6 73.2453C244.412 73.4354 245.233 73.5805 246.061 73.68C246.77 73.7509 247.468 73.8989 248.144 74.1213C248.714 74.3277 248.999 74.657 248.999 75.1092C248.992 75.292 248.931 75.4686 248.824 75.6172C248.717 75.7659 248.568 75.8801 248.396 75.9456C247.899 76.1775 247.353 76.286 246.804 76.2618C245.239 76.2618 244.268 75.7898 243.892 74.8458C243.838 74.7369 243.756 74.6449 243.653 74.5798C243.55 74.5147 243.431 74.4791 243.308 74.4769H240.655C240.264 74.4769 240.092 74.6548 240.145 75.0038C240.234 75.6302 240.467 76.2281 240.824 76.7519C241.182 77.2758 241.655 77.7118 242.207 78.0269C243.594 78.8109 245.176 79.1899 246.771 79.1201C248.356 79.2056 249.931 78.813 251.288 77.9939C251.805 77.6721 252.23 77.2227 252.521 76.6895C252.811 76.1562 252.958 75.5574 252.946 74.9512C252.967 74.5165 252.901 74.0819 252.752 73.6727C252.603 73.2635 252.373 72.8877 252.077 72.567C251.511 71.9773 250.782 71.5671 249.981 71.3881" fill="#51CCB8"/>
</g>
<defs>
<clipPath id="clip0_848_50108">
<rect width="253.824" height="85" fill="white" transform="translate(0.591797)"/>
</clipPath>
</defs>
</svg>
