<svg width="1440" height="1907" viewBox="0 0 1440 1907" fill="none" xmlns="http://www.w3.org/2000/svg">
<mask id="mask0_212_20814" style="mask-type:alpha" maskUnits="userSpaceOnUse" x="0" y="0" width="1440" height="1907">
<rect width="1440" height="1907" fill="white"/>
</mask>
<g mask="url(#mask0_212_20814)">
<mask id="mask1_212_20814" style="mask-type:alpha" maskUnits="userSpaceOnUse" x="0" y="-53" width="1440" height="1961">
<rect y="-53" width="1440" height="1961" fill="white"/>
</mask>
<g mask="url(#mask1_212_20814)">
<path d="M1614.5 1946.68C1642.99 1822.47 1671.73 1694.39 1658.27 1572.63C1644.8 1450.86 1578.35 1335.62 1474.52 1317.62C1371.81 1299.81 1266.93 1377.1 1171.35 1444.77C1075.77 1512.45 960.31 1575.98 866.847 1530.17C780.903 1488.03 747.831 1361.23 770.299 1247.69C792.767 1134.14 859.424 1033.4 932.851 948.089C1006.28 862.779 1088.56 787.823 1157.28 697.414C1226 606.992 1281.83 495.415 1283.97 381.753C1284.88 332.589 1275.56 284.641 1256.98 243.183C1186.27 85.2901 1000.17 52.6966 839.927 95.5386C679.665 138.39 528.947 238.458 369.822 290.761C210.693 343.078 24.4086 335.579 -67.9617 195.504C-164.624 48.9206 -131.291 -189.747 -23.3128 -319.824" stroke="#4CC4B0" stroke-width="2" stroke-miterlimit="10"/>
</g>
</g>
</svg>
