<svg width="1440" height="1299" viewBox="0 0 1440 1299" fill="none" xmlns="http://www.w3.org/2000/svg">
<mask id="mask0_212_20791" style="mask-type:alpha" maskUnits="userSpaceOnUse" x="0" y="0" width="1440" height="1299">
<rect width="1440" height="1299" fill="white"/>
</mask>
<g mask="url(#mask0_212_20791)">
<path d="M1614.5 1940C1639.8 1827.08 1665.33 1710.65 1652.54 1599.77C1639.76 1488.89 1578.88 1383.71 1484.51 1366.86C1391.14 1350.2 1296.25 1420.07 1209.75 1481.22C1123.26 1542.39 1018.69 1599.7 933.597 1557.58C855.352 1518.85 824.739 1403.3 844.626 1300.07C864.514 1196.83 924.591 1105.44 990.887 1028.13C1057.18 950.815 1131.56 882.965 1193.56 800.991C1255.56 719.005 1305.76 617.708 1307.18 514.273C1307.79 469.533 1299.1 425.854 1282.04 388.039C1217.11 244.023 1047.95 213.527 902.609 251.8C757.257 290.083 620.834 380.481 476.559 427.37C332.279 474.271 163.065 466.612 78.5375 338.716C-9.9177 204.877 19.267 -12.1861 116.737 -130.087" stroke="#4CC4B0" stroke-width="2" stroke-miterlimit="10"/>
</g>
</svg>
