<svg width="1440" height="1654" viewBox="0 0 1440 1654" fill="none" xmlns="http://www.w3.org/2000/svg">
<path d="M1551.54 2229.39C1580.45 2104.85 1609.67 1976.45 1599.77 1855.21C1589.86 1733.97 1530.86 1620.32 1435.32 1604.48C1340.8 1588.81 1242.3 1668.08 1152.59 1737.55C1062.88 1807.05 954.884 1872.81 869.491 1829C790.968 1788.7 763.054 1662.84 786.174 1549.07C809.295 1435.3 872.972 1333.4 942.584 1246.77C1012.2 1160.13 1089.77 1083.65 1155.14 992.022C1220.51 900.382 1274.41 787.894 1278.75 674.422C1280.62 625.34 1273 577.681 1256.71 536.687C1194.67 380.561 1023.42 351.835 874.48 397.861C725.53 443.897 584.205 546.837 436.109 602.282C288.008 657.74 116.064 654.06 33.6425 516.158C-52.6087 371.849 -16.8461 132.991 85.617 0.975742" stroke="#4CC4B0" stroke-width="2" stroke-miterlimit="10"/>
</svg>
