<svg width="1440" height="1349" viewBox="0 0 1440 1349" fill="none" xmlns="http://www.w3.org/2000/svg">
<mask id="mask0_194_20734" style="mask-type:alpha" maskUnits="userSpaceOnUse" x="0" y="0" width="1440" height="1349">
<rect width="1440" height="1349" fill="#C4C4C4"/>
</mask>
<g mask="url(#mask0_194_20734)">
<path d="M1360.55 2145.47C1404.83 2050.25 1449.9 1951.89 1454.99 1847.62C1460.07 1743.35 1415.15 1630.49 1321.61 1588.19C1229.07 1546.36 1120.83 1582.61 1022.59 1613.35C924.334 1644.11 808.272 1666.19 728.339 1603.62C654.838 1546.08 642.49 1432.47 679.657 1344.49C716.824 1256.5 793.06 1190.76 873.34 1139.57C953.62 1088.39 1040.6 1048.1 1117.26 991.458C1193.92 934.803 1261.69 857.247 1280.05 763.795C1287.99 723.37 1286.26 681.248 1275.04 642.054C1232.33 492.789 1064.72 416.712 910.172 409.855C755.612 403.002 601.643 445.995 446.773 447.26C291.898 448.535 120.501 393.166 55.1638 252.923C-13.2091 106.164 62.1987 -73.6567 171.17 -197.165" stroke="#F57D7D" stroke-width="2" stroke-miterlimit="10"/>
</g>
</svg>
