<svg width="943" height="604" viewBox="0 0 943 604" fill="none" xmlns="http://www.w3.org/2000/svg">
<path d="M972.179 21.7773C910.061 8.2497 845.988 -5.33258 783.722 5.49227C721.456 16.3171 660.745 57.8191 648.167 118.678C635.726 178.886 671.491 238.017 702.68 291.972C733.875 345.93 762.309 411.558 735.953 467.07C711.712 518.117 646.242 540.476 589.339 530.19C532.436 519.904 483.497 483.59 442.616 442.957C401.735 402.324 366.405 356.287 322.78 318.518C279.149 280.748 224.35 250.999 166.714 252.547C141.784 253.222 117.132 259.827 95.468 271.652C12.9634 316.677 -9.74805 425.77 6.69558 517.967C11.8498 546.861 19.8877 575.072 29.1506 603" stroke="#F57D7D" stroke-width="2" stroke-miterlimit="10"/>
</svg>
