<svg width="172" height="156" viewBox="0 0 172 156" fill="none" xmlns="http://www.w3.org/2000/svg">
<path d="M24.6249 74.0146C38.9805 75.3452 54.3757 74.8531 64.7275 64.7706C68.8963 60.7135 72.6651 56.2245 74.9694 50.8217C77.3236 45.2934 79.6029 37.2344 77.9385 31.3094C76.284 25.4246 68.0115 27.2021 64.3177 29.8583C57.6547 34.6535 54.7006 43.0088 52.3414 50.892C46.1133 71.7249 41.3848 93.0147 38.2157 114.53C39.3854 104.388 44.2839 94.7119 51.8065 87.8278C53.0561 86.683 54.6057 85.8445 56.2801 85.5984C61.5185 84.8201 63.7478 89.9016 63.4629 94.1445C63.238 97.5036 61.8984 100.702 61.5635 104.051C61.2286 107.4 62.2783 111.312 65.3224 112.718C67.5317 113.732 70.2158 113.104 72.2102 111.719C74.2046 110.333 75.6442 108.294 76.9887 106.261C81.6823 99.1707 89.08 83.826 89.08 83.826C86.1459 89.1635 80.2477 110.378 94.9932 111.844C105.97 112.934 117.106 109.057 126.004 102.58C137.565 94.1646 144.853 79.6031 143.208 65.358C141.564 51.113 130.272 38.1282 116.167 35.9289C109.274 34.8544 101.436 36.5515 97.6723 42.9134C95.458 46.6592 95.458 51.5096 98.2322 54.8588C103.361 61.0649 112.758 57.5401 116.971 51.4996C124.394 40.8697 120.49 25.2237 111.183 16.2107C92.0891 -2.28731 60.2289 -1.36843 38.4407 11.1695C17.2972 23.3358 3.08159 46.8399 2.06191 71.2981C1.61704 82.0434 3.57644 92.8842 7.72516 102.801C16.3875 123.518 34.9367 139.797 56.5351 145.647C78.1334 151.496 102.311 146.782 120.165 133.249C130.712 149.106 151.551 157.271 170 152.772C155 146.716 142.813 133.998 137.355 118.713" stroke="white" stroke-width="4" stroke-linejoin="round"/>
</svg>
