<svg width="61" height="48" viewBox="0 0 61 48" fill="none" xmlns="http://www.w3.org/2000/svg">
<path d="M17.3606 45.0172C20.5322 44.9752 23.6977 44.7552 26.8484 44.3637C31.6594 43.7652 36.6915 42.6199 40.2901 39.1096C44.901 34.6094 46.4838 27.1197 44.1425 20.9177C40.6753 11.736 29.6765 10.8625 22.5002 15.1493C17.8026 17.9542 16.4468 23.6839 17.4532 29.1191C18.1699 32.9885 20.2813 36.4696 23.0049 39.0417C26.932 42.7493 32.1552 44.8975 37.238 45.8422C41.9296 46.7157 47.2423 47.4566 51.9728 46.6607C53.8393 46.3469 55.7296 45.7096 57.1183 44.3249C60.8722 40.5752 59.8807 34.48 59.8837 29.6044C59.8897 22.943 59.7344 16.2784 59.4208 9.62342C59.3939 9.04754 59.3402 8.4102 58.946 8.02197C58.6742 7.75344 58.292 7.66609 57.9306 7.58521C56.518 7.27786 55.0637 6.97051 53.6422 7.2358C52.2206 7.50109 50.817 8.46843 50.396 9.95989C49.9749 11.4513 50.9305 13.3537 52.37 13.399C53.7736 13.4443 54.8337 11.7102 54.565 10.2187C54.2962 8.72725 53.0449 7.62079 51.701 7.18727C50.3571 6.75051 48.9177 6.86374 47.5231 7.00286C46.448 7.10962 44.3904 7.99285 43.7154 6.74727C43.0554 5.53081 43.366 3.52495 43.381 2.19202C43.381 1.92996 43.372 1.63232 43.1898 1.45761C43.0465 1.32173 42.8404 1.30556 42.6493 1.29909C36.2405 1.02732 29.8288 0.939973 23.417 1.04027C22.9242 1.04674 22.4106 1.06291 21.9686 1.30232C21.1444 1.75202 20.8189 2.84554 20.7322 3.842C20.6456 4.83847 20.7113 5.88346 20.3321 6.7958C19.8124 8.29373 14.2996 7.35874 12.9587 7.36844C11.9254 7.37815 10.8593 7.37815 9.90662 6.94786C8.95396 6.51757 8.13271 5.53081 8.17153 4.41465C8.20438 3.45054 8.87034 2.60937 9.67667 2.20496C10.483 1.80055 11.4088 1.76173 12.2957 1.83938C13.5022 1.94614 14.7804 2.30849 15.5598 3.31142C16.3393 4.31435 16.3243 6.09375 15.2731 6.74404C14.8043 7.03521 14.2399 7.05462 13.7023 7.05786C10.8563 7.07727 8.01026 6.84756 5.20008 6.37522C4.3848 6.23933 3.39332 6.15198 2.89459 6.86374C2.69749 7.14521 2.62283 7.50109 2.55713 7.84726C1.68511 12.3831 1.84638 16.8801 1.62837 21.4904C1.30584 28.2359 0.463681 35.5282 1.50294 42.2672C1.58656 42.8172 1.69706 43.3769 1.97479 43.846C2.70645 45.0884 4.28326 45.2825 5.64505 45.2793C7.77733 45.276 9.92752 44.8263 12.0449 44.9299" stroke="#4CC4B0" stroke-miterlimit="10"/>
</svg>
