<svg width="574" height="92" viewBox="0 0 574 92" fill="none" xmlns="http://www.w3.org/2000/svg">
<rect width="574" height="92" rx="10" fill="#FBF8EF"/>
<mask id="mask0_591_37794" style="mask-type:alpha" maskUnits="userSpaceOnUse" x="0" y="0" width="574" height="92">
<rect width="574" height="92" fill="#FBF8EF"/>
</mask>
<g mask="url(#mask0_591_37794)">
<path d="M-14.1743 54.4758C-13.444 46.7923 -9.48541 39.3845 -3.46344 34.4374C2.55782 29.4897 10.5594 27.0692 18.1844 27.8884C19.4379 28.0228 20.7457 28.2704 21.6884 29.0889C22.6312 29.9073 23.0329 31.4656 22.2344 32.4683C20.9417 34.0909 18.3311 32.7862 17.168 31.1311C13.8286 26.3777 14.34 19.4872 17.5972 14.5079C20.8552 9.52797 26.4314 6.36095 32.1987 5.08559C37.9667 3.8109 43.9394 4.25714 49.7017 5.25912C54.6554 6.12085 59.5855 7.39198 64.6374 7.25852C69.6886 7.12301 75.0468 5.32411 78.114 1.2256C82.3546 -4.44142 80.8473 -12.6511 76.926 -18.3372C73.0047 -24.0234 67.1532 -28.0061 62.1109 -32.7156C57.0686 -37.4251 52.5645 -43.5445 52.7121 -50.5401C52.8457 -56.876 56.8183 -62.6463 61.5584 -66.9639C71.3388 -75.8722 85.669 -80.1488 97.9872 -76.1451C110.305 -72.1406 119.375 -59.0713 117.206 -46.1298" stroke="#B693C8" stroke-miterlimit="10"/>
<path d="M576.957 33.6735C571.477 33.0727 565.83 32.4789 560.674 33.5782C555.518 34.6775 550.918 37.9088 550.687 42.2248C550.459 46.4947 554.324 50.4231 557.727 54.0157C561.131 57.6084 564.46 62.0307 562.982 66.0498C561.621 69.7456 556.352 71.6674 551.361 71.264C546.37 70.8606 541.698 68.597 537.654 65.9876C533.609 63.3782 529.962 60.361 525.723 57.9666C521.483 55.5721 516.403 53.799 511.513 54.2254C509.398 54.4102 507.389 55.0073 505.706 55.9521C499.298 59.5496 498.871 67.2873 501.546 73.6297C504.221 79.9727 509.303 85.6679 512.378 91.9218C515.454 98.1758 516.105 105.808 510.575 110.208C504.787 114.813 494.37 114.532 488.223 110.715" stroke="#B693C8" stroke-miterlimit="10"/>
</g>
</svg>
