<svg width="1178" height="263" viewBox="0 0 1178 263" fill="none" xmlns="http://www.w3.org/2000/svg">
<mask id="mask0_594_37801" style="mask-type:alpha" maskUnits="userSpaceOnUse" x="0" y="0" width="1178" height="263">
<rect width="1178" height="263" rx="14" fill="#B693C8"/>
</mask>
<g mask="url(#mask0_594_37801)">
<path d="M180.57 186.789C165.406 179.303 149.506 174.471 133.3 172.421C115.417 170.161 99.9301 171.73 87.2563 177.078C72.0413 183.505 60.6268 196.188 57.4771 210.175C57.3238 210.863 57.1871 211.56 57.0747 212.256C54.6347 227.352 62.3027 243.127 74.9123 248.954C86.6502 254.376 101.869 252.09 120.139 242.144C144.501 228.888 165.545 210.327 180.997 188.463L181.767 187.375L180.565 186.783L180.57 186.789ZM257.481 270.714C257.051 270.846 256.632 270.985 256.206 271.13C252.359 260.33 247.386 250.109 241.359 240.719C229.7 222.546 213.583 206.642 194.758 194.748C191.493 192.687 188.11 190.721 184.697 188.905L183.813 188.432L183.242 189.249C167.545 211.63 146.109 230.61 121.246 244.142C102.311 254.445 86.4091 256.76 73.9781 251.017C60.4676 244.781 52.2391 227.94 54.8396 211.85C54.9577 211.12 55.101 210.382 55.259 209.664C58.5639 194.977 70.4847 181.689 86.3575 174.982C99.3996 169.474 115.285 167.852 133.569 170.162C150.24 172.272 166.587 177.275 182.156 185.045L183.051 185.49L183.606 184.659C188.792 176.877 193.289 168.679 196.978 160.309C202.219 148.396 205.93 135.841 208.005 123.005C212.129 97.4919 209.671 71.815 200.899 48.7498C194.164 31.0316 183.345 14.5716 169.616 1.13936C155.934 -12.249 139.616 -22.3356 122.361 -28.0788L123.042 -30.2449C140.628 -24.398 157.263 -14.12 171.205 -0.478002C185.173 13.1864 196.173 29.9349 203.027 47.961C211.936 71.4034 214.437 97.4836 210.248 123.4C208.143 136.423 204.378 149.16 199.062 161.241C195.396 169.579 190.928 177.746 185.788 185.506L185.097 186.548L186.202 187.141C189.508 188.909 192.791 190.823 195.957 192.825C215.071 204.905 231.426 221.041 243.267 239.503C249.398 249.067 254.467 259.478 258.372 270.474C258.073 270.543 257.777 270.626 257.474 270.719" fill="#FBF8EF"/>
<path d="M1375.03 56.5964C1351.51 43.6853 1327.22 30.5178 1300.73 27.4416C1274.24 24.3655 1244.71 33.8872 1232.33 57.0039C1220.09 79.874 1227.48 108.08 1233.63 133.645C1239.8 159.211 1243.44 189.168 1226.13 208.472C1210.21 226.222 1181.04 227.429 1159.25 216.454C1137.46 205.478 1122.01 184.926 1110.34 163.591C1098.66 142.256 1089.88 119.4 1076.75 98.8952C1063.62 78.3891 1045.01 59.7914 1021.51 53.5165C1011.34 50.8041 1000.58 50.5249 990.396 52.715C951.624 61.0525 929.372 102.471 924.985 141.742C920.599 181.017 928.927 220.993 926.605 260.485C924.285 299.979 907.246 342.717 870.387 356.974C831.816 371.894 787.273 349.604 757.656 319.722" stroke="#FBF8EF" stroke-width="2" stroke-miterlimit="10"/>
</g>
</svg>
