<svg width="24" height="24" viewBox="0 0 24 24" fill="none" xmlns="http://www.w3.org/2000/svg">
<path d="M18.8573 12V20.5714H5.143V12M12.0001 20.5714V7.7143M12.0001 7.7143H8.143C7.57468 7.7143 7.02963 7.48854 6.62777 7.08668C6.2259 6.68481 6.00014 6.13977 6.00014 5.57145C6.00014 5.00313 6.2259 4.45808 6.62777 4.05622C7.02963 3.65435 7.57468 3.42859 8.143 3.42859C11.143 3.42859 12.0001 7.7143 12.0001 7.7143ZM12.0001 7.7143H15.8573C16.4256 7.7143 16.9706 7.48854 17.3725 7.08668C17.7744 6.68481 18.0001 6.13977 18.0001 5.57145C18.0001 5.00313 17.7744 4.45808 17.3725 4.05622C16.9706 3.65435 16.4256 3.42859 15.8573 3.42859C12.8573 3.42859 12.0001 7.7143 12.0001 7.7143ZM3.42871 7.7143H20.5716V12H3.42871V7.7143Z" stroke="#3267AF" stroke-linecap="round" stroke-linejoin="round"/>
</svg>
