<svg width="32" height="32" viewBox="0 0 32 32" fill="none" xmlns="http://www.w3.org/2000/svg">
<rect width="32" height="32" rx="6" fill="#7B798E"/>
<path d="M16.0001 8.14282V23.8571M19.5715 11H14.2144C13.5513 11 12.9154 11.2634 12.4466 11.7322C11.9777 12.201 11.7144 12.8369 11.7144 13.5C11.7144 14.163 11.9777 14.7989 12.4466 15.2677C12.9154 15.7366 13.5513 16 14.2144 16H17.7858C18.4488 16 19.0847 16.2634 19.5536 16.7322C20.0224 17.201 20.2858 17.8369 20.2858 18.5C20.2858 19.163 20.0224 19.7989 19.5536 20.2677C19.0847 20.7366 18.4488 21 17.7858 21H11.7144" stroke="white" stroke-linecap="round" stroke-linejoin="round"/>
</svg>
