<svg width="20" height="20" viewBox="0 0 20 20" fill="none" xmlns="http://www.w3.org/2000/svg">
<path d="M15.7141 10V17.1429H4.2855V10M9.99979 17.1429V6.42858M9.99979 6.42858H6.7855C6.3119 6.42858 5.8577 6.24044 5.52281 5.90555C5.18793 5.57067 4.99979 5.11646 4.99979 4.64286C4.99979 4.16926 5.18793 3.71506 5.52281 3.38017C5.8577 3.04528 6.3119 2.85715 6.7855 2.85715C9.2855 2.85715 9.99979 6.42858 9.99979 6.42858ZM9.99979 6.42858H13.2141C13.6877 6.42858 14.1419 6.24044 14.4768 5.90555C14.8117 5.57067 14.9998 5.11646 14.9998 4.64286C14.9998 4.16926 14.8117 3.71506 14.4768 3.38017C14.1419 3.04528 13.6877 2.85715 13.2141 2.85715C10.7141 2.85715 9.99979 6.42858 9.99979 6.42858ZM2.85693 6.42858H17.1426V10H2.85693V6.42858Z" stroke="#1F1E2C" stroke-linecap="round" stroke-linejoin="round"/>
</svg>
