<svg width="24" height="22" viewBox="0 0 24 22" fill="none" xmlns="http://www.w3.org/2000/svg">
<path d="M21.0619 3.06215C20.5383 2.52161 19.9166 2.09282 19.2324 1.80028C18.5481 1.50773 17.8147 1.35715 17.0741 1.35715C16.3334 1.35715 15.6 1.50773 14.9158 1.80028C14.2316 2.09282 13.6099 2.52161 13.0863 3.06215L11.9997 4.18342L10.913 3.06215C9.85538 1.97082 8.42093 1.35772 6.92522 1.35772C5.42951 1.35772 3.99507 1.97082 2.93744 3.06215C1.87981 4.15348 1.28564 5.63364 1.28564 7.17701C1.28564 8.72038 1.87981 10.2005 2.93744 11.2919L4.02408 12.4131L11.9997 20.6429L19.9752 12.4131L21.0619 11.2919C21.5857 10.7516 22.0013 10.1101 22.2848 9.40406C22.5683 8.69802 22.7142 7.94126 22.7142 7.17701C22.7142 6.41276 22.5683 5.656 22.2848 4.94995C22.0013 4.24391 21.5857 3.60243 21.0619 3.06215V3.06215Z" stroke="#BDBDBD" stroke-width="2" stroke-linecap="round" stroke-linejoin="round"/>
</svg>
