<svg width="28" height="28" viewBox="0 0 28 28" fill="none" xmlns="http://www.w3.org/2000/svg">
<path d="M18.9593 13.7005C18.9593 16.241 16.8998 18.3005 14.3593 18.3005C11.8188 18.3005 9.75928 16.241 9.75928 13.7005C9.75928 11.16 11.8188 9.10046 14.3593 9.10046C16.8998 9.10046 18.9593 11.16 18.9593 13.7005Z" stroke="white" stroke-width="2"/>
<mask id="path-2-inside-1" fill="white">
<path d="M19.5591 3.90039H9.55908C6.79766 3.90039 4.55908 6.13897 4.55908 8.90039V18.9004C4.55908 21.6618 6.79766 23.9004 9.55908 23.9004H19.5591C22.3205 23.9004 24.5591 21.6618 24.5591 18.9004V8.90039C24.5591 6.13897 22.3205 3.90039 19.5591 3.90039Z"/>
</mask>
<path d="M9.55908 5.90039H19.5591V1.90039H9.55908V5.90039ZM19.5591 5.90039C21.2159 5.90039 22.5591 7.24354 22.5591 8.90039H26.5591C26.5591 5.0344 23.4251 1.90039 19.5591 1.90039V5.90039ZM22.5591 8.90039V18.9004H26.5591V8.90039H22.5591ZM22.5591 18.9004C22.5591 20.5572 21.2159 21.9004 19.5591 21.9004V25.9004C23.4251 25.9004 26.5591 22.7664 26.5591 18.9004H22.5591ZM19.5591 21.9004H9.55908V25.9004H19.5591V21.9004ZM9.55908 21.9004C7.90223 21.9004 6.55908 20.5572 6.55908 18.9004H2.55908C2.55908 22.7664 5.69309 25.9004 9.55908 25.9004V21.9004ZM6.55908 18.9004V8.90039H2.55908V18.9004H6.55908ZM6.55908 8.90039C6.55908 7.24354 7.90223 5.90039 9.55908 5.90039V1.90039C5.69309 1.90039 2.55908 5.0344 2.55908 8.90039H6.55908Z" fill="white" mask="url(#path-2-inside-1)"/>
<ellipse cx="19.9591" cy="8.10044" rx="1.4" ry="1.4" fill="white"/>
</svg>
