<svg width="42" height="42" viewBox="0 0 42 42" fill="none" xmlns="http://www.w3.org/2000/svg">
<path d="M17.2454 28.8895L17.1582 28.3972L17.3358 28.3657L17.4926 28.4549L17.2454 28.8895ZM13.9162 25.6431L14.3444 25.3849L14.4809 25.6113L14.3706 25.8516L13.9162 25.6431ZM11.9999 29.8184L12.0871 30.3107L11.1474 30.4771L11.5455 29.6098L11.9999 29.8184ZM21.7721 30.5833C20.0368 30.5833 18.4069 30.1257 16.9981 29.3241L17.4926 28.4549C18.7547 29.173 20.2147 29.5833 21.7721 29.5833V30.5833ZM31.4387 20.9167C31.4387 26.2554 27.1108 30.5833 21.7721 30.5833V29.5833C26.5585 29.5833 30.4387 25.7031 30.4387 20.9167H31.4387ZM21.7721 11.25C27.1108 11.25 31.4387 15.5779 31.4387 20.9167H30.4387C30.4387 16.1302 26.5585 12.25 21.7721 12.25V11.25ZM12.1054 20.9167C12.1054 15.5779 16.4333 11.25 21.7721 11.25V12.25C16.9856 12.25 13.1054 16.1302 13.1054 20.9167H12.1054ZM13.488 25.9012C12.6102 24.4454 12.1054 22.7392 12.1054 20.9167H13.1054C13.1054 22.5522 13.558 24.0805 14.3444 25.3849L13.488 25.9012ZM14.3706 25.8516L12.4543 30.0269L11.5455 29.6098L13.4618 25.4345L14.3706 25.8516ZM11.9127 29.326L17.1582 28.3972L17.3326 29.3818L12.0871 30.3107L11.9127 29.326Z" fill="#1F1E2C"/>
<ellipse rx="0.916668" ry="0.916667" transform="matrix(-1 0 0 1 25.4386 23.6667)" fill="#1F1E2C"/>
<ellipse rx="0.916666" ry="0.916667" transform="matrix(-1 0 0 1 21.7718 23.6667)" fill="#1F1E2C"/>
<circle r="0.916667" transform="matrix(-1 0 0 1 18.1053 23.6667)" fill="#1F1E2C"/>
<circle cx="21" cy="21" r="20.5" stroke="#E6E5EB"/>
</svg>
