<svg width="24" height="24" viewBox="0 0 24 24" fill="none" xmlns="http://www.w3.org/2000/svg">
<rect width="24" height="24" rx="6" fill="#7B798E"/>
<rect width="15" height="15" transform="translate(4.5 4.5)" fill="#7B798E"/>
<path fill-rule="evenodd" clip-rule="evenodd" d="M12 17.625C12 17.625 15.75 13.6875 15.75 10.125C15.75 8.05393 14.0711 6.375 12 6.375C9.92893 6.375 8.25 8.05393 8.25 10.125C8.25 13.6875 12 17.625 12 17.625Z" stroke="white"/>
<path fill-rule="evenodd" clip-rule="evenodd" d="M12 10.75C12.3452 10.75 12.625 10.4702 12.625 10.125C12.625 9.77982 12.3452 9.5 12 9.5C11.6548 9.5 11.375 9.77982 11.375 10.125C11.375 10.4702 11.6548 10.75 12 10.75Z" stroke="white"/>
</svg>
