<svg width="96" height="30" viewBox="0 0 96 30" fill="none" xmlns="http://www.w3.org/2000/svg">
<path d="M6.29473 3.48421H4.32806V0.979958H1.42908V3.48421H0V5.66182H1.42908V11.106C1.41546 13.1542 2.81051 14.1683 4.91329 14.0797C5.66185 14.0525 6.19266 13.9029 6.48528 13.8076L6.02933 11.6503C5.88643 11.6775 5.58019 11.7457 5.30799 11.7457C4.72956 11.7457 4.32806 11.5279 4.32806 10.7248V5.66182H6.29473V3.48421ZM15.3806 14.1411C18.5519 14.1411 20.5253 11.9702 20.5253 8.75141C20.5253 5.51215 18.5519 3.34815 15.3806 3.34815C12.2095 3.34815 10.236 5.51215 10.236 8.75141C10.236 11.9702 12.2095 14.1411 15.3806 14.1411ZM15.3942 11.8953C13.9311 11.8953 13.1826 10.5548 13.1826 8.731C13.1826 6.90723 13.9311 5.55977 15.3942 5.55977C16.8301 5.55977 17.5787 6.90723 17.5787 8.731C17.5787 10.5548 16.8301 11.8953 15.3942 11.8953ZM24.9974 13.9369H27.8963V10.616L28.6789 9.72451L31.5302 13.9369H34.9261L30.8498 8.0096L34.7287 3.48421H31.401L28.0529 7.45157H27.8963V0H24.9974V13.9369ZM45.441 9.48631C45.4478 10.8882 44.4883 11.6231 43.4472 11.6231C42.3515 11.6231 41.6438 10.8542 41.637 9.62247V3.48421H38.738V10.1396C38.7448 12.5826 40.1739 14.0729 42.2767 14.0729C43.8486 14.0729 44.9783 13.2632 45.4478 12.0383H45.5567V13.9369H48.34V3.48421H45.441V9.48631ZM58.8056 3.48421H56.839V0.979958H53.94V3.48421H52.5109V5.66182H53.94V11.106C53.9264 13.1542 55.3215 14.1683 57.4242 14.0797C58.1727 14.0525 58.7036 13.9029 58.9962 13.8076L58.5403 11.6503C58.3973 11.6775 58.0911 11.7457 57.8189 11.7457C57.2405 11.7457 56.839 11.5279 56.839 10.7248V5.66182H58.8056V3.48421ZM67.9324 14.1411C70.5184 14.1411 72.2605 12.882 72.6688 10.9426L69.9875 10.7656C69.6949 11.5619 68.9464 11.977 67.98 11.977C66.5306 11.977 65.6119 11.0175 65.6119 9.4591V9.4523H72.73V8.65607C72.73 5.10378 70.5796 3.34815 67.8167 3.34815C64.7408 3.34815 62.7469 5.53256 62.7469 8.75821C62.7469 12.0723 64.7136 14.1411 67.9324 14.1411ZM65.6119 7.65575C65.6731 6.46485 66.5782 5.51215 67.8643 5.51215C69.1233 5.51215 69.9943 6.41043 70.0011 7.65575H65.6119ZM80.1078 7.89395C80.1146 6.54649 80.9177 5.75715 82.0881 5.75715C83.2518 5.75715 83.9527 6.51927 83.9459 7.79871V13.9369H86.8449V7.28149C86.8449 4.84527 85.4158 3.34815 83.2382 3.34815C81.6867 3.34815 80.5638 4.11027 80.0942 5.32838H79.9718V3.48421H77.2089V13.9369H80.1078V7.89395ZM93.4112 14.1138C94.2823 14.1138 95.0377 13.3856 95.0445 12.4806C95.0377 11.5891 94.2823 10.861 93.4112 10.861C92.5129 10.861 91.7712 11.5891 91.778 12.4806C91.7712 13.3856 92.5129 14.1138 93.4112 14.1138Z" fill="#050038"/>
<path d="M28.4968 20.6109L27.2659 21.1557C27.709 22.2879 28.1817 23.4308 28.6347 24.3387C27.6893 25.0971 27 25.9837 27 27.1587C27 28.9959 28.487 29.5834 30.4466 29.5834C31.7268 29.5834 32.7706 29.4765 33.6077 29.3163L33.6274 27.7782C32.7509 28.0132 31.4215 28.1734 30.4072 28.1734C29.0384 28.1734 28.359 27.7675 28.359 26.9984C28.359 26.2507 28.9104 25.6419 29.7278 25.0544C30.6239 24.4242 31.8647 23.8047 32.4752 23.4735C32.8396 23.2706 33.1547 23.089 33.4501 22.8967L32.7706 21.6577C32.5146 21.8927 32.229 22.0743 31.8548 22.3093C31.392 22.5977 30.5353 23.057 29.7278 23.5697C29.3339 22.7472 28.871 21.7218 28.4968 20.6109ZM43.354 21.4227L42.2019 20.3225C42.0443 20.5789 41.7292 20.9207 41.4436 21.2304C40.7838 21.9247 39.4347 23.1104 38.6568 23.794C37.672 24.6912 37.5932 25.2574 38.578 26.1653C39.4741 26.9984 40.9217 28.3336 41.5224 29.0066C41.8178 29.327 42.1034 29.6688 42.3791 29.9999L43.5313 28.857C42.5268 27.7995 40.6558 26.1973 39.9172 25.5244C39.3855 25.0224 39.3756 24.9049 39.8976 24.4135C40.5573 23.8047 41.8572 22.7152 42.4973 22.1597C42.7238 21.9568 43.0488 21.6791 43.354 21.4227ZM47.7039 21.7752L47.832 23.2386C48.9743 22.9715 50.9832 22.7365 51.9088 22.6297C51.249 23.1745 50.4514 24.3922 50.4514 25.9303C50.4514 28.2375 52.4012 29.4445 54.4593 29.594L54.9222 28.1307C53.2579 28.0345 51.7414 27.3936 51.7414 25.6419C51.7414 24.3708 52.6277 22.9822 53.8192 22.6404C54.3412 22.5122 55.1881 22.5122 55.7198 22.5015L55.71 21.1343C55.0206 21.1557 53.9374 21.2304 52.9231 21.3159C51.121 21.4868 49.4962 21.647 48.6788 21.7218C48.4819 21.7431 48.0978 21.7645 47.7039 21.7752ZM63.8637 21.1877L62.4654 20.5789C62.298 21.0275 62.1109 21.38 61.9828 21.6684C61.4609 22.6831 59.4422 27.0412 58.7135 29.1775L60.102 29.6902C60.2497 29.124 60.5943 27.9277 60.8504 27.3082C61.2049 26.443 61.7563 25.6953 62.426 25.6953C62.7805 25.6953 62.9774 25.9196 63.007 26.2935C63.0365 26.7314 63.0267 27.6073 63.0661 28.1734C63.1055 28.9531 63.6175 29.6581 64.7106 29.6581C66.2173 29.6581 67.1331 28.4404 67.6452 26.6139L66.5816 25.6739C66.2961 26.9984 65.7741 28.1948 64.9174 28.1948C64.5924 28.1948 64.3167 28.0345 64.2773 27.618C64.2281 27.1693 64.2576 26.3148 64.2379 25.8342C64.1985 24.9476 63.7554 24.4456 63.0168 24.4456C62.6426 24.4456 62.2487 24.5417 61.8844 24.766C62.3767 23.826 63.0661 22.4588 63.5486 21.6897C63.6569 21.5188 63.7652 21.3373 63.8637 21.1877Z" fill="#050038"/>
</svg>
