<svg width="50" height="50" viewBox="0 0 50 50" fill="none" xmlns="http://www.w3.org/2000/svg">
<path d="M33.5714 25V35.7143H16.4285V25M24.9999 35.7143V19.6428M24.9999 19.6428H20.1785C19.4681 19.6428 18.7868 19.3606 18.2845 18.8583C17.7821 18.356 17.4999 17.6747 17.4999 16.9643C17.4999 16.2539 17.7821 15.5726 18.2845 15.0702C18.7868 14.5679 19.4681 14.2857 20.1785 14.2857C23.9285 14.2857 24.9999 19.6428 24.9999 19.6428ZM24.9999 19.6428H29.8214C30.5318 19.6428 31.2131 19.3606 31.7154 18.8583C32.2177 18.356 32.4999 17.6747 32.4999 16.9643C32.4999 16.2539 32.2177 15.5726 31.7154 15.0702C31.2131 14.5679 30.5318 14.2857 29.8214 14.2857C26.0714 14.2857 24.9999 19.6428 24.9999 19.6428ZM14.2856 19.6428H35.7142V25H14.2856V19.6428Z" stroke="#828282" stroke-width="2" stroke-linecap="round" stroke-linejoin="round"/>
<circle cx="25" cy="25" r="24" stroke="#828282" stroke-width="2"/>
</svg>
