<svg width="24" height="24" viewBox="0 0 24 24" fill="none" xmlns="http://www.w3.org/2000/svg">
<rect width="24" height="24" rx="12" fill="#1F1E2C"/>
<path d="M12.0001 5.71429V18.2857M14.8572 8.00001H10.5715C10.0411 8.00001 9.53239 8.21072 9.15732 8.5858C8.78225 8.96087 8.57153 9.46958 8.57153 10C8.57153 10.5304 8.78225 11.0391 9.15732 11.4142C9.53239 11.7893 10.0411 12 10.5715 12H13.4287C13.9591 12 14.4678 12.2107 14.8429 12.5858C15.218 12.9609 15.4287 13.4696 15.4287 14C15.4287 14.5304 15.218 15.0391 14.8429 15.4142C14.4678 15.7893 13.9591 16 13.4287 16H8.57153" stroke="white" stroke-linecap="round" stroke-linejoin="round"/>
</svg>
