<svg width="16" height="16" viewBox="0 0 16 16" fill="none" xmlns="http://www.w3.org/2000/svg">
<path d="M8 0L9.33064 1.73986L11.2539 0.691637L11.7618 2.82229L13.9452 2.64696L13.5426 4.8L15.6085 5.52786L14.3649 7.33102L15.9562 8.83623L14.0868 9.97771L14.9282 12L12.7561 12.2824L12.7023 14.4721L10.6031 13.8467L9.66329 15.8252L8 14.4L6.33671 15.8252L5.39689 13.8467L3.29772 14.4721L3.24387 12.2824L1.0718 12L1.91324 9.97771L0.0438247 8.83623L1.63506 7.33102L0.391548 5.52786L2.45744 4.8L2.05484 2.64696L4.23817 2.82229L4.74611 0.691637L6.66936 1.73986L8 0Z" fill="#2D9CDB"/>
<path d="M10.8 6L7.5 9.3L6 7.8" stroke="white" stroke-linecap="round" stroke-linejoin="round"/>
</svg>
