<svg width="32" height="32" viewBox="0 0 32 32" fill="none" xmlns="http://www.w3.org/2000/svg">
<rect width="32" height="32" rx="6" fill="#7B798E"/>
<rect width="20" height="20" transform="translate(6 6)" fill="#7B798E"/>
<path d="M9.08578 11.6563L16.0001 15.1135M16.0001 15.1135L22.9144 11.6563M16.0001 15.1135L16.0001 23.5135M12.4286 9.75635L19.5715 13.3278M16.6358 8.29206L22.3501 11.1492C22.5881 11.2675 22.7884 11.4498 22.9284 11.6757C23.0685 11.9015 23.1428 12.162 23.1429 12.4278V19.2349C23.1428 19.5007 23.0685 19.7612 22.9284 19.987C22.7884 20.2129 22.5881 20.3952 22.3501 20.5135L16.6358 23.3706C16.4373 23.47 16.2184 23.5217 15.9965 23.5217C15.7746 23.5217 15.5557 23.47 15.3572 23.3706L9.64293 20.5135C9.40516 20.3937 9.20561 20.2098 9.06678 19.9826C8.92794 19.7555 8.85536 19.494 8.85721 19.2278V12.4278C8.85735 12.162 8.93163 11.9015 9.0717 11.6757C9.21176 11.4498 9.41206 11.2675 9.65007 11.1492L15.3644 8.29206C15.5619 8.1939 15.7795 8.14282 16.0001 8.14282C16.2207 8.14282 16.4382 8.1939 16.6358 8.29206Z" stroke="white" stroke-linecap="round" stroke-linejoin="round"/>
</svg>
