<svg width="86" height="86" viewBox="0 0 86 86" fill="none" xmlns="http://www.w3.org/2000/svg">
<path d="M84.5 43C84.5 37.5501 83.4266 32.1537 81.341 27.1186C79.2554 22.0836 76.1986 17.5087 72.3449 13.6551C68.4913 9.80144 63.9164 6.74457 58.8814 4.659C53.8464 2.57343 48.4499 1.5 43 1.5C37.5501 1.5 32.1537 2.57343 27.1186 4.659C22.0836 6.74457 17.5087 9.80143 13.6551 13.6551C9.80144 17.5087 6.74457 22.0836 4.659 27.1186C2.57343 32.1536 1.5 37.5501 1.5 43C1.5 48.4499 2.57343 53.8463 4.659 58.8814C6.74457 63.9164 9.80144 68.4913 13.6551 72.3449C17.5087 76.1986 22.0836 79.2554 27.1186 81.341C32.1536 83.4266 37.5501 84.5 43 84.5C48.4499 84.5 53.8463 83.4266 58.8814 81.341C63.9164 79.2554 68.4913 76.1986 72.3449 72.3449C76.1986 68.4913 79.2554 63.9164 81.341 58.8814C83.4266 53.8464 84.5 48.4499 84.5 43L84.5 43Z" stroke="white" stroke-width="3" stroke-linecap="round"/>
<circle cx="43" cy="43" r="40" fill="#7B798E"/>
<circle cx="43" cy="30" r="15" fill="white"/>
<path fill-rule="evenodd" clip-rule="evenodd" d="M20.9941 63.0785C25.6237 55.8165 33.7493 51 42.9999 51C52.2501 51 60.3755 55.8162 65.0052 63.0779C60.3756 70.3399 52.25 75.1564 42.9995 75.1564C33.7492 75.1564 25.6238 70.3401 20.9941 63.0785Z" fill="white"/>
</svg>
