<svg width="24" height="24" viewBox="0 0 24 24" fill="none" xmlns="http://www.w3.org/2000/svg">
<circle cx="12" cy="12" r="12" fill="white"/>
<path d="M19.3482 7.55158L19.3269 7.05047L18.8279 6.99923C16.9114 6.8024 15.2638 6.08722 14.2191 5.52191C13.0749 4.90275 12.3813 4.32187 12.3749 4.31651L12.0003 4L11.6255 4.31605C11.6186 4.32185 10.925 4.90275 9.78078 5.52189C8.73607 6.0872 7.08848 6.80239 5.17197 6.99921L4.67302 7.05045L4.65172 7.55157C4.6479 7.64128 4.56775 9.77852 5.39098 12.3665C5.87675 13.8937 6.57828 15.2621 7.47607 16.4337C8.60343 17.9049 10.0414 19.0646 11.75 19.8806L11.9999 20L12.2499 19.8806C13.9585 19.0646 15.3964 17.905 16.5238 16.4337C17.4216 15.2621 18.1231 13.8937 18.6089 12.3665C19.4321 9.77856 19.352 7.64131 19.3482 7.55158ZM11.9999 18.7106C10.5745 17.9863 9.36813 16.9901 8.41084 15.7463C7.5954 14.6869 6.95527 13.4438 6.50818 12.0517C5.96175 10.3501 5.83921 8.83257 5.81441 8.08741C6.58313 7.97327 7.36027 7.78121 8.13162 7.51446C8.88566 7.25369 9.63616 6.92121 10.3622 6.52627C11.099 6.12555 11.6596 5.74282 11.9999 5.49254C12.3402 5.7428 12.9009 6.12555 13.6376 6.52627C14.3637 6.92122 15.1142 7.25369 15.8682 7.51446C16.6398 7.7813 17.4172 7.97336 18.1861 8.0875C18.1622 8.82534 18.0421 10.3215 17.5034 12.0149C17.0584 13.4139 16.419 14.6633 15.603 15.7282C14.6434 16.9804 13.4323 17.9828 11.9999 18.7106Z" fill="#2F80ED"/>
<path d="M15.1616 9.36124L14.3523 10.1705L11.3361 13.1868L9.80746 11.6581L9.59959 11.4503L9.18945 11.8604V11.8604L8.7793 12.2706L11.3361 14.8274L15.9819 10.1815L15.1616 9.36124Z" fill="#2F80ED"/>
</svg>
