<svg width="33" height="33" viewBox="0 0 33 33" fill="none" xmlns="http://www.w3.org/2000/svg">
<path d="M32.2317 28.836C29.7175 28.4196 25.2476 28.0726 20.4984 27.795C20.5333 27.7256 20.6032 27.6215 20.7079 27.5521L21.2317 26.7193C23.1175 23.4227 23.8508 18.8076 23.746 15.1641C23.5365 8.98745 20.0095 -0.0346 11.0349 9.97945e-05C5.16825 0.0347996 0 5.10103 0 10.9307C0 12.4922 0.384127 14.0537 1.1873 15.6499C1.60635 16.6215 2.30476 17.4543 2.82857 18.2524L3.14286 18.5647V19.1546C3.07302 20.5079 3.17778 21.8959 3.31746 23.2492L3.5619 24.2555C3.84127 25.366 4.19048 26.4417 4.67937 27.4827C4.53968 27.4827 4.4 27.4827 4.26032 27.5174C3.94603 27.7256 3.77143 28.6625 4.26032 28.6278C4.53968 28.5931 4.88889 28.5931 5.27302 28.5931C6.28571 30.2934 7.82222 31.7161 9.91746 32.5489C9.95238 32.5489 9.91746 32.5836 9.95238 32.5836C10.7905 32.8612 11.6635 33 12.4667 33C15.4 33 17.9143 31.2997 19.7651 28.8707C24.7238 29.0789 29.6127 29.3912 32.6159 29.8076L32.7556 29.9811C32.9302 29.9464 32.9651 29.9117 33 29.7729C32.9651 29.4259 32.6857 28.9748 32.2317 28.836ZM19.2762 27.2398C19.2762 27.3092 19.1714 27.4133 19.1714 27.5174L18.9968 27.7256C15.2254 27.5521 11.3492 27.4133 8.27619 27.4133C7.36825 27.4133 6.53016 27.4133 5.7619 27.448C5.37778 26.5111 4.99365 25.5395 4.85397 24.4637L4.64444 23.4574C4.46984 22.5899 4.36508 21.653 4.33016 20.6814L4.36508 19.7445V19.5016C6.18095 20.6467 8.52064 21.1672 10.3365 21.3407C13.8984 21.653 16.8667 19.7792 17.8444 17.9748C18.0889 17.5584 17.6698 17.4543 17.4952 17.6278C16.1683 19.0158 14.3175 20.5426 11.2095 20.5426C8.48571 20.5426 5.93651 19.5363 4.43492 18.2524C4.71429 15.5805 5.30794 13.0127 6.32063 11.0348C7.29841 9.02216 8.6254 7.80765 9.95238 7.70355C10.2667 7.70355 10.4063 7.49535 10.2667 7.18304C8.90476 6.10734 6.21587 8.77925 5.34286 10.4102C4.4 12.1799 3.49206 14.5395 3.31746 17.0032V17.1767C2.47937 15.9275 2.2 15.3029 1.92063 14.6783C1.46667 13.4985 1.25714 12.3534 1.25714 11.2083C1.25714 5.65623 6.25079 1.00641 11.4889 1.04111C19.5905 1.07581 22.5238 9.88966 22.454 15.3376C22.419 18.9811 21.7206 23.1104 19.8349 26.3723L19.2762 27.2398ZM11.9429 31.959C11.2444 31.959 10.6857 31.8549 9.9873 31.612V31.6467L9.67302 31.5079C8.34603 30.8486 7.22857 29.8423 6.39048 28.5931H7.99683C10.8254 28.5931 14.3873 28.6625 18.0889 28.8013C16.3079 30.7792 14.1429 31.959 11.9429 31.959Z" fill="white"/>
</svg>
