<svg width="184" height="33" viewBox="0 0 184 33" fill="none" xmlns="http://www.w3.org/2000/svg">
<rect width="184" height="33" rx="16.5" fill="#30426D"/>
<path d="M27.135 13.868C27.119 13.8476 27.0986 13.8311 27.0753 13.8197C27.052 13.8084 27.0264 13.8025 27.0005 13.8025C26.9745 13.8025 26.949 13.8084 26.9257 13.8197C26.9024 13.8311 26.8819 13.8476 26.866 13.868L24.4747 16.8934C24.455 16.9186 24.4428 16.9488 24.4394 16.9806C24.4361 17.0124 24.4417 17.0445 24.4558 17.0732C24.4698 17.1019 24.4916 17.1261 24.5188 17.143C24.5459 17.1599 24.5772 17.1689 24.6092 17.1688H26.187V22.3442C26.187 22.4381 26.2639 22.515 26.3578 22.515H27.6388C27.7328 22.515 27.8097 22.4381 27.8097 22.3442V17.1709H29.3917C29.5348 17.1709 29.6138 17.0065 29.5262 16.8955L27.135 13.868Z" fill="white"/>
<path d="M33.3919 11.8982C32.414 9.31911 29.9224 7.48511 27.0038 7.48511C24.0852 7.48511 21.5936 9.31698 20.6158 11.8961C18.7861 12.3765 17.4346 14.044 17.4346 16.0253C17.4346 18.3845 19.3454 20.2954 21.7025 20.2954H22.5587C22.6526 20.2954 22.7295 20.2185 22.7295 20.1246V18.8435C22.7295 18.7496 22.6526 18.6727 22.5587 18.6727H21.7025C20.983 18.6727 20.3062 18.3866 19.8023 17.8678C19.3006 17.3512 19.0337 16.6551 19.0572 15.9335C19.0764 15.3698 19.2686 14.8403 19.6166 14.3941C19.9731 13.9393 20.4727 13.6084 21.0279 13.4611L21.837 13.2497L22.1338 12.4683C22.3174 11.9815 22.5736 11.5267 22.896 11.1147C23.2143 10.7063 23.5913 10.3472 24.0148 10.0493C24.8923 9.43227 25.9256 9.10561 27.0038 9.10561C28.082 9.10561 29.1154 9.43227 29.9929 10.0493C30.4178 10.3482 30.7935 10.7069 31.1117 11.1147C31.4341 11.5267 31.6903 11.9836 31.8739 12.4683L32.1685 13.2476L32.9756 13.4611C34.1328 13.7728 34.9419 14.8254 34.9419 16.0253C34.9419 16.732 34.6665 17.3981 34.1669 17.8977C33.9219 18.1442 33.6304 18.3396 33.3094 18.4726C32.9884 18.6056 32.6441 18.6737 32.2966 18.6727H31.4405C31.3465 18.6727 31.2697 18.7496 31.2697 18.8435V20.1246C31.2697 20.2185 31.3465 20.2954 31.4405 20.2954H32.2966C34.6537 20.2954 36.5646 18.3845 36.5646 16.0253C36.5646 14.0461 35.2174 12.3808 33.3919 11.8982Z" fill="white"/>
<path d="M45.6318 17.2197V11.9014H47.1836V17.2471C47.1836 18.0081 47.4092 18.6165 47.8604 19.0723C48.307 19.5371 48.8994 19.7695 49.6377 19.7695C50.3714 19.7695 50.9639 19.5371 51.415 19.0723C51.8617 18.612 52.085 18.0036 52.085 17.2471V11.9014H53.5957V17.2197C53.5957 18.4001 53.2357 19.3548 52.5156 20.084C51.791 20.8086 50.8294 21.1709 49.6309 21.1709C48.4323 21.1709 47.4661 20.8086 46.7324 20.084C45.9987 19.3594 45.6318 18.4046 45.6318 17.2197ZM59.4199 13.8291C60.4362 13.8291 61.277 14.1823 61.9424 14.8887C62.6032 15.5905 62.9336 16.4609 62.9336 17.5C62.9336 18.5391 62.6055 19.4095 61.9492 20.1113C61.2839 20.8177 60.4408 21.1709 59.4199 21.1709C58.5312 21.1709 57.7702 20.8906 57.1367 20.3301V23.126H55.6055V14H56.9521V14.8271C57.6175 14.1618 58.4401 13.8291 59.4199 13.8291ZM59.208 19.8379C59.8643 19.8379 60.3929 19.6123 60.7939 19.1611C61.1995 18.7145 61.4023 18.1608 61.4023 17.5C61.4023 16.8438 61.1995 16.2878 60.7939 15.832C60.3883 15.3854 59.8597 15.1621 59.208 15.1621C58.5882 15.1621 58.0687 15.3672 57.6494 15.7773C57.2301 16.1875 57.0205 16.7617 57.0205 17.5C57.0205 18.2383 57.2301 18.8125 57.6494 19.2227C58.0687 19.6328 58.5882 19.8379 59.208 19.8379ZM65.9961 21H64.4854V11.6211L65.8799 11.4502L65.9961 11.5391V21ZM71.3281 21.1709C70.2435 21.1709 69.3434 20.82 68.6279 20.1182C67.9079 19.4118 67.5479 18.5391 67.5479 17.5C67.5479 16.4609 67.9079 15.5882 68.6279 14.8818C69.3434 14.18 70.2435 13.8291 71.3281 13.8291C72.4264 13.8291 73.3333 14.18 74.0488 14.8818C74.7643 15.5837 75.1221 16.4564 75.1221 17.5C75.1221 18.5436 74.7643 19.4163 74.0488 20.1182C73.3333 20.82 72.4264 21.1709 71.3281 21.1709ZM71.3281 19.8379C71.9844 19.8379 72.529 19.6146 72.9619 19.168C73.3857 18.7214 73.5977 18.1654 73.5977 17.5C73.5977 16.8255 73.3857 16.2673 72.9619 15.8252C72.5335 15.3831 71.9889 15.1621 71.3281 15.1621C70.6764 15.1621 70.1387 15.3831 69.7148 15.8252C69.2865 16.2673 69.0723 16.8255 69.0723 17.5C69.0723 18.1699 69.2865 18.7259 69.7148 19.168C70.1387 19.6146 70.6764 19.8379 71.3281 19.8379ZM79.3262 13.8291C80.2741 13.8291 81.0306 14.0729 81.5957 14.5605C82.1517 15.0527 82.4297 15.7751 82.4297 16.7275V21H81.1172V20.2002C80.4746 20.8428 79.6999 21.1663 78.793 21.1709C77.9681 21.1709 77.305 20.9635 76.8037 20.5488C76.2979 20.1387 76.0449 19.5941 76.0449 18.915C76.0449 18.1995 76.3206 17.6276 76.8721 17.1992C77.4281 16.7663 78.1527 16.5498 79.0459 16.5498C79.652 16.5498 80.3037 16.6934 81.001 16.9805V16.5225C81.001 16.0895 80.8324 15.7318 80.4951 15.4492C80.1533 15.1758 79.7158 15.0391 79.1826 15.0391C78.4489 15.0391 77.7904 15.2715 77.207 15.7363H77.0977L76.5371 14.8818V14.7725C76.8926 14.4808 77.3232 14.2507 77.8291 14.082C78.335 13.9134 78.834 13.8291 79.3262 13.8291ZM79.0732 20.0498C79.5837 20.0498 80.0326 19.904 80.4199 19.6123C80.8073 19.3252 81.0055 18.9629 81.0146 18.5254L81.001 18.4365V18.0879C80.3675 17.7689 79.766 17.6094 79.1963 17.6094C78.6904 17.6094 78.2871 17.7256 77.9863 17.958C77.681 18.195 77.5283 18.5049 77.5283 18.8877C77.5283 19.234 77.6696 19.5143 77.9521 19.7285C78.2347 19.9427 78.6084 20.0498 79.0732 20.0498ZM89.6689 11.6211L91.0771 11.4502L91.1934 11.5391V21H89.8193V20.1045C89.1768 20.8154 88.3701 21.1709 87.3994 21.1709C86.3786 21.1709 85.5355 20.8177 84.8701 20.1113C84.2048 19.4049 83.8721 18.5345 83.8721 17.5C83.8721 16.4655 84.2048 15.5951 84.8701 14.8887C85.5355 14.1823 86.3786 13.8291 87.3994 13.8291C88.2653 13.8291 89.0218 14.1048 89.6689 14.6562V11.6211ZM87.6113 19.8379C88.2357 19.8379 88.7552 19.6328 89.1699 19.2227C89.5846 18.8125 89.792 18.2383 89.792 17.5C89.792 16.7754 89.5824 16.2035 89.1631 15.7842C88.7484 15.3695 88.2311 15.1621 87.6113 15.1621C86.9596 15.1621 86.4287 15.3854 86.0186 15.832C85.6038 16.2786 85.3965 16.8346 85.3965 17.5C85.3965 18.1654 85.6038 18.7191 86.0186 19.1611C86.4287 19.6123 86.9596 19.8379 87.6113 19.8379ZM99.1641 13.8291C100.112 13.8291 100.868 14.0729 101.434 14.5605C101.99 15.0527 102.268 15.7751 102.268 16.7275V21H100.955V20.2002C100.312 20.8428 99.5378 21.1663 98.6309 21.1709C97.806 21.1709 97.1429 20.9635 96.6416 20.5488C96.1357 20.1387 95.8828 19.5941 95.8828 18.915C95.8828 18.1995 96.1585 17.6276 96.71 17.1992C97.266 16.7663 97.9906 16.5498 98.8838 16.5498C99.4899 16.5498 100.142 16.6934 100.839 16.9805V16.5225C100.839 16.0895 100.67 15.7318 100.333 15.4492C99.9912 15.1758 99.5537 15.0391 99.0205 15.0391C98.2868 15.0391 97.6283 15.2715 97.0449 15.7363H96.9355L96.375 14.8818V14.7725C96.7305 14.4808 97.1611 14.2507 97.667 14.082C98.1729 13.9134 98.6719 13.8291 99.1641 13.8291ZM98.9111 20.0498C99.4215 20.0498 99.8704 19.904 100.258 19.6123C100.645 19.3252 100.843 18.9629 100.853 18.5254L100.839 18.4365V18.0879C100.205 17.7689 99.6038 17.6094 99.0342 17.6094C98.5283 17.6094 98.125 17.7256 97.8242 17.958C97.5189 18.195 97.3662 18.5049 97.3662 18.8877C97.3662 19.234 97.5075 19.5143 97.79 19.7285C98.0726 19.9427 98.4463 20.0498 98.9111 20.0498ZM107.825 13.8291C108.709 13.8291 109.413 14.1025 109.938 14.6494C110.462 15.1917 110.724 15.9049 110.724 16.7891V21H109.186V16.9121C109.186 16.3698 109.033 15.9391 108.728 15.6201C108.422 15.3057 108.01 15.1484 107.49 15.1484C106.971 15.1484 106.551 15.3079 106.232 15.627C105.904 15.946 105.74 16.3743 105.74 16.9121V21H104.195V14H105.542V14.9092C106.098 14.1891 106.859 13.8291 107.825 13.8291ZM116.097 21V11.9014H117.648V21H116.097ZM128.251 13.8291C129.103 13.8291 129.787 14.1003 130.302 14.6426C130.812 15.1803 131.067 15.8958 131.067 16.7891V21H129.543V16.9121C129.543 16.3698 129.399 15.9414 129.112 15.627C128.83 15.3079 128.44 15.1484 127.943 15.1484C127.433 15.1484 127.016 15.3102 126.692 15.6338C126.369 15.9665 126.207 16.3926 126.207 16.9121V21H124.669V16.9121C124.669 16.3698 124.525 15.9414 124.238 15.627C123.956 15.3079 123.568 15.1484 123.076 15.1484C122.57 15.1484 122.158 15.3079 121.839 15.627C121.515 15.9505 121.354 16.3789 121.354 16.9121V21H119.809V14H121.155V14.9229C121.693 14.1937 122.454 13.8291 123.438 13.8291C124.496 13.8291 125.275 14.237 125.776 15.0527C126.351 14.237 127.175 13.8291 128.251 13.8291ZM135.682 13.8291C136.63 13.8291 137.386 14.0729 137.951 14.5605C138.507 15.0527 138.785 15.7751 138.785 16.7275V21H137.473V20.2002C136.83 20.8428 136.055 21.1663 135.148 21.1709C134.324 21.1709 133.66 20.9635 133.159 20.5488C132.653 20.1387 132.4 19.5941 132.4 18.915C132.4 18.1995 132.676 17.6276 133.228 17.1992C133.784 16.7663 134.508 16.5498 135.401 16.5498C136.007 16.5498 136.659 16.6934 137.356 16.9805V16.5225C137.356 16.0895 137.188 15.7318 136.851 15.4492C136.509 15.1758 136.071 15.0391 135.538 15.0391C134.804 15.0391 134.146 15.2715 133.562 15.7363H133.453L132.893 14.8818V14.7725C133.248 14.4808 133.679 14.2507 134.185 14.082C134.69 13.9134 135.189 13.8291 135.682 13.8291ZM135.429 20.0498C135.939 20.0498 136.388 19.904 136.775 19.6123C137.163 19.3252 137.361 18.9629 137.37 18.5254L137.356 18.4365V18.0879C136.723 17.7689 136.121 17.6094 135.552 17.6094C135.046 17.6094 134.643 17.7256 134.342 17.958C134.036 18.195 133.884 18.5049 133.884 18.8877C133.884 19.234 134.025 19.5143 134.308 19.7285C134.59 19.9427 134.964 20.0498 135.429 20.0498ZM146.011 14.7725V14H147.323V19.9199C147.323 21.0182 146.984 21.8522 146.305 22.4219C145.626 22.987 144.762 23.2695 143.714 23.2695C143.021 23.2695 142.388 23.1419 141.813 22.8867C141.244 22.6315 140.779 22.2783 140.419 21.8271V21.6973L141.178 20.918H141.287C141.875 21.6836 142.684 22.0664 143.714 22.0664C144.352 22.0664 144.871 21.9001 145.272 21.5674C145.678 21.2301 145.881 20.7471 145.881 20.1182V19.585C145.266 20.1455 144.514 20.4258 143.625 20.4258C142.641 20.4258 141.832 20.1113 141.198 19.4824C140.56 18.8535 140.241 18.0674 140.241 17.124C140.241 16.1898 140.562 15.4059 141.205 14.7725C141.848 14.1436 142.659 13.8291 143.639 13.8291C144.591 13.8291 145.382 14.1436 146.011 14.7725ZM143.864 19.209C144.484 19.209 144.988 19.0153 145.375 18.6279C145.767 18.236 145.963 17.7393 145.963 17.1377C145.963 16.5316 145.767 16.0326 145.375 15.6406C144.983 15.2487 144.475 15.0527 143.851 15.0527C143.235 15.0527 142.734 15.2464 142.347 15.6338C141.959 16.0212 141.766 16.5179 141.766 17.124C141.766 17.7393 141.959 18.2406 142.347 18.6279C142.734 19.0153 143.24 19.209 143.864 19.209ZM155.964 17.876H150.379C150.434 18.5322 150.68 19.0404 151.117 19.4004C151.55 19.765 152.07 19.9473 152.676 19.9473C153.081 19.9473 153.485 19.8675 153.886 19.708C154.282 19.5531 154.606 19.3252 154.856 19.0244H154.986L155.752 19.7285V19.8379C155.406 20.2708 154.948 20.6012 154.378 20.8291C153.813 21.057 153.232 21.1709 152.635 21.1709C151.582 21.1709 150.691 20.8359 149.962 20.166C149.233 19.5052 148.868 18.6211 148.868 17.5137C148.868 16.4655 149.21 15.5882 149.894 14.8818C150.568 14.18 151.429 13.8291 152.478 13.8291C153.48 13.8291 154.312 14.1527 154.973 14.7998C155.665 15.4743 156.009 16.3379 156.005 17.3906C156.005 17.5911 155.991 17.7529 155.964 17.876ZM152.45 15.0254C151.903 15.0254 151.443 15.1872 151.069 15.5107C150.7 15.8389 150.475 16.2786 150.393 16.8301H154.494C154.417 16.3105 154.23 15.9049 153.934 15.6133C153.555 15.2214 153.061 15.0254 152.45 15.0254Z" fill="#FBF8EF"/>
</svg>
