<svg width="120" height="120" viewBox="0 0 120 120" fill="none" xmlns="http://www.w3.org/2000/svg">
<path d="M75 45H70C67.25 45 65 42.75 65 40V15H25C19.5 15 15 19.5 15 25V95C15 100.5 19.5 105 25 105H95C100.5 105 105 100.5 105 95V55H80C77.25 55 75 52.75 75 50V45ZM85 85H35C34.5357 85 34.0806 84.8707 33.6857 84.6266C33.2907 84.3825 32.9716 84.0333 32.7639 83.618C32.5563 83.2028 32.4684 82.7379 32.5101 82.2755C32.5518 81.8131 32.7214 81.3714 33 81L43 67.65C44 66.3 46 66.3 47 67.65L56.25 80L69.25 62.65C70.25 61.3 72.25 61.3 73.25 62.65L87 81C87.2786 81.3714 87.4482 81.8131 87.4899 82.2755C87.5316 82.7379 87.4437 83.2028 87.2361 83.618C87.0284 84.0333 86.7093 84.3825 86.3143 84.6266C85.9194 84.8707 85.4643 85 85 85Z" fill="#353B4F"/>
<path d="M95 25V20C95 17.25 92.75 15 90 15C87.25 15 85 17.25 85 20V25H80C77.25 25 75 27.25 75 30C75 32.75 77.25 35 80 35H85V40C85 42.75 87.25 45 90 45C92.75 45 95 42.75 95 40V35H100C102.75 35 105 32.75 105 30C105 27.25 102.75 25 100 25H95Z" fill="#353B4F"/>
</svg>
