<svg width="20" height="20" viewBox="0 0 20 20" fill="none" xmlns="http://www.w3.org/2000/svg">
<path d="M17.14 10.94C17.18 10.64 17.2 10.33 17.2 10C17.2 9.68 17.18 9.36 17.13 9.06L19.16 7.48C19.2474 7.40789 19.3072 7.30769 19.3291 7.19646C19.351 7.08524 19.3336 6.96986 19.28 6.87L17.36 3.55C17.3034 3.44956 17.2132 3.37237 17.1052 3.33211C16.9972 3.29184 16.8785 3.29109 16.77 3.33L14.38 4.29C13.88 3.91 13.35 3.59 12.76 3.35L12.4 0.809997C12.3823 0.695527 12.3241 0.591204 12.236 0.515973C12.1479 0.440742 12.0358 0.399592 11.92 0.399997H8.07996C7.83996 0.399997 7.64996 0.569997 7.60996 0.809997L7.24996 3.35C6.65996 3.59 6.11996 3.92 5.62996 4.29L3.23996 3.33C3.01996 3.25 2.76996 3.33 2.64996 3.55L0.739964 6.87C0.619964 7.08 0.659964 7.34 0.859964 7.48L2.88996 9.06C2.83996 9.36 2.79996 9.69 2.79996 10C2.79996 10.31 2.81996 10.64 2.86996 10.94L0.839964 12.52C0.752488 12.5921 0.692718 12.6923 0.670837 12.8035C0.648955 12.9148 0.666317 13.0301 0.719964 13.13L2.63996 16.45C2.75996 16.67 3.00996 16.74 3.22996 16.67L5.61996 15.71C6.11996 16.09 6.64996 16.41 7.23996 16.65L7.59996 19.19C7.64996 19.43 7.83996 19.6 8.07996 19.6H11.92C12.16 19.6 12.36 19.43 12.39 19.19L12.75 16.65C13.34 16.41 13.88 16.09 14.37 15.71L16.76 16.67C16.98 16.75 17.23 16.67 17.35 16.45L19.27 13.13C19.39 12.91 19.34 12.66 19.15 12.52L17.14 10.94ZM9.99996 13.6C8.01996 13.6 6.39996 11.98 6.39996 10C6.39996 8.02 8.01996 6.4 9.99996 6.4C11.98 6.4 13.6 8.02 13.6 10C13.6 11.98 11.98 13.6 9.99996 13.6Z" fill="#353B4F"/>
</svg>
