<svg width="20" height="20" viewBox="0 0 20 20" fill="none" xmlns="http://www.w3.org/2000/svg">
<path d="M17.1405 10.94C17.1805 10.64 17.2005 10.33 17.2005 10C17.2005 9.68003 17.1805 9.36003 17.1305 9.06003L19.1605 7.48003C19.2479 7.40793 19.3077 7.30772 19.3296 7.19649C19.3515 7.08527 19.3341 6.96989 19.2805 6.87003L17.3605 3.55003C17.3039 3.44959 17.2137 3.3724 17.1057 3.33214C16.9977 3.29187 16.8789 3.29112 16.7705 3.33003L14.3805 4.29003C13.8805 3.91003 13.3505 3.59003 12.7605 3.35003L12.4005 0.810027C12.3827 0.695557 12.3246 0.591234 12.2365 0.516003C12.1484 0.440772 12.0363 0.399623 11.9205 0.400027H8.08045C7.84045 0.400027 7.65045 0.570027 7.61045 0.810027L7.25045 3.35003C6.66045 3.59003 6.12045 3.92003 5.63045 4.29003L3.24045 3.33003C3.02045 3.25003 2.77045 3.33003 2.65045 3.55003L0.740452 6.87003C0.620452 7.08003 0.660452 7.34003 0.860452 7.48003L2.89045 9.06003C2.84045 9.36003 2.80045 9.69003 2.80045 10C2.80045 10.31 2.82045 10.64 2.87045 10.94L0.840452 12.52C0.752976 12.5921 0.693206 12.6923 0.671325 12.8036C0.649444 12.9148 0.666806 13.0302 0.720452 13.13L2.64045 16.45C2.76045 16.67 3.01045 16.74 3.23045 16.67L5.62045 15.71C6.12045 16.09 6.65045 16.41 7.24045 16.65L7.60045 19.19C7.65045 19.43 7.84045 19.6 8.08045 19.6H11.9205C12.1605 19.6 12.3605 19.43 12.3905 19.19L12.7505 16.65C13.3405 16.41 13.8805 16.09 14.3705 15.71L16.7605 16.67C16.9805 16.75 17.2305 16.67 17.3505 16.45L19.2705 13.13C19.3905 12.91 19.3405 12.66 19.1505 12.52L17.1405 10.94ZM10.0005 13.6C8.02045 13.6 6.40045 11.98 6.40045 10C6.40045 8.02003 8.02045 6.40003 10.0005 6.40003C11.9805 6.40003 13.6005 8.02003 13.6005 10C13.6005 11.98 11.9805 13.6 10.0005 13.6Z" fill="white"/>
</svg>
