<svg width="21" height="20" viewBox="0 0 21 20" fill="none" xmlns="http://www.w3.org/2000/svg">
<path d="M11.5 11H15.5C15.7652 11 16.0196 10.8946 16.2071 10.7071C16.3946 10.5196 16.5 10.2652 16.5 10C16.5 9.73478 16.3946 9.48043 16.2071 9.29289C16.0196 9.10536 15.7652 9 15.5 9H11.5V5C11.5 4.73478 11.3946 4.48043 11.2071 4.29289C11.0196 4.10536 10.7652 4 10.5 4C10.2348 4 9.98043 4.10536 9.79289 4.29289C9.60536 4.48043 9.5 4.73478 9.5 5V9H5.5C5.23478 9 4.98043 9.10536 4.79289 9.29289C4.60536 9.48043 4.5 9.73478 4.5 10C4.5 10.2652 4.60536 10.5196 4.79289 10.7071C4.98043 10.8946 5.23478 11 5.5 11H9.5V15C9.5 15.2652 9.60536 15.5196 9.79289 15.7071C9.98043 15.8946 10.2348 16 10.5 16C10.7652 16 11.0196 15.8946 11.2071 15.7071C11.3946 15.5196 11.5 15.2652 11.5 15V11ZM10.5 20C4.977 20 0.5 15.523 0.5 10C0.5 4.477 4.977 0 10.5 0C16.023 0 20.5 4.477 20.5 10C20.5 15.523 16.023 20 10.5 20Z" fill="#050038"/>
</svg>
