<svg width="20" height="18" viewBox="0 0 20 18" fill="none" xmlns="http://www.w3.org/2000/svg">
<path d="M19.8997 4.89L18.8497 1.52C18.6297 0.62 17.8497 0 16.9397 0H3.04971C2.14971 0 1.35971 0.63 1.14971 1.52L0.0997089 4.89C-0.360291 6.86 0.949709 8 0.999709 8.06V16C0.999709 17.1 1.89971 18 2.99971 18H16.9997C18.0997 18 18.9997 17.1 18.9997 16V8.06C20.1197 6.94 20.0897 5.65 19.8997 4.89ZM10.9997 2H12.9597L13.4997 5.52C13.5897 6.23 13.1097 7 12.2197 7C11.5497 7 10.9997 6.41 10.9997 5.69V2ZM4.43971 5.86C4.35971 6.51 3.83971 7 3.22971 7C2.29971 7 1.87971 6.03 2.03971 5.36L3.04971 2H5.01971L4.43971 5.86ZM8.99971 5.69C8.99971 6.41 8.44971 7 7.70971 7C6.95971 7 6.40971 6.3 6.48971 5.52L7.03971 2H8.99971V5.69ZM16.7697 7C16.1597 7 15.6297 6.51 15.5597 5.86L14.9797 2L16.9097 1.99L17.9597 5.36C18.1197 6.03 17.7097 7 16.7697 7Z" fill="white"/>
</svg>
