<svg width="20" height="18" viewBox="0 0 20 18" fill="none" xmlns="http://www.w3.org/2000/svg">
<path d="M19.9 4.89L18.85 1.52C18.63 0.62 17.85 0 16.94 0H3.04995C2.14995 0 1.35995 0.63 1.14995 1.52L0.0999531 4.89C-0.360047 6.86 0.949953 8 0.999953 8.06V16C0.999953 17.1 1.89995 18 2.99995 18H17C18.1 18 19 17.1 19 16V8.06C20.12 6.94 20.09 5.65 19.9 4.89ZM11 2H12.96L13.5 5.52C13.59 6.23 13.11 7 12.22 7C11.55 7 11 6.41 11 5.69V2ZM4.43995 5.86C4.35995 6.51 3.83995 7 3.22995 7C2.29995 7 1.87995 6.03 2.03995 5.36L3.04995 2H5.01995L4.43995 5.86ZM8.99995 5.69C8.99995 6.41 8.44995 7 7.70995 7C6.95995 7 6.40995 6.3 6.48995 5.52L7.03995 2H8.99995V5.69ZM16.77 7C16.16 7 15.63 6.51 15.56 5.86L14.98 2L16.91 1.99L17.96 5.36C18.12 6.03 17.71 7 16.77 7Z" fill="#050038"/>
</svg>
