<svg width="20" height="20" viewBox="0 0 20 20" fill="none" xmlns="http://www.w3.org/2000/svg">
<circle cx="10" cy="10" r="10" fill="url(#paint0_linear)"/>
<g clip-path="url(#clip0)">
<path d="M8.63867 10.3265L8.56836 10.3546L8.76623 10.8498L8.8365 10.8215C9.55396 10.5346 10.4464 10.5345 11.1638 10.8215L11.2341 10.8496L11.432 10.3545L11.3617 10.3265C10.5198 9.98949 9.48055 9.98962 8.63867 10.3265Z" fill="black"/>
<path d="M9.7334 6.33698H10.2665V9.26931H9.7334V6.33698Z" fill="black"/>
<path d="M17.4653 1.00545V5.89741C17.4653 5.98331 17.4515 6.06865 17.4244 6.15019L16.1566 9.95329L14.1786 13.0493C14.1174 13.1461 14.0182 13.2126 13.9054 13.2325C13.6675 13.2697 13.4444 13.1069 13.4073 12.8689C13.393 12.7774 13.4082 12.6838 13.4508 12.6015C13.9144 11.7596 14.767 10.1967 14.767 10.1967C14.7769 10.1785 14.7848 10.1592 14.7903 10.1392L15.0059 9.3487L15.8535 6.68437L15.3453 6.5227L14.4959 9.19302L14.4978 9.19362C14.4966 9.19732 14.4938 9.19992 14.4927 9.20362C14.4248 9.45313 14.1674 9.60028 13.9179 9.53234C13.9006 9.52764 13.8836 9.52191 13.8669 9.51524C13.6574 9.43137 13.5375 9.21008 13.5816 8.98876L13.9948 6.92253C13.9981 6.90527 13.9998 6.88771 13.9998 6.87011V6.08924C13.9968 4.95243 14.4486 3.86164 15.2546 3.05994C15.3046 3.00996 15.3327 2.94218 15.3327 2.87148V1.00545H14.7995V2.76278C14.6149 2.95781 14.4467 3.16784 14.2968 3.3907C12.8246 1.01814 9.70777 0.28829 7.33522 1.76055C6.67368 2.17108 6.11587 2.72882 5.70528 3.39037C5.55546 3.16764 5.38738 2.95771 5.20281 2.76278V1.00545H4.66966V2.87148C4.66966 2.94218 4.69779 3.00996 4.74777 3.05994C5.55379 3.86167 6.00561 4.95253 6.00254 6.08938V6.87011C6.00257 6.88767 6.00434 6.9052 6.00774 6.92243L6.42093 8.98866C6.46518 9.21008 6.34522 9.43154 6.13559 9.51544C5.89538 9.61148 5.6228 9.49462 5.52677 9.2544C5.52014 9.23784 5.51447 9.22088 5.50978 9.20368C5.50874 9.19992 5.50588 9.19732 5.50471 9.19369L5.50664 9.19309L4.65717 6.5227L4.14901 6.68437L4.99655 9.3487L5.21218 10.1392C5.21771 10.1592 5.22554 10.1785 5.2355 10.1967C5.2355 10.1967 6.08804 11.7595 6.55172 12.6015C6.65452 12.7879 6.6035 13.0172 6.41737 13.157C6.32576 13.2256 6.20977 13.253 6.09717 13.2326C5.98435 13.2127 5.88515 13.1462 5.82393 13.0494L3.84594 9.95339L2.57818 6.15036C2.55092 6.06882 2.53702 5.98338 2.53706 5.89741V1.00545H2.00391V5.89741C2.00384 6.04066 2.02697 6.18301 2.07238 6.31887L3.35058 10.1534C3.35748 10.1742 3.36691 10.1941 3.3787 10.2126L5.37436 13.3364C5.51621 13.5576 5.7435 13.71 6.00201 13.7572C6.05672 13.7672 6.11224 13.7722 6.16785 13.7722C6.37851 13.771 6.58304 13.7012 6.75045 13.5733C6.76105 13.5654 6.76921 13.5556 6.77941 13.5473C6.7986 13.569 6.81633 13.5926 6.83586 13.6139C6.9895 13.7825 7.15658 13.9383 7.33542 14.0799V15.0913C7.33512 15.6209 7.24968 16.147 7.08237 16.6494C7.03599 16.7892 7.11166 16.94 7.25141 16.9864C7.2785 16.9954 7.30686 17 7.33542 17H12.6669C12.8141 17 12.9335 16.8807 12.9335 16.7334C12.9335 16.7049 12.929 16.6765 12.92 16.6494C12.7527 16.147 12.6672 15.6209 12.6669 15.0913V14.0801C12.8451 13.9391 13.0116 13.7839 13.1647 13.616C13.1854 13.5934 13.2036 13.5693 13.2237 13.5463C13.2381 13.5583 13.25 13.5719 13.2652 13.5833C13.6825 13.8964 14.2745 13.8119 14.5876 13.3947C14.6018 13.3758 14.6153 13.3563 14.628 13.3364L16.6237 10.2126C16.6355 10.1941 16.6449 10.1742 16.6518 10.1534L17.9303 6.31873C17.9755 6.18288 17.9985 6.04059 17.9984 5.89741V1.00545H17.4653ZM13.9249 4.04494C13.8559 3.96004 13.7839 3.881 13.7114 3.80332L13.8435 3.6712C13.8928 3.75051 13.9396 3.83185 13.9844 3.91482C13.9629 3.95741 13.9452 4.00176 13.9249 4.04494ZM13.5327 3.22802L13.3296 3.43128C13.1305 3.25594 12.9177 3.0969 12.6931 2.95565L12.9877 2.66111C13.1855 2.83382 13.3679 3.02352 13.5327 3.22802ZM7.79643 2.68887L7.44062 2.33309C7.70153 2.15279 7.98076 2.00054 8.27366 1.87891L8.53358 2.3984C8.28033 2.47494 8.03381 2.57208 7.79643 2.68887ZM9.06599 2.27068L8.78422 1.70754C9.09458 1.6219 9.41318 1.56965 9.7346 1.55159V2.18937C9.51011 2.20127 9.28672 2.22843 9.06593 2.27068H9.06599ZM10.2677 1.54783C10.5901 1.56609 10.9095 1.6186 11.2208 1.70444L10.9367 2.27091C10.7158 2.22869 10.4923 2.20144 10.2677 2.18941V1.54783ZM11.729 1.87991C12.0225 2.00027 12.3024 2.15139 12.5641 2.33076L12.2059 2.6889C11.9686 2.57211 11.7222 2.47491 11.469 2.3983L11.729 1.87991ZM7.01816 2.66458L7.30919 2.95555C7.0845 3.0966 6.87168 3.25568 6.67274 3.43122L6.47245 3.23095C6.57351 3.10346 6.68141 2.98154 6.79567 2.86574C6.86708 2.79467 6.94312 2.73029 7.01816 2.66458ZM6.15845 3.6709L6.29101 3.80342C6.2183 3.88146 6.14612 3.96054 6.07748 4.04494C6.05729 4.00196 6.03969 3.9578 6.0182 3.91539C6.06292 3.83261 6.10877 3.75058 6.15842 3.67097L6.15845 3.6709ZM12.3104 16.4668H7.69196C7.80906 16.0177 7.8684 15.5554 7.86857 15.0913V14.452C7.99946 14.5276 8.13425 14.5963 8.27233 14.6578C9.37316 15.147 10.6297 15.147 11.7305 14.6578C11.8684 14.5963 12.003 14.5277 12.1337 14.4522V15.0914C12.1339 15.5555 12.1933 16.0177 12.3104 16.4668ZM12.7699 13.2579C12.4205 13.6475 11.9925 13.9586 11.514 14.1705C10.5506 14.5962 9.4524 14.5962 8.48899 14.1705C8.00952 13.9581 7.58063 13.6462 7.23082 13.2556C7.18164 13.202 7.13712 13.1458 7.0911 13.0906C7.17087 12.8425 7.14468 12.5724 7.01866 12.3442C6.63366 11.6448 5.97968 10.4472 5.77012 10.0634C6.31287 10.1693 6.83872 9.81514 6.94465 9.27236C6.96968 9.14407 6.96938 9.01211 6.94369 8.88396L6.76315 7.98093C6.99883 8.00399 7.23605 8.01985 7.47424 8.01985C7.88983 8.02019 8.30469 7.9847 8.71418 7.91375L8.62255 7.38867C7.97173 7.4992 7.30826 7.51379 6.65322 7.43199L6.53569 6.84369V6.38384C7.13749 6.06252 7.86437 5.98461 8.60269 6.17145L8.73391 5.65469C7.95904 5.45809 7.19003 5.51344 6.522 5.79964C6.49924 5.40185 6.42713 5.00845 6.30734 4.62844C6.44036 4.43761 6.58807 4.25744 6.74915 4.08963C6.76348 4.0736 6.77961 4.0576 6.796 4.04094C6.80983 4.02728 6.82309 4.01345 6.84992 3.98989C7.15268 3.69489 7.49616 3.44478 7.86987 3.24718C8.21932 3.05865 8.59299 2.91903 8.98042 2.83222C9.65293 2.67508 10.3527 2.67531 11.0251 2.83289C11.412 2.91986 11.7851 3.05958 12.134 3.24811C12.5089 3.44661 12.8533 3.69783 13.1568 3.99413C13.1924 4.02745 13.2252 4.0604 13.2622 4.09982C13.42 4.26443 13.5647 4.44117 13.6949 4.62841C13.5751 5.00845 13.503 5.40188 13.4803 5.79971C12.8123 5.51361 12.0436 5.45846 11.2683 5.65476L11.3996 6.17152C12.1379 5.98445 12.865 6.06232 13.4666 6.38384V6.84369L13.3439 7.45718C12.7774 7.50656 12.207 7.4835 11.6463 7.38857L11.5547 7.91389C11.9594 7.9836 12.3694 8.01849 12.7801 8.01815C12.9321 8.01815 13.0838 8.01229 13.2348 8.00282L13.0586 8.88402C12.9502 9.42641 13.3019 9.95399 13.8443 10.0625C13.9723 10.088 14.1041 10.0884 14.2322 10.0634C14.0226 10.4473 13.3689 11.6449 12.9837 12.3443C12.8578 12.572 12.832 12.8417 12.9126 13.0891C12.8658 13.1454 12.8208 13.2022 12.7698 13.2579H12.7699Z" fill="black"/>
</g>
<defs>
<linearGradient id="paint0_linear" x1="0" y1="10" x2="20" y2="10" gradientUnits="userSpaceOnUse">
<stop stop-color="#EBBBA7"/>
<stop offset="1" stop-color="#CFC7F8"/>
</linearGradient>
<clipPath id="clip0">
<rect width="16" height="16" fill="white" transform="translate(2 1)"/>
</clipPath>
</defs>
</svg>
